<svg xmlns="http://www.w3.org/2000/svg" xmlns:xlink="http://www.w3.org/1999/xlink" width="300" zoomAndPan="magnify" viewBox="0 0 224.87999 44.999999" height="60" preserveAspectRatio="xMidYMid meet" version="1.0"><defs><g/><clipPath id="a61864f277"><path d="M 187.074219 14 L 214.058594 14 L 214.058594 40.210938 L 187.074219 40.210938 Z M 187.074219 14 " clip-rule="nonzero"/></clipPath><clipPath id="f4ac1525de"><path d="M 187.074219 34 L 190 34 L 190 38 L 187.074219 38 Z M 187.074219 34 " clip-rule="nonzero"/></clipPath><clipPath id="a1d98be72a"><path d="M 198.792969 21.910156 L 205.050781 21.910156 L 205.050781 28.171875 L 198.792969 28.171875 Z M 198.792969 21.910156 " clip-rule="nonzero"/></clipPath><clipPath id="1a2fca4cc4"><path d="M 201.921875 21.910156 C 200.195312 21.910156 198.792969 23.3125 198.792969 25.042969 C 198.792969 26.769531 200.195312 28.171875 201.921875 28.171875 C 203.652344 28.171875 205.050781 26.769531 205.050781 25.042969 C 205.050781 23.3125 203.652344 21.910156 201.921875 21.910156 Z M 201.921875 21.910156 " clip-rule="nonzero"/></clipPath><clipPath id="0102bc436e"><path d="M 0.792969 0.910156 L 7.050781 0.910156 L 7.050781 7.171875 L 0.792969 7.171875 Z M 0.792969 0.910156 " clip-rule="nonzero"/></clipPath><clipPath id="bca772d2b4"><path d="M 3.921875 0.910156 C 2.195312 0.910156 0.792969 2.3125 0.792969 4.042969 C 0.792969 5.769531 2.195312 7.171875 3.921875 7.171875 C 5.652344 7.171875 7.050781 5.769531 7.050781 4.042969 C 7.050781 2.3125 5.652344 0.910156 3.921875 0.910156 Z M 3.921875 0.910156 " clip-rule="nonzero"/></clipPath><clipPath id="2c050d7aba"><rect x="0" width="8" y="0" height="8"/></clipPath><clipPath id="bc5eb73bce"><path d="M 198 20 L 209 20 L 209 30 L 198 30 Z M 198 20 " clip-rule="nonzero"/></clipPath><clipPath id="efa8e66fbc"><path d="M 198.792969 25.101562 L 203.503906 20.269531 L 208.335938 24.980469 L 203.625 29.808594 Z M 198.792969 25.101562 " clip-rule="nonzero"/></clipPath><clipPath id="bf057415bc"><path d="M 1 3 L 10.449219 3 L 10.449219 7 L 1 7 Z M 1 3 " clip-rule="nonzero"/></clipPath><clipPath id="844d2438d9"><path d="M 0.792969 5.101562 L 5.503906 0.269531 L 10.335938 4.980469 L 5.625 9.808594 Z M 0.792969 5.101562 " clip-rule="nonzero"/></clipPath><clipPath id="590e162d94"><path d="M 5.675781 0.09375 L 0.964844 4.925781 L 5.796875 9.632812 L 10.507812 4.804688 Z M 5.675781 0.09375 " clip-rule="nonzero"/></clipPath><clipPath id="2c6f4a0e20"><path d="M 5.675781 0.09375 L 0.964844 4.925781 L 5.796875 9.632812 L 10.507812 4.804688 Z M 5.675781 0.09375 " clip-rule="nonzero"/></clipPath><clipPath id="73669cd128"><rect x="0" width="11" y="0" height="10"/></clipPath><clipPath id="93b3af59e5"><rect x="0" width="157" y="0" height="23"/></clipPath><clipPath id="aa4195b4b6"><path d="M 0.269531 3 L 4 3 L 4 8 L 0.269531 8 Z M 0.269531 3 " clip-rule="nonzero"/></clipPath><clipPath id="c8140be5a6"><rect x="0" width="155" y="0" height="10"/></clipPath></defs><g clip-path="url(#a61864f277)"><path fill="#ffffff" d="M 213.828125 24.921875 L 202.640625 14.332031 C 202.449219 14.152344 202.222656 14.066406 201.964844 14.066406 C 201.703125 14.066406 201.476562 14.152344 201.289062 14.332031 L 194.195312 21.042969 L 194.023438 20.867188 C 193.925781 20.777344 193.8125 20.730469 193.675781 20.730469 C 193.542969 20.734375 193.429688 20.78125 193.335938 20.875 C 193.242188 20.96875 193.191406 21.082031 193.191406 21.21875 C 193.191406 21.351562 193.234375 21.464844 193.328125 21.5625 L 195.046875 23.285156 C 195.144531 23.378906 195.261719 23.425781 195.394531 23.425781 C 195.53125 23.425781 195.644531 23.378906 195.742188 23.28125 C 195.839844 23.1875 195.886719 23.070312 195.886719 22.9375 C 195.886719 22.800781 195.839844 22.683594 195.742188 22.589844 L 195.585938 22.433594 L 201.964844 16.402344 L 210.683594 24.652344 L 209.34375 24.652344 C 209.070312 24.652344 208.839844 24.75 208.648438 24.941406 C 208.457031 25.132812 208.359375 25.363281 208.359375 25.636719 L 208.359375 38.511719 L 205.421875 38.511719 L 205.421875 30.925781 C 205.421875 30.652344 205.328125 30.421875 205.136719 30.230469 C 204.941406 30.039062 204.710938 29.941406 204.441406 29.941406 L 200.121094 29.941406 C 199.847656 29.941406 199.617188 30.039062 199.425781 30.230469 C 199.234375 30.421875 199.136719 30.652344 199.136719 30.925781 L 199.136719 38.511719 L 193.558594 38.511719 L 193.558594 36.800781 L 195.863281 36.800781 C 196.132812 36.800781 196.367188 36.707031 196.558594 36.511719 C 196.75 36.320312 196.84375 36.089844 196.84375 35.820312 L 196.84375 30.925781 C 196.84375 30.652344 196.75 30.421875 196.558594 30.230469 C 196.367188 30.039062 196.132812 29.941406 195.863281 29.941406 L 194.324219 29.941406 L 194.324219 29.933594 C 194.328125 29.652344 194.207031 29.4375 193.96875 29.289062 L 193.96875 28.585938 L 194.679688 28.585938 C 194.789062 28.710938 194.929688 28.773438 195.09375 28.78125 C 195.257812 28.789062 195.402344 28.734375 195.523438 28.621094 C 195.640625 28.507812 195.699219 28.367188 195.699219 28.199219 C 195.699219 28.035156 195.640625 27.894531 195.523438 27.777344 C 195.402344 27.664062 195.257812 27.609375 195.09375 27.617188 C 194.929688 27.625 194.789062 27.691406 194.679688 27.816406 L 193.96875 27.816406 L 193.96875 27.574219 C 193.96875 27.410156 193.910156 27.265625 193.792969 27.148438 C 193.675781 27.03125 193.53125 26.972656 193.367188 26.972656 C 193.199219 26.972656 193.058594 27.03125 192.941406 27.148438 C 192.824219 27.265625 192.765625 27.410156 192.765625 27.574219 L 192.765625 27.816406 L 192.050781 27.816406 C 191.941406 27.691406 191.804688 27.625 191.640625 27.617188 C 191.472656 27.609375 191.332031 27.664062 191.210938 27.777344 C 191.089844 27.894531 191.03125 28.035156 191.03125 28.199219 C 191.03125 28.367188 191.089844 28.507812 191.210938 28.621094 C 191.332031 28.734375 191.472656 28.789062 191.640625 28.78125 C 191.804688 28.773438 191.941406 28.710938 192.050781 28.585938 L 192.765625 28.585938 L 192.765625 29.171875 L 191.582031 29.171875 C 191.375 29.171875 191.195312 29.246094 191.046875 29.394531 C 190.898438 29.542969 190.824219 29.722656 190.824219 29.933594 L 190.824219 29.941406 L 189.945312 29.941406 C 189.660156 29.941406 189.386719 29.996094 189.125 30.105469 C 188.863281 30.214844 188.628906 30.367188 188.429688 30.570312 C 188.230469 30.769531 188.074219 31 187.964844 31.265625 C 187.855469 31.527344 187.800781 31.800781 187.800781 32.082031 L 187.800781 32.832031 L 187.566406 32.832031 C 187.433594 32.832031 187.316406 32.878906 187.21875 32.972656 C 187.125 33.070312 187.078125 33.1875 187.078125 33.320312 C 187.078125 33.457031 187.125 33.574219 187.21875 33.667969 C 187.316406 33.765625 187.433594 33.8125 187.566406 33.8125 L 190.003906 33.8125 C 190.136719 33.8125 190.253906 33.765625 190.351562 33.667969 C 190.445312 33.574219 190.496094 33.457031 190.496094 33.320312 C 190.496094 33.1875 190.445312 33.070312 190.351562 32.972656 C 190.253906 32.878906 190.136719 32.832031 190.003906 32.832031 L 189.769531 32.832031 L 189.769531 32.082031 C 189.769531 31.964844 189.828125 31.910156 189.945312 31.910156 L 190.824219 31.910156 L 190.824219 31.917969 C 190.824219 32.125 190.898438 32.304688 191.046875 32.453125 C 191.195312 32.601562 191.375 32.675781 191.582031 32.675781 L 193.566406 32.675781 C 193.777344 32.675781 193.953125 32.601562 194.101562 32.453125 C 194.25 32.304688 194.324219 32.125 194.324219 31.917969 L 194.324219 31.910156 L 194.878906 31.910156 L 194.878906 34.835938 L 192.574219 34.835938 C 192.304688 34.835938 192.070312 34.933594 191.878906 35.125 C 191.6875 35.316406 191.589844 35.546875 191.589844 35.820312 L 191.589844 39.496094 C 191.589844 39.769531 191.6875 40 191.878906 40.191406 C 192.070312 40.382812 192.304688 40.480469 192.574219 40.480469 L 200.121094 40.480469 C 200.390625 40.480469 200.625 40.382812 200.816406 40.191406 C 201.007812 40 201.101562 39.769531 201.101562 39.496094 L 201.101562 31.910156 L 203.457031 31.910156 L 203.457031 39.496094 C 203.457031 39.769531 203.550781 40 203.746094 40.191406 C 203.9375 40.382812 204.167969 40.480469 204.441406 40.480469 L 209.34375 40.480469 C 209.617188 40.480469 209.847656 40.382812 210.039062 40.191406 C 210.230469 40 210.328125 39.769531 210.328125 39.496094 L 210.328125 26.621094 L 213.152344 26.621094 C 213.355469 26.617188 213.539062 26.5625 213.707031 26.449219 C 213.871094 26.335938 213.992188 26.1875 214.066406 26 C 214.140625 25.8125 214.15625 25.621094 214.113281 25.425781 C 214.070312 25.226562 213.976562 25.058594 213.828125 24.921875 Z M 213.828125 24.921875 " fill-opacity="1" fill-rule="nonzero"/></g><g clip-path="url(#f4ac1525de)"><path fill="#ffffff" d="M 188.800781 34.378906 C 188.796875 34.371094 188.792969 34.367188 188.785156 34.367188 C 188.777344 34.367188 188.773438 34.371094 188.769531 34.378906 C 188.671875 34.550781 188.53125 34.8125 188.382812 35.136719 C 187.96875 36.046875 187.753906 36.535156 188.03125 36.953125 C 188.050781 36.980469 188.324219 37.378906 188.769531 37.390625 C 188.773438 37.390625 188.78125 37.390625 188.785156 37.390625 C 188.792969 37.390625 188.796875 37.390625 188.800781 37.390625 C 189.246094 37.378906 189.519531 36.980469 189.539062 36.953125 C 189.816406 36.535156 189.601562 36.046875 189.1875 35.136719 C 189.042969 34.8125 188.898438 34.550781 188.800781 34.378906 Z M 188.800781 34.378906 " fill-opacity="1" fill-rule="nonzero"/></g><g clip-path="url(#a1d98be72a)"><g clip-path="url(#1a2fca4cc4)"><g transform="matrix(1, 0, 0, 1, 198, 21)"><g clip-path="url(#2c050d7aba)"><g clip-path="url(#0102bc436e)"><g clip-path="url(#bca772d2b4)"><path fill="#060e1c" d="M 0.792969 0.910156 L 7.050781 0.910156 L 7.050781 7.171875 L 0.792969 7.171875 Z M 0.792969 0.910156 " fill-opacity="1" fill-rule="nonzero"/></g></g></g></g></g></g><g clip-path="url(#bc5eb73bce)"><g clip-path="url(#efa8e66fbc)"><g transform="matrix(1, 0, 0, 1, 198, 20)"><g clip-path="url(#73669cd128)"><g clip-path="url(#bf057415bc)"><g clip-path="url(#844d2438d9)"><g clip-path="url(#590e162d94)"><g clip-path="url(#2c6f4a0e20)"><path fill="#ffffff" d="M 10 4.984375 C 10 4.820312 9.863281 4.6875 9.699219 4.6875 C 9.53125 4.691406 9.398438 4.828125 9.402344 4.992188 C 9.402344 5.15625 9.539062 5.289062 9.707031 5.289062 C 9.871094 5.285156 10.003906 5.148438 10 4.984375 Z M 2.851562 6.453125 C 2.367188 6.460938 1.941406 6.21875 1.691406 5.847656 C 1.652344 5.792969 1.691406 5.722656 1.757812 5.71875 L 2.648438 5.710938 C 2.753906 5.707031 2.839844 5.621094 2.839844 5.511719 L 2.832031 5.074219 L 2.828125 4.636719 C 2.828125 4.53125 2.738281 4.445312 2.632812 4.445312 L 1.742188 4.457031 C 1.675781 4.457031 1.636719 4.386719 1.671875 4.332031 C 1.914062 3.953125 2.335938 3.699219 2.816406 3.695312 C 3.199219 3.691406 3.550781 3.84375 3.800781 4.089844 C 4.121094 4.402344 4.554688 4.570312 4.996094 4.550781 L 9.65625 4.359375 C 9.667969 4.355469 9.679688 4.355469 9.695312 4.355469 C 10.042969 4.351562 10.328125 4.632812 10.332031 4.980469 C 10.335938 5.328125 10.058594 5.617188 9.710938 5.621094 C 9.695312 5.621094 9.683594 5.621094 9.671875 5.621094 L 5.011719 5.542969 C 4.566406 5.535156 4.136719 5.710938 3.828125 6.03125 C 3.578125 6.289062 3.234375 6.449219 2.851562 6.453125 " fill-opacity="1" fill-rule="nonzero"/></g></g></g></g></g></g></g></g><g transform="matrix(1, 0, 0, 1, 14, 11)"><g clip-path="url(#93b3af59e5)"><g fill="#ffffff" fill-opacity="1"><g transform="translate(0.71239, 15.332598)"><g><path d="M 0.46875 0 Z M 7.734375 -1.421875 L 7.734375 0 L 3.609375 0 C 2.835938 0 2.226562 -0.078125 1.78125 -0.234375 C 1.332031 -0.398438 1 -0.703125 0.78125 -1.140625 C 0.570312 -1.578125 0.46875 -2.207031 0.46875 -3.03125 C 0.46875 -3.820312 0.566406 -4.425781 0.765625 -4.84375 C 0.972656 -5.257812 1.300781 -5.550781 1.75 -5.71875 C 2.207031 -5.882812 2.84375 -5.96875 3.65625 -5.96875 C 4.09375 -5.96875 4.613281 -5.953125 5.21875 -5.921875 C 5.832031 -5.890625 6.265625 -5.851562 6.515625 -5.8125 L 6.515625 -1.421875 Z M 2.03125 -3.03125 C 2.03125 -2.59375 2.085938 -2.257812 2.203125 -2.03125 C 2.316406 -1.800781 2.488281 -1.640625 2.71875 -1.546875 C 2.957031 -1.460938 3.28125 -1.421875 3.6875 -1.421875 L 4.953125 -1.421875 L 4.953125 -4.484375 C 4.554688 -4.523438 4.144531 -4.546875 3.71875 -4.546875 C 3.289062 -4.546875 2.957031 -4.5 2.71875 -4.40625 C 2.476562 -4.320312 2.300781 -4.171875 2.1875 -3.953125 C 2.082031 -3.742188 2.03125 -3.4375 2.03125 -3.03125 Z M 2.3125 -8.390625 L 3.515625 -8.390625 L 3.515625 -6.9375 L 2.3125 -6.9375 Z M 4.09375 -8.390625 L 5.296875 -8.390625 L 5.296875 -6.9375 L 4.09375 -6.9375 Z M 4.09375 -8.390625 "/></g></g></g><g fill="#ffffff" fill-opacity="1"><g transform="translate(8.444173, 15.332598)"><g><path d="M 0 0 Z M 5.0625 -1.421875 L 5.0625 0 L 0 0 L 0 -1.421875 L 1.75 -1.421875 L 1.75 -5.84375 L 3.3125 -5.84375 L 3.3125 -1.421875 Z M 1.015625 0.9375 L 2.21875 0.9375 L 2.21875 2.40625 L 1.015625 2.40625 Z M 2.796875 0.9375 L 4 0.9375 L 4 2.40625 L 2.796875 2.40625 Z M 2.796875 0.9375 "/></g></g></g><g fill="#ffffff" fill-opacity="1"><g transform="translate(13.509017, 15.332598)"><g><path d="M 3 -8.1875 L 3 0 L 0 0 L 0 -1.421875 L 1.4375 -1.421875 L 1.4375 -8.1875 Z M 3 -8.1875 "/></g></g></g><g fill="#ffffff" fill-opacity="1"><g transform="translate(17.450878, 15.332598)"><g><path d="M 0.46875 0 Z M 5.203125 0 L 3.28125 0 C 3.269531 0.914062 3.101562 1.628906 2.78125 2.140625 C 2.457031 2.648438 1.972656 2.90625 1.328125 2.90625 C 1.222656 2.90625 0.9375 2.890625 0.46875 2.859375 L 0.46875 1.453125 L 0.859375 1.46875 C 1.140625 1.46875 1.347656 1.359375 1.484375 1.140625 C 1.628906 0.921875 1.703125 0.609375 1.703125 0.203125 L 1.703125 -5.84375 L 3.28125 -5.84375 L 3.28125 -1.421875 L 5.203125 -1.421875 Z M 1.765625 -8.453125 L 3.21875 -8.453125 L 3.21875 -6.9375 L 1.765625 -6.9375 Z M 1.765625 -8.453125 "/></g></g></g><g fill="#ffffff" fill-opacity="1"><g transform="translate(22.656087, 15.332598)"><g><path d="M 0 0 Z M 5.0625 -1.421875 L 5.0625 0 L 0 0 L 0 -1.421875 L 1.75 -1.421875 L 1.75 -5.84375 L 3.3125 -5.84375 L 3.3125 -1.421875 Z M 1.78125 -8.453125 L 3.234375 -8.453125 L 3.234375 -6.9375 L 1.78125 -6.9375 Z M 1.78125 -8.453125 "/></g></g></g><g fill="#ffffff" fill-opacity="1"><g transform="translate(27.720931, 15.332598)"><g><path d="M 8.640625 -1.421875 L 8.640625 0 L 8 0 C 7.863281 0 7.734375 -0.046875 7.609375 -0.140625 C 7.492188 -0.234375 7.410156 -0.351562 7.359375 -0.5 L 7.359375 0 L 0 0 L 0 -1.421875 L 1.828125 -1.421875 C 1.710938 -1.984375 1.65625 -2.476562 1.65625 -2.90625 C 1.65625 -3.34375 1.695312 -3.804688 1.78125 -4.296875 C 1.875 -4.785156 1.972656 -5.210938 2.078125 -5.578125 C 2.296875 -5.671875 2.609375 -5.753906 3.015625 -5.828125 C 3.429688 -5.910156 3.894531 -5.953125 4.40625 -5.953125 C 5.207031 -5.953125 5.820312 -5.832031 6.25 -5.59375 C 6.6875 -5.363281 6.976562 -5.035156 7.125 -4.609375 C 7.28125 -4.179688 7.359375 -3.617188 7.359375 -2.921875 L 7.359375 -1.9375 C 7.410156 -1.78125 7.492188 -1.65625 7.609375 -1.5625 C 7.734375 -1.46875 7.863281 -1.421875 8 -1.421875 Z M 3.1875 -2.90625 C 3.1875 -2.644531 3.203125 -2.375 3.234375 -2.09375 C 3.265625 -1.820312 3.300781 -1.597656 3.34375 -1.421875 L 5.796875 -1.421875 L 5.796875 -2.953125 C 5.796875 -3.503906 5.6875 -3.90625 5.46875 -4.15625 C 5.257812 -4.414062 4.847656 -4.546875 4.234375 -4.546875 C 3.941406 -4.546875 3.644531 -4.515625 3.34375 -4.453125 C 3.238281 -3.867188 3.1875 -3.351562 3.1875 -2.90625 Z M 3.1875 -2.90625 "/></g></g></g><g fill="#ffffff" fill-opacity="1"><g transform="translate(36.353388, 15.332598)"><g><path d="M 3 -8.1875 L 3 0 L 0 0 L 0 -1.421875 L 1.4375 -1.421875 L 1.4375 -8.1875 Z M 3 -8.1875 "/></g></g></g><g fill="#ffffff" fill-opacity="1"><g transform="translate(40.295252, 15.332598)"><g><path d="M 0.9375 -8.1875 L 2.5 -8.1875 L 2.5 0 L 0.9375 0 Z M 0.9375 -8.1875 "/></g></g></g><g fill="#ffffff" fill-opacity="1"><g transform="translate(43.851115, 15.332598)"><g/></g></g><g fill="#ffffff" fill-opacity="1"><g transform="translate(46.424434, 15.332598)"><g><path d="M 0.625 0 Z M 9.03125 -5.84375 L 9.03125 0 L 3.984375 0 C 3.296875 0 2.71875 -0.046875 2.25 -0.140625 C 1.78125 -0.242188 1.390625 -0.457031 1.078125 -0.78125 C 0.773438 -1.113281 0.625 -1.609375 0.625 -2.265625 C 0.625 -2.597656 0.660156 -2.976562 0.734375 -3.40625 C 0.816406 -3.84375 0.90625 -4.238281 1 -4.59375 L 2.265625 -4.53125 L 2.171875 -3.796875 C 2.097656 -3.222656 2.0625 -2.832031 2.0625 -2.625 C 2.0625 -1.820312 2.640625 -1.421875 3.796875 -1.421875 L 7.46875 -1.421875 L 7.46875 -5.84375 Z M 3.421875 -7.3125 L 4.625 -7.3125 L 4.625 -5.859375 L 3.421875 -5.859375 Z M 5.203125 -7.3125 L 6.40625 -7.3125 L 6.40625 -5.859375 L 5.203125 -5.859375 Z M 5.203125 -7.3125 "/></g></g></g><g fill="#ffffff" fill-opacity="1"><g transform="translate(56.273239, 15.332598)"><g><path d="M 3.65625 -1.421875 L 3.65625 0 L 0.9375 0 L 0.9375 -8.1875 L 2.5 -8.1875 L 2.5 -1.421875 Z M 3.65625 -1.421875 "/></g></g></g><g fill="#ffffff" fill-opacity="1"><g transform="translate(59.922734, 15.332598)"><g><path d="M 4.40625 -5.953125 C 5.207031 -5.953125 5.820312 -5.832031 6.25 -5.59375 C 6.6875 -5.363281 6.976562 -5.035156 7.125 -4.609375 C 7.28125 -4.179688 7.359375 -3.617188 7.359375 -2.921875 L 7.359375 0 L 0 0 L 0 -1.421875 L 1.828125 -1.421875 C 1.710938 -1.984375 1.65625 -2.476562 1.65625 -2.90625 C 1.65625 -3.34375 1.695312 -3.804688 1.78125 -4.296875 C 1.875 -4.785156 1.972656 -5.210938 2.078125 -5.578125 C 2.296875 -5.671875 2.609375 -5.753906 3.015625 -5.828125 C 3.429688 -5.910156 3.894531 -5.953125 4.40625 -5.953125 Z M 3.1875 -2.90625 C 3.1875 -2.644531 3.203125 -2.375 3.234375 -2.09375 C 3.265625 -1.820312 3.300781 -1.597656 3.34375 -1.421875 L 5.796875 -1.421875 L 5.796875 -2.953125 C 5.796875 -3.503906 5.6875 -3.90625 5.46875 -4.15625 C 5.257812 -4.414062 4.847656 -4.546875 4.234375 -4.546875 C 3.941406 -4.546875 3.644531 -4.515625 3.34375 -4.453125 C 3.238281 -3.867188 3.1875 -3.351562 3.1875 -2.90625 Z M 3.1875 -2.90625 "/></g></g></g><g fill="#ffffff" fill-opacity="1"><g transform="translate(67.864943, 15.332598)"><g><path d="M 7.015625 -1.421875 L 7.015625 0 L 0.46875 0 L 0.46875 -1.421875 L 4.21875 -1.421875 L 4.21875 -1.84375 C 4.21875 -2.863281 4.023438 -3.585938 3.640625 -4.015625 C 3.265625 -4.453125 2.8125 -4.671875 2.28125 -4.671875 L 1.09375 -4.671875 L 0.984375 -5.890625 C 1.222656 -5.953125 1.492188 -6.003906 1.796875 -6.046875 C 2.109375 -6.097656 2.394531 -6.125 2.65625 -6.125 C 3.28125 -6.125 3.828125 -5.96875 4.296875 -5.65625 C 4.773438 -5.351562 5.144531 -4.890625 5.40625 -4.265625 C 5.664062 -3.648438 5.796875 -2.894531 5.796875 -2 L 5.796875 -1.421875 Z M 7.015625 -1.421875 "/></g></g></g><g fill="#ffffff" fill-opacity="1"><g transform="translate(74.871506, 15.332598)"><g><path d="M 0 0 Z M 7.1875 -1.421875 L 7.1875 0 L 0 0 L 0 -1.421875 L 4.40625 -1.421875 L 4.40625 -3.625 C 4.40625 -3.957031 4.332031 -4.207031 4.1875 -4.375 C 4.050781 -4.550781 3.804688 -4.640625 3.453125 -4.640625 C 2.734375 -4.609375 2.109375 -4.582031 1.578125 -4.5625 L 0.984375 -4.546875 L 0.9375 -5.578125 C 1.34375 -5.691406 1.832031 -5.785156 2.40625 -5.859375 C 2.988281 -5.929688 3.476562 -5.96875 3.875 -5.96875 C 4.601562 -5.96875 5.132812 -5.8125 5.46875 -5.5 C 5.800781 -5.195312 5.972656 -4.707031 5.984375 -4.03125 L 5.984375 -1.421875 Z M 2.890625 -8.453125 L 4.34375 -8.453125 L 4.34375 -6.9375 L 2.890625 -6.9375 Z M 2.890625 -8.453125 "/></g></g></g><g fill="#ffffff" fill-opacity="1"><g transform="translate(82.05352, 15.332598)"><g><path d="M 4.234375 -1.421875 L 4.234375 0 L 0 0 L 0 -1.421875 L 1.4375 -1.421875 L 1.4375 -8.1875 L 3 -8.1875 L 3 -1.421875 Z M 4.234375 -1.421875 "/></g></g></g><g fill="#ffffff" fill-opacity="1"><g transform="translate(86.287868, 15.332598)"><g><path d="M 3 -8.1875 L 3 0 L 0 0 L 0 -1.421875 L 1.4375 -1.421875 L 1.4375 -8.1875 Z M 3 -8.1875 "/></g></g></g><g fill="#ffffff" fill-opacity="1"><g transform="translate(90.229733, 15.332598)"><g/></g></g><g fill="#ffffff" fill-opacity="1"><g transform="translate(92.803051, 15.332598)"><g><path d="M 3.890625 2.90625 C 3.234375 2.90625 2.644531 2.78125 2.125 2.53125 C 1.601562 2.289062 1.195312 1.957031 0.90625 1.53125 C 0.613281 1.113281 0.46875 0.648438 0.46875 0.140625 C 0.46875 -0.359375 0.609375 -1.476562 0.890625 -3.21875 L 2.359375 -3.140625 C 2.265625 -2.546875 2.175781 -1.925781 2.09375 -1.28125 C 2.019531 -0.644531 1.984375 -0.222656 1.984375 -0.015625 C 1.984375 0.253906 2.0625 0.503906 2.21875 0.734375 C 2.375 0.960938 2.59375 1.140625 2.875 1.265625 C 3.164062 1.398438 3.488281 1.46875 3.84375 1.46875 C 4.1875 1.46875 4.492188 1.398438 4.765625 1.265625 C 5.035156 1.140625 5.242188 0.960938 5.390625 0.734375 C 5.535156 0.503906 5.609375 0.257812 5.609375 0 L 5.609375 -8.1875 L 7.171875 -8.1875 L 7.171875 0.15625 C 7.171875 0.65625 7.035156 1.113281 6.765625 1.53125 C 6.492188 1.957031 6.109375 2.289062 5.609375 2.53125 C 5.117188 2.78125 4.546875 2.90625 3.890625 2.90625 Z M 3.890625 2.90625 "/></g></g></g><g fill="#ffffff" fill-opacity="1"><g transform="translate(100.909021, 15.332598)"><g><path d="M 0.46875 0 Z M 5.203125 0 L 3.28125 0 C 3.269531 0.914062 3.101562 1.628906 2.78125 2.140625 C 2.457031 2.648438 1.972656 2.90625 1.328125 2.90625 C 1.222656 2.90625 0.9375 2.890625 0.46875 2.859375 L 0.46875 1.453125 L 0.859375 1.46875 C 1.140625 1.46875 1.347656 1.359375 1.484375 1.140625 C 1.628906 0.921875 1.703125 0.609375 1.703125 0.203125 L 1.703125 -5.84375 L 3.28125 -5.84375 L 3.28125 -1.421875 L 5.203125 -1.421875 Z M 1.765625 -8.453125 L 3.21875 -8.453125 L 3.21875 -6.9375 L 1.765625 -6.9375 Z M 1.765625 -8.453125 "/></g></g></g><g fill="#ffffff" fill-opacity="1"><g transform="translate(106.11423, 15.332598)"><g><path d="M 0 0 Z M 5.0625 -1.421875 L 5.0625 0 L 0 0 L 0 -1.421875 L 1.75 -1.421875 L 1.75 -5.84375 L 3.3125 -5.84375 L 3.3125 -1.421875 Z M 1.78125 -8.453125 L 3.234375 -8.453125 L 3.234375 -6.9375 L 1.78125 -6.9375 Z M 1.78125 -8.453125 "/></g></g></g><g fill="#ffffff" fill-opacity="1"><g transform="translate(111.179067, 15.332598)"><g><path d="M 8.640625 -1.421875 L 8.640625 0 L 8 0 C 7.863281 0 7.734375 -0.046875 7.609375 -0.140625 C 7.492188 -0.234375 7.410156 -0.351562 7.359375 -0.5 L 7.359375 0 L 0 0 L 0 -1.421875 L 1.828125 -1.421875 C 1.710938 -1.984375 1.65625 -2.476562 1.65625 -2.90625 C 1.65625 -3.34375 1.695312 -3.804688 1.78125 -4.296875 C 1.875 -4.785156 1.972656 -5.210938 2.078125 -5.578125 C 2.296875 -5.671875 2.609375 -5.753906 3.015625 -5.828125 C 3.429688 -5.910156 3.894531 -5.953125 4.40625 -5.953125 C 5.207031 -5.953125 5.820312 -5.832031 6.25 -5.59375 C 6.6875 -5.363281 6.976562 -5.035156 7.125 -4.609375 C 7.28125 -4.179688 7.359375 -3.617188 7.359375 -2.921875 L 7.359375 -1.9375 C 7.410156 -1.78125 7.492188 -1.65625 7.609375 -1.5625 C 7.734375 -1.46875 7.863281 -1.421875 8 -1.421875 Z M 3.1875 -2.90625 C 3.1875 -2.644531 3.203125 -2.375 3.234375 -2.09375 C 3.265625 -1.820312 3.300781 -1.597656 3.34375 -1.421875 L 5.796875 -1.421875 L 5.796875 -2.953125 C 5.796875 -3.503906 5.6875 -3.90625 5.46875 -4.15625 C 5.257812 -4.414062 4.847656 -4.546875 4.234375 -4.546875 C 3.941406 -4.546875 3.644531 -4.515625 3.34375 -4.453125 C 3.238281 -3.867188 3.1875 -3.351562 3.1875 -2.90625 Z M 3.1875 -2.90625 "/></g></g></g><g fill="#ffffff" fill-opacity="1"><g transform="translate(119.811535, 15.332598)"><g><path d="M 3 -8.1875 L 3 0 L 0 0 L 0 -1.421875 L 1.4375 -1.421875 L 1.4375 -8.1875 Z M 3 -8.1875 "/></g></g></g><g fill="#ffffff" fill-opacity="1"><g transform="translate(123.753388, 15.332598)"><g><path d="M 0.9375 -8.1875 L 2.5 -8.1875 L 2.5 0 L 0.9375 0 Z M 0.9375 -8.1875 "/></g></g></g><g fill="#ffffff" fill-opacity="1"><g transform="translate(127.309251, 15.332598)"><g/></g></g><g fill="#ffffff" fill-opacity="1"><g transform="translate(129.882581, 15.332598)"><g><path d="M 1.328125 2.90625 C 1.222656 2.90625 0.9375 2.890625 0.46875 2.859375 L 0.46875 1.453125 L 0.859375 1.46875 C 1.140625 1.46875 1.347656 1.359375 1.484375 1.140625 C 1.628906 0.921875 1.703125 0.609375 1.703125 0.203125 L 1.703125 -5.84375 L 3.28125 -5.84375 L 3.28125 -0.0625 C 3.28125 0.863281 3.117188 1.585938 2.796875 2.109375 C 2.472656 2.640625 1.984375 2.90625 1.328125 2.90625 Z M 1.328125 2.90625 "/></g></g></g><g fill="#ffffff" fill-opacity="1"><g transform="translate(133.859524, 15.332598)"><g><path d="M 3.65625 -1.421875 L 3.65625 0 L 0.9375 0 L 0.9375 -8.1875 L 2.5 -8.1875 L 2.5 -1.421875 Z M 3.65625 -1.421875 "/></g></g></g><g fill="#ffffff" fill-opacity="1"><g transform="translate(137.509025, 15.332598)"><g><path d="M 8.640625 -1.421875 L 8.640625 0 L 8 0 C 7.863281 0 7.734375 -0.046875 7.609375 -0.140625 C 7.492188 -0.234375 7.410156 -0.351562 7.359375 -0.5 L 7.359375 0 L 0 0 L 0 -1.421875 L 1.828125 -1.421875 C 1.710938 -1.984375 1.65625 -2.476562 1.65625 -2.90625 C 1.65625 -3.34375 1.695312 -3.804688 1.78125 -4.296875 C 1.875 -4.785156 1.972656 -5.210938 2.078125 -5.578125 C 2.296875 -5.671875 2.609375 -5.753906 3.015625 -5.828125 C 3.429688 -5.910156 3.894531 -5.953125 4.40625 -5.953125 C 5.207031 -5.953125 5.820312 -5.832031 6.25 -5.59375 C 6.6875 -5.363281 6.976562 -5.035156 7.125 -4.609375 C 7.28125 -4.179688 7.359375 -3.617188 7.359375 -2.921875 L 7.359375 -1.9375 C 7.410156 -1.78125 7.492188 -1.65625 7.609375 -1.5625 C 7.734375 -1.46875 7.863281 -1.421875 8 -1.421875 Z M 3.1875 -2.90625 C 3.1875 -2.644531 3.203125 -2.375 3.234375 -2.09375 C 3.265625 -1.820312 3.300781 -1.597656 3.34375 -1.421875 L 5.796875 -1.421875 L 5.796875 -2.953125 C 5.796875 -3.503906 5.6875 -3.90625 5.46875 -4.15625 C 5.257812 -4.414062 4.847656 -4.546875 4.234375 -4.546875 C 3.941406 -4.546875 3.644531 -4.515625 3.34375 -4.453125 C 3.238281 -3.867188 3.1875 -3.351562 3.1875 -2.90625 Z M 3.1875 -2.90625 "/></g></g></g><g fill="#ffffff" fill-opacity="1"><g transform="translate(146.141482, 15.332598)"><g><path d="M 6.40625 -1.421875 L 6.40625 0 L 0 0 L 0 -1.421875 L 1.65625 -1.421875 C 1.394531 -1.890625 1.265625 -2.445312 1.265625 -3.09375 C 1.265625 -3.78125 1.410156 -4.34375 1.703125 -4.78125 C 1.992188 -5.21875 2.351562 -5.523438 2.78125 -5.703125 C 3.207031 -5.890625 3.632812 -5.984375 4.0625 -5.984375 C 4.351562 -5.984375 4.6875 -5.941406 5.0625 -5.859375 C 5.4375 -5.785156 5.765625 -5.675781 6.046875 -5.53125 L 5.984375 -4.0625 C 5.742188 -4.175781 5.453125 -4.285156 5.109375 -4.390625 C 4.765625 -4.503906 4.460938 -4.5625 4.203125 -4.5625 C 3.835938 -4.5625 3.515625 -4.441406 3.234375 -4.203125 C 2.960938 -3.972656 2.828125 -3.582031 2.828125 -3.03125 C 2.828125 -2.675781 2.882812 -2.363281 3 -2.09375 C 3.125 -1.820312 3.273438 -1.597656 3.453125 -1.421875 Z M 6.40625 -1.421875 "/></g></g></g><g fill="#ffffff" fill-opacity="1"><g transform="translate(152.890606, 15.332598)"><g><path d="M 0.375 0 Z M 0.9375 -8.1875 L 2.5 -8.1875 L 2.5 0 L 0.9375 0 Z M 3.078125 2.96875 L 0.515625 3.484375 L 0.375 2.921875 L 0.921875 2.796875 C 0.617188 2.535156 0.46875 2.21875 0.46875 1.84375 C 0.46875 1.519531 0.582031 1.238281 0.8125 1 C 1.039062 0.769531 1.332031 0.65625 1.6875 0.65625 C 1.988281 0.65625 2.296875 0.75 2.609375 0.9375 L 2.453125 1.640625 C 2.398438 1.597656 2.332031 1.5625 2.25 1.53125 C 2.164062 1.5 2.066406 1.484375 1.953125 1.484375 C 1.773438 1.484375 1.628906 1.539062 1.515625 1.65625 C 1.410156 1.769531 1.359375 1.910156 1.359375 2.078125 C 1.359375 2.296875 1.445312 2.472656 1.625 2.609375 L 2.90625 2.265625 Z M 3.078125 2.96875 "/></g></g></g></g></g><g transform="matrix(1, 0, 0, 1, 17, 29)"><g clip-path="url(#c8140be5a6)"><g clip-path="url(#aa4195b4b6)"><g fill="#ffffff" fill-opacity="1"><g transform="translate(0.301716, 7.19643)"><g><path d="M 1.125 -1.953125 L 1.125 -0.40625 L 3.234375 -0.40625 L 3.234375 0 L 0.625 0 L 0.625 -4.15625 L 3.1875 -4.15625 L 3.1875 -3.75 L 1.125 -3.75 L 1.125 -2.359375 L 2.953125 -2.359375 L 2.953125 -1.953125 Z M 1.125 -1.953125 "/></g></g></g></g><g fill="#ffffff" fill-opacity="1"><g transform="translate(7.310215, 7.19643)"><g><path d="M 0.546875 0 L 0.546875 -3.140625 L 0.984375 -3.140625 L 0.984375 -2.671875 L 1.046875 -2.65625 C 1.148438 -2.832031 1.273438 -2.96875 1.421875 -3.0625 C 1.578125 -3.15625 1.757812 -3.203125 1.96875 -3.203125 C 2.21875 -3.203125 2.40625 -3.15625 2.53125 -3.0625 C 2.664062 -2.96875 2.769531 -2.816406 2.84375 -2.609375 L 2.90625 -2.609375 C 3.019531 -2.804688 3.15625 -2.953125 3.3125 -3.046875 C 3.46875 -3.148438 3.660156 -3.203125 3.890625 -3.203125 C 4.210938 -3.203125 4.453125 -3.113281 4.609375 -2.9375 C 4.773438 -2.757812 4.859375 -2.492188 4.859375 -2.140625 L 4.859375 0 L 4.390625 0 L 4.390625 -2.125 C 4.390625 -2.351562 4.335938 -2.519531 4.234375 -2.625 C 4.140625 -2.738281 3.988281 -2.796875 3.78125 -2.796875 C 3.53125 -2.796875 3.328125 -2.703125 3.171875 -2.515625 C 3.015625 -2.335938 2.9375 -2.039062 2.9375 -1.625 L 2.9375 0 L 2.46875 0 L 2.46875 -2.125 C 2.46875 -2.351562 2.421875 -2.519531 2.328125 -2.625 C 2.234375 -2.738281 2.078125 -2.796875 1.859375 -2.796875 C 1.609375 -2.796875 1.40625 -2.707031 1.25 -2.53125 C 1.09375 -2.351562 1.015625 -2.066406 1.015625 -1.671875 L 1.015625 0 Z M 0.546875 0 "/></g></g></g><g fill="#ffffff" fill-opacity="1"><g transform="translate(16.153473, 7.19643)"><g><path d="M 1.296875 0.0625 C 0.984375 0.0625 0.738281 -0.015625 0.5625 -0.171875 C 0.394531 -0.335938 0.3125 -0.570312 0.3125 -0.875 C 0.3125 -1.0625 0.347656 -1.21875 0.421875 -1.34375 C 0.503906 -1.46875 0.625 -1.570312 0.78125 -1.65625 C 0.945312 -1.738281 1.160156 -1.800781 1.421875 -1.84375 C 1.640625 -1.882812 1.804688 -1.925781 1.921875 -1.96875 C 2.046875 -2.019531 2.128906 -2.070312 2.171875 -2.125 C 2.210938 -2.1875 2.234375 -2.265625 2.234375 -2.359375 C 2.234375 -2.492188 2.179688 -2.597656 2.078125 -2.671875 C 1.984375 -2.753906 1.828125 -2.796875 1.609375 -2.796875 C 1.410156 -2.796875 1.238281 -2.753906 1.09375 -2.671875 C 0.945312 -2.597656 0.8125 -2.484375 0.6875 -2.328125 L 0.640625 -2.328125 L 0.40625 -2.640625 C 0.539062 -2.816406 0.707031 -2.953125 0.90625 -3.046875 C 1.113281 -3.148438 1.347656 -3.203125 1.609375 -3.203125 C 1.984375 -3.203125 2.257812 -3.117188 2.4375 -2.953125 C 2.613281 -2.796875 2.703125 -2.570312 2.703125 -2.28125 L 2.703125 -0.625 C 2.703125 -0.445312 2.773438 -0.359375 2.921875 -0.359375 C 2.972656 -0.359375 3.019531 -0.363281 3.0625 -0.375 L 3.109375 -0.375 L 3.15625 -0.046875 C 3.125 -0.0234375 3.078125 -0.0078125 3.015625 0 C 2.960938 0.0078125 2.90625 0.015625 2.84375 0.015625 C 2.675781 0.015625 2.546875 -0.0195312 2.453125 -0.09375 C 2.367188 -0.164062 2.3125 -0.273438 2.28125 -0.421875 L 2.234375 -0.4375 C 2.140625 -0.269531 2.015625 -0.144531 1.859375 -0.0625 C 1.710938 0.0195312 1.523438 0.0625 1.296875 0.0625 Z M 1.390625 -0.3125 C 1.566406 -0.3125 1.71875 -0.347656 1.84375 -0.421875 C 1.976562 -0.503906 2.078125 -0.617188 2.140625 -0.765625 C 2.210938 -0.910156 2.25 -1.082031 2.25 -1.28125 L 2.25 -1.671875 L 2.1875 -1.6875 C 2.125 -1.632812 2.039062 -1.59375 1.9375 -1.5625 C 1.832031 -1.53125 1.691406 -1.5 1.515625 -1.46875 C 1.335938 -1.445312 1.191406 -1.410156 1.078125 -1.359375 C 0.972656 -1.304688 0.894531 -1.238281 0.84375 -1.15625 C 0.800781 -1.082031 0.78125 -0.988281 0.78125 -0.875 C 0.78125 -0.6875 0.832031 -0.546875 0.9375 -0.453125 C 1.050781 -0.359375 1.203125 -0.3125 1.390625 -0.3125 Z M 1.390625 -0.3125 "/></g></g></g><g fill="#ffffff" fill-opacity="1"><g transform="translate(22.894581, 7.19643)"><g><path d="M 1.296875 0.0625 C 0.984375 0.0625 0.738281 -0.015625 0.5625 -0.171875 C 0.394531 -0.335938 0.3125 -0.570312 0.3125 -0.875 C 0.3125 -1.0625 0.347656 -1.21875 0.421875 -1.34375 C 0.503906 -1.46875 0.625 -1.570312 0.78125 -1.65625 C 0.945312 -1.738281 1.160156 -1.800781 1.421875 -1.84375 C 1.640625 -1.882812 1.804688 -1.925781 1.921875 -1.96875 C 2.046875 -2.019531 2.128906 -2.070312 2.171875 -2.125 C 2.210938 -2.1875 2.234375 -2.265625 2.234375 -2.359375 C 2.234375 -2.492188 2.179688 -2.597656 2.078125 -2.671875 C 1.984375 -2.753906 1.828125 -2.796875 1.609375 -2.796875 C 1.410156 -2.796875 1.238281 -2.753906 1.09375 -2.671875 C 0.945312 -2.597656 0.8125 -2.484375 0.6875 -2.328125 L 0.640625 -2.328125 L 0.40625 -2.640625 C 0.539062 -2.816406 0.707031 -2.953125 0.90625 -3.046875 C 1.113281 -3.148438 1.347656 -3.203125 1.609375 -3.203125 C 1.984375 -3.203125 2.257812 -3.117188 2.4375 -2.953125 C 2.613281 -2.796875 2.703125 -2.570312 2.703125 -2.28125 L 2.703125 -0.625 C 2.703125 -0.445312 2.773438 -0.359375 2.921875 -0.359375 C 2.972656 -0.359375 3.019531 -0.363281 3.0625 -0.375 L 3.109375 -0.375 L 3.15625 -0.046875 C 3.125 -0.0234375 3.078125 -0.0078125 3.015625 0 C 2.960938 0.0078125 2.90625 0.015625 2.84375 0.015625 C 2.675781 0.015625 2.546875 -0.0195312 2.453125 -0.09375 C 2.367188 -0.164062 2.3125 -0.273438 2.28125 -0.421875 L 2.234375 -0.4375 C 2.140625 -0.269531 2.015625 -0.144531 1.859375 -0.0625 C 1.710938 0.0195312 1.523438 0.0625 1.296875 0.0625 Z M 1.390625 -0.3125 C 1.566406 -0.3125 1.71875 -0.347656 1.84375 -0.421875 C 1.976562 -0.503906 2.078125 -0.617188 2.140625 -0.765625 C 2.210938 -0.910156 2.25 -1.082031 2.25 -1.28125 L 2.25 -1.671875 L 2.1875 -1.6875 C 2.125 -1.632812 2.039062 -1.59375 1.9375 -1.5625 C 1.832031 -1.53125 1.691406 -1.5 1.515625 -1.46875 C 1.335938 -1.445312 1.191406 -1.410156 1.078125 -1.359375 C 0.972656 -1.304688 0.894531 -1.238281 0.84375 -1.15625 C 0.800781 -1.082031 0.78125 -0.988281 0.78125 -0.875 C 0.78125 -0.6875 0.832031 -0.546875 0.9375 -0.453125 C 1.050781 -0.359375 1.203125 -0.3125 1.390625 -0.3125 Z M 1.390625 -0.3125 "/></g></g></g><g fill="#ffffff" fill-opacity="1"><g transform="translate(29.635689, 7.19643)"><g><path d="M 0.546875 0 L 0.546875 -3.140625 L 0.984375 -3.140625 L 0.984375 -2.640625 L 1.046875 -2.625 C 1.191406 -2.988281 1.46875 -3.171875 1.875 -3.171875 C 2.082031 -3.171875 2.242188 -3.128906 2.359375 -3.046875 L 2.234375 -2.65625 L 2.171875 -2.640625 C 2.054688 -2.703125 1.929688 -2.734375 1.796875 -2.734375 C 1.546875 -2.734375 1.351562 -2.640625 1.21875 -2.453125 C 1.082031 -2.265625 1.015625 -1.960938 1.015625 -1.546875 L 1.015625 0 Z M 0.546875 0 "/></g></g></g><g fill="#ffffff" fill-opacity="1"><g transform="translate(35.554711, 7.19643)"><g/></g></g><g fill="#ffffff" fill-opacity="1"><g transform="translate(40.478128, 7.19643)"><g><path d="M 3.75 0 L 3.21875 0 L 2.84375 -1.140625 L 1.0625 -1.140625 L 0.671875 0 L 0.171875 0 L 1.609375 -4.15625 L 2.296875 -4.15625 Z M 1.921875 -3.65625 L 1.203125 -1.546875 L 2.703125 -1.546875 L 1.984375 -3.65625 Z M 1.921875 -3.65625 "/></g></g></g><g fill="#ffffff" fill-opacity="1"><g transform="translate(47.845045, 7.19643)"><g><path d="M 1.25 0.0625 C 1.03125 0.0625 0.851562 0 0.71875 -0.125 C 0.59375 -0.25 0.53125 -0.4375 0.53125 -0.6875 L 0.53125 -4.40625 L 1 -4.40625 L 1 -0.71875 C 1 -0.59375 1.023438 -0.5 1.078125 -0.4375 C 1.128906 -0.382812 1.207031 -0.359375 1.3125 -0.359375 C 1.375 -0.359375 1.4375 -0.367188 1.5 -0.390625 L 1.546875 -0.375 L 1.59375 -0.015625 C 1.5625 0.00390625 1.515625 0.0195312 1.453125 0.03125 C 1.390625 0.0507812 1.320312 0.0625 1.25 0.0625 Z M 1.25 0.0625 "/></g></g></g><g fill="#ffffff" fill-opacity="1"><g transform="translate(52.976117, 7.19643)"><g><path d="M 1.921875 -1.8125 L 0.296875 -1.8125 L 0.296875 -2.234375 L 1.921875 -2.234375 Z M 1.921875 -1.8125 "/></g></g></g><g fill="#ffffff" fill-opacity="1"><g transform="translate(58.67895, 7.19643)"><g><path d="M 1.078125 0 L 0.625 0 L 0.625 -4.15625 L 1.359375 -4.15625 L 2.609375 -0.640625 L 2.671875 -0.640625 L 3.9375 -4.15625 L 4.640625 -4.15625 L 4.640625 0 L 4.171875 0 L 4.171875 -3.390625 L 4.09375 -3.40625 L 2.875 0 L 2.390625 0 L 1.15625 -3.40625 L 1.078125 -3.390625 Z M 1.078125 0 "/></g></g></g><g fill="#ffffff" fill-opacity="1"><g transform="translate(67.439715, 7.19643)"><g><path d="M 1.296875 0.0625 C 0.984375 0.0625 0.738281 -0.015625 0.5625 -0.171875 C 0.394531 -0.335938 0.3125 -0.570312 0.3125 -0.875 C 0.3125 -1.0625 0.347656 -1.21875 0.421875 -1.34375 C 0.503906 -1.46875 0.625 -1.570312 0.78125 -1.65625 C 0.945312 -1.738281 1.160156 -1.800781 1.421875 -1.84375 C 1.640625 -1.882812 1.804688 -1.925781 1.921875 -1.96875 C 2.046875 -2.019531 2.128906 -2.070312 2.171875 -2.125 C 2.210938 -2.1875 2.234375 -2.265625 2.234375 -2.359375 C 2.234375 -2.492188 2.179688 -2.597656 2.078125 -2.671875 C 1.984375 -2.753906 1.828125 -2.796875 1.609375 -2.796875 C 1.410156 -2.796875 1.238281 -2.753906 1.09375 -2.671875 C 0.945312 -2.597656 0.8125 -2.484375 0.6875 -2.328125 L 0.640625 -2.328125 L 0.40625 -2.640625 C 0.539062 -2.816406 0.707031 -2.953125 0.90625 -3.046875 C 1.113281 -3.148438 1.347656 -3.203125 1.609375 -3.203125 C 1.984375 -3.203125 2.257812 -3.117188 2.4375 -2.953125 C 2.613281 -2.796875 2.703125 -2.570312 2.703125 -2.28125 L 2.703125 -0.625 C 2.703125 -0.445312 2.773438 -0.359375 2.921875 -0.359375 C 2.972656 -0.359375 3.019531 -0.363281 3.0625 -0.375 L 3.109375 -0.375 L 3.15625 -0.046875 C 3.125 -0.0234375 3.078125 -0.0078125 3.015625 0 C 2.960938 0.0078125 2.90625 0.015625 2.84375 0.015625 C 2.675781 0.015625 2.546875 -0.0195312 2.453125 -0.09375 C 2.367188 -0.164062 2.3125 -0.273438 2.28125 -0.421875 L 2.234375 -0.4375 C 2.140625 -0.269531 2.015625 -0.144531 1.859375 -0.0625 C 1.710938 0.0195312 1.523438 0.0625 1.296875 0.0625 Z M 1.390625 -0.3125 C 1.566406 -0.3125 1.71875 -0.347656 1.84375 -0.421875 C 1.976562 -0.503906 2.078125 -0.617188 2.140625 -0.765625 C 2.210938 -0.910156 2.25 -1.082031 2.25 -1.28125 L 2.25 -1.671875 L 2.1875 -1.6875 C 2.125 -1.632812 2.039062 -1.59375 1.9375 -1.5625 C 1.832031 -1.53125 1.691406 -1.5 1.515625 -1.46875 C 1.335938 -1.445312 1.191406 -1.410156 1.078125 -1.359375 C 0.972656 -1.304688 0.894531 -1.238281 0.84375 -1.15625 C 0.800781 -1.082031 0.78125 -0.988281 0.78125 -0.875 C 0.78125 -0.6875 0.832031 -0.546875 0.9375 -0.453125 C 1.050781 -0.359375 1.203125 -0.3125 1.390625 -0.3125 Z M 1.390625 -0.3125 "/></g></g></g><g fill="#ffffff" fill-opacity="1"><g transform="translate(74.180823, 7.19643)"><g><path d="M 0.546875 0 L 0.546875 -3.140625 L 0.984375 -3.140625 L 0.984375 -2.640625 L 1.046875 -2.625 C 1.148438 -2.8125 1.28125 -2.953125 1.4375 -3.046875 C 1.601562 -3.148438 1.804688 -3.203125 2.046875 -3.203125 C 2.421875 -3.203125 2.691406 -3.101562 2.859375 -2.90625 C 3.023438 -2.71875 3.109375 -2.421875 3.109375 -2.015625 L 3.109375 0 L 2.65625 0 L 2.65625 -2.015625 C 2.65625 -2.203125 2.628906 -2.351562 2.578125 -2.46875 C 2.523438 -2.582031 2.445312 -2.664062 2.34375 -2.71875 C 2.25 -2.769531 2.117188 -2.796875 1.953125 -2.796875 C 1.671875 -2.796875 1.441406 -2.703125 1.265625 -2.515625 C 1.097656 -2.328125 1.015625 -2.023438 1.015625 -1.609375 L 1.015625 0 Z M 0.546875 0 "/></g></g></g><g fill="#ffffff" fill-opacity="1"><g transform="translate(81.288882, 7.19643)"><g><path d="M 2.515625 0 L 0.21875 0 L 0.21875 -0.40625 L 1.9375 -2.703125 L 1.921875 -2.765625 L 0.28125 -2.765625 L 0.28125 -3.140625 L 2.484375 -3.140625 L 2.484375 -2.734375 L 0.765625 -0.4375 L 0.78125 -0.375 L 2.515625 -0.375 Z M 2.515625 0 "/></g></g></g><g fill="#ffffff" fill-opacity="1"><g transform="translate(87.517965, 7.19643)"><g><path d="M 0.78125 -3.75 C 0.675781 -3.75 0.59375 -3.78125 0.53125 -3.84375 C 0.476562 -3.90625 0.453125 -3.984375 0.453125 -4.078125 C 0.453125 -4.171875 0.476562 -4.25 0.53125 -4.3125 C 0.59375 -4.375 0.675781 -4.40625 0.78125 -4.40625 C 0.875 -4.40625 0.953125 -4.375 1.015625 -4.3125 C 1.078125 -4.25 1.109375 -4.171875 1.109375 -4.078125 C 1.109375 -3.984375 1.078125 -3.90625 1.015625 -3.84375 C 0.953125 -3.78125 0.875 -3.75 0.78125 -3.75 Z M 0.546875 0 L 0.546875 -3.140625 L 1.015625 -3.140625 L 1.015625 0 Z M 0.546875 0 "/></g></g></g><g fill="#ffffff" fill-opacity="1"><g transform="translate(92.569388, 7.19643)"><g><path d="M 1.25 0.0625 C 1.03125 0.0625 0.851562 0 0.71875 -0.125 C 0.59375 -0.25 0.53125 -0.4375 0.53125 -0.6875 L 0.53125 -4.40625 L 1 -4.40625 L 1 -0.71875 C 1 -0.59375 1.023438 -0.5 1.078125 -0.4375 C 1.128906 -0.382812 1.207031 -0.359375 1.3125 -0.359375 C 1.375 -0.359375 1.4375 -0.367188 1.5 -0.390625 L 1.546875 -0.375 L 1.59375 -0.015625 C 1.5625 0.00390625 1.515625 0.0195312 1.453125 0.03125 C 1.390625 0.0507812 1.320312 0.0625 1.25 0.0625 Z M 1.25 0.0625 "/></g></g></g><g fill="#ffffff" fill-opacity="1"><g transform="translate(97.771574, 7.19643)"><g/></g></g><g fill="#ffffff" fill-opacity="1"><g transform="translate(102.694991, 7.19643)"><g><path d="M 1.8125 0.0625 C 1.550781 0.0625 1.316406 0.0234375 1.109375 -0.046875 C 0.898438 -0.117188 0.726562 -0.210938 0.59375 -0.328125 C 0.457031 -0.441406 0.351562 -0.566406 0.28125 -0.703125 L 0.546875 -1.03125 L 0.625 -1.03125 C 0.882812 -0.59375 1.28125 -0.375 1.8125 -0.375 C 2.125 -0.375 2.359375 -0.441406 2.515625 -0.578125 C 2.671875 -0.710938 2.75 -0.894531 2.75 -1.125 C 2.75 -1.257812 2.722656 -1.375 2.671875 -1.46875 C 2.617188 -1.5625 2.535156 -1.640625 2.421875 -1.703125 C 2.304688 -1.773438 2.148438 -1.835938 1.953125 -1.890625 L 1.46875 -2.015625 C 1.101562 -2.097656 0.832031 -2.234375 0.65625 -2.421875 C 0.488281 -2.617188 0.40625 -2.863281 0.40625 -3.15625 C 0.40625 -3.351562 0.457031 -3.535156 0.5625 -3.703125 C 0.664062 -3.867188 0.820312 -3.992188 1.03125 -4.078125 C 1.238281 -4.171875 1.484375 -4.21875 1.765625 -4.21875 C 2.078125 -4.21875 2.335938 -4.171875 2.546875 -4.078125 C 2.765625 -3.992188 2.941406 -3.863281 3.078125 -3.6875 L 2.828125 -3.375 L 2.765625 -3.375 C 2.640625 -3.519531 2.492188 -3.625 2.328125 -3.6875 C 2.171875 -3.757812 1.984375 -3.796875 1.765625 -3.796875 C 1.472656 -3.796875 1.253906 -3.738281 1.109375 -3.625 C 0.960938 -3.507812 0.890625 -3.351562 0.890625 -3.15625 C 0.890625 -2.96875 0.941406 -2.816406 1.046875 -2.703125 C 1.160156 -2.597656 1.34375 -2.515625 1.59375 -2.453125 L 2.09375 -2.34375 C 2.5 -2.238281 2.789062 -2.085938 2.96875 -1.890625 C 3.15625 -1.703125 3.25 -1.453125 3.25 -1.140625 C 3.25 -0.910156 3.195312 -0.703125 3.09375 -0.515625 C 2.988281 -0.335938 2.828125 -0.195312 2.609375 -0.09375 C 2.390625 0.0078125 2.125 0.0625 1.8125 0.0625 Z M 1.8125 0.0625 "/></g></g></g><g fill="#ffffff" fill-opacity="1"><g transform="translate(109.754693, 7.19643)"><g><path d="M 2.984375 -1.46875 L 0.828125 -1.46875 C 0.847656 -1.082031 0.941406 -0.800781 1.109375 -0.625 C 1.273438 -0.445312 1.507812 -0.359375 1.8125 -0.359375 C 2.03125 -0.359375 2.207031 -0.394531 2.34375 -0.46875 C 2.476562 -0.550781 2.585938 -0.675781 2.671875 -0.84375 L 2.734375 -0.84375 L 3.03125 -0.671875 C 2.9375 -0.441406 2.789062 -0.257812 2.59375 -0.125 C 2.394531 0 2.132812 0.0625 1.8125 0.0625 C 1.507812 0.0625 1.25 0.00390625 1.03125 -0.109375 C 0.8125 -0.234375 0.640625 -0.414062 0.515625 -0.65625 C 0.398438 -0.90625 0.34375 -1.207031 0.34375 -1.5625 C 0.34375 -1.925781 0.40625 -2.226562 0.53125 -2.46875 C 0.65625 -2.71875 0.820312 -2.898438 1.03125 -3.015625 C 1.25 -3.140625 1.5 -3.203125 1.78125 -3.203125 C 2.175781 -3.203125 2.488281 -3.085938 2.71875 -2.859375 C 2.945312 -2.628906 3.0625 -2.289062 3.0625 -1.84375 C 3.0625 -1.675781 3.054688 -1.5625 3.046875 -1.5 Z M 2.609375 -1.84375 C 2.597656 -2.175781 2.519531 -2.421875 2.375 -2.578125 C 2.238281 -2.734375 2.039062 -2.8125 1.78125 -2.8125 C 1.5 -2.8125 1.28125 -2.734375 1.125 -2.578125 C 0.96875 -2.421875 0.875 -2.175781 0.84375 -1.84375 Z M 2.609375 -1.84375 "/></g></g></g><g fill="#ffffff" fill-opacity="1"><g transform="translate(116.595361, 7.19643)"><g><path d="M 0.546875 0 L 0.546875 -3.140625 L 0.984375 -3.140625 L 0.984375 -2.640625 L 1.046875 -2.625 C 1.191406 -2.988281 1.46875 -3.171875 1.875 -3.171875 C 2.082031 -3.171875 2.242188 -3.128906 2.359375 -3.046875 L 2.234375 -2.65625 L 2.171875 -2.640625 C 2.054688 -2.703125 1.929688 -2.734375 1.796875 -2.734375 C 1.546875 -2.734375 1.351562 -2.640625 1.21875 -2.453125 C 1.082031 -2.265625 1.015625 -1.960938 1.015625 -1.546875 L 1.015625 0 Z M 0.546875 0 "/></g></g></g><g fill="#ffffff" fill-opacity="1"><g transform="translate(122.514384, 7.19643)"><g><path d="M 1.984375 0 L 1.34375 0 L 0.15625 -3.140625 L 0.65625 -3.140625 L 1.640625 -0.53125 L 1.703125 -0.53125 L 2.6875 -3.140625 L 3.171875 -3.140625 Z M 1.984375 0 "/></g></g></g><g fill="#ffffff" fill-opacity="1"><g transform="translate(129.33514, 7.19643)"><g><path d="M 0.78125 -3.75 C 0.675781 -3.75 0.59375 -3.78125 0.53125 -3.84375 C 0.476562 -3.90625 0.453125 -3.984375 0.453125 -4.078125 C 0.453125 -4.171875 0.476562 -4.25 0.53125 -4.3125 C 0.59375 -4.375 0.675781 -4.40625 0.78125 -4.40625 C 0.875 -4.40625 0.953125 -4.375 1.015625 -4.3125 C 1.078125 -4.25 1.109375 -4.171875 1.109375 -4.078125 C 1.109375 -3.984375 1.078125 -3.90625 1.015625 -3.84375 C 0.953125 -3.78125 0.875 -3.75 0.78125 -3.75 Z M 0.546875 0 L 0.546875 -3.140625 L 1.015625 -3.140625 L 1.015625 0 Z M 0.546875 0 "/></g></g></g><g fill="#ffffff" fill-opacity="1"><g transform="translate(134.386563, 7.19643)"><g><path d="M 1.796875 0.0625 C 1.523438 0.0625 1.273438 0 1.046875 -0.125 C 0.828125 -0.25 0.65625 -0.4375 0.53125 -0.6875 C 0.40625 -0.9375 0.34375 -1.226562 0.34375 -1.5625 C 0.34375 -1.90625 0.40625 -2.195312 0.53125 -2.4375 C 0.65625 -2.6875 0.828125 -2.875 1.046875 -3 C 1.273438 -3.132812 1.523438 -3.203125 1.796875 -3.203125 C 2.128906 -3.203125 2.394531 -3.140625 2.59375 -3.015625 C 2.789062 -2.890625 2.929688 -2.722656 3.015625 -2.515625 L 2.703125 -2.28125 L 2.640625 -2.28125 C 2.554688 -2.457031 2.445312 -2.582031 2.3125 -2.65625 C 2.1875 -2.738281 2.015625 -2.78125 1.796875 -2.78125 C 1.609375 -2.78125 1.441406 -2.734375 1.296875 -2.640625 C 1.148438 -2.554688 1.035156 -2.421875 0.953125 -2.234375 C 0.867188 -2.054688 0.828125 -1.832031 0.828125 -1.5625 C 0.828125 -1.300781 0.867188 -1.078125 0.953125 -0.890625 C 1.035156 -0.710938 1.148438 -0.578125 1.296875 -0.484375 C 1.441406 -0.398438 1.609375 -0.359375 1.796875 -0.359375 C 2.015625 -0.359375 2.195312 -0.40625 2.34375 -0.5 C 2.488281 -0.601562 2.601562 -0.757812 2.6875 -0.96875 L 2.734375 -0.96875 L 3.046875 -0.796875 C 2.960938 -0.523438 2.816406 -0.3125 2.609375 -0.15625 C 2.398438 -0.0078125 2.128906 0.0625 1.796875 0.0625 Z M 1.796875 0.0625 "/></g></g></g><g fill="#ffffff" fill-opacity="1"><g transform="translate(141.116293, 7.19643)"><g><path d="M 2.984375 -1.46875 L 0.828125 -1.46875 C 0.847656 -1.082031 0.941406 -0.800781 1.109375 -0.625 C 1.273438 -0.445312 1.507812 -0.359375 1.8125 -0.359375 C 2.03125 -0.359375 2.207031 -0.394531 2.34375 -0.46875 C 2.476562 -0.550781 2.585938 -0.675781 2.671875 -0.84375 L 2.734375 -0.84375 L 3.03125 -0.671875 C 2.9375 -0.441406 2.789062 -0.257812 2.59375 -0.125 C 2.394531 0 2.132812 0.0625 1.8125 0.0625 C 1.507812 0.0625 1.25 0.00390625 1.03125 -0.109375 C 0.8125 -0.234375 0.640625 -0.414062 0.515625 -0.65625 C 0.398438 -0.90625 0.34375 -1.207031 0.34375 -1.5625 C 0.34375 -1.925781 0.40625 -2.226562 0.53125 -2.46875 C 0.65625 -2.71875 0.820312 -2.898438 1.03125 -3.015625 C 1.25 -3.140625 1.5 -3.203125 1.78125 -3.203125 C 2.175781 -3.203125 2.488281 -3.085938 2.71875 -2.859375 C 2.945312 -2.628906 3.0625 -2.289062 3.0625 -1.84375 C 3.0625 -1.675781 3.054688 -1.5625 3.046875 -1.5 Z M 2.609375 -1.84375 C 2.597656 -2.175781 2.519531 -2.421875 2.375 -2.578125 C 2.238281 -2.734375 2.039062 -2.8125 1.78125 -2.8125 C 1.5 -2.8125 1.28125 -2.734375 1.125 -2.578125 C 0.96875 -2.421875 0.875 -2.175781 0.84375 -1.84375 Z M 2.609375 -1.84375 "/></g></g></g><g fill="#ffffff" fill-opacity="1"><g transform="translate(147.956961, 7.19643)"><g><path d="M 1.4375 0.0625 C 1.238281 0.0625 1.050781 0.0351562 0.875 -0.015625 C 0.707031 -0.0664062 0.566406 -0.140625 0.453125 -0.234375 C 0.335938 -0.328125 0.257812 -0.429688 0.21875 -0.546875 L 0.484375 -0.828125 L 0.546875 -0.828125 C 0.648438 -0.671875 0.769531 -0.550781 0.90625 -0.46875 C 1.050781 -0.394531 1.226562 -0.359375 1.4375 -0.359375 C 1.664062 -0.359375 1.835938 -0.398438 1.953125 -0.484375 C 2.078125 -0.578125 2.140625 -0.707031 2.140625 -0.875 C 2.140625 -0.988281 2.101562 -1.085938 2.03125 -1.171875 C 1.957031 -1.253906 1.835938 -1.316406 1.671875 -1.359375 L 1.140625 -1.484375 C 0.859375 -1.554688 0.648438 -1.664062 0.515625 -1.8125 C 0.390625 -1.957031 0.328125 -2.140625 0.328125 -2.359375 C 0.328125 -2.523438 0.367188 -2.671875 0.453125 -2.796875 C 0.546875 -2.929688 0.675781 -3.03125 0.84375 -3.09375 C 1.007812 -3.164062 1.203125 -3.203125 1.421875 -3.203125 C 1.710938 -3.203125 1.941406 -3.160156 2.109375 -3.078125 C 2.273438 -2.992188 2.40625 -2.878906 2.5 -2.734375 L 2.234375 -2.484375 L 2.171875 -2.484375 C 2.078125 -2.597656 1.96875 -2.679688 1.84375 -2.734375 C 1.726562 -2.785156 1.585938 -2.8125 1.421875 -2.8125 C 1.210938 -2.8125 1.050781 -2.773438 0.9375 -2.703125 C 0.832031 -2.628906 0.78125 -2.519531 0.78125 -2.375 C 0.78125 -2.25 0.816406 -2.144531 0.890625 -2.0625 C 0.972656 -1.988281 1.113281 -1.929688 1.3125 -1.890625 L 1.828125 -1.765625 C 2.097656 -1.691406 2.296875 -1.582031 2.421875 -1.4375 C 2.546875 -1.289062 2.609375 -1.101562 2.609375 -0.875 C 2.609375 -0.6875 2.5625 -0.519531 2.46875 -0.375 C 2.382812 -0.238281 2.253906 -0.128906 2.078125 -0.046875 C 1.898438 0.0234375 1.6875 0.0625 1.4375 0.0625 Z M 1.4375 0.0625 "/></g></g></g></g></g></svg>