<svg xmlns="http://www.w3.org/2000/svg" xmlns:xlink="http://www.w3.org/1999/xlink" width="300" zoomAndPan="magnify" viewBox="0 0 224.87999 44.999999" height="60" preserveAspectRatio="xMidYMid meet" version="1.0"><defs><g/><clipPath id="ef9849c94d"><path d="M 184.488281 5 L 220.46875 5 L 220.46875 40.210938 L 184.488281 40.210938 Z M 184.488281 5 " clip-rule="nonzero"/></clipPath><clipPath id="4bcb39a418"><path d="M 199.980469 15.46875 L 208.25 15.46875 L 208.25 23.738281 L 199.980469 23.738281 Z M 199.980469 15.46875 " clip-rule="nonzero"/></clipPath><clipPath id="cd3c52c863"><path d="M 204.113281 15.46875 C 201.832031 15.46875 199.980469 17.320312 199.980469 19.605469 C 199.980469 21.886719 201.832031 23.738281 204.113281 23.738281 C 206.398438 23.738281 208.25 21.886719 208.25 19.605469 C 208.25 17.320312 206.398438 15.46875 204.113281 15.46875 Z M 204.113281 15.46875 " clip-rule="nonzero"/></clipPath><clipPath id="f4169a70ee"><path d="M 0.980469 0.46875 L 9.25 0.46875 L 9.25 8.738281 L 0.980469 8.738281 Z M 0.980469 0.46875 " clip-rule="nonzero"/></clipPath><clipPath id="1127fdcc4a"><path d="M 5.113281 0.46875 C 2.832031 0.46875 0.980469 2.320312 0.980469 4.605469 C 0.980469 6.886719 2.832031 8.738281 5.113281 8.738281 C 7.398438 8.738281 9.25 6.886719 9.25 4.605469 C 9.25 2.320312 7.398438 0.46875 5.113281 0.46875 Z M 5.113281 0.46875 " clip-rule="nonzero"/></clipPath><clipPath id="c607741e72"><rect x="0" width="10" y="0" height="9"/></clipPath><clipPath id="3f0a549e0d"><path d="M 200 13 L 213 13 L 213 26 L 200 26 Z M 200 13 " clip-rule="nonzero"/></clipPath><clipPath id="ad386ff340"><path d="M 199.980469 19.683594 L 206.261719 13.242188 L 212.699219 19.523438 L 206.421875 25.960938 Z M 199.980469 19.683594 " clip-rule="nonzero"/></clipPath><clipPath id="238c227880"><path d="M 1 4 L 12.765625 4 L 12.765625 9 L 1 9 Z M 1 4 " clip-rule="nonzero"/></clipPath><clipPath id="fe4d2b4c07"><path d="M -0.0195312 6.683594 L 6.261719 0.242188 L 12.699219 6.523438 L 6.421875 12.960938 Z M -0.0195312 6.683594 " clip-rule="nonzero"/></clipPath><clipPath id="9fd09b5b59"><path d="M 6.433594 0.0664062 L 0.152344 6.507812 L 6.589844 12.785156 L 12.871094 6.347656 Z M 6.433594 0.0664062 " clip-rule="nonzero"/></clipPath><clipPath id="10d215b885"><path d="M 6.433594 0.0664062 L 0.152344 6.507812 L 6.589844 12.785156 L 12.871094 6.347656 Z M 6.433594 0.0664062 " clip-rule="nonzero"/></clipPath><clipPath id="1768dbc741"><rect x="0" width="13" y="0" height="13"/></clipPath><clipPath id="dab0373b20"><path d="M 143 6 L 146.960938 6 L 146.960938 18 L 143 18 Z M 143 6 " clip-rule="nonzero"/></clipPath><clipPath id="64c560910c"><rect x="0" width="147" y="0" height="21"/></clipPath><clipPath id="0451dd993a"><path d="M 0.277344 2 L 4 2 L 4 7 L 0.277344 7 Z M 0.277344 2 " clip-rule="nonzero"/></clipPath><clipPath id="9e5a3d3c83"><rect x="0" width="145" y="0" height="9"/></clipPath></defs><g clip-path="url(#ef9849c94d)"><path fill="#ffffff" d="M 219.855469 19.449219 L 205.066406 5.453125 C 204.945312 5.339844 204.808594 5.253906 204.652344 5.191406 C 204.5 5.128906 204.339844 5.097656 204.171875 5.097656 C 204.007812 5.097656 203.847656 5.128906 203.691406 5.191406 C 203.539062 5.253906 203.398438 5.339844 203.277344 5.453125 L 193.90625 14.320312 L 193.675781 14.089844 C 193.550781 13.96875 193.398438 13.910156 193.222656 13.910156 C 193.042969 13.914062 192.894531 13.976562 192.769531 14.101562 C 192.644531 14.226562 192.582031 14.375 192.578125 14.550781 C 192.578125 14.726562 192.636719 14.878906 192.757812 15.007812 L 195.03125 17.28125 C 195.160156 17.410156 195.3125 17.472656 195.492188 17.472656 C 195.671875 17.472656 195.824219 17.40625 195.949219 17.28125 C 196.078125 17.15625 196.140625 17.003906 196.140625 16.824219 C 196.140625 16.644531 196.078125 16.492188 195.953125 16.363281 L 195.746094 16.160156 L 204.171875 8.1875 L 215.699219 19.09375 L 213.925781 19.09375 C 213.753906 19.09375 213.589844 19.125 213.429688 19.191406 C 213.269531 19.257812 213.128906 19.351562 213.007812 19.472656 C 212.886719 19.59375 212.792969 19.734375 212.726562 19.894531 C 212.660156 20.054688 212.628906 20.21875 212.628906 20.390625 L 212.628906 37.414062 L 208.746094 37.414062 L 208.746094 27.382812 C 208.746094 27.210938 208.710938 27.046875 208.644531 26.886719 C 208.578125 26.726562 208.484375 26.585938 208.363281 26.464844 C 208.242188 26.34375 208.101562 26.25 207.941406 26.183594 C 207.785156 26.117188 207.617188 26.082031 207.445312 26.082031 L 201.734375 26.082031 C 201.5625 26.082031 201.398438 26.117188 201.238281 26.183594 C 201.078125 26.25 200.9375 26.34375 200.816406 26.464844 C 200.695312 26.585938 200.601562 26.726562 200.535156 26.886719 C 200.46875 27.046875 200.4375 27.210938 200.4375 27.382812 L 200.4375 37.414062 L 193.0625 37.414062 L 193.0625 35.148438 L 196.109375 35.148438 C 196.28125 35.148438 196.445312 35.117188 196.605469 35.050781 C 196.765625 34.984375 196.90625 34.890625 197.027344 34.769531 C 197.148438 34.648438 197.242188 34.507812 197.308594 34.347656 C 197.375 34.1875 197.410156 34.023438 197.410156 33.851562 L 197.410156 27.382812 C 197.410156 27.210938 197.375 27.046875 197.308594 26.886719 C 197.242188 26.726562 197.148438 26.585938 197.027344 26.464844 C 196.90625 26.34375 196.765625 26.25 196.605469 26.183594 C 196.445312 26.117188 196.28125 26.082031 196.109375 26.082031 L 194.078125 26.082031 L 194.078125 26.074219 C 194.078125 25.699219 193.921875 25.417969 193.605469 25.21875 L 193.605469 24.289062 L 194.546875 24.289062 C 194.691406 24.453125 194.875 24.542969 195.09375 24.550781 C 195.3125 24.558594 195.5 24.488281 195.660156 24.335938 C 195.816406 24.1875 195.894531 24 195.894531 23.78125 C 195.894531 23.5625 195.816406 23.375 195.660156 23.226562 C 195.5 23.074219 195.3125 23.003906 195.09375 23.011719 C 194.875 23.019531 194.691406 23.109375 194.546875 23.273438 L 193.605469 23.273438 L 193.605469 22.957031 C 193.605469 22.738281 193.527344 22.550781 193.371094 22.394531 C 193.21875 22.238281 193.03125 22.160156 192.808594 22.160156 C 192.589844 22.160156 192.402344 22.238281 192.246094 22.394531 C 192.089844 22.550781 192.015625 22.738281 192.015625 22.957031 L 192.015625 23.273438 L 191.070312 23.273438 C 190.925781 23.109375 190.746094 23.019531 190.527344 23.011719 C 190.308594 23.003906 190.121094 23.074219 189.960938 23.226562 C 189.800781 23.375 189.722656 23.5625 189.722656 23.78125 C 189.722656 24 189.800781 24.1875 189.960938 24.335938 C 190.121094 24.488281 190.308594 24.558594 190.527344 24.550781 C 190.746094 24.542969 190.925781 24.453125 191.070312 24.289062 L 192.015625 24.289062 L 192.015625 25.066406 L 190.453125 25.066406 C 190.320312 25.066406 190.191406 25.09375 190.066406 25.144531 C 189.945312 25.195312 189.835938 25.269531 189.742188 25.363281 C 189.648438 25.457031 189.574219 25.566406 189.523438 25.6875 C 189.472656 25.8125 189.449219 25.941406 189.449219 26.074219 L 189.449219 26.085938 L 188.285156 26.085938 C 187.910156 26.085938 187.550781 26.15625 187.203125 26.300781 C 186.855469 26.441406 186.550781 26.648438 186.285156 26.914062 C 186.019531 27.179688 185.816406 27.484375 185.671875 27.832031 C 185.527344 28.175781 185.457031 28.539062 185.457031 28.914062 L 185.457031 29.902344 L 185.144531 29.902344 C 184.96875 29.902344 184.8125 29.964844 184.6875 30.089844 C 184.558594 30.21875 184.496094 30.371094 184.496094 30.550781 C 184.496094 30.730469 184.558594 30.882812 184.6875 31.011719 C 184.8125 31.136719 184.96875 31.199219 185.144531 31.199219 L 188.363281 31.199219 C 188.542969 31.199219 188.695312 31.136719 188.824219 31.011719 C 188.949219 30.882812 189.015625 30.730469 189.015625 30.550781 C 189.015625 30.371094 188.949219 30.21875 188.824219 30.089844 C 188.695312 29.964844 188.542969 29.902344 188.363281 29.902344 L 188.054688 29.902344 L 188.054688 28.914062 C 188.054688 28.757812 188.132812 28.683594 188.285156 28.683594 L 189.449219 28.683594 L 189.449219 28.695312 C 189.449219 28.828125 189.472656 28.953125 189.523438 29.078125 C 189.574219 29.203125 189.648438 29.308594 189.742188 29.402344 C 189.835938 29.5 189.945312 29.570312 190.066406 29.621094 C 190.191406 29.671875 190.320312 29.699219 190.453125 29.699219 L 193.074219 29.699219 C 193.207031 29.699219 193.335938 29.671875 193.457031 29.621094 C 193.582031 29.570312 193.691406 29.5 193.785156 29.402344 C 193.878906 29.308594 193.949219 29.203125 194 29.078125 C 194.054688 28.953125 194.078125 28.828125 194.078125 28.695312 L 194.078125 28.683594 L 194.808594 28.683594 L 194.808594 32.550781 L 191.761719 32.550781 C 191.589844 32.550781 191.425781 32.585938 191.265625 32.652344 C 191.105469 32.71875 190.964844 32.8125 190.84375 32.933594 C 190.722656 33.054688 190.628906 33.195312 190.5625 33.355469 C 190.496094 33.511719 190.464844 33.679688 190.464844 33.851562 L 190.464844 38.710938 C 190.464844 38.886719 190.496094 39.050781 190.5625 39.210938 C 190.628906 39.367188 190.722656 39.507812 190.84375 39.632812 C 190.964844 39.753906 191.105469 39.847656 191.265625 39.914062 C 191.425781 39.980469 191.589844 40.011719 191.761719 40.011719 L 201.734375 40.011719 C 201.910156 40.011719 202.074219 39.980469 202.234375 39.914062 C 202.390625 39.847656 202.53125 39.753906 202.65625 39.632812 C 202.777344 39.507812 202.871094 39.367188 202.9375 39.210938 C 203.003906 39.050781 203.035156 38.886719 203.035156 38.710938 L 203.035156 28.683594 L 206.144531 28.683594 L 206.144531 38.710938 C 206.144531 38.882812 206.179688 39.050781 206.246094 39.210938 C 206.3125 39.367188 206.40625 39.507812 206.527344 39.632812 C 206.648438 39.753906 206.789062 39.847656 206.949219 39.914062 C 207.109375 39.980469 207.273438 40.011719 207.445312 40.011719 L 213.925781 40.011719 C 214.097656 40.011719 214.265625 39.980469 214.425781 39.914062 C 214.582031 39.847656 214.722656 39.753906 214.847656 39.632812 C 214.96875 39.507812 215.0625 39.367188 215.128906 39.210938 C 215.195312 39.050781 215.226562 38.882812 215.226562 38.710938 L 215.226562 21.691406 L 218.960938 21.691406 C 219.230469 21.691406 219.472656 21.617188 219.691406 21.46875 C 219.910156 21.320312 220.070312 21.121094 220.167969 20.875 C 220.269531 20.625 220.289062 20.371094 220.230469 20.113281 C 220.175781 19.851562 220.050781 19.632812 219.855469 19.449219 Z M 219.855469 19.449219 " fill-opacity="1" fill-rule="nonzero"/></g><path fill="#ffffff" d="M 186.777344 31.949219 C 186.773438 31.9375 186.765625 31.933594 186.753906 31.933594 C 186.746094 31.933594 186.738281 31.9375 186.734375 31.949219 C 186.605469 32.175781 186.417969 32.519531 186.222656 32.949219 C 185.675781 34.148438 185.390625 34.796875 185.757812 35.351562 C 185.78125 35.386719 186.144531 35.914062 186.734375 35.929688 C 186.742188 35.929688 186.746094 35.929688 186.753906 35.929688 C 186.761719 35.929688 186.769531 35.929688 186.777344 35.929688 C 187.363281 35.914062 187.726562 35.386719 187.75 35.351562 C 188.121094 34.796875 187.835938 34.148438 187.289062 32.949219 C 187.09375 32.519531 186.90625 32.175781 186.777344 31.949219 Z M 186.777344 31.949219 " fill-opacity="1" fill-rule="nonzero"/><g clip-path="url(#4bcb39a418)"><g clip-path="url(#cd3c52c863)"><g transform="matrix(1, 0, 0, 1, 199, 15)"><g clip-path="url(#c607741e72)"><g clip-path="url(#f4169a70ee)"><g clip-path="url(#1127fdcc4a)"><path fill="#060e1c" d="M 0.980469 0.46875 L 9.25 0.46875 L 9.25 8.738281 L 0.980469 8.738281 Z M 0.980469 0.46875 " fill-opacity="1" fill-rule="nonzero"/></g></g></g></g></g></g><g clip-path="url(#3f0a549e0d)"><g clip-path="url(#ad386ff340)"><g transform="matrix(1, 0, 0, 1, 200, 13)"><g clip-path="url(#1768dbc741)"><g clip-path="url(#238c227880)"><g clip-path="url(#fe4d2b4c07)"><g clip-path="url(#9fd09b5b59)"><g clip-path="url(#10d215b885)"><path fill="#ffffff" d="M 12.148438 6.53125 C 12.144531 6.3125 11.964844 6.136719 11.746094 6.140625 C 11.527344 6.140625 11.351562 6.320312 11.355469 6.539062 C 11.359375 6.757812 11.539062 6.933594 11.757812 6.929688 C 11.976562 6.929688 12.148438 6.75 12.148438 6.53125 Z M 2.699219 8.472656 C 2.0625 8.480469 1.496094 8.160156 1.164062 7.671875 C 1.117188 7.597656 1.167969 7.503906 1.25 7.5 L 2.429688 7.488281 C 2.570312 7.484375 2.683594 7.367188 2.683594 7.226562 L 2.667969 6.070312 C 2.664062 5.929688 2.550781 5.816406 2.40625 5.816406 L 1.230469 5.832031 C 1.144531 5.832031 1.09375 5.738281 1.136719 5.664062 C 1.457031 5.167969 2.015625 4.832031 2.652344 4.824219 C 3.160156 4.820312 3.621094 5.019531 3.957031 5.347656 C 4.375 5.761719 4.945312 5.980469 5.535156 5.957031 L 11.695312 5.703125 C 11.710938 5.699219 11.726562 5.699219 11.742188 5.699219 C 12.203125 5.695312 12.582031 6.0625 12.585938 6.523438 C 12.59375 6.984375 12.222656 7.363281 11.761719 7.371094 C 11.746094 7.371094 11.730469 7.371094 11.714844 7.371094 L 5.550781 7.269531 C 4.964844 7.257812 4.394531 7.492188 3.988281 7.914062 C 3.660156 8.253906 3.203125 8.464844 2.699219 8.472656 " fill-opacity="1" fill-rule="nonzero"/></g></g></g></g></g></g></g></g><g transform="matrix(1, 0, 0, 1, 2, 10)"><g clip-path="url(#64c560910c)"><g fill="#ffffff" fill-opacity="1"><g transform="translate(0.899688, 14.497428)"><g><path d="M 0.4375 0 Z M 7.234375 -1.34375 L 7.234375 0 L 3.375 0 C 2.65625 0 2.085938 -0.0703125 1.671875 -0.21875 C 1.253906 -0.375 0.941406 -0.65625 0.734375 -1.0625 C 0.535156 -1.46875 0.4375 -2.0625 0.4375 -2.84375 C 0.4375 -3.570312 0.53125 -4.128906 0.71875 -4.515625 C 0.90625 -4.910156 1.210938 -5.1875 1.640625 -5.34375 C 2.066406 -5.507812 2.660156 -5.59375 3.421875 -5.59375 C 3.835938 -5.59375 4.328125 -5.578125 4.890625 -5.546875 C 5.460938 -5.515625 5.863281 -5.476562 6.09375 -5.4375 L 6.09375 -1.34375 Z M 1.90625 -2.84375 C 1.90625 -2.425781 1.957031 -2.109375 2.0625 -1.890625 C 2.164062 -1.679688 2.328125 -1.535156 2.546875 -1.453125 C 2.765625 -1.378906 3.066406 -1.34375 3.453125 -1.34375 L 4.640625 -1.34375 L 4.640625 -4.1875 C 4.265625 -4.226562 3.878906 -4.25 3.484375 -4.25 C 3.078125 -4.25 2.765625 -4.207031 2.546875 -4.125 C 2.328125 -4.050781 2.164062 -3.910156 2.0625 -3.703125 C 1.957031 -3.503906 1.90625 -3.21875 1.90625 -2.84375 Z M 2.15625 -7.875 L 3.28125 -7.875 L 3.28125 -6.5 L 2.15625 -6.5 Z M 3.828125 -7.875 L 4.953125 -7.875 L 4.953125 -6.5 L 3.828125 -6.5 Z M 3.828125 -7.875 "/></g></g></g><g fill="#ffffff" fill-opacity="1"><g transform="translate(8.139271, 14.497428)"><g><path d="M 0 0 Z M 4.75 -1.34375 L 4.75 0 L 0 0 L 0 -1.34375 L 1.625 -1.34375 L 1.625 -5.484375 L 3.09375 -5.484375 L 3.09375 -1.34375 Z M 0.953125 0.875 L 2.078125 0.875 L 2.078125 2.25 L 0.953125 2.25 Z M 2.625 0.875 L 3.75 0.875 L 3.75 2.25 L 2.625 2.25 Z M 2.625 0.875 "/></g></g></g><g fill="#ffffff" fill-opacity="1"><g transform="translate(12.88169, 14.497428)"><g><path d="M 2.8125 -7.671875 L 2.8125 0 L 0 0 L 0 -1.34375 L 1.34375 -1.34375 L 1.34375 -7.671875 Z M 2.8125 -7.671875 "/></g></g></g><g fill="#ffffff" fill-opacity="1"><g transform="translate(16.572616, 14.497428)"><g><path d="M 0.4375 0 Z M 4.875 0 L 3.0625 0 C 3.0625 0.863281 2.90625 1.53125 2.59375 2 C 2.289062 2.476562 1.835938 2.71875 1.234375 2.71875 C 1.140625 2.71875 0.875 2.703125 0.4375 2.671875 L 0.4375 1.359375 L 0.8125 1.375 C 1.070312 1.375 1.265625 1.269531 1.390625 1.0625 C 1.523438 0.851562 1.59375 0.5625 1.59375 0.1875 L 1.59375 -5.484375 L 3.0625 -5.484375 L 3.0625 -1.34375 L 4.875 -1.34375 Z M 1.65625 -7.921875 L 3 -7.921875 L 3 -6.484375 L 1.65625 -6.484375 Z M 1.65625 -7.921875 "/></g></g></g><g fill="#ffffff" fill-opacity="1"><g transform="translate(21.446464, 14.497428)"><g><path d="M 0 0 Z M 4.75 -1.34375 L 4.75 0 L 0 0 L 0 -1.34375 L 1.625 -1.34375 L 1.625 -5.484375 L 3.09375 -5.484375 L 3.09375 -1.34375 Z M 1.671875 -7.921875 L 3.015625 -7.921875 L 3.015625 -6.484375 L 1.671875 -6.484375 Z M 1.671875 -7.921875 "/></g></g></g><g fill="#ffffff" fill-opacity="1"><g transform="translate(26.188883, 14.497428)"><g><path d="M 8.078125 -1.34375 L 8.078125 0 L 7.484375 0 C 7.359375 0 7.238281 -0.0390625 7.125 -0.125 C 7.019531 -0.21875 6.941406 -0.332031 6.890625 -0.46875 L 6.890625 0 L 0 0 L 0 -1.34375 L 1.703125 -1.34375 C 1.609375 -1.863281 1.5625 -2.328125 1.5625 -2.734375 C 1.5625 -3.128906 1.597656 -3.554688 1.671875 -4.015625 C 1.753906 -4.472656 1.847656 -4.875 1.953125 -5.21875 C 2.148438 -5.3125 2.441406 -5.394531 2.828125 -5.46875 C 3.210938 -5.539062 3.644531 -5.578125 4.125 -5.578125 C 4.875 -5.578125 5.453125 -5.46875 5.859375 -5.25 C 6.265625 -5.03125 6.535156 -4.71875 6.671875 -4.3125 C 6.816406 -3.914062 6.890625 -3.390625 6.890625 -2.734375 L 6.890625 -1.8125 C 6.941406 -1.664062 7.019531 -1.550781 7.125 -1.46875 C 7.238281 -1.382812 7.359375 -1.34375 7.484375 -1.34375 Z M 2.984375 -2.734375 C 2.984375 -2.484375 3 -2.226562 3.03125 -1.96875 C 3.0625 -1.707031 3.09375 -1.5 3.125 -1.34375 L 5.421875 -1.34375 L 5.421875 -2.765625 C 5.421875 -3.273438 5.316406 -3.648438 5.109375 -3.890625 C 4.910156 -4.140625 4.53125 -4.265625 3.96875 -4.265625 C 3.6875 -4.265625 3.40625 -4.234375 3.125 -4.171875 C 3.03125 -3.628906 2.984375 -3.148438 2.984375 -2.734375 Z M 2.984375 -2.734375 "/></g></g></g><g fill="#ffffff" fill-opacity="1"><g transform="translate(34.271804, 14.497428)"><g><path d="M 2.8125 -7.671875 L 2.8125 0 L 0 0 L 0 -1.34375 L 1.34375 -1.34375 L 1.34375 -7.671875 Z M 2.8125 -7.671875 "/></g></g></g><g fill="#ffffff" fill-opacity="1"><g transform="translate(37.962732, 14.497428)"><g><path d="M 0.875 -7.671875 L 2.34375 -7.671875 L 2.34375 0 L 0.875 0 Z M 0.875 -7.671875 "/></g></g></g><g fill="#ffffff" fill-opacity="1"><g transform="translate(41.292231, 14.497428)"><g/></g></g><g fill="#ffffff" fill-opacity="1"><g transform="translate(43.701734, 14.497428)"><g><path d="M 0.59375 0 Z M 8.453125 -5.484375 L 8.453125 0 L 3.71875 0 C 3.082031 0 2.546875 -0.046875 2.109375 -0.140625 C 1.671875 -0.234375 1.304688 -0.429688 1.015625 -0.734375 C 0.734375 -1.046875 0.59375 -1.503906 0.59375 -2.109375 C 0.59375 -2.421875 0.625 -2.78125 0.6875 -3.1875 C 0.757812 -3.59375 0.84375 -3.960938 0.9375 -4.296875 L 2.109375 -4.234375 L 2.03125 -3.546875 C 1.957031 -3.015625 1.921875 -2.648438 1.921875 -2.453125 C 1.921875 -1.710938 2.460938 -1.34375 3.546875 -1.34375 L 6.984375 -1.34375 L 6.984375 -5.484375 Z M 3.203125 -6.859375 L 4.328125 -6.859375 L 4.328125 -5.484375 L 3.203125 -5.484375 Z M 4.875 -6.859375 L 6 -6.859375 L 6 -5.484375 L 4.875 -5.484375 Z M 4.875 -6.859375 "/></g></g></g><g fill="#ffffff" fill-opacity="1"><g transform="translate(52.923572, 14.497428)"><g><path d="M 3.421875 -1.34375 L 3.421875 0 L 0.875 0 L 0.875 -7.671875 L 2.34375 -7.671875 L 2.34375 -1.34375 Z M 3.421875 -1.34375 "/></g></g></g><g fill="#ffffff" fill-opacity="1"><g transform="translate(56.340742, 14.497428)"><g><path d="M 4.125 -5.578125 C 4.875 -5.578125 5.453125 -5.46875 5.859375 -5.25 C 6.265625 -5.03125 6.535156 -4.71875 6.671875 -4.3125 C 6.816406 -3.914062 6.890625 -3.390625 6.890625 -2.734375 L 6.890625 0 L 0 0 L 0 -1.34375 L 1.703125 -1.34375 C 1.609375 -1.863281 1.5625 -2.328125 1.5625 -2.734375 C 1.5625 -3.128906 1.597656 -3.554688 1.671875 -4.015625 C 1.753906 -4.472656 1.847656 -4.875 1.953125 -5.21875 C 2.148438 -5.3125 2.441406 -5.394531 2.828125 -5.46875 C 3.210938 -5.539062 3.644531 -5.578125 4.125 -5.578125 Z M 2.984375 -2.734375 C 2.984375 -2.484375 3 -2.226562 3.03125 -1.96875 C 3.0625 -1.707031 3.09375 -1.5 3.125 -1.34375 L 5.421875 -1.34375 L 5.421875 -2.765625 C 5.421875 -3.273438 5.316406 -3.648438 5.109375 -3.890625 C 4.910156 -4.140625 4.53125 -4.265625 3.96875 -4.265625 C 3.6875 -4.265625 3.40625 -4.234375 3.125 -4.171875 C 3.03125 -3.628906 2.984375 -3.148438 2.984375 -2.734375 Z M 2.984375 -2.734375 "/></g></g></g><g fill="#ffffff" fill-opacity="1"><g transform="translate(63.777355, 14.497428)"><g><path d="M 6.5625 -1.34375 L 6.5625 0 L 0.4375 0 L 0.4375 -1.34375 L 3.953125 -1.34375 L 3.953125 -1.734375 C 3.953125 -2.679688 3.769531 -3.359375 3.40625 -3.765625 C 3.050781 -4.171875 2.628906 -4.375 2.140625 -4.375 L 1.03125 -4.375 L 0.921875 -5.515625 C 1.148438 -5.566406 1.40625 -5.613281 1.6875 -5.65625 C 1.976562 -5.707031 2.242188 -5.734375 2.484375 -5.734375 C 3.066406 -5.734375 3.578125 -5.585938 4.015625 -5.296875 C 4.460938 -5.003906 4.804688 -4.566406 5.046875 -3.984375 C 5.296875 -3.410156 5.421875 -2.707031 5.421875 -1.875 L 5.421875 -1.34375 Z M 6.5625 -1.34375 "/></g></g></g><g fill="#ffffff" fill-opacity="1"><g transform="translate(70.337886, 14.497428)"><g><path d="M 0 0 Z M 6.71875 -1.34375 L 6.71875 0 L 0 0 L 0 -1.34375 L 4.125 -1.34375 L 4.125 -3.390625 C 4.125 -3.703125 4.054688 -3.9375 3.921875 -4.09375 C 3.785156 -4.257812 3.554688 -4.34375 3.234375 -4.34375 C 2.554688 -4.3125 1.972656 -4.285156 1.484375 -4.265625 L 0.921875 -4.25 L 0.875 -5.21875 C 1.257812 -5.320312 1.71875 -5.410156 2.25 -5.484375 C 2.789062 -5.554688 3.25 -5.59375 3.625 -5.59375 C 4.3125 -5.59375 4.8125 -5.445312 5.125 -5.15625 C 5.4375 -4.863281 5.59375 -4.40625 5.59375 -3.78125 L 5.59375 -1.34375 Z M 2.703125 -7.921875 L 4.046875 -7.921875 L 4.046875 -6.484375 L 2.703125 -6.484375 Z M 2.703125 -7.921875 "/></g></g></g><g fill="#ffffff" fill-opacity="1"><g transform="translate(77.062698, 14.497428)"><g><path d="M 3.96875 -1.34375 L 3.96875 0 L 0 0 L 0 -1.34375 L 1.34375 -1.34375 L 1.34375 -7.671875 L 2.8125 -7.671875 L 2.8125 -1.34375 Z M 3.96875 -1.34375 "/></g></g></g><g fill="#ffffff" fill-opacity="1"><g transform="translate(81.02749, 14.497428)"><g><path d="M 2.8125 -7.671875 L 2.8125 0 L 0 0 L 0 -1.34375 L 1.34375 -1.34375 L 1.34375 -7.671875 Z M 2.8125 -7.671875 "/></g></g></g><g fill="#ffffff" fill-opacity="1"><g transform="translate(84.718418, 14.497428)"><g/></g></g><g fill="#ffffff" fill-opacity="1"><g transform="translate(87.127921, 14.497428)"><g><path d="M 3.640625 2.71875 C 3.023438 2.71875 2.472656 2.601562 1.984375 2.375 C 1.503906 2.144531 1.125 1.832031 0.84375 1.4375 C 0.570312 1.039062 0.4375 0.601562 0.4375 0.125 C 0.4375 -0.332031 0.566406 -1.378906 0.828125 -3.015625 L 2.21875 -2.9375 C 2.125 -2.382812 2.039062 -1.804688 1.96875 -1.203125 C 1.894531 -0.609375 1.859375 -0.210938 1.859375 -0.015625 C 1.859375 0.234375 1.929688 0.460938 2.078125 0.671875 C 2.222656 0.890625 2.425781 1.0625 2.6875 1.1875 C 2.957031 1.3125 3.257812 1.375 3.59375 1.375 C 3.914062 1.375 4.203125 1.3125 4.453125 1.1875 C 4.710938 1.0625 4.910156 0.894531 5.046875 0.6875 C 5.179688 0.476562 5.25 0.25 5.25 0 L 5.25 -7.671875 L 6.71875 -7.671875 L 6.71875 0.15625 C 6.71875 0.625 6.585938 1.050781 6.328125 1.4375 C 6.078125 1.832031 5.71875 2.144531 5.25 2.375 C 4.789062 2.601562 4.253906 2.71875 3.640625 2.71875 Z M 3.640625 2.71875 "/></g></g></g><g fill="#ffffff" fill-opacity="1"><g transform="translate(94.71787, 14.497428)"><g><path d="M 0.4375 0 Z M 4.875 0 L 3.0625 0 C 3.0625 0.863281 2.90625 1.53125 2.59375 2 C 2.289062 2.476562 1.835938 2.71875 1.234375 2.71875 C 1.140625 2.71875 0.875 2.703125 0.4375 2.671875 L 0.4375 1.359375 L 0.8125 1.375 C 1.070312 1.375 1.265625 1.269531 1.390625 1.0625 C 1.523438 0.851562 1.59375 0.5625 1.59375 0.1875 L 1.59375 -5.484375 L 3.0625 -5.484375 L 3.0625 -1.34375 L 4.875 -1.34375 Z M 1.65625 -7.921875 L 3 -7.921875 L 3 -6.484375 L 1.65625 -6.484375 Z M 1.65625 -7.921875 "/></g></g></g><g fill="#ffffff" fill-opacity="1"><g transform="translate(99.591719, 14.497428)"><g><path d="M 0 0 Z M 4.75 -1.34375 L 4.75 0 L 0 0 L 0 -1.34375 L 1.625 -1.34375 L 1.625 -5.484375 L 3.09375 -5.484375 L 3.09375 -1.34375 Z M 1.671875 -7.921875 L 3.015625 -7.921875 L 3.015625 -6.484375 L 1.671875 -6.484375 Z M 1.671875 -7.921875 "/></g></g></g><g fill="#ffffff" fill-opacity="1"><g transform="translate(104.334132, 14.497428)"><g><path d="M 8.078125 -1.34375 L 8.078125 0 L 7.484375 0 C 7.359375 0 7.238281 -0.0390625 7.125 -0.125 C 7.019531 -0.21875 6.941406 -0.332031 6.890625 -0.46875 L 6.890625 0 L 0 0 L 0 -1.34375 L 1.703125 -1.34375 C 1.609375 -1.863281 1.5625 -2.328125 1.5625 -2.734375 C 1.5625 -3.128906 1.597656 -3.554688 1.671875 -4.015625 C 1.753906 -4.472656 1.847656 -4.875 1.953125 -5.21875 C 2.148438 -5.3125 2.441406 -5.394531 2.828125 -5.46875 C 3.210938 -5.539062 3.644531 -5.578125 4.125 -5.578125 C 4.875 -5.578125 5.453125 -5.46875 5.859375 -5.25 C 6.265625 -5.03125 6.535156 -4.71875 6.671875 -4.3125 C 6.816406 -3.914062 6.890625 -3.390625 6.890625 -2.734375 L 6.890625 -1.8125 C 6.941406 -1.664062 7.019531 -1.550781 7.125 -1.46875 C 7.238281 -1.382812 7.359375 -1.34375 7.484375 -1.34375 Z M 2.984375 -2.734375 C 2.984375 -2.484375 3 -2.226562 3.03125 -1.96875 C 3.0625 -1.707031 3.09375 -1.5 3.125 -1.34375 L 5.421875 -1.34375 L 5.421875 -2.765625 C 5.421875 -3.273438 5.316406 -3.648438 5.109375 -3.890625 C 4.910156 -4.140625 4.53125 -4.265625 3.96875 -4.265625 C 3.6875 -4.265625 3.40625 -4.234375 3.125 -4.171875 C 3.03125 -3.628906 2.984375 -3.148438 2.984375 -2.734375 Z M 2.984375 -2.734375 "/></g></g></g><g fill="#ffffff" fill-opacity="1"><g transform="translate(112.417063, 14.497428)"><g><path d="M 2.8125 -7.671875 L 2.8125 0 L 0 0 L 0 -1.34375 L 1.34375 -1.34375 L 1.34375 -7.671875 Z M 2.8125 -7.671875 "/></g></g></g><g fill="#ffffff" fill-opacity="1"><g transform="translate(116.107981, 14.497428)"><g><path d="M 0.875 -7.671875 L 2.34375 -7.671875 L 2.34375 0 L 0.875 0 Z M 0.875 -7.671875 "/></g></g></g><g fill="#ffffff" fill-opacity="1"><g transform="translate(119.43748, 14.497428)"><g/></g></g><g fill="#ffffff" fill-opacity="1"><g transform="translate(121.846993, 14.497428)"><g><path d="M 1.234375 2.71875 C 1.140625 2.71875 0.875 2.703125 0.4375 2.671875 L 0.4375 1.359375 L 0.8125 1.375 C 1.070312 1.375 1.265625 1.269531 1.390625 1.0625 C 1.523438 0.851562 1.59375 0.5625 1.59375 0.1875 L 1.59375 -5.484375 L 3.0625 -5.484375 L 3.0625 -0.0625 C 3.0625 0.8125 2.910156 1.492188 2.609375 1.984375 C 2.304688 2.472656 1.847656 2.71875 1.234375 2.71875 Z M 1.234375 2.71875 "/></g></g></g><g fill="#ffffff" fill-opacity="1"><g transform="translate(125.570767, 14.497428)"><g><path d="M 3.421875 -1.34375 L 3.421875 0 L 0.875 0 L 0.875 -7.671875 L 2.34375 -7.671875 L 2.34375 -1.34375 Z M 3.421875 -1.34375 "/></g></g></g><g fill="#ffffff" fill-opacity="1"><g transform="translate(128.987943, 14.497428)"><g><path d="M 8.078125 -1.34375 L 8.078125 0 L 7.484375 0 C 7.359375 0 7.238281 -0.0390625 7.125 -0.125 C 7.019531 -0.21875 6.941406 -0.332031 6.890625 -0.46875 L 6.890625 0 L 0 0 L 0 -1.34375 L 1.703125 -1.34375 C 1.609375 -1.863281 1.5625 -2.328125 1.5625 -2.734375 C 1.5625 -3.128906 1.597656 -3.554688 1.671875 -4.015625 C 1.753906 -4.472656 1.847656 -4.875 1.953125 -5.21875 C 2.148438 -5.3125 2.441406 -5.394531 2.828125 -5.46875 C 3.210938 -5.539062 3.644531 -5.578125 4.125 -5.578125 C 4.875 -5.578125 5.453125 -5.46875 5.859375 -5.25 C 6.265625 -5.03125 6.535156 -4.71875 6.671875 -4.3125 C 6.816406 -3.914062 6.890625 -3.390625 6.890625 -2.734375 L 6.890625 -1.8125 C 6.941406 -1.664062 7.019531 -1.550781 7.125 -1.46875 C 7.238281 -1.382812 7.359375 -1.34375 7.484375 -1.34375 Z M 2.984375 -2.734375 C 2.984375 -2.484375 3 -2.226562 3.03125 -1.96875 C 3.0625 -1.707031 3.09375 -1.5 3.125 -1.34375 L 5.421875 -1.34375 L 5.421875 -2.765625 C 5.421875 -3.273438 5.316406 -3.648438 5.109375 -3.890625 C 4.910156 -4.140625 4.53125 -4.265625 3.96875 -4.265625 C 3.6875 -4.265625 3.40625 -4.234375 3.125 -4.171875 C 3.03125 -3.628906 2.984375 -3.148438 2.984375 -2.734375 Z M 2.984375 -2.734375 "/></g></g></g><g fill="#ffffff" fill-opacity="1"><g transform="translate(137.070864, 14.497428)"><g><path d="M 5.984375 -1.34375 L 5.984375 0 L 0 0 L 0 -1.34375 L 1.546875 -1.34375 C 1.304688 -1.78125 1.1875 -2.300781 1.1875 -2.90625 C 1.1875 -3.539062 1.320312 -4.0625 1.59375 -4.46875 C 1.863281 -4.875 2.195312 -5.164062 2.59375 -5.34375 C 3 -5.519531 3.398438 -5.609375 3.796875 -5.609375 C 4.066406 -5.609375 4.378906 -5.566406 4.734375 -5.484375 C 5.085938 -5.410156 5.394531 -5.3125 5.65625 -5.1875 L 5.59375 -3.796875 C 5.363281 -3.910156 5.085938 -4.015625 4.765625 -4.109375 C 4.453125 -4.210938 4.175781 -4.265625 3.9375 -4.265625 C 3.59375 -4.265625 3.289062 -4.15625 3.03125 -3.9375 C 2.78125 -3.71875 2.65625 -3.351562 2.65625 -2.84375 C 2.65625 -2.5 2.707031 -2.203125 2.8125 -1.953125 C 2.925781 -1.703125 3.066406 -1.5 3.234375 -1.34375 Z M 5.984375 -1.34375 "/></g></g></g><g clip-path="url(#dab0373b20)"><g fill="#ffffff" fill-opacity="1"><g transform="translate(143.390344, 14.497428)"><g><path d="M 0.34375 0 Z M 0.875 -7.671875 L 2.34375 -7.671875 L 2.34375 0 L 0.875 0 Z M 2.859375 2.78125 L 0.46875 3.25 L 0.34375 2.75 L 0.84375 2.609375 C 0.5625 2.367188 0.421875 2.070312 0.421875 1.71875 C 0.421875 1.425781 0.523438 1.171875 0.734375 0.953125 C 0.953125 0.734375 1.234375 0.625 1.578125 0.625 C 1.859375 0.625 2.140625 0.707031 2.421875 0.875 L 2.28125 1.53125 C 2.238281 1.5 2.175781 1.46875 2.09375 1.4375 C 2.007812 1.40625 1.921875 1.390625 1.828125 1.390625 C 1.660156 1.390625 1.519531 1.441406 1.40625 1.546875 C 1.300781 1.660156 1.25 1.789062 1.25 1.9375 C 1.25 2.144531 1.335938 2.3125 1.515625 2.4375 L 2.703125 2.125 Z M 2.859375 2.78125 "/></g></g></g></g></g></g><g transform="matrix(1, 0, 0, 1, 5, 27)"><g clip-path="url(#9e5a3d3c83)"><g clip-path="url(#0451dd993a)"><g fill="#ffffff" fill-opacity="1"><g transform="translate(0.324179, 6.733337)"><g><path d="M 1.046875 -1.828125 L 1.046875 -0.375 L 3.03125 -0.375 L 3.03125 0 L 0.59375 0 L 0.59375 -3.890625 L 2.984375 -3.890625 L 2.984375 -3.515625 L 1.046875 -3.515625 L 1.046875 -2.21875 L 2.765625 -2.21875 L 2.765625 -1.828125 Z M 1.046875 -1.828125 "/></g></g></g></g><g fill="#ffffff" fill-opacity="1"><g transform="translate(6.886522, 6.733337)"><g><path d="M 0.515625 0 L 0.515625 -2.9375 L 0.921875 -2.9375 L 0.921875 -2.5 L 0.984375 -2.5 C 1.078125 -2.65625 1.191406 -2.773438 1.328125 -2.859375 C 1.472656 -2.953125 1.644531 -3 1.84375 -3 C 2.070312 -3 2.25 -2.953125 2.375 -2.859375 C 2.5 -2.773438 2.597656 -2.640625 2.671875 -2.453125 L 2.71875 -2.453125 C 2.820312 -2.628906 2.945312 -2.765625 3.09375 -2.859375 C 3.238281 -2.953125 3.421875 -3 3.640625 -3 C 3.941406 -3 4.164062 -2.914062 4.3125 -2.75 C 4.46875 -2.582031 4.546875 -2.332031 4.546875 -2 L 4.546875 0 L 4.109375 0 L 4.109375 -1.984375 C 4.109375 -2.203125 4.0625 -2.359375 3.96875 -2.453125 C 3.882812 -2.554688 3.738281 -2.609375 3.53125 -2.609375 C 3.300781 -2.609375 3.113281 -2.523438 2.96875 -2.359375 C 2.820312 -2.191406 2.75 -1.910156 2.75 -1.515625 L 2.75 0 L 2.3125 0 L 2.3125 -1.984375 C 2.3125 -2.203125 2.265625 -2.359375 2.171875 -2.453125 C 2.085938 -2.554688 1.941406 -2.609375 1.734375 -2.609375 C 1.503906 -2.609375 1.3125 -2.523438 1.15625 -2.359375 C 1.007812 -2.203125 0.9375 -1.9375 0.9375 -1.5625 L 0.9375 0 Z M 0.515625 0 "/></g></g></g><g fill="#ffffff" fill-opacity="1"><g transform="translate(15.166825, 6.733337)"><g><path d="M 1.21875 0.0625 C 0.925781 0.0625 0.695312 -0.0078125 0.53125 -0.15625 C 0.375 -0.3125 0.296875 -0.53125 0.296875 -0.8125 C 0.296875 -0.988281 0.328125 -1.132812 0.390625 -1.25 C 0.460938 -1.375 0.570312 -1.472656 0.71875 -1.546875 C 0.875 -1.628906 1.078125 -1.6875 1.328125 -1.71875 C 1.535156 -1.757812 1.691406 -1.800781 1.796875 -1.84375 C 1.910156 -1.882812 1.988281 -1.929688 2.03125 -1.984375 C 2.070312 -2.046875 2.09375 -2.117188 2.09375 -2.203125 C 2.09375 -2.335938 2.046875 -2.4375 1.953125 -2.5 C 1.859375 -2.570312 1.710938 -2.609375 1.515625 -2.609375 C 1.328125 -2.609375 1.160156 -2.570312 1.015625 -2.5 C 0.878906 -2.425781 0.757812 -2.316406 0.65625 -2.171875 L 0.59375 -2.171875 L 0.390625 -2.46875 C 0.503906 -2.632812 0.65625 -2.765625 0.84375 -2.859375 C 1.039062 -2.953125 1.265625 -3 1.515625 -3 C 1.859375 -3 2.113281 -2.921875 2.28125 -2.765625 C 2.445312 -2.609375 2.53125 -2.398438 2.53125 -2.140625 L 2.53125 -0.578125 C 2.53125 -0.410156 2.597656 -0.328125 2.734375 -0.328125 C 2.773438 -0.328125 2.816406 -0.335938 2.859375 -0.359375 L 2.90625 -0.34375 L 2.953125 -0.046875 C 2.921875 -0.0234375 2.878906 -0.0078125 2.828125 0 C 2.773438 0.0078125 2.722656 0.015625 2.671875 0.015625 C 2.503906 0.015625 2.378906 -0.015625 2.296875 -0.078125 C 2.210938 -0.148438 2.160156 -0.257812 2.140625 -0.40625 L 2.078125 -0.40625 C 1.992188 -0.25 1.878906 -0.128906 1.734375 -0.046875 C 1.597656 0.0234375 1.425781 0.0625 1.21875 0.0625 Z M 1.3125 -0.296875 C 1.46875 -0.296875 1.601562 -0.332031 1.71875 -0.40625 C 1.84375 -0.476562 1.9375 -0.582031 2 -0.71875 C 2.070312 -0.851562 2.109375 -1.015625 2.109375 -1.203125 L 2.109375 -1.5625 L 2.046875 -1.578125 C 1.984375 -1.535156 1.90625 -1.5 1.8125 -1.46875 C 1.71875 -1.4375 1.585938 -1.40625 1.421875 -1.375 C 1.242188 -1.351562 1.101562 -1.316406 1 -1.265625 C 0.90625 -1.222656 0.835938 -1.164062 0.796875 -1.09375 C 0.753906 -1.019531 0.734375 -0.925781 0.734375 -0.8125 C 0.734375 -0.644531 0.78125 -0.515625 0.875 -0.421875 C 0.976562 -0.335938 1.125 -0.296875 1.3125 -0.296875 Z M 1.3125 -0.296875 "/></g></g></g><g fill="#ffffff" fill-opacity="1"><g transform="translate(21.478798, 6.733337)"><g><path d="M 1.21875 0.0625 C 0.925781 0.0625 0.695312 -0.0078125 0.53125 -0.15625 C 0.375 -0.3125 0.296875 -0.53125 0.296875 -0.8125 C 0.296875 -0.988281 0.328125 -1.132812 0.390625 -1.25 C 0.460938 -1.375 0.570312 -1.472656 0.71875 -1.546875 C 0.875 -1.628906 1.078125 -1.6875 1.328125 -1.71875 C 1.535156 -1.757812 1.691406 -1.800781 1.796875 -1.84375 C 1.910156 -1.882812 1.988281 -1.929688 2.03125 -1.984375 C 2.070312 -2.046875 2.09375 -2.117188 2.09375 -2.203125 C 2.09375 -2.335938 2.046875 -2.4375 1.953125 -2.5 C 1.859375 -2.570312 1.710938 -2.609375 1.515625 -2.609375 C 1.328125 -2.609375 1.160156 -2.570312 1.015625 -2.5 C 0.878906 -2.425781 0.757812 -2.316406 0.65625 -2.171875 L 0.59375 -2.171875 L 0.390625 -2.46875 C 0.503906 -2.632812 0.65625 -2.765625 0.84375 -2.859375 C 1.039062 -2.953125 1.265625 -3 1.515625 -3 C 1.859375 -3 2.113281 -2.921875 2.28125 -2.765625 C 2.445312 -2.609375 2.53125 -2.398438 2.53125 -2.140625 L 2.53125 -0.578125 C 2.53125 -0.410156 2.597656 -0.328125 2.734375 -0.328125 C 2.773438 -0.328125 2.816406 -0.335938 2.859375 -0.359375 L 2.90625 -0.34375 L 2.953125 -0.046875 C 2.921875 -0.0234375 2.878906 -0.0078125 2.828125 0 C 2.773438 0.0078125 2.722656 0.015625 2.671875 0.015625 C 2.503906 0.015625 2.378906 -0.015625 2.296875 -0.078125 C 2.210938 -0.148438 2.160156 -0.257812 2.140625 -0.40625 L 2.078125 -0.40625 C 1.992188 -0.25 1.878906 -0.128906 1.734375 -0.046875 C 1.597656 0.0234375 1.425781 0.0625 1.21875 0.0625 Z M 1.3125 -0.296875 C 1.46875 -0.296875 1.601562 -0.332031 1.71875 -0.40625 C 1.84375 -0.476562 1.9375 -0.582031 2 -0.71875 C 2.070312 -0.851562 2.109375 -1.015625 2.109375 -1.203125 L 2.109375 -1.5625 L 2.046875 -1.578125 C 1.984375 -1.535156 1.90625 -1.5 1.8125 -1.46875 C 1.71875 -1.4375 1.585938 -1.40625 1.421875 -1.375 C 1.242188 -1.351562 1.101562 -1.316406 1 -1.265625 C 0.90625 -1.222656 0.835938 -1.164062 0.796875 -1.09375 C 0.753906 -1.019531 0.734375 -0.925781 0.734375 -0.8125 C 0.734375 -0.644531 0.78125 -0.515625 0.875 -0.421875 C 0.976562 -0.335938 1.125 -0.296875 1.3125 -0.296875 Z M 1.3125 -0.296875 "/></g></g></g><g fill="#ffffff" fill-opacity="1"><g transform="translate(27.790772, 6.733337)"><g><path d="M 0.515625 0 L 0.515625 -2.9375 L 0.921875 -2.9375 L 0.921875 -2.46875 L 0.984375 -2.46875 C 1.117188 -2.800781 1.375 -2.96875 1.75 -2.96875 C 1.945312 -2.96875 2.097656 -2.929688 2.203125 -2.859375 L 2.09375 -2.484375 L 2.03125 -2.46875 C 1.925781 -2.53125 1.804688 -2.5625 1.671875 -2.5625 C 1.441406 -2.5625 1.257812 -2.472656 1.125 -2.296875 C 1 -2.117188 0.9375 -1.832031 0.9375 -1.4375 L 0.9375 0 Z M 0.515625 0 "/></g></g></g><g fill="#ffffff" fill-opacity="1"><g transform="translate(33.332994, 6.733337)"><g/></g></g><g fill="#ffffff" fill-opacity="1"><g transform="translate(37.942989, 6.733337)"><g><path d="M 3.5 0 L 3.015625 0 L 2.65625 -1.0625 L 1 -1.0625 L 0.640625 0 L 0.15625 0 L 1.515625 -3.890625 L 2.140625 -3.890625 Z M 1.796875 -3.421875 L 1.125 -1.453125 L 2.53125 -1.453125 L 1.859375 -3.421875 Z M 1.796875 -3.421875 "/></g></g></g><g fill="#ffffff" fill-opacity="1"><g transform="translate(44.840934, 6.733337)"><g><path d="M 1.171875 0.0625 C 0.960938 0.0625 0.796875 0.00390625 0.671875 -0.109375 C 0.554688 -0.234375 0.5 -0.414062 0.5 -0.65625 L 0.5 -4.109375 L 0.9375 -4.109375 L 0.9375 -0.671875 C 0.9375 -0.554688 0.957031 -0.46875 1 -0.40625 C 1.050781 -0.351562 1.125 -0.328125 1.21875 -0.328125 C 1.28125 -0.328125 1.34375 -0.335938 1.40625 -0.359375 L 1.453125 -0.34375 L 1.5 -0.015625 C 1.46875 0.00390625 1.421875 0.0195312 1.359375 0.03125 C 1.296875 0.0507812 1.234375 0.0625 1.171875 0.0625 Z M 1.171875 0.0625 "/></g></g></g><g fill="#ffffff" fill-opacity="1"><g transform="translate(49.645365, 6.733337)"><g><path d="M 1.796875 -1.703125 L 0.28125 -1.703125 L 0.28125 -2.078125 L 1.796875 -2.078125 Z M 1.796875 -1.703125 "/></g></g></g><g fill="#ffffff" fill-opacity="1"><g transform="translate(54.98516, 6.733337)"><g><path d="M 1.015625 0 L 0.59375 0 L 0.59375 -3.890625 L 1.265625 -3.890625 L 2.453125 -0.59375 L 2.5 -0.59375 L 3.6875 -3.890625 L 4.34375 -3.890625 L 4.34375 0 L 3.90625 0 L 3.90625 -3.171875 L 3.84375 -3.1875 L 2.6875 0 L 2.234375 0 L 1.078125 -3.1875 L 1.015625 -3.171875 Z M 1.015625 0 "/></g></g></g><g fill="#ffffff" fill-opacity="1"><g transform="translate(63.188221, 6.733337)"><g><path d="M 1.21875 0.0625 C 0.925781 0.0625 0.695312 -0.0078125 0.53125 -0.15625 C 0.375 -0.3125 0.296875 -0.53125 0.296875 -0.8125 C 0.296875 -0.988281 0.328125 -1.132812 0.390625 -1.25 C 0.460938 -1.375 0.570312 -1.472656 0.71875 -1.546875 C 0.875 -1.628906 1.078125 -1.6875 1.328125 -1.71875 C 1.535156 -1.757812 1.691406 -1.800781 1.796875 -1.84375 C 1.910156 -1.882812 1.988281 -1.929688 2.03125 -1.984375 C 2.070312 -2.046875 2.09375 -2.117188 2.09375 -2.203125 C 2.09375 -2.335938 2.046875 -2.4375 1.953125 -2.5 C 1.859375 -2.570312 1.710938 -2.609375 1.515625 -2.609375 C 1.328125 -2.609375 1.160156 -2.570312 1.015625 -2.5 C 0.878906 -2.425781 0.757812 -2.316406 0.65625 -2.171875 L 0.59375 -2.171875 L 0.390625 -2.46875 C 0.503906 -2.632812 0.65625 -2.765625 0.84375 -2.859375 C 1.039062 -2.953125 1.265625 -3 1.515625 -3 C 1.859375 -3 2.113281 -2.921875 2.28125 -2.765625 C 2.445312 -2.609375 2.53125 -2.398438 2.53125 -2.140625 L 2.53125 -0.578125 C 2.53125 -0.410156 2.597656 -0.328125 2.734375 -0.328125 C 2.773438 -0.328125 2.816406 -0.335938 2.859375 -0.359375 L 2.90625 -0.34375 L 2.953125 -0.046875 C 2.921875 -0.0234375 2.878906 -0.0078125 2.828125 0 C 2.773438 0.0078125 2.722656 0.015625 2.671875 0.015625 C 2.503906 0.015625 2.378906 -0.015625 2.296875 -0.078125 C 2.210938 -0.148438 2.160156 -0.257812 2.140625 -0.40625 L 2.078125 -0.40625 C 1.992188 -0.25 1.878906 -0.128906 1.734375 -0.046875 C 1.597656 0.0234375 1.425781 0.0625 1.21875 0.0625 Z M 1.3125 -0.296875 C 1.46875 -0.296875 1.601562 -0.332031 1.71875 -0.40625 C 1.84375 -0.476562 1.9375 -0.582031 2 -0.71875 C 2.070312 -0.851562 2.109375 -1.015625 2.109375 -1.203125 L 2.109375 -1.5625 L 2.046875 -1.578125 C 1.984375 -1.535156 1.90625 -1.5 1.8125 -1.46875 C 1.71875 -1.4375 1.585938 -1.40625 1.421875 -1.375 C 1.242188 -1.351562 1.101562 -1.316406 1 -1.265625 C 0.90625 -1.222656 0.835938 -1.164062 0.796875 -1.09375 C 0.753906 -1.019531 0.734375 -0.925781 0.734375 -0.8125 C 0.734375 -0.644531 0.78125 -0.515625 0.875 -0.421875 C 0.976562 -0.335938 1.125 -0.296875 1.3125 -0.296875 Z M 1.3125 -0.296875 "/></g></g></g><g fill="#ffffff" fill-opacity="1"><g transform="translate(69.500194, 6.733337)"><g><path d="M 0.515625 0 L 0.515625 -2.9375 L 0.921875 -2.9375 L 0.921875 -2.46875 L 0.984375 -2.46875 C 1.078125 -2.632812 1.195312 -2.765625 1.34375 -2.859375 C 1.5 -2.953125 1.6875 -3 1.90625 -3 C 2.257812 -3 2.515625 -2.90625 2.671875 -2.71875 C 2.835938 -2.539062 2.921875 -2.265625 2.921875 -1.890625 L 2.921875 0 L 2.484375 0 L 2.484375 -1.875 C 2.484375 -2.050781 2.457031 -2.191406 2.40625 -2.296875 C 2.363281 -2.410156 2.296875 -2.488281 2.203125 -2.53125 C 2.109375 -2.582031 1.984375 -2.609375 1.828125 -2.609375 C 1.566406 -2.609375 1.351562 -2.519531 1.1875 -2.34375 C 1.019531 -2.175781 0.9375 -1.894531 0.9375 -1.5 L 0.9375 0 Z M 0.515625 0 "/></g></g></g><g fill="#ffffff" fill-opacity="1"><g transform="translate(76.15576, 6.733337)"><g><path d="M 2.34375 0 L 0.203125 0 L 0.203125 -0.375 L 1.8125 -2.53125 L 1.796875 -2.578125 L 0.265625 -2.578125 L 0.265625 -2.9375 L 2.328125 -2.9375 L 2.328125 -2.5625 L 0.703125 -0.40625 L 0.734375 -0.359375 L 2.34375 -0.359375 Z M 2.34375 0 "/></g></g></g><g fill="#ffffff" fill-opacity="1"><g transform="translate(81.988303, 6.733337)"><g><path d="M 0.734375 -3.5 C 0.640625 -3.5 0.5625 -3.523438 0.5 -3.578125 C 0.445312 -3.640625 0.421875 -3.71875 0.421875 -3.8125 C 0.421875 -3.894531 0.445312 -3.960938 0.5 -4.015625 C 0.5625 -4.078125 0.640625 -4.109375 0.734375 -4.109375 C 0.828125 -4.109375 0.898438 -4.078125 0.953125 -4.015625 C 1.015625 -3.960938 1.046875 -3.894531 1.046875 -3.8125 C 1.046875 -3.71875 1.015625 -3.640625 0.953125 -3.578125 C 0.898438 -3.523438 0.828125 -3.5 0.734375 -3.5 Z M 0.515625 0 L 0.515625 -2.9375 L 0.9375 -2.9375 L 0.9375 0 Z M 0.515625 0 "/></g></g></g><g fill="#ffffff" fill-opacity="1"><g transform="translate(86.718157, 6.733337)"><g><path d="M 1.171875 0.0625 C 0.960938 0.0625 0.796875 0.00390625 0.671875 -0.109375 C 0.554688 -0.234375 0.5 -0.414062 0.5 -0.65625 L 0.5 -4.109375 L 0.9375 -4.109375 L 0.9375 -0.671875 C 0.9375 -0.554688 0.957031 -0.46875 1 -0.40625 C 1.050781 -0.351562 1.125 -0.328125 1.21875 -0.328125 C 1.28125 -0.328125 1.34375 -0.335938 1.40625 -0.359375 L 1.453125 -0.34375 L 1.5 -0.015625 C 1.46875 0.00390625 1.421875 0.0195312 1.359375 0.03125 C 1.296875 0.0507812 1.234375 0.0625 1.171875 0.0625 Z M 1.171875 0.0625 "/></g></g></g><g fill="#ffffff" fill-opacity="1"><g transform="translate(91.589176, 6.733337)"><g/></g></g><g fill="#ffffff" fill-opacity="1"><g transform="translate(96.199171, 6.733337)"><g><path d="M 1.703125 0.0625 C 1.453125 0.0625 1.226562 0.03125 1.03125 -0.03125 C 0.84375 -0.101562 0.679688 -0.191406 0.546875 -0.296875 C 0.421875 -0.410156 0.328125 -0.53125 0.265625 -0.65625 L 0.515625 -0.96875 L 0.578125 -0.96875 C 0.816406 -0.5625 1.191406 -0.359375 1.703125 -0.359375 C 1.992188 -0.359375 2.207031 -0.414062 2.34375 -0.53125 C 2.488281 -0.65625 2.5625 -0.828125 2.5625 -1.046875 C 2.5625 -1.179688 2.535156 -1.289062 2.484375 -1.375 C 2.441406 -1.46875 2.367188 -1.546875 2.265625 -1.609375 C 2.160156 -1.671875 2.015625 -1.722656 1.828125 -1.765625 L 1.375 -1.875 C 1.03125 -1.957031 0.773438 -2.085938 0.609375 -2.265625 C 0.453125 -2.441406 0.375 -2.671875 0.375 -2.953125 C 0.375 -3.140625 0.421875 -3.304688 0.515625 -3.453125 C 0.617188 -3.609375 0.765625 -3.726562 0.953125 -3.8125 C 1.148438 -3.90625 1.382812 -3.953125 1.65625 -3.953125 C 1.945312 -3.953125 2.191406 -3.910156 2.390625 -3.828125 C 2.585938 -3.742188 2.75 -3.617188 2.875 -3.453125 L 2.65625 -3.15625 L 2.578125 -3.15625 C 2.472656 -3.289062 2.34375 -3.390625 2.1875 -3.453125 C 2.03125 -3.515625 1.851562 -3.546875 1.65625 -3.546875 C 1.382812 -3.546875 1.175781 -3.492188 1.03125 -3.390625 C 0.894531 -3.285156 0.828125 -3.140625 0.828125 -2.953125 C 0.828125 -2.773438 0.878906 -2.632812 0.984375 -2.53125 C 1.085938 -2.4375 1.257812 -2.359375 1.5 -2.296875 L 1.96875 -2.1875 C 2.34375 -2.09375 2.613281 -1.953125 2.78125 -1.765625 C 2.945312 -1.585938 3.03125 -1.359375 3.03125 -1.078125 C 3.03125 -0.859375 2.984375 -0.660156 2.890625 -0.484375 C 2.796875 -0.316406 2.644531 -0.179688 2.4375 -0.078125 C 2.238281 0.015625 1.992188 0.0625 1.703125 0.0625 Z M 1.703125 0.0625 "/></g></g></g><g fill="#ffffff" fill-opacity="1"><g transform="translate(102.809457, 6.733337)"><g><path d="M 2.796875 -1.375 L 0.78125 -1.375 C 0.789062 -1.007812 0.875 -0.742188 1.03125 -0.578125 C 1.195312 -0.410156 1.414062 -0.328125 1.6875 -0.328125 C 1.894531 -0.328125 2.0625 -0.363281 2.1875 -0.4375 C 2.320312 -0.519531 2.425781 -0.640625 2.5 -0.796875 L 2.546875 -0.796875 L 2.828125 -0.625 C 2.742188 -0.414062 2.609375 -0.25 2.421875 -0.125 C 2.234375 0 1.988281 0.0625 1.6875 0.0625 C 1.40625 0.0625 1.160156 0.00390625 0.953125 -0.109375 C 0.753906 -0.222656 0.597656 -0.394531 0.484375 -0.625 C 0.378906 -0.851562 0.328125 -1.132812 0.328125 -1.46875 C 0.328125 -1.800781 0.382812 -2.082031 0.5 -2.3125 C 0.613281 -2.539062 0.769531 -2.710938 0.96875 -2.828125 C 1.175781 -2.941406 1.410156 -3 1.671875 -3 C 2.046875 -3 2.335938 -2.890625 2.546875 -2.671875 C 2.753906 -2.460938 2.859375 -2.148438 2.859375 -1.734375 C 2.859375 -1.566406 2.859375 -1.457031 2.859375 -1.40625 Z M 2.4375 -1.734375 C 2.425781 -2.046875 2.351562 -2.269531 2.21875 -2.40625 C 2.09375 -2.550781 1.910156 -2.625 1.671875 -2.625 C 1.410156 -2.625 1.207031 -2.550781 1.0625 -2.40625 C 0.914062 -2.269531 0.828125 -2.046875 0.796875 -1.734375 Z M 2.4375 -1.734375 "/></g></g></g><g fill="#ffffff" fill-opacity="1"><g transform="translate(109.214654, 6.733337)"><g><path d="M 0.515625 0 L 0.515625 -2.9375 L 0.921875 -2.9375 L 0.921875 -2.46875 L 0.984375 -2.46875 C 1.117188 -2.800781 1.375 -2.96875 1.75 -2.96875 C 1.945312 -2.96875 2.097656 -2.929688 2.203125 -2.859375 L 2.09375 -2.484375 L 2.03125 -2.46875 C 1.925781 -2.53125 1.804688 -2.5625 1.671875 -2.5625 C 1.441406 -2.5625 1.257812 -2.472656 1.125 -2.296875 C 1 -2.117188 0.9375 -1.832031 0.9375 -1.4375 L 0.9375 0 Z M 0.515625 0 "/></g></g></g><g fill="#ffffff" fill-opacity="1"><g transform="translate(114.756875, 6.733337)"><g><path d="M 1.859375 0 L 1.265625 0 L 0.140625 -2.9375 L 0.609375 -2.9375 L 1.53125 -0.5 L 1.59375 -0.5 L 2.515625 -2.9375 L 2.96875 -2.9375 Z M 1.859375 0 "/></g></g></g><g fill="#ffffff" fill-opacity="1"><g transform="translate(121.143427, 6.733337)"><g><path d="M 0.734375 -3.5 C 0.640625 -3.5 0.5625 -3.523438 0.5 -3.578125 C 0.445312 -3.640625 0.421875 -3.71875 0.421875 -3.8125 C 0.421875 -3.894531 0.445312 -3.960938 0.5 -4.015625 C 0.5625 -4.078125 0.640625 -4.109375 0.734375 -4.109375 C 0.828125 -4.109375 0.898438 -4.078125 0.953125 -4.015625 C 1.015625 -3.960938 1.046875 -3.894531 1.046875 -3.8125 C 1.046875 -3.71875 1.015625 -3.640625 0.953125 -3.578125 C 0.898438 -3.523438 0.828125 -3.5 0.734375 -3.5 Z M 0.515625 0 L 0.515625 -2.9375 L 0.9375 -2.9375 L 0.9375 0 Z M 0.515625 0 "/></g></g></g><g fill="#ffffff" fill-opacity="1"><g transform="translate(125.87328, 6.733337)"><g><path d="M 1.6875 0.0625 C 1.425781 0.0625 1.191406 0.00390625 0.984375 -0.109375 C 0.773438 -0.234375 0.613281 -0.410156 0.5 -0.640625 C 0.382812 -0.867188 0.328125 -1.144531 0.328125 -1.46875 C 0.328125 -1.789062 0.382812 -2.066406 0.5 -2.296875 C 0.613281 -2.523438 0.773438 -2.695312 0.984375 -2.8125 C 1.191406 -2.9375 1.425781 -3 1.6875 -3 C 2 -3 2.242188 -2.9375 2.421875 -2.8125 C 2.609375 -2.695312 2.742188 -2.539062 2.828125 -2.34375 L 2.53125 -2.140625 L 2.46875 -2.140625 C 2.394531 -2.296875 2.296875 -2.410156 2.171875 -2.484375 C 2.046875 -2.566406 1.882812 -2.609375 1.6875 -2.609375 C 1.5 -2.609375 1.335938 -2.5625 1.203125 -2.46875 C 1.066406 -2.382812 0.960938 -2.257812 0.890625 -2.09375 C 0.816406 -1.925781 0.78125 -1.71875 0.78125 -1.46875 C 0.78125 -1.21875 0.816406 -1.007812 0.890625 -0.84375 C 0.960938 -0.675781 1.066406 -0.546875 1.203125 -0.453125 C 1.335938 -0.367188 1.5 -0.328125 1.6875 -0.328125 C 1.882812 -0.328125 2.050781 -0.375 2.1875 -0.46875 C 2.320312 -0.5625 2.429688 -0.707031 2.515625 -0.90625 L 2.5625 -0.90625 L 2.84375 -0.734375 C 2.769531 -0.492188 2.632812 -0.300781 2.4375 -0.15625 C 2.238281 -0.0078125 1.988281 0.0625 1.6875 0.0625 Z M 1.6875 0.0625 "/></g></g></g><g fill="#ffffff" fill-opacity="1"><g transform="translate(132.1746, 6.733337)"><g><path d="M 2.796875 -1.375 L 0.78125 -1.375 C 0.789062 -1.007812 0.875 -0.742188 1.03125 -0.578125 C 1.195312 -0.410156 1.414062 -0.328125 1.6875 -0.328125 C 1.894531 -0.328125 2.0625 -0.363281 2.1875 -0.4375 C 2.320312 -0.519531 2.425781 -0.640625 2.5 -0.796875 L 2.546875 -0.796875 L 2.828125 -0.625 C 2.742188 -0.414062 2.609375 -0.25 2.421875 -0.125 C 2.234375 0 1.988281 0.0625 1.6875 0.0625 C 1.40625 0.0625 1.160156 0.00390625 0.953125 -0.109375 C 0.753906 -0.222656 0.597656 -0.394531 0.484375 -0.625 C 0.378906 -0.851562 0.328125 -1.132812 0.328125 -1.46875 C 0.328125 -1.800781 0.382812 -2.082031 0.5 -2.3125 C 0.613281 -2.539062 0.769531 -2.710938 0.96875 -2.828125 C 1.175781 -2.941406 1.410156 -3 1.671875 -3 C 2.046875 -3 2.335938 -2.890625 2.546875 -2.671875 C 2.753906 -2.460938 2.859375 -2.148438 2.859375 -1.734375 C 2.859375 -1.566406 2.859375 -1.457031 2.859375 -1.40625 Z M 2.4375 -1.734375 C 2.425781 -2.046875 2.351562 -2.269531 2.21875 -2.40625 C 2.09375 -2.550781 1.910156 -2.625 1.671875 -2.625 C 1.410156 -2.625 1.207031 -2.550781 1.0625 -2.40625 C 0.914062 -2.269531 0.828125 -2.046875 0.796875 -1.734375 Z M 2.4375 -1.734375 "/></g></g></g><g fill="#ffffff" fill-opacity="1"><g transform="translate(138.579796, 6.733337)"><g><path d="M 1.34375 0.0625 C 1.15625 0.0625 0.984375 0.0351562 0.828125 -0.015625 C 0.671875 -0.0664062 0.535156 -0.132812 0.421875 -0.21875 C 0.316406 -0.300781 0.242188 -0.394531 0.203125 -0.5 L 0.453125 -0.765625 L 0.515625 -0.765625 C 0.609375 -0.617188 0.722656 -0.507812 0.859375 -0.4375 C 0.992188 -0.363281 1.15625 -0.328125 1.34375 -0.328125 C 1.5625 -0.328125 1.722656 -0.367188 1.828125 -0.453125 C 1.941406 -0.535156 2 -0.65625 2 -0.8125 C 2 -0.925781 1.960938 -1.019531 1.890625 -1.09375 C 1.828125 -1.175781 1.71875 -1.234375 1.5625 -1.265625 L 1.078125 -1.390625 C 0.804688 -1.453125 0.609375 -1.550781 0.484375 -1.6875 C 0.367188 -1.832031 0.3125 -2.003906 0.3125 -2.203125 C 0.3125 -2.367188 0.351562 -2.507812 0.4375 -2.625 C 0.519531 -2.738281 0.632812 -2.828125 0.78125 -2.890625 C 0.9375 -2.960938 1.117188 -3 1.328125 -3 C 1.597656 -3 1.8125 -2.957031 1.96875 -2.875 C 2.125 -2.800781 2.242188 -2.695312 2.328125 -2.5625 L 2.09375 -2.328125 L 2.03125 -2.328125 C 1.9375 -2.429688 1.832031 -2.503906 1.71875 -2.546875 C 1.613281 -2.597656 1.484375 -2.625 1.328125 -2.625 C 1.140625 -2.625 0.992188 -2.585938 0.890625 -2.515625 C 0.785156 -2.453125 0.734375 -2.351562 0.734375 -2.21875 C 0.734375 -2.101562 0.769531 -2.007812 0.84375 -1.9375 C 0.914062 -1.863281 1.039062 -1.804688 1.21875 -1.765625 L 1.71875 -1.640625 C 1.96875 -1.585938 2.148438 -1.488281 2.265625 -1.34375 C 2.378906 -1.207031 2.4375 -1.03125 2.4375 -0.8125 C 2.4375 -0.644531 2.394531 -0.492188 2.3125 -0.359375 C 2.226562 -0.234375 2.101562 -0.128906 1.9375 -0.046875 C 1.78125 0.0234375 1.582031 0.0625 1.34375 0.0625 Z M 1.34375 0.0625 "/></g></g></g></g></g></svg>