<svg xmlns="http://www.w3.org/2000/svg" xmlns:xlink="http://www.w3.org/1999/xlink" width="300" zoomAndPan="magnify" viewBox="0 0 224.87999 44.999999" height="60" preserveAspectRatio="xMidYMid meet" version="1.0"><defs><g/><clipPath id="20bfeabce5"><path d="M 186.160156 9.238281 L 216.894531 9.238281 L 216.894531 39.222656 L 186.160156 39.222656 Z M 186.160156 9.238281 " clip-rule="nonzero"/></clipPath><clipPath id="e40ffdf7f0"><path d="M 199.5 18.273438 L 206.621094 18.273438 L 206.621094 25.394531 L 199.5 25.394531 Z M 199.5 18.273438 " clip-rule="nonzero"/></clipPath><clipPath id="0f04c8178d"><path d="M 203.058594 18.273438 C 201.09375 18.273438 199.5 19.867188 199.5 21.832031 C 199.5 23.800781 201.09375 25.394531 203.058594 25.394531 C 205.027344 25.394531 206.621094 23.800781 206.621094 21.832031 C 206.621094 19.867188 205.027344 18.273438 203.058594 18.273438 Z M 203.058594 18.273438 " clip-rule="nonzero"/></clipPath><clipPath id="9fca189383"><path d="M 0.5 0.273438 L 7.621094 0.273438 L 7.621094 7.394531 L 0.5 7.394531 Z M 0.5 0.273438 " clip-rule="nonzero"/></clipPath><clipPath id="1e6dc8cad6"><path d="M 4.058594 0.273438 C 2.09375 0.273438 0.5 1.867188 0.5 3.832031 C 0.5 5.800781 2.09375 7.394531 4.058594 7.394531 C 6.027344 7.394531 7.621094 5.800781 7.621094 3.832031 C 7.621094 1.867188 6.027344 0.273438 4.058594 0.273438 Z M 4.058594 0.273438 " clip-rule="nonzero"/></clipPath><clipPath id="326e93f90c"><rect x="0" width="8" y="0" height="8"/></clipPath><clipPath id="8614b614ab"><path d="M 199 16 L 211 16 L 211 28 L 199 28 Z M 199 16 " clip-rule="nonzero"/></clipPath><clipPath id="c547bf4df8"><path d="M 199.5 21.898438 L 205.257812 15.996094 L 211.160156 21.75 L 205.402344 27.65625 Z M 199.5 21.898438 " clip-rule="nonzero"/></clipPath><clipPath id="7456167dbe"><path d="M 1 4 L 11.847656 4 L 11.847656 8 L 1 8 Z M 1 4 " clip-rule="nonzero"/></clipPath><clipPath id="0cb4be8d89"><path d="M 0.5 5.898438 L 6.257812 -0.00390625 L 12.160156 5.75 L 6.402344 11.65625 Z M 0.5 5.898438 " clip-rule="nonzero"/></clipPath><clipPath id="4357d62463"><path d="M 6.054688 0.203125 L 0.296875 6.109375 L 6.199219 11.863281 L 11.957031 5.960938 Z M 6.054688 0.203125 " clip-rule="nonzero"/></clipPath><clipPath id="e7b455218e"><path d="M 6.054688 0.203125 L 0.296875 6.109375 L 6.199219 11.863281 L 11.957031 5.960938 Z M 6.054688 0.203125 " clip-rule="nonzero"/></clipPath><clipPath id="592bf03ea0"><rect x="0" width="12" y="0" height="12"/></clipPath><clipPath id="d21a8907ee"><rect x="0" width="157" y="0" height="23"/></clipPath><clipPath id="e41e05e3b6"><path d="M 0.269531 3 L 4 3 L 4 8 L 0.269531 8 Z M 0.269531 3 " clip-rule="nonzero"/></clipPath><clipPath id="18c2b15f35"><rect x="0" width="155" y="0" height="10"/></clipPath></defs><g clip-path="url(#20bfeabce5)"><path fill="#ffffff" d="M 216.613281 21.703125 L 203.875 9.648438 C 203.660156 9.445312 203.40625 9.34375 203.109375 9.34375 C 202.808594 9.34375 202.554688 9.445312 202.339844 9.648438 L 194.265625 17.285156 L 194.070312 17.085938 C 193.957031 16.980469 193.828125 16.929688 193.675781 16.929688 C 193.523438 16.933594 193.394531 16.988281 193.285156 17.09375 C 193.179688 17.203125 193.125 17.332031 193.121094 17.484375 C 193.121094 17.636719 193.171875 17.765625 193.277344 17.878906 L 195.234375 19.835938 C 195.34375 19.945312 195.476562 20 195.632812 20 C 195.785156 20 195.917969 19.945312 196.027344 19.835938 C 196.136719 19.726562 196.191406 19.59375 196.191406 19.441406 C 196.191406 19.285156 196.136719 19.15625 196.027344 19.046875 L 195.851562 18.867188 L 203.109375 12 L 213.035156 21.394531 L 211.507812 21.394531 C 211.359375 21.394531 211.21875 21.421875 211.082031 21.480469 C 210.941406 21.539062 210.824219 21.617188 210.71875 21.722656 C 210.613281 21.828125 210.53125 21.949219 210.476562 22.085938 C 210.417969 22.222656 210.390625 22.367188 210.390625 22.515625 L 210.390625 37.171875 L 207.046875 37.171875 L 207.046875 28.535156 C 207.046875 28.386719 207.015625 28.242188 206.960938 28.105469 C 206.902344 27.96875 206.824219 27.847656 206.71875 27.742188 C 206.613281 27.640625 206.492188 27.558594 206.355469 27.5 C 206.21875 27.445312 206.074219 27.414062 205.925781 27.414062 L 201.007812 27.414062 C 200.859375 27.414062 200.71875 27.445312 200.582031 27.5 C 200.445312 27.558594 200.324219 27.640625 200.21875 27.742188 C 200.113281 27.847656 200.03125 27.96875 199.976562 28.105469 C 199.917969 28.242188 199.890625 28.386719 199.890625 28.535156 L 199.890625 37.171875 L 193.539062 37.171875 L 193.539062 35.222656 L 196.164062 35.222656 C 196.3125 35.222656 196.453125 35.195312 196.589844 35.140625 C 196.726562 35.082031 196.847656 35 196.953125 34.898438 C 197.058594 34.792969 197.140625 34.671875 197.195312 34.535156 C 197.253906 34.394531 197.28125 34.253906 197.28125 34.105469 L 197.28125 28.535156 C 197.28125 28.386719 197.253906 28.242188 197.195312 28.105469 C 197.140625 27.96875 197.058594 27.847656 196.953125 27.742188 C 196.847656 27.640625 196.726562 27.558594 196.589844 27.5 C 196.453125 27.445312 196.3125 27.414062 196.164062 27.414062 L 194.414062 27.414062 L 194.414062 27.40625 C 194.414062 27.085938 194.277344 26.839844 194.007812 26.671875 L 194.007812 25.871094 L 194.816406 25.871094 C 194.941406 26.011719 195.097656 26.085938 195.289062 26.097656 C 195.476562 26.105469 195.640625 26.042969 195.773438 25.910156 C 195.910156 25.78125 195.980469 25.621094 195.980469 25.433594 C 195.980469 25.246094 195.910156 25.085938 195.773438 24.953125 C 195.640625 24.824219 195.476562 24.761719 195.289062 24.769531 C 195.097656 24.777344 194.941406 24.851562 194.816406 24.996094 L 194.007812 24.996094 L 194.007812 24.722656 C 194.007812 24.53125 193.941406 24.371094 193.804688 24.238281 C 193.671875 24.105469 193.511719 24.035156 193.320312 24.035156 C 193.132812 24.035156 192.972656 24.105469 192.835938 24.238281 C 192.703125 24.371094 192.636719 24.53125 192.636719 24.722656 L 192.636719 24.996094 L 191.824219 24.996094 C 191.699219 24.851562 191.542969 24.777344 191.355469 24.769531 C 191.167969 24.761719 191.003906 24.824219 190.867188 24.953125 C 190.730469 25.085938 190.664062 25.246094 190.664062 25.433594 C 190.664062 25.621094 190.730469 25.78125 190.867188 25.910156 C 191.003906 26.042969 191.167969 26.105469 191.355469 26.097656 C 191.542969 26.085938 191.699219 26.011719 191.824219 25.871094 L 192.636719 25.871094 L 192.636719 26.542969 L 191.292969 26.542969 C 191.054688 26.542969 190.847656 26.625 190.679688 26.792969 C 190.511719 26.964844 190.425781 27.167969 190.425781 27.40625 L 190.425781 27.417969 L 189.425781 27.417969 C 189.101562 27.417969 188.792969 27.476562 188.492188 27.601562 C 188.195312 27.726562 187.929688 27.902344 187.703125 28.128906 C 187.472656 28.359375 187.296875 28.621094 187.175781 28.921875 C 187.050781 29.21875 186.988281 29.53125 186.988281 29.851562 L 186.988281 30.703125 L 186.722656 30.703125 C 186.566406 30.703125 186.433594 30.757812 186.324219 30.867188 C 186.214844 30.976562 186.160156 31.109375 186.160156 31.261719 C 186.160156 31.417969 186.214844 31.550781 186.324219 31.660156 C 186.433594 31.769531 186.566406 31.824219 186.722656 31.824219 L 189.492188 31.824219 C 189.648438 31.824219 189.777344 31.769531 189.886719 31.660156 C 189.996094 31.550781 190.050781 31.417969 190.050781 31.261719 C 190.050781 31.109375 189.996094 30.976562 189.886719 30.867188 C 189.777344 30.757812 189.648438 30.703125 189.492188 30.703125 L 189.226562 30.703125 L 189.226562 29.851562 C 189.226562 29.71875 189.292969 29.65625 189.425781 29.652344 L 190.425781 29.652344 L 190.425781 29.664062 C 190.425781 29.902344 190.511719 30.105469 190.679688 30.277344 C 190.847656 30.445312 191.054688 30.527344 191.292969 30.527344 L 193.546875 30.527344 C 193.789062 30.527344 193.992188 30.445312 194.160156 30.277344 C 194.328125 30.105469 194.414062 29.902344 194.414062 29.664062 L 194.414062 29.652344 L 195.042969 29.652344 L 195.042969 32.988281 L 192.421875 32.988281 C 192.273438 32.988281 192.128906 33.015625 191.992188 33.070312 C 191.855469 33.128906 191.734375 33.210938 191.628906 33.316406 C 191.523438 33.417969 191.441406 33.539062 191.386719 33.679688 C 191.328125 33.816406 191.300781 33.957031 191.300781 34.105469 L 191.300781 38.292969 C 191.300781 38.441406 191.328125 38.582031 191.386719 38.722656 C 191.441406 38.859375 191.523438 38.980469 191.628906 39.082031 C 191.734375 39.1875 191.855469 39.269531 191.992188 39.328125 C 192.128906 39.382812 192.273438 39.410156 192.421875 39.410156 L 201.007812 39.410156 C 201.15625 39.410156 201.300781 39.382812 201.4375 39.328125 C 201.574219 39.269531 201.695312 39.1875 201.800781 39.082031 C 201.90625 38.980469 201.988281 38.859375 202.042969 38.722656 C 202.101562 38.582031 202.128906 38.441406 202.128906 38.292969 L 202.128906 29.652344 L 204.808594 29.652344 L 204.808594 38.292969 C 204.808594 38.441406 204.835938 38.582031 204.894531 38.71875 C 204.949219 38.859375 205.03125 38.980469 205.136719 39.082031 C 205.242188 39.1875 205.363281 39.269531 205.5 39.328125 C 205.636719 39.382812 205.777344 39.410156 205.925781 39.410156 L 211.507812 39.410156 C 211.65625 39.410156 211.800781 39.382812 211.9375 39.328125 C 212.074219 39.269531 212.195312 39.1875 212.300781 39.082031 C 212.40625 38.980469 212.484375 38.859375 212.542969 38.71875 C 212.601562 38.582031 212.628906 38.441406 212.628906 38.292969 L 212.628906 23.632812 L 215.847656 23.632812 C 216.074219 23.632812 216.285156 23.570312 216.472656 23.441406 C 216.664062 23.3125 216.800781 23.140625 216.886719 22.929688 C 216.96875 22.714844 216.988281 22.496094 216.9375 22.273438 C 216.890625 22.050781 216.78125 21.859375 216.613281 21.703125 Z M 216.613281 21.703125 " fill-opacity="1" fill-rule="nonzero"/></g><path fill="#ffffff" d="M 188.125 32.46875 C 188.125 32.46875 188.125 32.46875 188.125 32.464844 C 188.121094 32.457031 188.117188 32.453125 188.105469 32.453125 C 188.097656 32.453125 188.09375 32.457031 188.089844 32.464844 C 188.089844 32.46875 188.089844 32.46875 188.085938 32.46875 C 187.976562 32.664062 187.816406 32.960938 187.648438 33.328125 C 187.175781 34.363281 186.933594 34.921875 187.25 35.398438 C 187.269531 35.429688 187.582031 35.882812 188.089844 35.894531 C 188.09375 35.894531 188.101562 35.894531 188.105469 35.894531 C 188.113281 35.894531 188.121094 35.894531 188.125 35.894531 C 188.632812 35.882812 188.945312 35.429688 188.964844 35.398438 C 189.28125 34.921875 189.039062 34.363281 188.566406 33.328125 C 188.398438 32.960938 188.238281 32.664062 188.125 32.46875 Z M 188.125 32.46875 " fill-opacity="1" fill-rule="nonzero"/><g clip-path="url(#e40ffdf7f0)"><g clip-path="url(#0f04c8178d)"><g transform="matrix(1, 0, 0, 1, 199, 18)"><g clip-path="url(#326e93f90c)"><g clip-path="url(#9fca189383)"><g clip-path="url(#1e6dc8cad6)"><path fill="#060e1c" d="M 0.5 0.273438 L 7.621094 0.273438 L 7.621094 7.394531 L 0.5 7.394531 Z M 0.5 0.273438 " fill-opacity="1" fill-rule="nonzero"/></g></g></g></g></g></g><g clip-path="url(#8614b614ab)"><g clip-path="url(#c547bf4df8)"><g transform="matrix(1, 0, 0, 1, 199, 16)"><g clip-path="url(#592bf03ea0)"><g clip-path="url(#7456167dbe)"><g clip-path="url(#0cb4be8d89)"><g clip-path="url(#4357d62463)"><g clip-path="url(#e7b455218e)"><path fill="#ffffff" d="M 10.972656 5.765625 C 10.96875 5.578125 10.8125 5.429688 10.625 5.429688 C 10.4375 5.433594 10.289062 5.585938 10.289062 5.773438 C 10.292969 5.964844 10.445312 6.113281 10.632812 6.113281 C 10.824219 6.109375 10.972656 5.953125 10.972656 5.765625 Z M 2.839844 7.4375 C 2.289062 7.445312 1.804688 7.171875 1.519531 6.746094 C 1.476562 6.6875 1.519531 6.605469 1.59375 6.601562 L 2.605469 6.589844 C 2.730469 6.589844 2.828125 6.488281 2.824219 6.367188 L 2.820312 5.867188 L 2.8125 5.371094 C 2.8125 5.25 2.710938 5.152344 2.589844 5.152344 L 1.578125 5.164062 C 1.503906 5.167969 1.457031 5.085938 1.496094 5.023438 C 1.773438 4.59375 2.25 4.304688 2.800781 4.300781 C 3.234375 4.292969 3.632812 4.46875 3.921875 4.75 C 4.28125 5.105469 4.773438 5.292969 5.28125 5.273438 L 10.582031 5.054688 C 10.59375 5.054688 10.609375 5.050781 10.621094 5.050781 C 11.019531 5.046875 11.34375 5.363281 11.347656 5.761719 C 11.355469 6.160156 11.035156 6.484375 10.640625 6.488281 C 10.625 6.488281 10.613281 6.488281 10.597656 6.488281 L 5.292969 6.402344 C 4.789062 6.394531 4.300781 6.59375 3.949219 6.960938 C 3.667969 7.25 3.277344 7.433594 2.839844 7.4375 " fill-opacity="1" fill-rule="nonzero"/></g></g></g></g></g></g></g></g><g transform="matrix(1, 0, 0, 1, 14, 11)"><g clip-path="url(#d21a8907ee)"><g fill="#ffffff" fill-opacity="1"><g transform="translate(0.71239, 15.332598)"><g><path d="M 0.46875 0 Z M 7.734375 -1.421875 L 7.734375 0 L 3.609375 0 C 2.835938 0 2.226562 -0.078125 1.78125 -0.234375 C 1.332031 -0.398438 1 -0.703125 0.78125 -1.140625 C 0.570312 -1.578125 0.46875 -2.207031 0.46875 -3.03125 C 0.46875 -3.820312 0.566406 -4.425781 0.765625 -4.84375 C 0.972656 -5.257812 1.300781 -5.550781 1.75 -5.71875 C 2.207031 -5.882812 2.84375 -5.96875 3.65625 -5.96875 C 4.09375 -5.96875 4.613281 -5.953125 5.21875 -5.921875 C 5.832031 -5.890625 6.265625 -5.851562 6.515625 -5.8125 L 6.515625 -1.421875 Z M 2.03125 -3.03125 C 2.03125 -2.59375 2.085938 -2.257812 2.203125 -2.03125 C 2.316406 -1.800781 2.488281 -1.640625 2.71875 -1.546875 C 2.957031 -1.460938 3.28125 -1.421875 3.6875 -1.421875 L 4.953125 -1.421875 L 4.953125 -4.484375 C 4.554688 -4.523438 4.144531 -4.546875 3.71875 -4.546875 C 3.289062 -4.546875 2.957031 -4.5 2.71875 -4.40625 C 2.476562 -4.320312 2.300781 -4.171875 2.1875 -3.953125 C 2.082031 -3.742188 2.03125 -3.4375 2.03125 -3.03125 Z M 2.3125 -8.390625 L 3.515625 -8.390625 L 3.515625 -6.9375 L 2.3125 -6.9375 Z M 4.09375 -8.390625 L 5.296875 -8.390625 L 5.296875 -6.9375 L 4.09375 -6.9375 Z M 4.09375 -8.390625 "/></g></g></g><g fill="#ffffff" fill-opacity="1"><g transform="translate(8.444173, 15.332598)"><g><path d="M 0 0 Z M 5.0625 -1.421875 L 5.0625 0 L 0 0 L 0 -1.421875 L 1.75 -1.421875 L 1.75 -5.84375 L 3.3125 -5.84375 L 3.3125 -1.421875 Z M 1.015625 0.9375 L 2.21875 0.9375 L 2.21875 2.40625 L 1.015625 2.40625 Z M 2.796875 0.9375 L 4 0.9375 L 4 2.40625 L 2.796875 2.40625 Z M 2.796875 0.9375 "/></g></g></g><g fill="#ffffff" fill-opacity="1"><g transform="translate(13.509017, 15.332598)"><g><path d="M 3 -8.1875 L 3 0 L 0 0 L 0 -1.421875 L 1.4375 -1.421875 L 1.4375 -8.1875 Z M 3 -8.1875 "/></g></g></g><g fill="#ffffff" fill-opacity="1"><g transform="translate(17.450878, 15.332598)"><g><path d="M 0.46875 0 Z M 5.203125 0 L 3.28125 0 C 3.269531 0.914062 3.101562 1.628906 2.78125 2.140625 C 2.457031 2.648438 1.972656 2.90625 1.328125 2.90625 C 1.222656 2.90625 0.9375 2.890625 0.46875 2.859375 L 0.46875 1.453125 L 0.859375 1.46875 C 1.140625 1.46875 1.347656 1.359375 1.484375 1.140625 C 1.628906 0.921875 1.703125 0.609375 1.703125 0.203125 L 1.703125 -5.84375 L 3.28125 -5.84375 L 3.28125 -1.421875 L 5.203125 -1.421875 Z M 1.765625 -8.453125 L 3.21875 -8.453125 L 3.21875 -6.9375 L 1.765625 -6.9375 Z M 1.765625 -8.453125 "/></g></g></g><g fill="#ffffff" fill-opacity="1"><g transform="translate(22.656087, 15.332598)"><g><path d="M 0 0 Z M 5.0625 -1.421875 L 5.0625 0 L 0 0 L 0 -1.421875 L 1.75 -1.421875 L 1.75 -5.84375 L 3.3125 -5.84375 L 3.3125 -1.421875 Z M 1.78125 -8.453125 L 3.234375 -8.453125 L 3.234375 -6.9375 L 1.78125 -6.9375 Z M 1.78125 -8.453125 "/></g></g></g><g fill="#ffffff" fill-opacity="1"><g transform="translate(27.720931, 15.332598)"><g><path d="M 8.640625 -1.421875 L 8.640625 0 L 8 0 C 7.863281 0 7.734375 -0.046875 7.609375 -0.140625 C 7.492188 -0.234375 7.410156 -0.351562 7.359375 -0.5 L 7.359375 0 L 0 0 L 0 -1.421875 L 1.828125 -1.421875 C 1.710938 -1.984375 1.65625 -2.476562 1.65625 -2.90625 C 1.65625 -3.34375 1.695312 -3.804688 1.78125 -4.296875 C 1.875 -4.785156 1.972656 -5.210938 2.078125 -5.578125 C 2.296875 -5.671875 2.609375 -5.753906 3.015625 -5.828125 C 3.429688 -5.910156 3.894531 -5.953125 4.40625 -5.953125 C 5.207031 -5.953125 5.820312 -5.832031 6.25 -5.59375 C 6.6875 -5.363281 6.976562 -5.035156 7.125 -4.609375 C 7.28125 -4.179688 7.359375 -3.617188 7.359375 -2.921875 L 7.359375 -1.9375 C 7.410156 -1.78125 7.492188 -1.65625 7.609375 -1.5625 C 7.734375 -1.46875 7.863281 -1.421875 8 -1.421875 Z M 3.1875 -2.90625 C 3.1875 -2.644531 3.203125 -2.375 3.234375 -2.09375 C 3.265625 -1.820312 3.300781 -1.597656 3.34375 -1.421875 L 5.796875 -1.421875 L 5.796875 -2.953125 C 5.796875 -3.503906 5.6875 -3.90625 5.46875 -4.15625 C 5.257812 -4.414062 4.847656 -4.546875 4.234375 -4.546875 C 3.941406 -4.546875 3.644531 -4.515625 3.34375 -4.453125 C 3.238281 -3.867188 3.1875 -3.351562 3.1875 -2.90625 Z M 3.1875 -2.90625 "/></g></g></g><g fill="#ffffff" fill-opacity="1"><g transform="translate(36.353388, 15.332598)"><g><path d="M 3 -8.1875 L 3 0 L 0 0 L 0 -1.421875 L 1.4375 -1.421875 L 1.4375 -8.1875 Z M 3 -8.1875 "/></g></g></g><g fill="#ffffff" fill-opacity="1"><g transform="translate(40.295252, 15.332598)"><g><path d="M 0.9375 -8.1875 L 2.5 -8.1875 L 2.5 0 L 0.9375 0 Z M 0.9375 -8.1875 "/></g></g></g><g fill="#ffffff" fill-opacity="1"><g transform="translate(43.851115, 15.332598)"><g/></g></g><g fill="#ffffff" fill-opacity="1"><g transform="translate(46.424434, 15.332598)"><g><path d="M 0.625 0 Z M 9.03125 -5.84375 L 9.03125 0 L 3.984375 0 C 3.296875 0 2.71875 -0.046875 2.25 -0.140625 C 1.78125 -0.242188 1.390625 -0.457031 1.078125 -0.78125 C 0.773438 -1.113281 0.625 -1.609375 0.625 -2.265625 C 0.625 -2.597656 0.660156 -2.976562 0.734375 -3.40625 C 0.816406 -3.84375 0.90625 -4.238281 1 -4.59375 L 2.265625 -4.53125 L 2.171875 -3.796875 C 2.097656 -3.222656 2.0625 -2.832031 2.0625 -2.625 C 2.0625 -1.820312 2.640625 -1.421875 3.796875 -1.421875 L 7.46875 -1.421875 L 7.46875 -5.84375 Z M 3.421875 -7.3125 L 4.625 -7.3125 L 4.625 -5.859375 L 3.421875 -5.859375 Z M 5.203125 -7.3125 L 6.40625 -7.3125 L 6.40625 -5.859375 L 5.203125 -5.859375 Z M 5.203125 -7.3125 "/></g></g></g><g fill="#ffffff" fill-opacity="1"><g transform="translate(56.273239, 15.332598)"><g><path d="M 3.65625 -1.421875 L 3.65625 0 L 0.9375 0 L 0.9375 -8.1875 L 2.5 -8.1875 L 2.5 -1.421875 Z M 3.65625 -1.421875 "/></g></g></g><g fill="#ffffff" fill-opacity="1"><g transform="translate(59.922734, 15.332598)"><g><path d="M 4.40625 -5.953125 C 5.207031 -5.953125 5.820312 -5.832031 6.25 -5.59375 C 6.6875 -5.363281 6.976562 -5.035156 7.125 -4.609375 C 7.28125 -4.179688 7.359375 -3.617188 7.359375 -2.921875 L 7.359375 0 L 0 0 L 0 -1.421875 L 1.828125 -1.421875 C 1.710938 -1.984375 1.65625 -2.476562 1.65625 -2.90625 C 1.65625 -3.34375 1.695312 -3.804688 1.78125 -4.296875 C 1.875 -4.785156 1.972656 -5.210938 2.078125 -5.578125 C 2.296875 -5.671875 2.609375 -5.753906 3.015625 -5.828125 C 3.429688 -5.910156 3.894531 -5.953125 4.40625 -5.953125 Z M 3.1875 -2.90625 C 3.1875 -2.644531 3.203125 -2.375 3.234375 -2.09375 C 3.265625 -1.820312 3.300781 -1.597656 3.34375 -1.421875 L 5.796875 -1.421875 L 5.796875 -2.953125 C 5.796875 -3.503906 5.6875 -3.90625 5.46875 -4.15625 C 5.257812 -4.414062 4.847656 -4.546875 4.234375 -4.546875 C 3.941406 -4.546875 3.644531 -4.515625 3.34375 -4.453125 C 3.238281 -3.867188 3.1875 -3.351562 3.1875 -2.90625 Z M 3.1875 -2.90625 "/></g></g></g><g fill="#ffffff" fill-opacity="1"><g transform="translate(67.864943, 15.332598)"><g><path d="M 7.015625 -1.421875 L 7.015625 0 L 0.46875 0 L 0.46875 -1.421875 L 4.21875 -1.421875 L 4.21875 -1.84375 C 4.21875 -2.863281 4.023438 -3.585938 3.640625 -4.015625 C 3.265625 -4.453125 2.8125 -4.671875 2.28125 -4.671875 L 1.09375 -4.671875 L 0.984375 -5.890625 C 1.222656 -5.953125 1.492188 -6.003906 1.796875 -6.046875 C 2.109375 -6.097656 2.394531 -6.125 2.65625 -6.125 C 3.28125 -6.125 3.828125 -5.96875 4.296875 -5.65625 C 4.773438 -5.351562 5.144531 -4.890625 5.40625 -4.265625 C 5.664062 -3.648438 5.796875 -2.894531 5.796875 -2 L 5.796875 -1.421875 Z M 7.015625 -1.421875 "/></g></g></g><g fill="#ffffff" fill-opacity="1"><g transform="translate(74.871506, 15.332598)"><g><path d="M 0 0 Z M 7.1875 -1.421875 L 7.1875 0 L 0 0 L 0 -1.421875 L 4.40625 -1.421875 L 4.40625 -3.625 C 4.40625 -3.957031 4.332031 -4.207031 4.1875 -4.375 C 4.050781 -4.550781 3.804688 -4.640625 3.453125 -4.640625 C 2.734375 -4.609375 2.109375 -4.582031 1.578125 -4.5625 L 0.984375 -4.546875 L 0.9375 -5.578125 C 1.34375 -5.691406 1.832031 -5.785156 2.40625 -5.859375 C 2.988281 -5.929688 3.476562 -5.96875 3.875 -5.96875 C 4.601562 -5.96875 5.132812 -5.8125 5.46875 -5.5 C 5.800781 -5.195312 5.972656 -4.707031 5.984375 -4.03125 L 5.984375 -1.421875 Z M 2.890625 -8.453125 L 4.34375 -8.453125 L 4.34375 -6.9375 L 2.890625 -6.9375 Z M 2.890625 -8.453125 "/></g></g></g><g fill="#ffffff" fill-opacity="1"><g transform="translate(82.05352, 15.332598)"><g><path d="M 4.234375 -1.421875 L 4.234375 0 L 0 0 L 0 -1.421875 L 1.4375 -1.421875 L 1.4375 -8.1875 L 3 -8.1875 L 3 -1.421875 Z M 4.234375 -1.421875 "/></g></g></g><g fill="#ffffff" fill-opacity="1"><g transform="translate(86.287868, 15.332598)"><g><path d="M 3 -8.1875 L 3 0 L 0 0 L 0 -1.421875 L 1.4375 -1.421875 L 1.4375 -8.1875 Z M 3 -8.1875 "/></g></g></g><g fill="#ffffff" fill-opacity="1"><g transform="translate(90.229733, 15.332598)"><g/></g></g><g fill="#ffffff" fill-opacity="1"><g transform="translate(92.803051, 15.332598)"><g><path d="M 3.890625 2.90625 C 3.234375 2.90625 2.644531 2.78125 2.125 2.53125 C 1.601562 2.289062 1.195312 1.957031 0.90625 1.53125 C 0.613281 1.113281 0.46875 0.648438 0.46875 0.140625 C 0.46875 -0.359375 0.609375 -1.476562 0.890625 -3.21875 L 2.359375 -3.140625 C 2.265625 -2.546875 2.175781 -1.925781 2.09375 -1.28125 C 2.019531 -0.644531 1.984375 -0.222656 1.984375 -0.015625 C 1.984375 0.253906 2.0625 0.503906 2.21875 0.734375 C 2.375 0.960938 2.59375 1.140625 2.875 1.265625 C 3.164062 1.398438 3.488281 1.46875 3.84375 1.46875 C 4.1875 1.46875 4.492188 1.398438 4.765625 1.265625 C 5.035156 1.140625 5.242188 0.960938 5.390625 0.734375 C 5.535156 0.503906 5.609375 0.257812 5.609375 0 L 5.609375 -8.1875 L 7.171875 -8.1875 L 7.171875 0.15625 C 7.171875 0.65625 7.035156 1.113281 6.765625 1.53125 C 6.492188 1.957031 6.109375 2.289062 5.609375 2.53125 C 5.117188 2.78125 4.546875 2.90625 3.890625 2.90625 Z M 3.890625 2.90625 "/></g></g></g><g fill="#ffffff" fill-opacity="1"><g transform="translate(100.909021, 15.332598)"><g><path d="M 0.46875 0 Z M 5.203125 0 L 3.28125 0 C 3.269531 0.914062 3.101562 1.628906 2.78125 2.140625 C 2.457031 2.648438 1.972656 2.90625 1.328125 2.90625 C 1.222656 2.90625 0.9375 2.890625 0.46875 2.859375 L 0.46875 1.453125 L 0.859375 1.46875 C 1.140625 1.46875 1.347656 1.359375 1.484375 1.140625 C 1.628906 0.921875 1.703125 0.609375 1.703125 0.203125 L 1.703125 -5.84375 L 3.28125 -5.84375 L 3.28125 -1.421875 L 5.203125 -1.421875 Z M 1.765625 -8.453125 L 3.21875 -8.453125 L 3.21875 -6.9375 L 1.765625 -6.9375 Z M 1.765625 -8.453125 "/></g></g></g><g fill="#ffffff" fill-opacity="1"><g transform="translate(106.11423, 15.332598)"><g><path d="M 0 0 Z M 5.0625 -1.421875 L 5.0625 0 L 0 0 L 0 -1.421875 L 1.75 -1.421875 L 1.75 -5.84375 L 3.3125 -5.84375 L 3.3125 -1.421875 Z M 1.78125 -8.453125 L 3.234375 -8.453125 L 3.234375 -6.9375 L 1.78125 -6.9375 Z M 1.78125 -8.453125 "/></g></g></g><g fill="#ffffff" fill-opacity="1"><g transform="translate(111.179067, 15.332598)"><g><path d="M 8.640625 -1.421875 L 8.640625 0 L 8 0 C 7.863281 0 7.734375 -0.046875 7.609375 -0.140625 C 7.492188 -0.234375 7.410156 -0.351562 7.359375 -0.5 L 7.359375 0 L 0 0 L 0 -1.421875 L 1.828125 -1.421875 C 1.710938 -1.984375 1.65625 -2.476562 1.65625 -2.90625 C 1.65625 -3.34375 1.695312 -3.804688 1.78125 -4.296875 C 1.875 -4.785156 1.972656 -5.210938 2.078125 -5.578125 C 2.296875 -5.671875 2.609375 -5.753906 3.015625 -5.828125 C 3.429688 -5.910156 3.894531 -5.953125 4.40625 -5.953125 C 5.207031 -5.953125 5.820312 -5.832031 6.25 -5.59375 C 6.6875 -5.363281 6.976562 -5.035156 7.125 -4.609375 C 7.28125 -4.179688 7.359375 -3.617188 7.359375 -2.921875 L 7.359375 -1.9375 C 7.410156 -1.78125 7.492188 -1.65625 7.609375 -1.5625 C 7.734375 -1.46875 7.863281 -1.421875 8 -1.421875 Z M 3.1875 -2.90625 C 3.1875 -2.644531 3.203125 -2.375 3.234375 -2.09375 C 3.265625 -1.820312 3.300781 -1.597656 3.34375 -1.421875 L 5.796875 -1.421875 L 5.796875 -2.953125 C 5.796875 -3.503906 5.6875 -3.90625 5.46875 -4.15625 C 5.257812 -4.414062 4.847656 -4.546875 4.234375 -4.546875 C 3.941406 -4.546875 3.644531 -4.515625 3.34375 -4.453125 C 3.238281 -3.867188 3.1875 -3.351562 3.1875 -2.90625 Z M 3.1875 -2.90625 "/></g></g></g><g fill="#ffffff" fill-opacity="1"><g transform="translate(119.811535, 15.332598)"><g><path d="M 3 -8.1875 L 3 0 L 0 0 L 0 -1.421875 L 1.4375 -1.421875 L 1.4375 -8.1875 Z M 3 -8.1875 "/></g></g></g><g fill="#ffffff" fill-opacity="1"><g transform="translate(123.753388, 15.332598)"><g><path d="M 0.9375 -8.1875 L 2.5 -8.1875 L 2.5 0 L 0.9375 0 Z M 0.9375 -8.1875 "/></g></g></g><g fill="#ffffff" fill-opacity="1"><g transform="translate(127.309251, 15.332598)"><g/></g></g><g fill="#ffffff" fill-opacity="1"><g transform="translate(129.882581, 15.332598)"><g><path d="M 1.328125 2.90625 C 1.222656 2.90625 0.9375 2.890625 0.46875 2.859375 L 0.46875 1.453125 L 0.859375 1.46875 C 1.140625 1.46875 1.347656 1.359375 1.484375 1.140625 C 1.628906 0.921875 1.703125 0.609375 1.703125 0.203125 L 1.703125 -5.84375 L 3.28125 -5.84375 L 3.28125 -0.0625 C 3.28125 0.863281 3.117188 1.585938 2.796875 2.109375 C 2.472656 2.640625 1.984375 2.90625 1.328125 2.90625 Z M 1.328125 2.90625 "/></g></g></g><g fill="#ffffff" fill-opacity="1"><g transform="translate(133.859524, 15.332598)"><g><path d="M 3.65625 -1.421875 L 3.65625 0 L 0.9375 0 L 0.9375 -8.1875 L 2.5 -8.1875 L 2.5 -1.421875 Z M 3.65625 -1.421875 "/></g></g></g><g fill="#ffffff" fill-opacity="1"><g transform="translate(137.509025, 15.332598)"><g><path d="M 8.640625 -1.421875 L 8.640625 0 L 8 0 C 7.863281 0 7.734375 -0.046875 7.609375 -0.140625 C 7.492188 -0.234375 7.410156 -0.351562 7.359375 -0.5 L 7.359375 0 L 0 0 L 0 -1.421875 L 1.828125 -1.421875 C 1.710938 -1.984375 1.65625 -2.476562 1.65625 -2.90625 C 1.65625 -3.34375 1.695312 -3.804688 1.78125 -4.296875 C 1.875 -4.785156 1.972656 -5.210938 2.078125 -5.578125 C 2.296875 -5.671875 2.609375 -5.753906 3.015625 -5.828125 C 3.429688 -5.910156 3.894531 -5.953125 4.40625 -5.953125 C 5.207031 -5.953125 5.820312 -5.832031 6.25 -5.59375 C 6.6875 -5.363281 6.976562 -5.035156 7.125 -4.609375 C 7.28125 -4.179688 7.359375 -3.617188 7.359375 -2.921875 L 7.359375 -1.9375 C 7.410156 -1.78125 7.492188 -1.65625 7.609375 -1.5625 C 7.734375 -1.46875 7.863281 -1.421875 8 -1.421875 Z M 3.1875 -2.90625 C 3.1875 -2.644531 3.203125 -2.375 3.234375 -2.09375 C 3.265625 -1.820312 3.300781 -1.597656 3.34375 -1.421875 L 5.796875 -1.421875 L 5.796875 -2.953125 C 5.796875 -3.503906 5.6875 -3.90625 5.46875 -4.15625 C 5.257812 -4.414062 4.847656 -4.546875 4.234375 -4.546875 C 3.941406 -4.546875 3.644531 -4.515625 3.34375 -4.453125 C 3.238281 -3.867188 3.1875 -3.351562 3.1875 -2.90625 Z M 3.1875 -2.90625 "/></g></g></g><g fill="#ffffff" fill-opacity="1"><g transform="translate(146.141482, 15.332598)"><g><path d="M 6.40625 -1.421875 L 6.40625 0 L 0 0 L 0 -1.421875 L 1.65625 -1.421875 C 1.394531 -1.890625 1.265625 -2.445312 1.265625 -3.09375 C 1.265625 -3.78125 1.410156 -4.34375 1.703125 -4.78125 C 1.992188 -5.21875 2.351562 -5.523438 2.78125 -5.703125 C 3.207031 -5.890625 3.632812 -5.984375 4.0625 -5.984375 C 4.351562 -5.984375 4.6875 -5.941406 5.0625 -5.859375 C 5.4375 -5.785156 5.765625 -5.675781 6.046875 -5.53125 L 5.984375 -4.0625 C 5.742188 -4.175781 5.453125 -4.285156 5.109375 -4.390625 C 4.765625 -4.503906 4.460938 -4.5625 4.203125 -4.5625 C 3.835938 -4.5625 3.515625 -4.441406 3.234375 -4.203125 C 2.960938 -3.972656 2.828125 -3.582031 2.828125 -3.03125 C 2.828125 -2.675781 2.882812 -2.363281 3 -2.09375 C 3.125 -1.820312 3.273438 -1.597656 3.453125 -1.421875 Z M 6.40625 -1.421875 "/></g></g></g><g fill="#ffffff" fill-opacity="1"><g transform="translate(152.890606, 15.332598)"><g><path d="M 0.375 0 Z M 0.9375 -8.1875 L 2.5 -8.1875 L 2.5 0 L 0.9375 0 Z M 3.078125 2.96875 L 0.515625 3.484375 L 0.375 2.921875 L 0.921875 2.796875 C 0.617188 2.535156 0.46875 2.21875 0.46875 1.84375 C 0.46875 1.519531 0.582031 1.238281 0.8125 1 C 1.039062 0.769531 1.332031 0.65625 1.6875 0.65625 C 1.988281 0.65625 2.296875 0.75 2.609375 0.9375 L 2.453125 1.640625 C 2.398438 1.597656 2.332031 1.5625 2.25 1.53125 C 2.164062 1.5 2.066406 1.484375 1.953125 1.484375 C 1.773438 1.484375 1.628906 1.539062 1.515625 1.65625 C 1.410156 1.769531 1.359375 1.910156 1.359375 2.078125 C 1.359375 2.296875 1.445312 2.472656 1.625 2.609375 L 2.90625 2.265625 Z M 3.078125 2.96875 "/></g></g></g></g></g><g transform="matrix(1, 0, 0, 1, 17, 29)"><g clip-path="url(#18c2b15f35)"><g clip-path="url(#e41e05e3b6)"><g fill="#ffffff" fill-opacity="1"><g transform="translate(0.301716, 7.19643)"><g><path d="M 1.125 -1.953125 L 1.125 -0.40625 L 3.234375 -0.40625 L 3.234375 0 L 0.625 0 L 0.625 -4.15625 L 3.1875 -4.15625 L 3.1875 -3.75 L 1.125 -3.75 L 1.125 -2.359375 L 2.953125 -2.359375 L 2.953125 -1.953125 Z M 1.125 -1.953125 "/></g></g></g></g><g fill="#ffffff" fill-opacity="1"><g transform="translate(7.310215, 7.19643)"><g><path d="M 0.546875 0 L 0.546875 -3.140625 L 0.984375 -3.140625 L 0.984375 -2.671875 L 1.046875 -2.65625 C 1.148438 -2.832031 1.273438 -2.96875 1.421875 -3.0625 C 1.578125 -3.15625 1.757812 -3.203125 1.96875 -3.203125 C 2.21875 -3.203125 2.40625 -3.15625 2.53125 -3.0625 C 2.664062 -2.96875 2.769531 -2.816406 2.84375 -2.609375 L 2.90625 -2.609375 C 3.019531 -2.804688 3.15625 -2.953125 3.3125 -3.046875 C 3.46875 -3.148438 3.660156 -3.203125 3.890625 -3.203125 C 4.210938 -3.203125 4.453125 -3.113281 4.609375 -2.9375 C 4.773438 -2.757812 4.859375 -2.492188 4.859375 -2.140625 L 4.859375 0 L 4.390625 0 L 4.390625 -2.125 C 4.390625 -2.351562 4.335938 -2.519531 4.234375 -2.625 C 4.140625 -2.738281 3.988281 -2.796875 3.78125 -2.796875 C 3.53125 -2.796875 3.328125 -2.703125 3.171875 -2.515625 C 3.015625 -2.335938 2.9375 -2.039062 2.9375 -1.625 L 2.9375 0 L 2.46875 0 L 2.46875 -2.125 C 2.46875 -2.351562 2.421875 -2.519531 2.328125 -2.625 C 2.234375 -2.738281 2.078125 -2.796875 1.859375 -2.796875 C 1.609375 -2.796875 1.40625 -2.707031 1.25 -2.53125 C 1.09375 -2.351562 1.015625 -2.066406 1.015625 -1.671875 L 1.015625 0 Z M 0.546875 0 "/></g></g></g><g fill="#ffffff" fill-opacity="1"><g transform="translate(16.153473, 7.19643)"><g><path d="M 1.296875 0.0625 C 0.984375 0.0625 0.738281 -0.015625 0.5625 -0.171875 C 0.394531 -0.335938 0.3125 -0.570312 0.3125 -0.875 C 0.3125 -1.0625 0.347656 -1.21875 0.421875 -1.34375 C 0.503906 -1.46875 0.625 -1.570312 0.78125 -1.65625 C 0.945312 -1.738281 1.160156 -1.800781 1.421875 -1.84375 C 1.640625 -1.882812 1.804688 -1.925781 1.921875 -1.96875 C 2.046875 -2.019531 2.128906 -2.070312 2.171875 -2.125 C 2.210938 -2.1875 2.234375 -2.265625 2.234375 -2.359375 C 2.234375 -2.492188 2.179688 -2.597656 2.078125 -2.671875 C 1.984375 -2.753906 1.828125 -2.796875 1.609375 -2.796875 C 1.410156 -2.796875 1.238281 -2.753906 1.09375 -2.671875 C 0.945312 -2.597656 0.8125 -2.484375 0.6875 -2.328125 L 0.640625 -2.328125 L 0.40625 -2.640625 C 0.539062 -2.816406 0.707031 -2.953125 0.90625 -3.046875 C 1.113281 -3.148438 1.347656 -3.203125 1.609375 -3.203125 C 1.984375 -3.203125 2.257812 -3.117188 2.4375 -2.953125 C 2.613281 -2.796875 2.703125 -2.570312 2.703125 -2.28125 L 2.703125 -0.625 C 2.703125 -0.445312 2.773438 -0.359375 2.921875 -0.359375 C 2.972656 -0.359375 3.019531 -0.363281 3.0625 -0.375 L 3.109375 -0.375 L 3.15625 -0.046875 C 3.125 -0.0234375 3.078125 -0.0078125 3.015625 0 C 2.960938 0.0078125 2.90625 0.015625 2.84375 0.015625 C 2.675781 0.015625 2.546875 -0.0195312 2.453125 -0.09375 C 2.367188 -0.164062 2.3125 -0.273438 2.28125 -0.421875 L 2.234375 -0.4375 C 2.140625 -0.269531 2.015625 -0.144531 1.859375 -0.0625 C 1.710938 0.0195312 1.523438 0.0625 1.296875 0.0625 Z M 1.390625 -0.3125 C 1.566406 -0.3125 1.71875 -0.347656 1.84375 -0.421875 C 1.976562 -0.503906 2.078125 -0.617188 2.140625 -0.765625 C 2.210938 -0.910156 2.25 -1.082031 2.25 -1.28125 L 2.25 -1.671875 L 2.1875 -1.6875 C 2.125 -1.632812 2.039062 -1.59375 1.9375 -1.5625 C 1.832031 -1.53125 1.691406 -1.5 1.515625 -1.46875 C 1.335938 -1.445312 1.191406 -1.410156 1.078125 -1.359375 C 0.972656 -1.304688 0.894531 -1.238281 0.84375 -1.15625 C 0.800781 -1.082031 0.78125 -0.988281 0.78125 -0.875 C 0.78125 -0.6875 0.832031 -0.546875 0.9375 -0.453125 C 1.050781 -0.359375 1.203125 -0.3125 1.390625 -0.3125 Z M 1.390625 -0.3125 "/></g></g></g><g fill="#ffffff" fill-opacity="1"><g transform="translate(22.894581, 7.19643)"><g><path d="M 1.296875 0.0625 C 0.984375 0.0625 0.738281 -0.015625 0.5625 -0.171875 C 0.394531 -0.335938 0.3125 -0.570312 0.3125 -0.875 C 0.3125 -1.0625 0.347656 -1.21875 0.421875 -1.34375 C 0.503906 -1.46875 0.625 -1.570312 0.78125 -1.65625 C 0.945312 -1.738281 1.160156 -1.800781 1.421875 -1.84375 C 1.640625 -1.882812 1.804688 -1.925781 1.921875 -1.96875 C 2.046875 -2.019531 2.128906 -2.070312 2.171875 -2.125 C 2.210938 -2.1875 2.234375 -2.265625 2.234375 -2.359375 C 2.234375 -2.492188 2.179688 -2.597656 2.078125 -2.671875 C 1.984375 -2.753906 1.828125 -2.796875 1.609375 -2.796875 C 1.410156 -2.796875 1.238281 -2.753906 1.09375 -2.671875 C 0.945312 -2.597656 0.8125 -2.484375 0.6875 -2.328125 L 0.640625 -2.328125 L 0.40625 -2.640625 C 0.539062 -2.816406 0.707031 -2.953125 0.90625 -3.046875 C 1.113281 -3.148438 1.347656 -3.203125 1.609375 -3.203125 C 1.984375 -3.203125 2.257812 -3.117188 2.4375 -2.953125 C 2.613281 -2.796875 2.703125 -2.570312 2.703125 -2.28125 L 2.703125 -0.625 C 2.703125 -0.445312 2.773438 -0.359375 2.921875 -0.359375 C 2.972656 -0.359375 3.019531 -0.363281 3.0625 -0.375 L 3.109375 -0.375 L 3.15625 -0.046875 C 3.125 -0.0234375 3.078125 -0.0078125 3.015625 0 C 2.960938 0.0078125 2.90625 0.015625 2.84375 0.015625 C 2.675781 0.015625 2.546875 -0.0195312 2.453125 -0.09375 C 2.367188 -0.164062 2.3125 -0.273438 2.28125 -0.421875 L 2.234375 -0.4375 C 2.140625 -0.269531 2.015625 -0.144531 1.859375 -0.0625 C 1.710938 0.0195312 1.523438 0.0625 1.296875 0.0625 Z M 1.390625 -0.3125 C 1.566406 -0.3125 1.71875 -0.347656 1.84375 -0.421875 C 1.976562 -0.503906 2.078125 -0.617188 2.140625 -0.765625 C 2.210938 -0.910156 2.25 -1.082031 2.25 -1.28125 L 2.25 -1.671875 L 2.1875 -1.6875 C 2.125 -1.632812 2.039062 -1.59375 1.9375 -1.5625 C 1.832031 -1.53125 1.691406 -1.5 1.515625 -1.46875 C 1.335938 -1.445312 1.191406 -1.410156 1.078125 -1.359375 C 0.972656 -1.304688 0.894531 -1.238281 0.84375 -1.15625 C 0.800781 -1.082031 0.78125 -0.988281 0.78125 -0.875 C 0.78125 -0.6875 0.832031 -0.546875 0.9375 -0.453125 C 1.050781 -0.359375 1.203125 -0.3125 1.390625 -0.3125 Z M 1.390625 -0.3125 "/></g></g></g><g fill="#ffffff" fill-opacity="1"><g transform="translate(29.635689, 7.19643)"><g><path d="M 0.546875 0 L 0.546875 -3.140625 L 0.984375 -3.140625 L 0.984375 -2.640625 L 1.046875 -2.625 C 1.191406 -2.988281 1.46875 -3.171875 1.875 -3.171875 C 2.082031 -3.171875 2.242188 -3.128906 2.359375 -3.046875 L 2.234375 -2.65625 L 2.171875 -2.640625 C 2.054688 -2.703125 1.929688 -2.734375 1.796875 -2.734375 C 1.546875 -2.734375 1.351562 -2.640625 1.21875 -2.453125 C 1.082031 -2.265625 1.015625 -1.960938 1.015625 -1.546875 L 1.015625 0 Z M 0.546875 0 "/></g></g></g><g fill="#ffffff" fill-opacity="1"><g transform="translate(35.554711, 7.19643)"><g/></g></g><g fill="#ffffff" fill-opacity="1"><g transform="translate(40.478128, 7.19643)"><g><path d="M 3.75 0 L 3.21875 0 L 2.84375 -1.140625 L 1.0625 -1.140625 L 0.671875 0 L 0.171875 0 L 1.609375 -4.15625 L 2.296875 -4.15625 Z M 1.921875 -3.65625 L 1.203125 -1.546875 L 2.703125 -1.546875 L 1.984375 -3.65625 Z M 1.921875 -3.65625 "/></g></g></g><g fill="#ffffff" fill-opacity="1"><g transform="translate(47.845045, 7.19643)"><g><path d="M 1.25 0.0625 C 1.03125 0.0625 0.851562 0 0.71875 -0.125 C 0.59375 -0.25 0.53125 -0.4375 0.53125 -0.6875 L 0.53125 -4.40625 L 1 -4.40625 L 1 -0.71875 C 1 -0.59375 1.023438 -0.5 1.078125 -0.4375 C 1.128906 -0.382812 1.207031 -0.359375 1.3125 -0.359375 C 1.375 -0.359375 1.4375 -0.367188 1.5 -0.390625 L 1.546875 -0.375 L 1.59375 -0.015625 C 1.5625 0.00390625 1.515625 0.0195312 1.453125 0.03125 C 1.390625 0.0507812 1.320312 0.0625 1.25 0.0625 Z M 1.25 0.0625 "/></g></g></g><g fill="#ffffff" fill-opacity="1"><g transform="translate(52.976117, 7.19643)"><g><path d="M 1.921875 -1.8125 L 0.296875 -1.8125 L 0.296875 -2.234375 L 1.921875 -2.234375 Z M 1.921875 -1.8125 "/></g></g></g><g fill="#ffffff" fill-opacity="1"><g transform="translate(58.67895, 7.19643)"><g><path d="M 1.078125 0 L 0.625 0 L 0.625 -4.15625 L 1.359375 -4.15625 L 2.609375 -0.640625 L 2.671875 -0.640625 L 3.9375 -4.15625 L 4.640625 -4.15625 L 4.640625 0 L 4.171875 0 L 4.171875 -3.390625 L 4.09375 -3.40625 L 2.875 0 L 2.390625 0 L 1.15625 -3.40625 L 1.078125 -3.390625 Z M 1.078125 0 "/></g></g></g><g fill="#ffffff" fill-opacity="1"><g transform="translate(67.439715, 7.19643)"><g><path d="M 1.296875 0.0625 C 0.984375 0.0625 0.738281 -0.015625 0.5625 -0.171875 C 0.394531 -0.335938 0.3125 -0.570312 0.3125 -0.875 C 0.3125 -1.0625 0.347656 -1.21875 0.421875 -1.34375 C 0.503906 -1.46875 0.625 -1.570312 0.78125 -1.65625 C 0.945312 -1.738281 1.160156 -1.800781 1.421875 -1.84375 C 1.640625 -1.882812 1.804688 -1.925781 1.921875 -1.96875 C 2.046875 -2.019531 2.128906 -2.070312 2.171875 -2.125 C 2.210938 -2.1875 2.234375 -2.265625 2.234375 -2.359375 C 2.234375 -2.492188 2.179688 -2.597656 2.078125 -2.671875 C 1.984375 -2.753906 1.828125 -2.796875 1.609375 -2.796875 C 1.410156 -2.796875 1.238281 -2.753906 1.09375 -2.671875 C 0.945312 -2.597656 0.8125 -2.484375 0.6875 -2.328125 L 0.640625 -2.328125 L 0.40625 -2.640625 C 0.539062 -2.816406 0.707031 -2.953125 0.90625 -3.046875 C 1.113281 -3.148438 1.347656 -3.203125 1.609375 -3.203125 C 1.984375 -3.203125 2.257812 -3.117188 2.4375 -2.953125 C 2.613281 -2.796875 2.703125 -2.570312 2.703125 -2.28125 L 2.703125 -0.625 C 2.703125 -0.445312 2.773438 -0.359375 2.921875 -0.359375 C 2.972656 -0.359375 3.019531 -0.363281 3.0625 -0.375 L 3.109375 -0.375 L 3.15625 -0.046875 C 3.125 -0.0234375 3.078125 -0.0078125 3.015625 0 C 2.960938 0.0078125 2.90625 0.015625 2.84375 0.015625 C 2.675781 0.015625 2.546875 -0.0195312 2.453125 -0.09375 C 2.367188 -0.164062 2.3125 -0.273438 2.28125 -0.421875 L 2.234375 -0.4375 C 2.140625 -0.269531 2.015625 -0.144531 1.859375 -0.0625 C 1.710938 0.0195312 1.523438 0.0625 1.296875 0.0625 Z M 1.390625 -0.3125 C 1.566406 -0.3125 1.71875 -0.347656 1.84375 -0.421875 C 1.976562 -0.503906 2.078125 -0.617188 2.140625 -0.765625 C 2.210938 -0.910156 2.25 -1.082031 2.25 -1.28125 L 2.25 -1.671875 L 2.1875 -1.6875 C 2.125 -1.632812 2.039062 -1.59375 1.9375 -1.5625 C 1.832031 -1.53125 1.691406 -1.5 1.515625 -1.46875 C 1.335938 -1.445312 1.191406 -1.410156 1.078125 -1.359375 C 0.972656 -1.304688 0.894531 -1.238281 0.84375 -1.15625 C 0.800781 -1.082031 0.78125 -0.988281 0.78125 -0.875 C 0.78125 -0.6875 0.832031 -0.546875 0.9375 -0.453125 C 1.050781 -0.359375 1.203125 -0.3125 1.390625 -0.3125 Z M 1.390625 -0.3125 "/></g></g></g><g fill="#ffffff" fill-opacity="1"><g transform="translate(74.180823, 7.19643)"><g><path d="M 0.546875 0 L 0.546875 -3.140625 L 0.984375 -3.140625 L 0.984375 -2.640625 L 1.046875 -2.625 C 1.148438 -2.8125 1.28125 -2.953125 1.4375 -3.046875 C 1.601562 -3.148438 1.804688 -3.203125 2.046875 -3.203125 C 2.421875 -3.203125 2.691406 -3.101562 2.859375 -2.90625 C 3.023438 -2.71875 3.109375 -2.421875 3.109375 -2.015625 L 3.109375 0 L 2.65625 0 L 2.65625 -2.015625 C 2.65625 -2.203125 2.628906 -2.351562 2.578125 -2.46875 C 2.523438 -2.582031 2.445312 -2.664062 2.34375 -2.71875 C 2.25 -2.769531 2.117188 -2.796875 1.953125 -2.796875 C 1.671875 -2.796875 1.441406 -2.703125 1.265625 -2.515625 C 1.097656 -2.328125 1.015625 -2.023438 1.015625 -1.609375 L 1.015625 0 Z M 0.546875 0 "/></g></g></g><g fill="#ffffff" fill-opacity="1"><g transform="translate(81.288882, 7.19643)"><g><path d="M 2.515625 0 L 0.21875 0 L 0.21875 -0.40625 L 1.9375 -2.703125 L 1.921875 -2.765625 L 0.28125 -2.765625 L 0.28125 -3.140625 L 2.484375 -3.140625 L 2.484375 -2.734375 L 0.765625 -0.4375 L 0.78125 -0.375 L 2.515625 -0.375 Z M 2.515625 0 "/></g></g></g><g fill="#ffffff" fill-opacity="1"><g transform="translate(87.517965, 7.19643)"><g><path d="M 0.78125 -3.75 C 0.675781 -3.75 0.59375 -3.78125 0.53125 -3.84375 C 0.476562 -3.90625 0.453125 -3.984375 0.453125 -4.078125 C 0.453125 -4.171875 0.476562 -4.25 0.53125 -4.3125 C 0.59375 -4.375 0.675781 -4.40625 0.78125 -4.40625 C 0.875 -4.40625 0.953125 -4.375 1.015625 -4.3125 C 1.078125 -4.25 1.109375 -4.171875 1.109375 -4.078125 C 1.109375 -3.984375 1.078125 -3.90625 1.015625 -3.84375 C 0.953125 -3.78125 0.875 -3.75 0.78125 -3.75 Z M 0.546875 0 L 0.546875 -3.140625 L 1.015625 -3.140625 L 1.015625 0 Z M 0.546875 0 "/></g></g></g><g fill="#ffffff" fill-opacity="1"><g transform="translate(92.569388, 7.19643)"><g><path d="M 1.25 0.0625 C 1.03125 0.0625 0.851562 0 0.71875 -0.125 C 0.59375 -0.25 0.53125 -0.4375 0.53125 -0.6875 L 0.53125 -4.40625 L 1 -4.40625 L 1 -0.71875 C 1 -0.59375 1.023438 -0.5 1.078125 -0.4375 C 1.128906 -0.382812 1.207031 -0.359375 1.3125 -0.359375 C 1.375 -0.359375 1.4375 -0.367188 1.5 -0.390625 L 1.546875 -0.375 L 1.59375 -0.015625 C 1.5625 0.00390625 1.515625 0.0195312 1.453125 0.03125 C 1.390625 0.0507812 1.320312 0.0625 1.25 0.0625 Z M 1.25 0.0625 "/></g></g></g><g fill="#ffffff" fill-opacity="1"><g transform="translate(97.771574, 7.19643)"><g/></g></g><g fill="#ffffff" fill-opacity="1"><g transform="translate(102.694991, 7.19643)"><g><path d="M 1.8125 0.0625 C 1.550781 0.0625 1.316406 0.0234375 1.109375 -0.046875 C 0.898438 -0.117188 0.726562 -0.210938 0.59375 -0.328125 C 0.457031 -0.441406 0.351562 -0.566406 0.28125 -0.703125 L 0.546875 -1.03125 L 0.625 -1.03125 C 0.882812 -0.59375 1.28125 -0.375 1.8125 -0.375 C 2.125 -0.375 2.359375 -0.441406 2.515625 -0.578125 C 2.671875 -0.710938 2.75 -0.894531 2.75 -1.125 C 2.75 -1.257812 2.722656 -1.375 2.671875 -1.46875 C 2.617188 -1.5625 2.535156 -1.640625 2.421875 -1.703125 C 2.304688 -1.773438 2.148438 -1.835938 1.953125 -1.890625 L 1.46875 -2.015625 C 1.101562 -2.097656 0.832031 -2.234375 0.65625 -2.421875 C 0.488281 -2.617188 0.40625 -2.863281 0.40625 -3.15625 C 0.40625 -3.351562 0.457031 -3.535156 0.5625 -3.703125 C 0.664062 -3.867188 0.820312 -3.992188 1.03125 -4.078125 C 1.238281 -4.171875 1.484375 -4.21875 1.765625 -4.21875 C 2.078125 -4.21875 2.335938 -4.171875 2.546875 -4.078125 C 2.765625 -3.992188 2.941406 -3.863281 3.078125 -3.6875 L 2.828125 -3.375 L 2.765625 -3.375 C 2.640625 -3.519531 2.492188 -3.625 2.328125 -3.6875 C 2.171875 -3.757812 1.984375 -3.796875 1.765625 -3.796875 C 1.472656 -3.796875 1.253906 -3.738281 1.109375 -3.625 C 0.960938 -3.507812 0.890625 -3.351562 0.890625 -3.15625 C 0.890625 -2.96875 0.941406 -2.816406 1.046875 -2.703125 C 1.160156 -2.597656 1.34375 -2.515625 1.59375 -2.453125 L 2.09375 -2.34375 C 2.5 -2.238281 2.789062 -2.085938 2.96875 -1.890625 C 3.15625 -1.703125 3.25 -1.453125 3.25 -1.140625 C 3.25 -0.910156 3.195312 -0.703125 3.09375 -0.515625 C 2.988281 -0.335938 2.828125 -0.195312 2.609375 -0.09375 C 2.390625 0.0078125 2.125 0.0625 1.8125 0.0625 Z M 1.8125 0.0625 "/></g></g></g><g fill="#ffffff" fill-opacity="1"><g transform="translate(109.754693, 7.19643)"><g><path d="M 2.984375 -1.46875 L 0.828125 -1.46875 C 0.847656 -1.082031 0.941406 -0.800781 1.109375 -0.625 C 1.273438 -0.445312 1.507812 -0.359375 1.8125 -0.359375 C 2.03125 -0.359375 2.207031 -0.394531 2.34375 -0.46875 C 2.476562 -0.550781 2.585938 -0.675781 2.671875 -0.84375 L 2.734375 -0.84375 L 3.03125 -0.671875 C 2.9375 -0.441406 2.789062 -0.257812 2.59375 -0.125 C 2.394531 0 2.132812 0.0625 1.8125 0.0625 C 1.507812 0.0625 1.25 0.00390625 1.03125 -0.109375 C 0.8125 -0.234375 0.640625 -0.414062 0.515625 -0.65625 C 0.398438 -0.90625 0.34375 -1.207031 0.34375 -1.5625 C 0.34375 -1.925781 0.40625 -2.226562 0.53125 -2.46875 C 0.65625 -2.71875 0.820312 -2.898438 1.03125 -3.015625 C 1.25 -3.140625 1.5 -3.203125 1.78125 -3.203125 C 2.175781 -3.203125 2.488281 -3.085938 2.71875 -2.859375 C 2.945312 -2.628906 3.0625 -2.289062 3.0625 -1.84375 C 3.0625 -1.675781 3.054688 -1.5625 3.046875 -1.5 Z M 2.609375 -1.84375 C 2.597656 -2.175781 2.519531 -2.421875 2.375 -2.578125 C 2.238281 -2.734375 2.039062 -2.8125 1.78125 -2.8125 C 1.5 -2.8125 1.28125 -2.734375 1.125 -2.578125 C 0.96875 -2.421875 0.875 -2.175781 0.84375 -1.84375 Z M 2.609375 -1.84375 "/></g></g></g><g fill="#ffffff" fill-opacity="1"><g transform="translate(116.595361, 7.19643)"><g><path d="M 0.546875 0 L 0.546875 -3.140625 L 0.984375 -3.140625 L 0.984375 -2.640625 L 1.046875 -2.625 C 1.191406 -2.988281 1.46875 -3.171875 1.875 -3.171875 C 2.082031 -3.171875 2.242188 -3.128906 2.359375 -3.046875 L 2.234375 -2.65625 L 2.171875 -2.640625 C 2.054688 -2.703125 1.929688 -2.734375 1.796875 -2.734375 C 1.546875 -2.734375 1.351562 -2.640625 1.21875 -2.453125 C 1.082031 -2.265625 1.015625 -1.960938 1.015625 -1.546875 L 1.015625 0 Z M 0.546875 0 "/></g></g></g><g fill="#ffffff" fill-opacity="1"><g transform="translate(122.514384, 7.19643)"><g><path d="M 1.984375 0 L 1.34375 0 L 0.15625 -3.140625 L 0.65625 -3.140625 L 1.640625 -0.53125 L 1.703125 -0.53125 L 2.6875 -3.140625 L 3.171875 -3.140625 Z M 1.984375 0 "/></g></g></g><g fill="#ffffff" fill-opacity="1"><g transform="translate(129.33514, 7.19643)"><g><path d="M 0.78125 -3.75 C 0.675781 -3.75 0.59375 -3.78125 0.53125 -3.84375 C 0.476562 -3.90625 0.453125 -3.984375 0.453125 -4.078125 C 0.453125 -4.171875 0.476562 -4.25 0.53125 -4.3125 C 0.59375 -4.375 0.675781 -4.40625 0.78125 -4.40625 C 0.875 -4.40625 0.953125 -4.375 1.015625 -4.3125 C 1.078125 -4.25 1.109375 -4.171875 1.109375 -4.078125 C 1.109375 -3.984375 1.078125 -3.90625 1.015625 -3.84375 C 0.953125 -3.78125 0.875 -3.75 0.78125 -3.75 Z M 0.546875 0 L 0.546875 -3.140625 L 1.015625 -3.140625 L 1.015625 0 Z M 0.546875 0 "/></g></g></g><g fill="#ffffff" fill-opacity="1"><g transform="translate(134.386563, 7.19643)"><g><path d="M 1.796875 0.0625 C 1.523438 0.0625 1.273438 0 1.046875 -0.125 C 0.828125 -0.25 0.65625 -0.4375 0.53125 -0.6875 C 0.40625 -0.9375 0.34375 -1.226562 0.34375 -1.5625 C 0.34375 -1.90625 0.40625 -2.195312 0.53125 -2.4375 C 0.65625 -2.6875 0.828125 -2.875 1.046875 -3 C 1.273438 -3.132812 1.523438 -3.203125 1.796875 -3.203125 C 2.128906 -3.203125 2.394531 -3.140625 2.59375 -3.015625 C 2.789062 -2.890625 2.929688 -2.722656 3.015625 -2.515625 L 2.703125 -2.28125 L 2.640625 -2.28125 C 2.554688 -2.457031 2.445312 -2.582031 2.3125 -2.65625 C 2.1875 -2.738281 2.015625 -2.78125 1.796875 -2.78125 C 1.609375 -2.78125 1.441406 -2.734375 1.296875 -2.640625 C 1.148438 -2.554688 1.035156 -2.421875 0.953125 -2.234375 C 0.867188 -2.054688 0.828125 -1.832031 0.828125 -1.5625 C 0.828125 -1.300781 0.867188 -1.078125 0.953125 -0.890625 C 1.035156 -0.710938 1.148438 -0.578125 1.296875 -0.484375 C 1.441406 -0.398438 1.609375 -0.359375 1.796875 -0.359375 C 2.015625 -0.359375 2.195312 -0.40625 2.34375 -0.5 C 2.488281 -0.601562 2.601562 -0.757812 2.6875 -0.96875 L 2.734375 -0.96875 L 3.046875 -0.796875 C 2.960938 -0.523438 2.816406 -0.3125 2.609375 -0.15625 C 2.398438 -0.0078125 2.128906 0.0625 1.796875 0.0625 Z M 1.796875 0.0625 "/></g></g></g><g fill="#ffffff" fill-opacity="1"><g transform="translate(141.116293, 7.19643)"><g><path d="M 2.984375 -1.46875 L 0.828125 -1.46875 C 0.847656 -1.082031 0.941406 -0.800781 1.109375 -0.625 C 1.273438 -0.445312 1.507812 -0.359375 1.8125 -0.359375 C 2.03125 -0.359375 2.207031 -0.394531 2.34375 -0.46875 C 2.476562 -0.550781 2.585938 -0.675781 2.671875 -0.84375 L 2.734375 -0.84375 L 3.03125 -0.671875 C 2.9375 -0.441406 2.789062 -0.257812 2.59375 -0.125 C 2.394531 0 2.132812 0.0625 1.8125 0.0625 C 1.507812 0.0625 1.25 0.00390625 1.03125 -0.109375 C 0.8125 -0.234375 0.640625 -0.414062 0.515625 -0.65625 C 0.398438 -0.90625 0.34375 -1.207031 0.34375 -1.5625 C 0.34375 -1.925781 0.40625 -2.226562 0.53125 -2.46875 C 0.65625 -2.71875 0.820312 -2.898438 1.03125 -3.015625 C 1.25 -3.140625 1.5 -3.203125 1.78125 -3.203125 C 2.175781 -3.203125 2.488281 -3.085938 2.71875 -2.859375 C 2.945312 -2.628906 3.0625 -2.289062 3.0625 -1.84375 C 3.0625 -1.675781 3.054688 -1.5625 3.046875 -1.5 Z M 2.609375 -1.84375 C 2.597656 -2.175781 2.519531 -2.421875 2.375 -2.578125 C 2.238281 -2.734375 2.039062 -2.8125 1.78125 -2.8125 C 1.5 -2.8125 1.28125 -2.734375 1.125 -2.578125 C 0.96875 -2.421875 0.875 -2.175781 0.84375 -1.84375 Z M 2.609375 -1.84375 "/></g></g></g><g fill="#ffffff" fill-opacity="1"><g transform="translate(147.956961, 7.19643)"><g><path d="M 1.4375 0.0625 C 1.238281 0.0625 1.050781 0.0351562 0.875 -0.015625 C 0.707031 -0.0664062 0.566406 -0.140625 0.453125 -0.234375 C 0.335938 -0.328125 0.257812 -0.429688 0.21875 -0.546875 L 0.484375 -0.828125 L 0.546875 -0.828125 C 0.648438 -0.671875 0.769531 -0.550781 0.90625 -0.46875 C 1.050781 -0.394531 1.226562 -0.359375 1.4375 -0.359375 C 1.664062 -0.359375 1.835938 -0.398438 1.953125 -0.484375 C 2.078125 -0.578125 2.140625 -0.707031 2.140625 -0.875 C 2.140625 -0.988281 2.101562 -1.085938 2.03125 -1.171875 C 1.957031 -1.253906 1.835938 -1.316406 1.671875 -1.359375 L 1.140625 -1.484375 C 0.859375 -1.554688 0.648438 -1.664062 0.515625 -1.8125 C 0.390625 -1.957031 0.328125 -2.140625 0.328125 -2.359375 C 0.328125 -2.523438 0.367188 -2.671875 0.453125 -2.796875 C 0.546875 -2.929688 0.675781 -3.03125 0.84375 -3.09375 C 1.007812 -3.164062 1.203125 -3.203125 1.421875 -3.203125 C 1.710938 -3.203125 1.941406 -3.160156 2.109375 -3.078125 C 2.273438 -2.992188 2.40625 -2.878906 2.5 -2.734375 L 2.234375 -2.484375 L 2.171875 -2.484375 C 2.078125 -2.597656 1.96875 -2.679688 1.84375 -2.734375 C 1.726562 -2.785156 1.585938 -2.8125 1.421875 -2.8125 C 1.210938 -2.8125 1.050781 -2.773438 0.9375 -2.703125 C 0.832031 -2.628906 0.78125 -2.519531 0.78125 -2.375 C 0.78125 -2.25 0.816406 -2.144531 0.890625 -2.0625 C 0.972656 -1.988281 1.113281 -1.929688 1.3125 -1.890625 L 1.828125 -1.765625 C 2.097656 -1.691406 2.296875 -1.582031 2.421875 -1.4375 C 2.546875 -1.289062 2.609375 -1.101562 2.609375 -0.875 C 2.609375 -0.6875 2.5625 -0.519531 2.46875 -0.375 C 2.382812 -0.238281 2.253906 -0.128906 2.078125 -0.046875 C 1.898438 0.0234375 1.6875 0.0625 1.4375 0.0625 Z M 1.4375 0.0625 "/></g></g></g></g></g></svg>