<svg xmlns="http://www.w3.org/2000/svg" xmlns:xlink="http://www.w3.org/1999/xlink" width="2000" zoomAndPan="magnify" viewBox="0 0 1500 1499.999933" height="2000" preserveAspectRatio="xMidYMid meet" version="1.0"><defs><g/><clipPath id="253d6cf267"><path d="M 1230.429688 631 L 1468 631 L 1468 863 L 1230.429688 863 Z M 1230.429688 631 " clip-rule="nonzero"/></clipPath><clipPath id="2c86d0c0db"><path d="M 1333.132812 700.054688 L 1387.96875 700.054688 L 1387.96875 754.890625 L 1333.132812 754.890625 Z M 1333.132812 700.054688 " clip-rule="nonzero"/></clipPath><clipPath id="eb456e8d05"><path d="M 1360.550781 700.054688 C 1345.40625 700.054688 1333.132812 712.332031 1333.132812 727.472656 C 1333.132812 742.617188 1345.40625 754.890625 1360.550781 754.890625 C 1375.695312 754.890625 1387.96875 742.617188 1387.96875 727.472656 C 1387.96875 712.332031 1375.695312 700.054688 1360.550781 700.054688 Z M 1360.550781 700.054688 " clip-rule="nonzero"/></clipPath><clipPath id="4cf5ef6be9"><path d="M 0.132812 0.0546875 L 54.96875 0.0546875 L 54.96875 54.890625 L 0.132812 54.890625 Z M 0.132812 0.0546875 " clip-rule="nonzero"/></clipPath><clipPath id="f0b44a1af7"><path d="M 27.550781 0.0546875 C 12.40625 0.0546875 0.132812 12.332031 0.132812 27.472656 C 0.132812 42.617188 12.40625 54.890625 27.550781 54.890625 C 42.695312 54.890625 54.96875 42.617188 54.96875 27.472656 C 54.96875 12.332031 42.695312 0.0546875 27.550781 0.0546875 Z M 27.550781 0.0546875 " clip-rule="nonzero"/></clipPath><clipPath id="4d026e70d4"><rect x="0" width="55" y="0" height="55"/></clipPath><clipPath id="1485bd1571"><path d="M 1333 684 L 1420 684 L 1420 771 L 1333 771 Z M 1333 684 " clip-rule="nonzero"/></clipPath><clipPath id="f67bfc9594"><path d="M 1333.132812 728.011719 L 1376.070312 683.984375 L 1420.101562 726.925781 L 1377.160156 770.953125 Z M 1333.132812 728.011719 " clip-rule="nonzero"/></clipPath><clipPath id="7768f59584"><path d="M 7 31 L 84 31 L 84 56 L 7 56 Z M 7 31 " clip-rule="nonzero"/></clipPath><clipPath id="30f305e70e"><path d="M 0.132812 44.011719 L 43.070312 -0.015625 L 87.101562 42.925781 L 44.160156 86.953125 Z M 0.132812 44.011719 " clip-rule="nonzero"/></clipPath><clipPath id="bb815dce46"><path d="M 42.941406 0.121094 L 0.00390625 44.148438 L 44.03125 87.085938 L 86.96875 43.058594 Z M 42.941406 0.121094 " clip-rule="nonzero"/></clipPath><clipPath id="70f1a516e7"><path d="M 42.941406 0.121094 L 0.00390625 44.148438 L 44.03125 87.085938 L 86.96875 43.058594 Z M 42.941406 0.121094 " clip-rule="nonzero"/></clipPath><clipPath id="57054204b7"><rect x="0" width="87" y="0" height="87"/></clipPath><clipPath id="889e126d9e"><rect x="0" width="1105" y="0" height="157"/></clipPath><clipPath id="4a521cc03e"><rect x="0" width="1143" y="0" height="60"/></clipPath></defs><g clip-path="url(#253d6cf267)"><path fill="#ffffff" d="M 1464.964844 726.464844 L 1366.875 633.65625 C 1366.476562 633.28125 1366.050781 632.945312 1365.589844 632.652344 C 1365.128906 632.359375 1364.644531 632.109375 1364.140625 631.910156 C 1363.632812 631.707031 1363.109375 631.554688 1362.574219 631.453125 C 1362.039062 631.347656 1361.496094 631.296875 1360.953125 631.296875 C 1360.40625 631.296875 1359.867188 631.347656 1359.328125 631.453125 C 1358.792969 631.554688 1358.273438 631.707031 1357.765625 631.910156 C 1357.257812 632.109375 1356.773438 632.359375 1356.316406 632.652344 C 1355.855469 632.945312 1355.425781 633.28125 1355.03125 633.65625 L 1292.882812 692.457031 L 1291.351562 690.929688 C 1291.148438 690.734375 1290.929688 690.5625 1290.695312 690.414062 C 1290.460938 690.261719 1290.214844 690.136719 1289.953125 690.035156 C 1289.695312 689.933594 1289.429688 689.855469 1289.15625 689.804688 C 1288.878906 689.753906 1288.605469 689.730469 1288.324219 689.734375 C 1288.046875 689.738281 1287.769531 689.765625 1287.5 689.824219 C 1287.226562 689.878906 1286.960938 689.960938 1286.703125 690.070312 C 1286.445312 690.179688 1286.203125 690.308594 1285.972656 690.464844 C 1285.738281 690.621094 1285.527344 690.796875 1285.328125 690.992188 C 1285.132812 691.191406 1284.953125 691.40625 1284.800781 691.636719 C 1284.644531 691.867188 1284.511719 692.113281 1284.402344 692.367188 C 1284.296875 692.625 1284.210938 692.890625 1284.15625 693.164062 C 1284.097656 693.4375 1284.070312 693.710938 1284.066406 693.988281 C 1284.0625 694.269531 1284.085938 694.546875 1284.136719 694.820312 C 1284.1875 695.09375 1284.261719 695.359375 1284.363281 695.621094 C 1284.464844 695.878906 1284.59375 696.125 1284.742188 696.359375 C 1284.890625 696.59375 1285.0625 696.8125 1285.253906 697.015625 L 1300.34375 712.101562 C 1300.542969 712.300781 1300.761719 712.480469 1300.996094 712.632812 C 1301.230469 712.789062 1301.480469 712.921875 1301.742188 713.03125 C 1302 713.136719 1302.269531 713.21875 1302.546875 713.273438 C 1302.824219 713.328125 1303.105469 713.355469 1303.386719 713.351562 C 1303.667969 713.351562 1303.949219 713.324219 1304.226562 713.269531 C 1304.5 713.214844 1304.769531 713.132812 1305.03125 713.023438 C 1305.292969 712.914062 1305.539062 712.78125 1305.773438 712.625 C 1306.007812 712.46875 1306.226562 712.289062 1306.425781 712.089844 C 1306.625 711.890625 1306.800781 711.675781 1306.960938 711.441406 C 1307.117188 711.207031 1307.25 710.957031 1307.355469 710.699219 C 1307.464844 710.4375 1307.546875 710.167969 1307.601562 709.890625 C 1307.660156 709.613281 1307.6875 709.335938 1307.6875 709.054688 C 1307.6875 708.769531 1307.660156 708.492188 1307.605469 708.214844 C 1307.550781 707.9375 1307.46875 707.667969 1307.363281 707.40625 C 1307.253906 707.144531 1307.125 706.898438 1306.96875 706.664062 C 1306.8125 706.425781 1306.632812 706.210938 1306.4375 706.007812 L 1305.070312 704.644531 L 1360.953125 651.773438 L 1437.398438 724.105469 L 1425.644531 724.105469 C 1425.078125 724.105469 1424.515625 724.160156 1423.960938 724.269531 C 1423.40625 724.378906 1422.867188 724.542969 1422.34375 724.761719 C 1421.824219 724.976562 1421.324219 725.242188 1420.855469 725.558594 C 1420.386719 725.871094 1419.949219 726.230469 1419.550781 726.628906 C 1419.148438 727.027344 1418.792969 727.464844 1418.476562 727.933594 C 1418.164062 728.40625 1417.898438 728.902344 1417.679688 729.425781 C 1417.464844 729.949219 1417.300781 730.484375 1417.191406 731.042969 C 1417.082031 731.597656 1417.027344 732.15625 1417.027344 732.722656 L 1417.027344 845.59375 L 1391.277344 845.59375 L 1391.277344 779.082031 C 1391.277344 778.515625 1391.222656 777.957031 1391.109375 777.402344 C 1391 776.847656 1390.835938 776.308594 1390.621094 775.785156 C 1390.402344 775.261719 1390.136719 774.765625 1389.824219 774.292969 C 1389.511719 773.824219 1389.152344 773.386719 1388.753906 772.988281 C 1388.351562 772.589844 1387.917969 772.230469 1387.445312 771.917969 C 1386.976562 771.601562 1386.480469 771.335938 1385.957031 771.121094 C 1385.433594 770.902344 1384.894531 770.742188 1384.339844 770.628906 C 1383.785156 770.519531 1383.222656 770.464844 1382.660156 770.464844 L 1344.796875 770.464844 C 1344.230469 770.464844 1343.667969 770.519531 1343.113281 770.628906 C 1342.558594 770.742188 1342.019531 770.902344 1341.496094 771.121094 C 1340.976562 771.335938 1340.480469 771.601562 1340.007812 771.917969 C 1339.539062 772.230469 1339.101562 772.589844 1338.703125 772.988281 C 1338.300781 773.386719 1337.945312 773.824219 1337.628906 774.292969 C 1337.316406 774.765625 1337.050781 775.261719 1336.835938 775.785156 C 1336.617188 776.308594 1336.453125 776.847656 1336.34375 777.402344 C 1336.234375 777.957031 1336.179688 778.515625 1336.179688 779.082031 L 1336.179688 845.597656 L 1287.273438 845.597656 L 1287.273438 830.589844 L 1307.480469 830.589844 C 1308.042969 830.589844 1308.605469 830.535156 1309.160156 830.425781 C 1309.714844 830.3125 1310.253906 830.152344 1310.777344 829.933594 C 1311.300781 829.71875 1311.796875 829.453125 1312.265625 829.136719 C 1312.738281 828.824219 1313.171875 828.464844 1313.570312 828.066406 C 1313.972656 827.667969 1314.328125 827.230469 1314.644531 826.761719 C 1314.957031 826.289062 1315.222656 825.792969 1315.441406 825.269531 C 1315.65625 824.746094 1315.820312 824.207031 1315.929688 823.652344 C 1316.042969 823.097656 1316.097656 822.539062 1316.097656 821.972656 L 1316.097656 779.082031 C 1316.097656 778.515625 1316.042969 777.957031 1315.929688 777.402344 C 1315.820312 776.847656 1315.65625 776.308594 1315.441406 775.785156 C 1315.222656 775.261719 1314.957031 774.765625 1314.644531 774.292969 C 1314.328125 773.824219 1313.972656 773.386719 1313.570312 772.988281 C 1313.171875 772.589844 1312.738281 772.230469 1312.265625 771.917969 C 1311.796875 771.601562 1311.300781 771.335938 1310.777344 771.121094 C 1310.253906 770.902344 1309.714844 770.742188 1309.160156 770.628906 C 1308.605469 770.519531 1308.042969 770.464844 1307.480469 770.464844 L 1294.011719 770.464844 L 1294.011719 770.390625 C 1294.011719 769.824219 1293.941406 769.269531 1293.800781 768.722656 C 1293.660156 768.175781 1293.449219 767.652344 1293.175781 767.15625 C 1292.902344 766.664062 1292.570312 766.210938 1292.179688 765.800781 C 1291.789062 765.390625 1291.355469 765.035156 1290.875 764.738281 L 1290.875 758.570312 L 1297.121094 758.570312 C 1297.347656 758.828125 1297.601562 759.0625 1297.875 759.269531 C 1298.148438 759.476562 1298.441406 759.65625 1298.753906 759.804688 C 1299.0625 759.953125 1299.386719 760.070312 1299.722656 760.152344 C 1300.054688 760.234375 1300.394531 760.285156 1300.738281 760.300781 C 1301.082031 760.3125 1301.425781 760.292969 1301.765625 760.238281 C 1302.105469 760.183594 1302.4375 760.097656 1302.757812 759.976562 C 1303.082031 759.855469 1303.390625 759.699219 1303.679688 759.515625 C 1303.972656 759.332031 1304.242188 759.121094 1304.492188 758.882812 C 1304.738281 758.644531 1304.960938 758.382812 1305.15625 758.101562 C 1305.355469 757.816406 1305.519531 757.519531 1305.65625 757.199219 C 1305.789062 756.882812 1305.890625 756.554688 1305.960938 756.21875 C 1306.03125 755.882812 1306.066406 755.539062 1306.066406 755.195312 C 1306.066406 754.851562 1306.03125 754.511719 1305.960938 754.171875 C 1305.890625 753.835938 1305.789062 753.507812 1305.65625 753.191406 C 1305.519531 752.875 1305.355469 752.574219 1305.15625 752.289062 C 1304.960938 752.007812 1304.738281 751.746094 1304.492188 751.507812 C 1304.242188 751.269531 1303.972656 751.058594 1303.679688 750.875 C 1303.390625 750.691406 1303.082031 750.539062 1302.757812 750.417969 C 1302.4375 750.292969 1302.105469 750.207031 1301.765625 750.152344 C 1301.425781 750.097656 1301.082031 750.078125 1300.738281 750.09375 C 1300.394531 750.105469 1300.054688 750.15625 1299.722656 750.238281 C 1299.386719 750.324219 1299.0625 750.4375 1298.753906 750.585938 C 1298.441406 750.734375 1298.148438 750.914062 1297.875 751.121094 C 1297.601562 751.328125 1297.347656 751.5625 1297.121094 751.820312 L 1290.875 751.820312 L 1290.875 749.722656 C 1290.875 749.378906 1290.839844 749.035156 1290.773438 748.695312 C 1290.707031 748.355469 1290.605469 748.023438 1290.472656 747.703125 C 1290.339844 747.382812 1290.179688 747.082031 1289.984375 746.792969 C 1289.792969 746.503906 1289.574219 746.238281 1289.328125 745.992188 C 1289.085938 745.746094 1288.820312 745.527344 1288.53125 745.335938 C 1288.242188 745.144531 1287.9375 744.980469 1287.617188 744.847656 C 1287.296875 744.714844 1286.96875 744.617188 1286.628906 744.546875 C 1286.289062 744.480469 1285.945312 744.449219 1285.597656 744.449219 C 1285.253906 744.449219 1284.910156 744.480469 1284.570312 744.546875 C 1284.230469 744.617188 1283.898438 744.714844 1283.578125 744.847656 C 1283.257812 744.980469 1282.957031 745.144531 1282.667969 745.335938 C 1282.378906 745.527344 1282.113281 745.746094 1281.867188 745.992188 C 1281.621094 746.238281 1281.402344 746.503906 1281.210938 746.792969 C 1281.019531 747.082031 1280.855469 747.382812 1280.722656 747.703125 C 1280.589844 748.023438 1280.492188 748.355469 1280.421875 748.695312 C 1280.355469 749.035156 1280.320312 749.378906 1280.320312 749.722656 L 1280.320312 751.820312 L 1274.078125 751.820312 C 1273.847656 751.5625 1273.597656 751.328125 1273.324219 751.121094 C 1273.046875 750.914062 1272.753906 750.734375 1272.445312 750.585938 C 1272.132812 750.4375 1271.8125 750.324219 1271.476562 750.238281 C 1271.140625 750.15625 1270.804688 750.105469 1270.457031 750.09375 C 1270.113281 750.078125 1269.773438 750.097656 1269.433594 750.152344 C 1269.089844 750.207031 1268.761719 750.292969 1268.4375 750.417969 C 1268.117188 750.539062 1267.808594 750.691406 1267.515625 750.875 C 1267.226562 751.058594 1266.957031 751.269531 1266.707031 751.507812 C 1266.457031 751.746094 1266.234375 752.007812 1266.039062 752.289062 C 1265.84375 752.574219 1265.679688 752.875 1265.542969 753.191406 C 1265.40625 753.507812 1265.304688 753.835938 1265.238281 754.171875 C 1265.167969 754.511719 1265.132812 754.851562 1265.132812 755.195312 C 1265.132812 755.539062 1265.167969 755.882812 1265.238281 756.21875 C 1265.304688 756.558594 1265.40625 756.882812 1265.542969 757.199219 C 1265.679688 757.519531 1265.84375 757.816406 1266.039062 758.101562 C 1266.234375 758.382812 1266.457031 758.644531 1266.707031 758.882812 C 1266.957031 759.121094 1267.226562 759.332031 1267.515625 759.515625 C 1267.808594 759.699219 1268.117188 759.855469 1268.4375 759.976562 C 1268.761719 760.097656 1269.089844 760.183594 1269.433594 760.238281 C 1269.773438 760.292969 1270.113281 760.3125 1270.457031 760.300781 C 1270.804688 760.285156 1271.140625 760.234375 1271.476562 760.152344 C 1271.8125 760.070312 1272.132812 759.953125 1272.445312 759.804688 C 1272.753906 759.65625 1273.046875 759.476562 1273.324219 759.269531 C 1273.597656 759.0625 1273.847656 758.828125 1274.078125 758.570312 L 1280.320312 758.570312 L 1280.320312 763.730469 L 1269.96875 763.730469 C 1269.53125 763.730469 1269.097656 763.773438 1268.667969 763.855469 C 1268.238281 763.941406 1267.824219 764.070312 1267.417969 764.238281 C 1267.015625 764.402344 1266.628906 764.609375 1266.265625 764.851562 C 1265.902344 765.09375 1265.566406 765.371094 1265.257812 765.679688 C 1264.945312 765.992188 1264.671875 766.328125 1264.425781 766.691406 C 1264.183594 767.054688 1263.980469 767.441406 1263.8125 767.84375 C 1263.644531 768.25 1263.515625 768.664062 1263.433594 769.09375 C 1263.347656 769.523438 1263.304688 769.957031 1263.304688 770.394531 L 1263.304688 770.46875 L 1255.601562 770.46875 C 1254.988281 770.46875 1254.375 770.496094 1253.761719 770.558594 C 1253.148438 770.617188 1252.542969 770.707031 1251.941406 770.828125 C 1251.335938 770.949219 1250.742188 771.097656 1250.152344 771.277344 C 1249.566406 771.453125 1248.988281 771.660156 1248.417969 771.894531 C 1247.851562 772.132812 1247.296875 772.394531 1246.753906 772.683594 C 1246.210938 772.972656 1245.6875 773.289062 1245.175781 773.628906 C 1244.664062 773.972656 1244.171875 774.335938 1243.695312 774.726562 C 1243.21875 775.117188 1242.765625 775.527344 1242.332031 775.964844 C 1241.894531 776.398438 1241.484375 776.851562 1241.09375 777.328125 C 1240.703125 777.804688 1240.339844 778.296875 1239.996094 778.808594 C 1239.65625 779.316406 1239.339844 779.84375 1239.050781 780.386719 C 1238.761719 780.929688 1238.496094 781.484375 1238.261719 782.050781 C 1238.027344 782.617188 1237.820312 783.195312 1237.640625 783.785156 C 1237.464844 784.371094 1237.3125 784.96875 1237.195312 785.570312 C 1237.074219 786.175781 1236.984375 786.78125 1236.921875 787.394531 C 1236.863281 788.003906 1236.832031 788.617188 1236.832031 789.230469 L 1236.832031 795.78125 L 1234.777344 795.78125 C 1234.492188 795.78125 1234.214844 795.808594 1233.9375 795.863281 C 1233.660156 795.917969 1233.390625 796 1233.128906 796.109375 C 1232.867188 796.214844 1232.617188 796.347656 1232.382812 796.507812 C 1232.148438 796.664062 1231.929688 796.84375 1231.730469 797.042969 C 1231.53125 797.242188 1231.351562 797.460938 1231.195312 797.695312 C 1231.035156 797.929688 1230.902344 798.179688 1230.796875 798.441406 C 1230.6875 798.703125 1230.605469 798.972656 1230.550781 799.25 C 1230.496094 799.527344 1230.46875 799.804688 1230.46875 800.089844 C 1230.46875 800.371094 1230.496094 800.652344 1230.550781 800.929688 C 1230.605469 801.207031 1230.6875 801.476562 1230.796875 801.738281 C 1230.902344 802 1231.035156 802.246094 1231.195312 802.484375 C 1231.351562 802.71875 1231.53125 802.9375 1231.730469 803.136719 C 1231.929688 803.335938 1232.148438 803.515625 1232.382812 803.671875 C 1232.617188 803.828125 1232.867188 803.960938 1233.128906 804.070312 C 1233.390625 804.179688 1233.660156 804.261719 1233.9375 804.316406 C 1234.214844 804.371094 1234.492188 804.398438 1234.777344 804.398438 L 1256.117188 804.398438 C 1256.398438 804.398438 1256.679688 804.371094 1256.957031 804.316406 C 1257.234375 804.261719 1257.503906 804.179688 1257.765625 804.070312 C 1258.027344 803.960938 1258.273438 803.828125 1258.511719 803.671875 C 1258.746094 803.515625 1258.964844 803.335938 1259.164062 803.136719 C 1259.363281 802.9375 1259.542969 802.71875 1259.699219 802.484375 C 1259.855469 802.246094 1259.988281 802 1260.097656 801.738281 C 1260.207031 801.476562 1260.289062 801.207031 1260.34375 800.929688 C 1260.398438 800.652344 1260.425781 800.371094 1260.425781 800.089844 C 1260.425781 799.804688 1260.398438 799.527344 1260.34375 799.25 C 1260.289062 798.972656 1260.207031 798.703125 1260.097656 798.441406 C 1259.988281 798.179688 1259.855469 797.929688 1259.699219 797.695312 C 1259.542969 797.460938 1259.363281 797.242188 1259.164062 797.042969 C 1258.964844 796.84375 1258.746094 796.664062 1258.511719 796.507812 C 1258.273438 796.347656 1258.027344 796.214844 1257.765625 796.109375 C 1257.503906 796 1257.234375 795.917969 1256.957031 795.863281 C 1256.679688 795.808594 1256.398438 795.78125 1256.117188 795.78125 L 1254.066406 795.78125 L 1254.066406 789.230469 C 1254.066406 789.027344 1254.105469 788.832031 1254.183594 788.644531 C 1254.261719 788.457031 1254.371094 788.292969 1254.515625 788.148438 C 1254.660156 788.003906 1254.828125 787.894531 1255.015625 787.816406 C 1255.203125 787.738281 1255.398438 787.699219 1255.601562 787.699219 L 1263.304688 787.699219 L 1263.304688 787.773438 C 1263.304688 788.210938 1263.347656 788.644531 1263.433594 789.074219 C 1263.519531 789.503906 1263.644531 789.917969 1263.8125 790.324219 C 1263.980469 790.726562 1264.183594 791.113281 1264.429688 791.476562 C 1264.671875 791.839844 1264.945312 792.175781 1265.257812 792.484375 C 1265.566406 792.796875 1265.902344 793.070312 1266.265625 793.3125 C 1266.628906 793.558594 1267.015625 793.761719 1267.417969 793.929688 C 1267.824219 794.097656 1268.242188 794.222656 1268.667969 794.308594 C 1269.097656 794.394531 1269.53125 794.4375 1269.96875 794.4375 L 1287.347656 794.4375 C 1287.785156 794.4375 1288.21875 794.394531 1288.648438 794.308594 C 1289.078125 794.222656 1289.492188 794.097656 1289.898438 793.929688 C 1290.300781 793.761719 1290.6875 793.558594 1291.050781 793.3125 C 1291.414062 793.070312 1291.75 792.792969 1292.058594 792.484375 C 1292.371094 792.175781 1292.644531 791.839844 1292.890625 791.476562 C 1293.132812 791.113281 1293.335938 790.726562 1293.503906 790.324219 C 1293.671875 789.917969 1293.800781 789.503906 1293.882812 789.074219 C 1293.96875 788.644531 1294.011719 788.210938 1294.011719 787.773438 L 1294.011719 787.699219 L 1298.859375 787.699219 L 1298.859375 813.363281 L 1278.660156 813.363281 C 1278.09375 813.363281 1277.53125 813.417969 1276.976562 813.527344 C 1276.421875 813.636719 1275.882812 813.800781 1275.359375 814.019531 C 1274.839844 814.234375 1274.339844 814.5 1273.871094 814.8125 C 1273.402344 815.128906 1272.964844 815.484375 1272.566406 815.886719 C 1272.164062 816.285156 1271.808594 816.722656 1271.492188 817.191406 C 1271.179688 817.664062 1270.914062 818.160156 1270.695312 818.683594 C 1270.480469 819.203125 1270.316406 819.742188 1270.207031 820.296875 C 1270.097656 820.851562 1270.039062 821.414062 1270.039062 821.980469 L 1270.039062 854.214844 C 1270.039062 854.78125 1270.097656 855.34375 1270.207031 855.898438 C 1270.316406 856.453125 1270.480469 856.992188 1270.695312 857.515625 C 1270.914062 858.039062 1271.179688 858.535156 1271.492188 859.003906 C 1271.808594 859.476562 1272.164062 859.910156 1272.566406 860.308594 C 1272.964844 860.710938 1273.402344 861.066406 1273.871094 861.382812 C 1274.339844 861.695312 1274.839844 861.960938 1275.359375 862.179688 C 1275.882812 862.394531 1276.421875 862.558594 1276.976562 862.667969 C 1277.53125 862.777344 1278.09375 862.835938 1278.660156 862.835938 L 1344.796875 862.835938 C 1345.363281 862.835938 1345.921875 862.777344 1346.476562 862.667969 C 1347.03125 862.558594 1347.570312 862.394531 1348.09375 862.179688 C 1348.617188 861.960938 1349.113281 861.695312 1349.582031 861.382812 C 1350.054688 861.066406 1350.488281 860.710938 1350.890625 860.308594 C 1351.289062 859.910156 1351.648438 859.476562 1351.960938 859.003906 C 1352.277344 858.535156 1352.542969 858.039062 1352.757812 857.515625 C 1352.972656 856.992188 1353.136719 856.453125 1353.246094 855.898438 C 1353.359375 855.34375 1353.414062 854.78125 1353.414062 854.214844 L 1353.414062 787.699219 L 1374.042969 787.699219 L 1374.042969 854.214844 C 1374.042969 854.78125 1374.097656 855.339844 1374.210938 855.894531 C 1374.320312 856.449219 1374.484375 856.988281 1374.699219 857.511719 C 1374.917969 858.035156 1375.183594 858.53125 1375.496094 859.003906 C 1375.8125 859.472656 1376.167969 859.910156 1376.566406 860.308594 C 1376.96875 860.707031 1377.402344 861.066406 1377.875 861.378906 C 1378.34375 861.695312 1378.839844 861.960938 1379.363281 862.175781 C 1379.886719 862.394531 1380.425781 862.558594 1380.980469 862.667969 C 1381.535156 862.777344 1382.097656 862.832031 1382.660156 862.832031 L 1425.644531 862.832031 C 1426.210938 862.832031 1426.769531 862.777344 1427.324219 862.667969 C 1427.882812 862.558594 1428.421875 862.394531 1428.941406 862.175781 C 1429.464844 861.960938 1429.960938 861.695312 1430.433594 861.378906 C 1430.902344 861.066406 1431.339844 860.707031 1431.738281 860.308594 C 1432.136719 859.910156 1432.496094 859.472656 1432.808594 859.003906 C 1433.125 858.53125 1433.390625 858.035156 1433.605469 857.511719 C 1433.824219 856.988281 1433.988281 856.449219 1434.097656 855.894531 C 1434.207031 855.339844 1434.261719 854.78125 1434.261719 854.214844 L 1434.261719 741.339844 L 1459.039062 741.339844 C 1459.902344 741.339844 1460.746094 741.214844 1461.570312 740.960938 C 1462.394531 740.707031 1463.164062 740.335938 1463.875 739.851562 C 1464.589844 739.371094 1465.214844 738.792969 1465.753906 738.121094 C 1466.296875 737.449219 1466.722656 736.710938 1467.042969 735.910156 C 1467.363281 735.109375 1467.554688 734.277344 1467.625 733.417969 C 1467.695312 732.5625 1467.636719 731.710938 1467.453125 730.867188 C 1467.265625 730.027344 1466.960938 729.230469 1466.539062 728.480469 C 1466.113281 727.730469 1465.589844 727.058594 1464.960938 726.464844 Z M 1464.964844 726.464844 " fill-opacity="1" fill-rule="nonzero"/></g><path fill="#ffffff" d="M 1245.597656 809.371094 C 1245.597656 809.367188 1245.59375 809.363281 1245.589844 809.355469 C 1245.5625 809.296875 1245.515625 809.265625 1245.449219 809.265625 C 1245.382812 809.265625 1245.332031 809.296875 1245.304688 809.355469 C 1245.304688 809.363281 1245.300781 809.367188 1245.296875 809.371094 C 1244.445312 810.875 1243.207031 813.15625 1241.910156 816 C 1238.28125 823.957031 1236.402344 828.257812 1238.839844 831.921875 C 1239 832.164062 1241.410156 835.660156 1245.300781 835.761719 C 1245.351562 835.761719 1245.398438 835.761719 1245.449219 835.761719 C 1245.496094 835.761719 1245.546875 835.761719 1245.597656 835.761719 C 1249.488281 835.660156 1251.894531 832.164062 1252.054688 831.921875 C 1254.496094 828.261719 1252.617188 823.957031 1248.988281 816 C 1247.691406 813.15625 1246.453125 810.875 1245.597656 809.371094 Z M 1245.597656 809.371094 " fill-opacity="1" fill-rule="nonzero"/><g clip-path="url(#2c86d0c0db)"><g clip-path="url(#eb456e8d05)"><g transform="matrix(1, 0, 0, 1, 1333, 700)"><g clip-path="url(#4d026e70d4)"><g clip-path="url(#4cf5ef6be9)"><g clip-path="url(#f0b44a1af7)"><path fill="#060e1c" d="M 0.132812 0.0546875 L 54.96875 0.0546875 L 54.96875 54.890625 L 0.132812 54.890625 Z M 0.132812 0.0546875 " fill-opacity="1" fill-rule="nonzero"/></g></g></g></g></g></g><g clip-path="url(#1485bd1571)"><g clip-path="url(#f67bfc9594)"><g transform="matrix(1, 0, 0, 1, 1333, 684)"><g clip-path="url(#57054204b7)"><g clip-path="url(#7768f59584)"><g clip-path="url(#30f305e70e)"><g clip-path="url(#bb815dce46)"><g clip-path="url(#70f1a516e7)"><path fill="#ffffff" d="M 80.859375 43 C 80.839844 41.550781 79.648438 40.390625 78.199219 40.40625 C 76.746094 40.425781 75.585938 41.617188 75.601562 43.066406 C 75.621094 44.519531 76.8125 45.679688 78.265625 45.664062 C 79.714844 45.644531 80.875 44.453125 80.859375 43 Z M 18.164062 55.890625 C 13.9375 55.941406 10.1875 53.824219 7.984375 50.566406 C 7.664062 50.09375 8 49.457031 8.570312 49.449219 L 16.375 49.351562 C 17.316406 49.339844 18.070312 48.566406 18.058594 47.625 L 18.011719 43.789062 L 17.964844 39.957031 C 17.953125 39.011719 17.179688 38.257812 16.234375 38.269531 L 8.429688 38.367188 C 7.863281 38.375 7.511719 37.746094 7.816406 37.265625 C 9.941406 33.957031 13.632812 31.742188 17.859375 31.6875 C 21.222656 31.648438 24.285156 32.980469 26.503906 35.171875 C 29.285156 37.910156 33.085938 39.359375 36.984375 39.195312 L 77.847656 37.507812 C 77.949219 37.5 78.054688 37.496094 78.160156 37.492188 C 81.222656 37.453125 83.734375 39.90625 83.773438 42.964844 C 83.8125 46.027344 81.359375 48.539062 78.300781 48.578125 C 78.195312 48.578125 78.089844 48.578125 77.984375 48.570312 L 37.09375 47.90625 C 33.191406 47.84375 29.429688 49.386719 26.71875 52.195312 C 24.554688 54.4375 21.527344 55.847656 18.164062 55.890625 " fill-opacity="1" fill-rule="nonzero"/></g></g></g></g></g></g></g></g><g transform="matrix(1, 0, 0, 1, 51, 663)"><g clip-path="url(#889e126d9e)"><g fill="#ffffff" fill-opacity="1"><g transform="translate(0.734792, 108.619946)"><g><path d="M 3.3125 0 Z M 54.75 -10.109375 L 54.75 0 L 25.515625 0 C 20.046875 0 15.738281 -0.578125 12.59375 -1.734375 C 9.445312 -2.898438 7.113281 -5.015625 5.59375 -8.078125 C 4.070312 -11.140625 3.3125 -15.597656 3.3125 -21.453125 C 3.3125 -27.023438 4.03125 -31.289062 5.46875 -34.25 C 6.90625 -37.207031 9.222656 -39.28125 12.421875 -40.46875 C 15.628906 -41.65625 20.128906 -42.25 25.921875 -42.25 C 29.015625 -42.25 32.710938 -42.132812 37.015625 -41.90625 C 41.328125 -41.6875 44.367188 -41.441406 46.140625 -41.171875 L 46.140625 -10.109375 Z M 14.40625 -21.453125 C 14.40625 -18.359375 14.804688 -15.992188 15.609375 -14.359375 C 16.410156 -12.734375 17.640625 -11.617188 19.296875 -11.015625 C 20.953125 -10.410156 23.21875 -10.109375 26.09375 -10.109375 L 35.03125 -10.109375 L 35.03125 -31.71875 C 32.269531 -32 29.375 -32.140625 26.34375 -32.140625 C 23.300781 -32.140625 20.9375 -31.832031 19.25 -31.21875 C 17.570312 -30.613281 16.34375 -29.550781 15.5625 -28.03125 C 14.789062 -26.519531 14.40625 -24.328125 14.40625 -21.453125 Z M 16.3125 -59.46875 L 24.84375 -59.46875 L 24.84375 -49.109375 L 16.3125 -49.109375 Z M 28.90625 -59.46875 L 37.4375 -59.46875 L 37.4375 -49.109375 L 28.90625 -49.109375 Z M 28.90625 -59.46875 "/></g></g></g><g fill="#ffffff" fill-opacity="1"><g transform="translate(55.488556, 108.619946)"><g><path d="M 0 0 Z M 35.859375 -10.109375 L 35.859375 0 L 0 0 L 0 -10.109375 L 12.34375 -10.109375 L 12.34375 -41.40625 L 23.4375 -41.40625 L 23.4375 -10.109375 Z M 7.203125 6.625 L 15.734375 6.625 L 15.734375 16.984375 L 7.203125 16.984375 Z M 19.796875 6.625 L 28.328125 6.625 L 28.328125 16.984375 L 19.796875 16.984375 Z M 19.796875 6.625 "/></g></g></g><g fill="#ffffff" fill-opacity="1"><g transform="translate(91.356001, 108.619946)"><g><path d="M 21.28125 -57.984375 L 21.28125 0 L 0 0 L 0 -10.109375 L 10.1875 -10.109375 L 10.1875 -57.984375 Z M 21.28125 -57.984375 "/></g></g></g><g fill="#ffffff" fill-opacity="1"><g transform="translate(119.270879, 108.619946)"><g><path d="M 3.3125 0 Z M 36.859375 0 L 23.1875 0 C 23.132812 6.519531 21.960938 11.570312 19.671875 15.15625 C 17.378906 18.75 13.941406 20.546875 9.359375 20.546875 C 8.640625 20.546875 6.625 20.429688 3.3125 20.203125 L 3.3125 10.265625 L 6.125 10.4375 C 8.113281 10.4375 9.601562 9.648438 10.59375 8.078125 C 11.59375 6.503906 12.09375 4.28125 12.09375 1.40625 L 12.09375 -41.40625 L 23.1875 -41.40625 L 23.1875 -10.109375 L 36.859375 -10.109375 Z M 12.5 -59.890625 L 22.6875 -59.890625 L 22.6875 -49.125 L 12.5 -49.125 Z M 12.5 -59.890625 "/></g></g></g><g fill="#ffffff" fill-opacity="1"><g transform="translate(156.132335, 108.619946)"><g><path d="M 0 0 Z M 35.859375 -10.109375 L 35.859375 0 L 0 0 L 0 -10.109375 L 12.34375 -10.109375 L 12.34375 -41.40625 L 23.4375 -41.40625 L 23.4375 -10.109375 Z M 12.671875 -59.890625 L 22.859375 -59.890625 L 22.859375 -49.125 L 12.671875 -49.125 Z M 12.671875 -59.890625 "/></g></g></g><g fill="#ffffff" fill-opacity="1"><g transform="translate(191.99978, 108.619946)"><g><path d="M 61.125 -10.109375 L 61.125 0 L 56.578125 0 C 55.628906 0 54.738281 -0.328125 53.90625 -0.984375 C 53.082031 -1.648438 52.476562 -2.507812 52.09375 -3.5625 L 52.09375 0 L 0 0 L 0 -10.109375 L 12.921875 -10.109375 C 12.148438 -14.078125 11.765625 -17.582031 11.765625 -20.625 C 11.765625 -23.664062 12.066406 -26.921875 12.671875 -30.390625 C 13.273438 -33.867188 13.96875 -36.878906 14.75 -39.421875 C 16.238281 -40.140625 18.445312 -40.773438 21.375 -41.328125 C 24.300781 -41.878906 27.554688 -42.15625 31.140625 -42.15625 C 36.828125 -42.15625 41.203125 -41.328125 44.265625 -39.671875 C 47.335938 -38.015625 49.410156 -35.664062 50.484375 -32.625 C 51.554688 -29.59375 52.09375 -25.617188 52.09375 -20.703125 L 52.09375 -13.671875 C 52.476562 -12.566406 53.082031 -11.695312 53.90625 -11.0625 C 54.738281 -10.425781 55.628906 -10.109375 56.578125 -10.109375 Z M 22.53125 -20.625 C 22.53125 -18.75 22.65625 -16.828125 22.90625 -14.859375 C 23.15625 -12.898438 23.414062 -11.316406 23.6875 -10.109375 L 41 -10.109375 L 41 -20.953125 C 41 -24.816406 40.238281 -27.660156 38.71875 -29.484375 C 37.195312 -31.304688 34.285156 -32.21875 29.984375 -32.21875 C 27.890625 -32.21875 25.789062 -32 23.6875 -31.5625 C 22.914062 -27.414062 22.53125 -23.769531 22.53125 -20.625 Z M 22.53125 -20.625 "/></g></g></g><g fill="#ffffff" fill-opacity="1"><g transform="translate(253.131805, 108.619946)"><g><path d="M 21.28125 -57.984375 L 21.28125 0 L 0 0 L 0 -10.109375 L 10.1875 -10.109375 L 10.1875 -57.984375 Z M 21.28125 -57.984375 "/></g></g></g><g fill="#ffffff" fill-opacity="1"><g transform="translate(281.046704, 108.619946)"><g><path d="M 6.625 -57.984375 L 17.71875 -57.984375 L 17.71875 0 L 6.625 0 Z M 6.625 -57.984375 "/></g></g></g><g fill="#ffffff" fill-opacity="1"><g transform="translate(306.228073, 108.619946)"><g/></g></g><g fill="#ffffff" fill-opacity="1"><g transform="translate(324.451413, 108.619946)"><g><path d="M 4.46875 0 Z M 63.9375 -41.40625 L 63.9375 0 L 28.15625 0 C 23.351562 0 19.28125 -0.359375 15.9375 -1.078125 C 12.601562 -1.796875 9.859375 -3.3125 7.703125 -5.625 C 5.546875 -7.945312 4.46875 -11.398438 4.46875 -15.984375 C 4.46875 -18.359375 4.726562 -21.078125 5.25 -24.140625 C 5.78125 -27.203125 6.378906 -30.003906 7.046875 -32.546875 L 15.984375 -32.046875 L 15.40625 -26.84375 C 14.851562 -22.8125 14.578125 -20.046875 14.578125 -18.546875 C 14.578125 -12.921875 18.664062 -10.109375 26.84375 -10.109375 L 52.84375 -10.109375 L 52.84375 -41.40625 Z M 24.265625 -51.765625 L 32.796875 -51.765625 L 32.796875 -41.40625 L 24.265625 -41.40625 Z M 36.859375 -51.765625 L 45.390625 -51.765625 L 45.390625 -41.40625 L 36.859375 -41.40625 Z M 36.859375 -51.765625 "/></g></g></g><g fill="#ffffff" fill-opacity="1"><g transform="translate(394.197189, 108.619946)"><g><path d="M 25.84375 -10.109375 L 25.84375 0 L 6.625 0 L 6.625 -57.984375 L 17.71875 -57.984375 L 17.71875 -10.109375 Z M 25.84375 -10.109375 "/></g></g></g><g fill="#ffffff" fill-opacity="1"><g transform="translate(420.04163, 108.619946)"><g><path d="M 31.140625 -42.15625 C 36.828125 -42.15625 41.203125 -41.328125 44.265625 -39.671875 C 47.335938 -38.015625 49.410156 -35.664062 50.484375 -32.625 C 51.554688 -29.59375 52.09375 -25.617188 52.09375 -20.703125 L 52.09375 0 L 0 0 L 0 -10.109375 L 12.921875 -10.109375 C 12.148438 -14.078125 11.765625 -17.582031 11.765625 -20.625 C 11.765625 -23.664062 12.066406 -26.921875 12.671875 -30.390625 C 13.273438 -33.867188 13.96875 -36.878906 14.75 -39.421875 C 16.238281 -40.140625 18.445312 -40.773438 21.375 -41.328125 C 24.300781 -41.878906 27.554688 -42.15625 31.140625 -42.15625 Z M 22.53125 -20.625 C 22.53125 -18.75 22.65625 -16.828125 22.90625 -14.859375 C 23.15625 -12.898438 23.414062 -11.316406 23.6875 -10.109375 L 41 -10.109375 L 41 -20.953125 C 41 -24.816406 40.238281 -27.660156 38.71875 -29.484375 C 37.195312 -31.304688 34.285156 -32.21875 29.984375 -32.21875 C 27.890625 -32.21875 25.789062 -32 23.6875 -31.5625 C 22.914062 -27.414062 22.53125 -23.769531 22.53125 -20.625 Z M 22.53125 -20.625 "/></g></g></g><g fill="#ffffff" fill-opacity="1"><g transform="translate(476.285558, 108.619946)"><g><path d="M 49.609375 -10.109375 L 49.609375 0 L 3.3125 0 L 3.3125 -10.109375 L 29.90625 -10.109375 L 29.90625 -13.09375 C 29.90625 -20.269531 28.550781 -25.390625 25.84375 -28.453125 C 23.132812 -31.515625 19.90625 -33.046875 16.15625 -33.046875 L 7.78125 -33.046875 L 6.953125 -41.75 C 8.671875 -42.132812 10.617188 -42.488281 12.796875 -42.8125 C 14.972656 -43.144531 16.972656 -43.3125 18.796875 -43.3125 C 23.210938 -43.3125 27.09375 -42.222656 30.4375 -40.046875 C 33.78125 -37.867188 36.375 -34.597656 38.21875 -30.234375 C 40.070312 -25.867188 41 -20.507812 41 -14.15625 L 41 -10.109375 Z M 49.609375 -10.109375 "/></g></g></g><g fill="#ffffff" fill-opacity="1"><g transform="translate(525.903578, 108.619946)"><g><path d="M 0 0 Z M 50.859375 -10.109375 L 50.859375 0 L 0 0 L 0 -10.109375 L 31.21875 -10.109375 L 31.21875 -25.671875 C 31.21875 -28.046875 30.707031 -29.828125 29.6875 -31.015625 C 28.664062 -32.203125 26.914062 -32.796875 24.4375 -32.796875 C 19.351562 -32.628906 14.9375 -32.460938 11.1875 -32.296875 L 6.953125 -32.140625 L 6.625 -39.515625 C 9.5 -40.285156 12.976562 -40.929688 17.0625 -41.453125 C 21.144531 -41.984375 24.597656 -42.25 27.421875 -42.25 C 32.609375 -42.25 36.375 -41.15625 38.71875 -38.96875 C 41.070312 -36.789062 42.273438 -33.328125 42.328125 -28.578125 L 42.328125 -10.109375 Z M 20.453125 -59.890625 L 30.640625 -59.890625 L 30.640625 -49.125 L 20.453125 -49.125 Z M 20.453125 -59.890625 "/></g></g></g><g fill="#ffffff" fill-opacity="1"><g transform="translate(576.764074, 108.619946)"><g><path d="M 29.984375 -10.109375 L 29.984375 0 L 0 0 L 0 -10.109375 L 10.1875 -10.109375 L 10.1875 -57.984375 L 21.28125 -57.984375 L 21.28125 -10.109375 Z M 29.984375 -10.109375 "/></g></g></g><g fill="#ffffff" fill-opacity="1"><g transform="translate(606.750238, 108.619946)"><g><path d="M 21.28125 -57.984375 L 21.28125 0 L 0 0 L 0 -10.109375 L 10.1875 -10.109375 L 10.1875 -57.984375 Z M 21.28125 -57.984375 "/></g></g></g><g fill="#ffffff" fill-opacity="1"><g transform="translate(634.665137, 108.619946)"><g/></g></g><g fill="#ffffff" fill-opacity="1"><g transform="translate(652.888476, 108.619946)"><g><path d="M 27.578125 20.546875 C 22.890625 20.546875 18.707031 19.675781 15.03125 17.9375 C 11.363281 16.195312 8.492188 13.832031 6.421875 10.84375 C 4.347656 7.863281 3.3125 4.582031 3.3125 1 C 3.3125 -2.539062 4.304688 -10.46875 6.296875 -22.78125 L 16.734375 -22.203125 C 16.066406 -18.003906 15.457031 -13.640625 14.90625 -9.109375 C 14.351562 -4.578125 14.078125 -1.597656 14.078125 -0.171875 C 14.078125 1.765625 14.628906 3.546875 15.734375 5.171875 C 16.835938 6.804688 18.394531 8.09375 20.40625 9.03125 C 22.425781 9.96875 24.679688 10.4375 27.171875 10.4375 C 29.648438 10.4375 31.84375 9.96875 33.75 9.03125 C 35.65625 8.09375 37.117188 6.820312 38.140625 5.21875 C 39.160156 3.613281 39.671875 1.875 39.671875 0 L 39.671875 -57.984375 L 50.78125 -57.984375 L 50.78125 1.15625 C 50.78125 4.6875 49.828125 7.929688 47.921875 10.890625 C 46.015625 13.847656 43.304688 16.195312 39.796875 17.9375 C 36.296875 19.675781 32.222656 20.546875 27.578125 20.546875 Z M 27.578125 20.546875 "/></g></g></g><g fill="#ffffff" fill-opacity="1"><g transform="translate(710.292104, 108.619946)"><g><path d="M 3.3125 0 Z M 36.859375 0 L 23.1875 0 C 23.132812 6.519531 21.960938 11.570312 19.671875 15.15625 C 17.378906 18.75 13.941406 20.546875 9.359375 20.546875 C 8.640625 20.546875 6.625 20.429688 3.3125 20.203125 L 3.3125 10.265625 L 6.125 10.4375 C 8.113281 10.4375 9.601562 9.648438 10.59375 8.078125 C 11.59375 6.503906 12.09375 4.28125 12.09375 1.40625 L 12.09375 -41.40625 L 23.1875 -41.40625 L 23.1875 -10.109375 L 36.859375 -10.109375 Z M 12.5 -59.890625 L 22.6875 -59.890625 L 22.6875 -49.125 L 12.5 -49.125 Z M 12.5 -59.890625 "/></g></g></g><g fill="#ffffff" fill-opacity="1"><g transform="translate(747.15356, 108.619946)"><g><path d="M 0 0 Z M 35.859375 -10.109375 L 35.859375 0 L 0 0 L 0 -10.109375 L 12.34375 -10.109375 L 12.34375 -41.40625 L 23.4375 -41.40625 L 23.4375 -10.109375 Z M 12.671875 -59.890625 L 22.859375 -59.890625 L 22.859375 -49.125 L 12.671875 -49.125 Z M 12.671875 -59.890625 "/></g></g></g><g fill="#ffffff" fill-opacity="1"><g transform="translate(783.020954, 108.619946)"><g><path d="M 61.125 -10.109375 L 61.125 0 L 56.578125 0 C 55.628906 0 54.738281 -0.328125 53.90625 -0.984375 C 53.082031 -1.648438 52.476562 -2.507812 52.09375 -3.5625 L 52.09375 0 L 0 0 L 0 -10.109375 L 12.921875 -10.109375 C 12.148438 -14.078125 11.765625 -17.582031 11.765625 -20.625 C 11.765625 -23.664062 12.066406 -26.921875 12.671875 -30.390625 C 13.273438 -33.867188 13.96875 -36.878906 14.75 -39.421875 C 16.238281 -40.140625 18.445312 -40.773438 21.375 -41.328125 C 24.300781 -41.878906 27.554688 -42.15625 31.140625 -42.15625 C 36.828125 -42.15625 41.203125 -41.328125 44.265625 -39.671875 C 47.335938 -38.015625 49.410156 -35.664062 50.484375 -32.625 C 51.554688 -29.59375 52.09375 -25.617188 52.09375 -20.703125 L 52.09375 -13.671875 C 52.476562 -12.566406 53.082031 -11.695312 53.90625 -11.0625 C 54.738281 -10.425781 55.628906 -10.109375 56.578125 -10.109375 Z M 22.53125 -20.625 C 22.53125 -18.75 22.65625 -16.828125 22.90625 -14.859375 C 23.15625 -12.898438 23.414062 -11.316406 23.6875 -10.109375 L 41 -10.109375 L 41 -20.953125 C 41 -24.816406 40.238281 -27.660156 38.71875 -29.484375 C 37.195312 -31.304688 34.285156 -32.21875 29.984375 -32.21875 C 27.890625 -32.21875 25.789062 -32 23.6875 -31.5625 C 22.914062 -27.414062 22.53125 -23.769531 22.53125 -20.625 Z M 22.53125 -20.625 "/></g></g></g><g fill="#ffffff" fill-opacity="1"><g transform="translate(844.15306, 108.619946)"><g><path d="M 21.28125 -57.984375 L 21.28125 0 L 0 0 L 0 -10.109375 L 10.1875 -10.109375 L 10.1875 -57.984375 Z M 21.28125 -57.984375 "/></g></g></g><g fill="#ffffff" fill-opacity="1"><g transform="translate(872.067878, 108.619946)"><g><path d="M 6.625 -57.984375 L 17.71875 -57.984375 L 17.71875 0 L 6.625 0 Z M 6.625 -57.984375 "/></g></g></g><g fill="#ffffff" fill-opacity="1"><g transform="translate(897.249248, 108.619946)"><g/></g></g><g fill="#ffffff" fill-opacity="1"><g transform="translate(915.472668, 108.619946)"><g><path d="M 9.359375 20.546875 C 8.640625 20.546875 6.625 20.429688 3.3125 20.203125 L 3.3125 10.265625 L 6.125 10.4375 C 8.113281 10.4375 9.601562 9.648438 10.59375 8.078125 C 11.59375 6.503906 12.09375 4.28125 12.09375 1.40625 L 12.09375 -41.40625 L 23.1875 -41.40625 L 23.1875 -0.5 C 23.1875 6.125 22.039062 11.285156 19.75 14.984375 C 17.457031 18.691406 13.992188 20.546875 9.359375 20.546875 Z M 9.359375 20.546875 "/></g></g></g><g fill="#ffffff" fill-opacity="1"><g transform="translate(943.635981, 108.619946)"><g><path d="M 25.84375 -10.109375 L 25.84375 0 L 6.625 0 L 6.625 -57.984375 L 17.71875 -57.984375 L 17.71875 -10.109375 Z M 25.84375 -10.109375 "/></g></g></g><g fill="#ffffff" fill-opacity="1"><g transform="translate(969.480462, 108.619946)"><g><path d="M 61.125 -10.109375 L 61.125 0 L 56.578125 0 C 55.628906 0 54.738281 -0.328125 53.90625 -0.984375 C 53.082031 -1.648438 52.476562 -2.507812 52.09375 -3.5625 L 52.09375 0 L 0 0 L 0 -10.109375 L 12.921875 -10.109375 C 12.148438 -14.078125 11.765625 -17.582031 11.765625 -20.625 C 11.765625 -23.664062 12.066406 -26.921875 12.671875 -30.390625 C 13.273438 -33.867188 13.96875 -36.878906 14.75 -39.421875 C 16.238281 -40.140625 18.445312 -40.773438 21.375 -41.328125 C 24.300781 -41.878906 27.554688 -42.15625 31.140625 -42.15625 C 36.828125 -42.15625 41.203125 -41.328125 44.265625 -39.671875 C 47.335938 -38.015625 49.410156 -35.664062 50.484375 -32.625 C 51.554688 -29.59375 52.09375 -25.617188 52.09375 -20.703125 L 52.09375 -13.671875 C 52.476562 -12.566406 53.082031 -11.695312 53.90625 -11.0625 C 54.738281 -10.425781 55.628906 -10.109375 56.578125 -10.109375 Z M 22.53125 -20.625 C 22.53125 -18.75 22.65625 -16.828125 22.90625 -14.859375 C 23.15625 -12.898438 23.414062 -11.316406 23.6875 -10.109375 L 41 -10.109375 L 41 -20.953125 C 41 -24.816406 40.238281 -27.660156 38.71875 -29.484375 C 37.195312 -31.304688 34.285156 -32.21875 29.984375 -32.21875 C 27.890625 -32.21875 25.789062 -32 23.6875 -31.5625 C 22.914062 -27.414062 22.53125 -23.769531 22.53125 -20.625 Z M 22.53125 -20.625 "/></g></g></g><g fill="#ffffff" fill-opacity="1"><g transform="translate(1030.612487, 108.619946)"><g><path d="M 45.3125 -10.109375 L 45.3125 0 L 0 0 L 0 -10.109375 L 11.671875 -10.109375 C 9.859375 -13.421875 8.953125 -17.367188 8.953125 -21.953125 C 8.953125 -26.804688 9.984375 -30.765625 12.046875 -33.828125 C 14.117188 -36.898438 16.671875 -39.097656 19.703125 -40.421875 C 22.742188 -41.742188 25.753906 -42.40625 28.734375 -42.40625 C 30.785156 -42.40625 33.148438 -42.113281 35.828125 -41.53125 C 38.503906 -40.957031 40.835938 -40.171875 42.828125 -39.171875 L 42.328125 -28.734375 C 40.609375 -29.566406 38.546875 -30.367188 36.140625 -31.140625 C 33.742188 -31.910156 31.609375 -32.296875 29.734375 -32.296875 C 27.191406 -32.296875 24.941406 -31.46875 22.984375 -29.8125 C 21.023438 -28.15625 20.046875 -25.367188 20.046875 -21.453125 C 20.046875 -18.910156 20.472656 -16.6875 21.328125 -14.78125 C 22.179688 -12.875 23.21875 -11.316406 24.4375 -10.109375 Z M 45.3125 -10.109375 "/></g></g></g><g fill="#ffffff" fill-opacity="1"><g transform="translate(1078.407414, 108.619946)"><g><path d="M 2.65625 0 Z M 6.625 -57.984375 L 17.71875 -57.984375 L 17.71875 0 L 6.625 0 Z M 21.703125 21.125 L 3.5625 24.6875 L 2.65625 20.796875 L 6.46875 19.796875 C 4.3125 17.972656 3.234375 15.738281 3.234375 13.09375 C 3.234375 10.832031 4.046875 8.875 5.671875 7.21875 C 7.304688 5.5625 9.394531 4.734375 11.9375 4.734375 C 14.082031 4.734375 16.234375 5.394531 18.390625 6.71875 L 17.3125 11.6875 C 16.976562 11.40625 16.507812 11.140625 15.90625 10.890625 C 15.300781 10.648438 14.609375 10.53125 13.828125 10.53125 C 12.566406 10.53125 11.535156 10.941406 10.734375 11.765625 C 9.929688 12.597656 9.53125 13.59375 9.53125 14.75 C 9.53125 16.289062 10.191406 17.535156 11.515625 18.484375 L 20.546875 16.078125 Z M 21.703125 21.125 "/></g></g></g></g></g><g transform="matrix(1, 0, 0, 1, 39, 807)"><g clip-path="url(#4a521cc03e)"><g fill="#ffffff" fill-opacity="1"><g transform="translate(0.241249, 45.765595)"><g><path d="M 8.28125 -14.53125 L 8.28125 -3 L 23.984375 -3 L 23.984375 0 L 4.65625 0 L 4.65625 -30.8125 L 23.65625 -30.8125 L 23.65625 -27.828125 L 8.28125 -27.828125 L 8.28125 -17.515625 L 21.84375 -17.515625 L 21.84375 -14.53125 Z M 8.28125 -14.53125 "/></g></g></g><g fill="#ffffff" fill-opacity="1"><g transform="translate(52.181403, 45.765595)"><g><path d="M 4.046875 0 L 4.046875 -23.25 L 7.3125 -23.25 L 7.3125 -19.8125 L 7.75 -19.734375 C 8.539062 -21.035156 9.492188 -22.019531 10.609375 -22.6875 C 11.734375 -23.351562 13.070312 -23.6875 14.625 -23.6875 C 16.425781 -23.6875 17.816406 -23.347656 18.796875 -22.671875 C 19.785156 -21.992188 20.550781 -20.894531 21.09375 -19.375 L 21.546875 -19.375 C 22.347656 -20.789062 23.332031 -21.863281 24.5 -22.59375 C 25.675781 -23.320312 27.125 -23.6875 28.84375 -23.6875 C 31.226562 -23.6875 33.003906 -23.039062 34.171875 -21.75 C 35.347656 -20.457031 35.9375 -18.492188 35.9375 -15.859375 L 35.9375 0 L 32.5 0 L 32.5 -15.765625 C 32.5 -17.453125 32.144531 -18.695312 31.4375 -19.5 C 30.726562 -20.300781 29.585938 -20.703125 28.015625 -20.703125 C 26.160156 -20.703125 24.644531 -20.023438 23.46875 -18.671875 C 22.300781 -17.328125 21.71875 -15.109375 21.71875 -12.015625 L 21.71875 0 L 18.28125 0 L 18.28125 -15.765625 C 18.28125 -17.453125 17.921875 -18.695312 17.203125 -19.5 C 16.492188 -20.300781 15.351562 -20.703125 13.78125 -20.703125 C 11.925781 -20.703125 10.410156 -20.046875 9.234375 -18.734375 C 8.066406 -17.429688 7.484375 -15.3125 7.484375 -12.375 L 7.484375 0 Z M 4.046875 0 "/></g></g></g><g fill="#ffffff" fill-opacity="1"><g transform="translate(117.718996, 45.765595)"><g><path d="M 9.59375 0.4375 C 7.300781 0.4375 5.507812 -0.15625 4.21875 -1.34375 C 2.9375 -2.539062 2.296875 -4.25 2.296875 -6.46875 C 2.296875 -7.84375 2.578125 -9.003906 3.140625 -9.953125 C 3.710938 -10.910156 4.597656 -11.6875 5.796875 -12.28125 C 6.992188 -12.875 8.554688 -13.332031 10.484375 -13.65625 C 12.160156 -13.9375 13.4375 -14.253906 14.3125 -14.609375 C 15.195312 -14.960938 15.789062 -15.351562 16.09375 -15.78125 C 16.394531 -16.21875 16.546875 -16.769531 16.546875 -17.4375 C 16.546875 -18.488281 16.179688 -19.296875 15.453125 -19.859375 C 14.734375 -20.421875 13.570312 -20.703125 11.96875 -20.703125 C 10.46875 -20.703125 9.179688 -20.410156 8.109375 -19.828125 C 7.035156 -19.242188 6.046875 -18.375 5.140625 -17.21875 L 4.71875 -17.21875 L 3.03125 -19.609375 C 4.019531 -20.859375 5.269531 -21.847656 6.78125 -22.578125 C 8.300781 -23.316406 10.03125 -23.6875 11.96875 -23.6875 C 14.707031 -23.6875 16.726562 -23.085938 18.03125 -21.890625 C 19.332031 -20.691406 19.984375 -19.03125 19.984375 -16.90625 L 19.984375 -4.578125 C 19.984375 -3.285156 20.53125 -2.640625 21.625 -2.640625 C 21.988281 -2.640625 22.34375 -2.703125 22.6875 -2.828125 L 22.984375 -2.734375 L 23.375 -0.359375 C 23.125 -0.191406 22.789062 -0.0625 22.375 0.03125 C 21.957031 0.125 21.53125 0.171875 21.09375 0.171875 C 19.820312 0.171875 18.859375 -0.109375 18.203125 -0.671875 C 17.546875 -1.234375 17.128906 -2.0625 16.953125 -3.15625 L 16.5 -3.203125 C 15.84375 -1.984375 14.953125 -1.070312 13.828125 -0.46875 C 12.703125 0.132812 11.289062 0.4375 9.59375 0.4375 Z M 10.34375 -2.296875 C 11.644531 -2.296875 12.769531 -2.59375 13.71875 -3.1875 C 14.664062 -3.789062 15.390625 -4.628906 15.890625 -5.703125 C 16.398438 -6.785156 16.65625 -8.039062 16.65625 -9.46875 L 16.65625 -12.421875 L 16.25 -12.5 C 15.726562 -12.132812 15.09375 -11.828125 14.34375 -11.578125 C 13.601562 -11.335938 12.566406 -11.117188 11.234375 -10.921875 C 9.890625 -10.734375 8.816406 -10.445312 8.015625 -10.0625 C 7.222656 -9.6875 6.65625 -9.207031 6.3125 -8.625 C 5.976562 -8.039062 5.8125 -7.320312 5.8125 -6.46875 C 5.8125 -5.101562 6.210938 -4.066406 7.015625 -3.359375 C 7.816406 -2.648438 8.925781 -2.296875 10.34375 -2.296875 Z M 10.34375 -2.296875 "/></g></g></g><g fill="#ffffff" fill-opacity="1"><g transform="translate(167.677507, 45.765595)"><g><path d="M 9.59375 0.4375 C 7.300781 0.4375 5.507812 -0.15625 4.21875 -1.34375 C 2.9375 -2.539062 2.296875 -4.25 2.296875 -6.46875 C 2.296875 -7.84375 2.578125 -9.003906 3.140625 -9.953125 C 3.710938 -10.910156 4.597656 -11.6875 5.796875 -12.28125 C 6.992188 -12.875 8.554688 -13.332031 10.484375 -13.65625 C 12.160156 -13.9375 13.4375 -14.253906 14.3125 -14.609375 C 15.195312 -14.960938 15.789062 -15.351562 16.09375 -15.78125 C 16.394531 -16.21875 16.546875 -16.769531 16.546875 -17.4375 C 16.546875 -18.488281 16.179688 -19.296875 15.453125 -19.859375 C 14.734375 -20.421875 13.570312 -20.703125 11.96875 -20.703125 C 10.46875 -20.703125 9.179688 -20.410156 8.109375 -19.828125 C 7.035156 -19.242188 6.046875 -18.375 5.140625 -17.21875 L 4.71875 -17.21875 L 3.03125 -19.609375 C 4.019531 -20.859375 5.269531 -21.847656 6.78125 -22.578125 C 8.300781 -23.316406 10.03125 -23.6875 11.96875 -23.6875 C 14.707031 -23.6875 16.726562 -23.085938 18.03125 -21.890625 C 19.332031 -20.691406 19.984375 -19.03125 19.984375 -16.90625 L 19.984375 -4.578125 C 19.984375 -3.285156 20.53125 -2.640625 21.625 -2.640625 C 21.988281 -2.640625 22.34375 -2.703125 22.6875 -2.828125 L 22.984375 -2.734375 L 23.375 -0.359375 C 23.125 -0.191406 22.789062 -0.0625 22.375 0.03125 C 21.957031 0.125 21.53125 0.171875 21.09375 0.171875 C 19.820312 0.171875 18.859375 -0.109375 18.203125 -0.671875 C 17.546875 -1.234375 17.128906 -2.0625 16.953125 -3.15625 L 16.5 -3.203125 C 15.84375 -1.984375 14.953125 -1.070312 13.828125 -0.46875 C 12.703125 0.132812 11.289062 0.4375 9.59375 0.4375 Z M 10.34375 -2.296875 C 11.644531 -2.296875 12.769531 -2.59375 13.71875 -3.1875 C 14.664062 -3.789062 15.390625 -4.628906 15.890625 -5.703125 C 16.398438 -6.785156 16.65625 -8.039062 16.65625 -9.46875 L 16.65625 -12.421875 L 16.25 -12.5 C 15.726562 -12.132812 15.09375 -11.828125 14.34375 -11.578125 C 13.601562 -11.335938 12.566406 -11.117188 11.234375 -10.921875 C 9.890625 -10.734375 8.816406 -10.445312 8.015625 -10.0625 C 7.222656 -9.6875 6.65625 -9.207031 6.3125 -8.625 C 5.976562 -8.039062 5.8125 -7.320312 5.8125 -6.46875 C 5.8125 -5.101562 6.210938 -4.066406 7.015625 -3.359375 C 7.816406 -2.648438 8.925781 -2.296875 10.34375 -2.296875 Z M 10.34375 -2.296875 "/></g></g></g><g fill="#ffffff" fill-opacity="1"><g transform="translate(217.636018, 45.765595)"><g><path d="M 4.046875 0 L 4.046875 -23.25 L 7.3125 -23.25 L 7.3125 -19.609375 L 7.75 -19.5 C 8.832031 -22.144531 10.875 -23.46875 13.875 -23.46875 C 15.457031 -23.46875 16.644531 -23.175781 17.4375 -22.59375 L 16.546875 -19.6875 L 16.125 -19.609375 C 15.25 -20.046875 14.296875 -20.265625 13.265625 -20.265625 C 11.410156 -20.265625 9.984375 -19.566406 8.984375 -18.171875 C 7.984375 -16.773438 7.484375 -14.519531 7.484375 -11.40625 L 7.484375 0 Z M 4.046875 0 "/></g></g></g><g fill="#ffffff" fill-opacity="1"><g transform="translate(261.502034, 45.765595)"><g/></g></g><g fill="#ffffff" fill-opacity="1"><g transform="translate(297.989594, 45.765595)"><g><path d="M 27.734375 0 L 23.859375 0 L 21.015625 -8.453125 L 7.890625 -8.453125 L 5.015625 0 L 1.21875 0 L 11.96875 -30.8125 L 16.984375 -30.8125 Z M 14.1875 -27.09375 L 8.890625 -11.484375 L 19.984375 -11.484375 L 14.71875 -27.09375 Z M 14.1875 -27.09375 "/></g></g></g><g fill="#ffffff" fill-opacity="1"><g transform="translate(352.585992, 45.765595)"><g><path d="M 9.25 0.4375 C 7.601562 0.4375 6.3125 -0.0234375 5.375 -0.953125 C 4.4375 -1.890625 3.96875 -3.285156 3.96875 -5.140625 L 3.96875 -32.59375 L 7.40625 -32.59375 L 7.40625 -5.375 C 7.40625 -4.40625 7.585938 -3.707031 7.953125 -3.28125 C 8.328125 -2.851562 8.910156 -2.640625 9.703125 -2.640625 C 10.171875 -2.640625 10.65625 -2.710938 11.15625 -2.859375 L 11.453125 -2.78125 L 11.84375 -0.078125 C 11.59375 0.0859375 11.234375 0.210938 10.765625 0.296875 C 10.296875 0.390625 9.789062 0.4375 9.25 0.4375 Z M 9.25 0.4375 "/></g></g></g><g fill="#ffffff" fill-opacity="1"><g transform="translate(390.612486, 45.765595)"><g><path d="M 14.1875 -13.421875 L 2.1875 -13.421875 L 2.1875 -16.5 L 14.1875 -16.5 Z M 14.1875 -13.421875 "/></g></g></g><g fill="#ffffff" fill-opacity="1"><g transform="translate(432.876323, 45.765595)"><g><path d="M 8.015625 0 L 4.65625 0 L 4.65625 -30.8125 L 10.03125 -30.8125 L 19.375 -4.71875 L 19.8125 -4.71875 L 29.15625 -30.8125 L 34.34375 -30.8125 L 34.34375 0 L 30.90625 0 L 30.90625 -25.15625 L 30.375 -25.234375 L 21.265625 0 L 17.671875 0 L 8.53125 -25.234375 L 8.015625 -25.15625 Z M 8.015625 0 "/></g></g></g><g fill="#ffffff" fill-opacity="1"><g transform="translate(497.802558, 45.765595)"><g><path d="M 9.59375 0.4375 C 7.300781 0.4375 5.507812 -0.15625 4.21875 -1.34375 C 2.9375 -2.539062 2.296875 -4.25 2.296875 -6.46875 C 2.296875 -7.84375 2.578125 -9.003906 3.140625 -9.953125 C 3.710938 -10.910156 4.597656 -11.6875 5.796875 -12.28125 C 6.992188 -12.875 8.554688 -13.332031 10.484375 -13.65625 C 12.160156 -13.9375 13.4375 -14.253906 14.3125 -14.609375 C 15.195312 -14.960938 15.789062 -15.351562 16.09375 -15.78125 C 16.394531 -16.21875 16.546875 -16.769531 16.546875 -17.4375 C 16.546875 -18.488281 16.179688 -19.296875 15.453125 -19.859375 C 14.734375 -20.421875 13.570312 -20.703125 11.96875 -20.703125 C 10.46875 -20.703125 9.179688 -20.410156 8.109375 -19.828125 C 7.035156 -19.242188 6.046875 -18.375 5.140625 -17.21875 L 4.71875 -17.21875 L 3.03125 -19.609375 C 4.019531 -20.859375 5.269531 -21.847656 6.78125 -22.578125 C 8.300781 -23.316406 10.03125 -23.6875 11.96875 -23.6875 C 14.707031 -23.6875 16.726562 -23.085938 18.03125 -21.890625 C 19.332031 -20.691406 19.984375 -19.03125 19.984375 -16.90625 L 19.984375 -4.578125 C 19.984375 -3.285156 20.53125 -2.640625 21.625 -2.640625 C 21.988281 -2.640625 22.34375 -2.703125 22.6875 -2.828125 L 22.984375 -2.734375 L 23.375 -0.359375 C 23.125 -0.191406 22.789062 -0.0625 22.375 0.03125 C 21.957031 0.125 21.53125 0.171875 21.09375 0.171875 C 19.820312 0.171875 18.859375 -0.109375 18.203125 -0.671875 C 17.546875 -1.234375 17.128906 -2.0625 16.953125 -3.15625 L 16.5 -3.203125 C 15.84375 -1.984375 14.953125 -1.070312 13.828125 -0.46875 C 12.703125 0.132812 11.289062 0.4375 9.59375 0.4375 Z M 10.34375 -2.296875 C 11.644531 -2.296875 12.769531 -2.59375 13.71875 -3.1875 C 14.664062 -3.789062 15.390625 -4.628906 15.890625 -5.703125 C 16.398438 -6.785156 16.65625 -8.039062 16.65625 -9.46875 L 16.65625 -12.421875 L 16.25 -12.5 C 15.726562 -12.132812 15.09375 -11.828125 14.34375 -11.578125 C 13.601562 -11.335938 12.566406 -11.117188 11.234375 -10.921875 C 9.890625 -10.734375 8.816406 -10.445312 8.015625 -10.0625 C 7.222656 -9.6875 6.65625 -9.207031 6.3125 -8.625 C 5.976562 -8.039062 5.8125 -7.320312 5.8125 -6.46875 C 5.8125 -5.101562 6.210938 -4.066406 7.015625 -3.359375 C 7.816406 -2.648438 8.925781 -2.296875 10.34375 -2.296875 Z M 10.34375 -2.296875 "/></g></g></g><g fill="#ffffff" fill-opacity="1"><g transform="translate(547.761069, 45.765595)"><g><path d="M 4.046875 0 L 4.046875 -23.25 L 7.3125 -23.25 L 7.3125 -19.609375 L 7.75 -19.5 C 8.53125 -20.863281 9.519531 -21.898438 10.71875 -22.609375 C 11.914062 -23.328125 13.378906 -23.6875 15.109375 -23.6875 C 17.910156 -23.6875 19.9375 -22.972656 21.1875 -21.546875 C 22.445312 -20.128906 23.078125 -17.9375 23.078125 -14.96875 L 23.078125 0 L 19.640625 0 L 19.640625 -14.875 C 19.640625 -16.28125 19.460938 -17.410156 19.109375 -18.265625 C 18.753906 -19.117188 18.195312 -19.738281 17.4375 -20.125 C 16.6875 -20.507812 15.703125 -20.703125 14.484375 -20.703125 C 12.390625 -20.703125 10.695312 -20.007812 9.40625 -18.625 C 8.125 -17.238281 7.484375 -15.007812 7.484375 -11.9375 L 7.484375 0 Z M 4.046875 0 "/></g></g></g><g fill="#ffffff" fill-opacity="1"><g transform="translate(600.439069, 45.765595)"><g><path d="M 18.59375 0 L 1.578125 0 L 1.578125 -3 L 14.359375 -20 L 14.234375 -20.453125 L 2.109375 -20.453125 L 2.109375 -23.265625 L 18.40625 -23.265625 L 18.40625 -20.28125 L 5.625 -3.265625 L 5.78125 -2.828125 L 18.59375 -2.828125 Z M 18.59375 0 "/></g></g></g><g fill="#ffffff" fill-opacity="1"><g transform="translate(646.602946, 45.765595)"><g><path d="M 5.78125 -27.734375 C 5.050781 -27.734375 4.457031 -27.960938 4 -28.421875 C 3.539062 -28.878906 3.3125 -29.460938 3.3125 -30.171875 C 3.3125 -30.867188 3.539062 -31.445312 4 -31.90625 C 4.457031 -32.363281 5.050781 -32.59375 5.78125 -32.59375 C 6.507812 -32.59375 7.101562 -32.363281 7.5625 -31.90625 C 8.019531 -31.445312 8.25 -30.867188 8.25 -30.171875 C 8.25 -29.460938 8.019531 -28.878906 7.5625 -28.421875 C 7.101562 -27.960938 6.507812 -27.734375 5.78125 -27.734375 Z M 4.046875 0 L 4.046875 -23.25 L 7.484375 -23.25 L 7.484375 0 Z M 4.046875 0 "/></g></g></g><g fill="#ffffff" fill-opacity="1"><g transform="translate(684.039164, 45.765595)"><g><path d="M 9.25 0.4375 C 7.601562 0.4375 6.3125 -0.0234375 5.375 -0.953125 C 4.4375 -1.890625 3.96875 -3.285156 3.96875 -5.140625 L 3.96875 -32.59375 L 7.40625 -32.59375 L 7.40625 -5.375 C 7.40625 -4.40625 7.585938 -3.707031 7.953125 -3.28125 C 8.328125 -2.851562 8.910156 -2.640625 9.703125 -2.640625 C 10.171875 -2.640625 10.65625 -2.710938 11.15625 -2.859375 L 11.453125 -2.78125 L 11.84375 -0.078125 C 11.59375 0.0859375 11.234375 0.210938 10.765625 0.296875 C 10.296875 0.390625 9.789062 0.4375 9.25 0.4375 Z M 9.25 0.4375 "/></g></g></g><g fill="#ffffff" fill-opacity="1"><g transform="translate(722.592692, 45.765595)"><g/></g></g><g fill="#ffffff" fill-opacity="1"><g transform="translate(759.080252, 45.765595)"><g><path d="M 13.46875 0.4375 C 11.53125 0.4375 9.789062 0.175781 8.25 -0.34375 C 6.707031 -0.875 5.421875 -1.566406 4.390625 -2.421875 C 3.367188 -3.273438 2.609375 -4.21875 2.109375 -5.25 L 4.09375 -7.65625 L 4.609375 -7.65625 C 6.523438 -4.4375 9.476562 -2.828125 13.46875 -2.828125 C 15.789062 -2.828125 17.515625 -3.3125 18.640625 -4.28125 C 19.773438 -5.25 20.34375 -6.597656 20.34375 -8.328125 C 20.34375 -9.335938 20.15625 -10.191406 19.78125 -10.890625 C 19.40625 -11.597656 18.789062 -12.203125 17.9375 -12.703125 C 17.082031 -13.203125 15.914062 -13.632812 14.4375 -14 L 10.828125 -14.875 C 8.148438 -15.53125 6.175781 -16.5625 4.90625 -17.96875 C 3.632812 -19.382812 3 -21.171875 3 -23.328125 C 3 -24.867188 3.390625 -26.238281 4.171875 -27.4375 C 4.960938 -28.632812 6.113281 -29.570312 7.625 -30.25 C 9.144531 -30.925781 10.957031 -31.265625 13.0625 -31.265625 C 15.382812 -31.265625 17.34375 -30.9375 18.9375 -30.28125 C 20.53125 -29.625 21.804688 -28.644531 22.765625 -27.34375 L 21 -24.953125 L 20.46875 -24.953125 C 19.582031 -26.035156 18.535156 -26.828125 17.328125 -27.328125 C 16.117188 -27.835938 14.695312 -28.09375 13.0625 -28.09375 C 10.925781 -28.09375 9.3125 -27.675781 8.21875 -26.84375 C 7.132812 -26.019531 6.59375 -24.878906 6.59375 -23.421875 C 6.59375 -22.023438 6.992188 -20.914062 7.796875 -20.09375 C 8.597656 -19.269531 9.945312 -18.632812 11.84375 -18.1875 L 15.53125 -17.3125 C 18.53125 -16.601562 20.695312 -15.519531 22.03125 -14.0625 C 23.375 -12.613281 24.046875 -10.757812 24.046875 -8.5 C 24.046875 -6.75 23.65625 -5.203125 22.875 -3.859375 C 22.101562 -2.523438 20.921875 -1.472656 19.328125 -0.703125 C 17.742188 0.0546875 15.789062 0.4375 13.46875 0.4375 Z M 13.46875 0.4375 "/></g></g></g><g fill="#ffffff" fill-opacity="1"><g transform="translate(811.399869, 45.765595)"><g><path d="M 22.15625 -10.828125 L 6.171875 -10.828125 C 6.273438 -8.003906 6.953125 -5.929688 8.203125 -4.609375 C 9.460938 -3.296875 11.191406 -2.640625 13.390625 -2.640625 C 15.046875 -2.640625 16.378906 -2.929688 17.390625 -3.515625 C 18.398438 -4.109375 19.191406 -5.035156 19.765625 -6.296875 L 20.21875 -6.296875 L 22.453125 -4.96875 C 21.773438 -3.28125 20.691406 -1.957031 19.203125 -1 C 17.722656 -0.0390625 15.785156 0.4375 13.390625 0.4375 C 11.140625 0.4375 9.207031 -0.00390625 7.59375 -0.890625 C 5.976562 -1.773438 4.734375 -3.113281 3.859375 -4.90625 C 2.984375 -6.707031 2.546875 -8.941406 2.546875 -11.609375 C 2.546875 -14.253906 3.003906 -16.484375 3.921875 -18.296875 C 4.847656 -20.109375 6.109375 -21.457031 7.703125 -22.34375 C 9.296875 -23.238281 11.117188 -23.6875 13.171875 -23.6875 C 16.148438 -23.6875 18.472656 -22.847656 20.140625 -21.171875 C 21.816406 -19.492188 22.664062 -17.003906 22.6875 -13.703125 C 22.6875 -12.410156 22.65625 -11.539062 22.59375 -11.09375 Z M 19.28125 -13.703125 C 19.226562 -16.171875 18.679688 -17.96875 17.640625 -19.09375 C 16.597656 -20.21875 15.109375 -20.78125 13.171875 -20.78125 C 11.140625 -20.78125 9.539062 -20.210938 8.375 -19.078125 C 7.21875 -17.953125 6.515625 -16.160156 6.265625 -13.703125 Z M 19.28125 -13.703125 "/></g></g></g><g fill="#ffffff" fill-opacity="1"><g transform="translate(862.096226, 45.765595)"><g><path d="M 4.046875 0 L 4.046875 -23.25 L 7.3125 -23.25 L 7.3125 -19.609375 L 7.75 -19.5 C 8.832031 -22.144531 10.875 -23.46875 13.875 -23.46875 C 15.457031 -23.46875 16.644531 -23.175781 17.4375 -22.59375 L 16.546875 -19.6875 L 16.125 -19.609375 C 15.25 -20.046875 14.296875 -20.265625 13.265625 -20.265625 C 11.410156 -20.265625 9.984375 -19.566406 8.984375 -18.171875 C 7.984375 -16.773438 7.484375 -14.519531 7.484375 -11.40625 L 7.484375 0 Z M 4.046875 0 "/></g></g></g><g fill="#ffffff" fill-opacity="1"><g transform="translate(905.962241, 45.765595)"><g><path d="M 14.71875 0 L 9.984375 0 L 1.140625 -23.25 L 4.84375 -23.25 L 12.15625 -3.921875 L 12.640625 -3.921875 L 19.90625 -23.25 L 23.53125 -23.25 Z M 14.71875 0 "/></g></g></g><g fill="#ffffff" fill-opacity="1"><g transform="translate(956.511029, 45.765595)"><g><path d="M 5.78125 -27.734375 C 5.050781 -27.734375 4.457031 -27.960938 4 -28.421875 C 3.539062 -28.878906 3.3125 -29.460938 3.3125 -30.171875 C 3.3125 -30.867188 3.539062 -31.445312 4 -31.90625 C 4.457031 -32.363281 5.050781 -32.59375 5.78125 -32.59375 C 6.507812 -32.59375 7.101562 -32.363281 7.5625 -31.90625 C 8.019531 -31.445312 8.25 -30.867188 8.25 -30.171875 C 8.25 -29.460938 8.019531 -28.878906 7.5625 -28.421875 C 7.101562 -27.960938 6.507812 -27.734375 5.78125 -27.734375 Z M 4.046875 0 L 4.046875 -23.25 L 7.484375 -23.25 L 7.484375 0 Z M 4.046875 0 "/></g></g></g><g fill="#ffffff" fill-opacity="1"><g transform="translate(993.947247, 45.765595)"><g><path d="M 13.34375 0.4375 C 11.289062 0.4375 9.445312 -0.0234375 7.8125 -0.953125 C 6.1875 -1.890625 4.898438 -3.269531 3.953125 -5.09375 C 3.015625 -6.914062 2.546875 -9.085938 2.546875 -11.609375 C 2.546875 -14.160156 3.015625 -16.34375 3.953125 -18.15625 C 4.898438 -19.976562 6.1875 -21.351562 7.8125 -22.28125 C 9.445312 -23.21875 11.289062 -23.6875 13.34375 -23.6875 C 15.800781 -23.6875 17.753906 -23.222656 19.203125 -22.296875 C 20.660156 -21.367188 21.710938 -20.132812 22.359375 -18.59375 L 20.03125 -16.90625 L 19.609375 -16.90625 C 18.972656 -18.1875 18.160156 -19.125 17.171875 -19.71875 C 16.179688 -20.3125 14.90625 -20.609375 13.34375 -20.609375 C 11.90625 -20.609375 10.644531 -20.269531 9.5625 -19.59375 C 8.488281 -18.925781 7.648438 -17.914062 7.046875 -16.5625 C 6.453125 -15.21875 6.15625 -13.566406 6.15625 -11.609375 C 6.15625 -9.671875 6.457031 -8.03125 7.0625 -6.6875 C 7.664062 -5.351562 8.503906 -4.34375 9.578125 -3.65625 C 10.648438 -2.976562 11.90625 -2.640625 13.34375 -2.640625 C 14.957031 -2.640625 16.296875 -3.003906 17.359375 -3.734375 C 18.421875 -4.460938 19.253906 -5.613281 19.859375 -7.1875 L 20.296875 -7.1875 L 22.5625 -5.859375 C 21.957031 -3.910156 20.875 -2.375 19.3125 -1.25 C 17.757812 -0.125 15.769531 0.4375 13.34375 0.4375 Z M 13.34375 0.4375 "/></g></g></g><g fill="#ffffff" fill-opacity="1"><g transform="translate(1043.821433, 45.765595)"><g><path d="M 22.15625 -10.828125 L 6.171875 -10.828125 C 6.273438 -8.003906 6.953125 -5.929688 8.203125 -4.609375 C 9.460938 -3.296875 11.191406 -2.640625 13.390625 -2.640625 C 15.046875 -2.640625 16.378906 -2.929688 17.390625 -3.515625 C 18.398438 -4.109375 19.191406 -5.035156 19.765625 -6.296875 L 20.21875 -6.296875 L 22.453125 -4.96875 C 21.773438 -3.28125 20.691406 -1.957031 19.203125 -1 C 17.722656 -0.0390625 15.785156 0.4375 13.390625 0.4375 C 11.140625 0.4375 9.207031 -0.00390625 7.59375 -0.890625 C 5.976562 -1.773438 4.734375 -3.113281 3.859375 -4.90625 C 2.984375 -6.707031 2.546875 -8.941406 2.546875 -11.609375 C 2.546875 -14.253906 3.003906 -16.484375 3.921875 -18.296875 C 4.847656 -20.109375 6.109375 -21.457031 7.703125 -22.34375 C 9.296875 -23.238281 11.117188 -23.6875 13.171875 -23.6875 C 16.148438 -23.6875 18.472656 -22.847656 20.140625 -21.171875 C 21.816406 -19.492188 22.664062 -17.003906 22.6875 -13.703125 C 22.6875 -12.410156 22.65625 -11.539062 22.59375 -11.09375 Z M 19.28125 -13.703125 C 19.226562 -16.171875 18.679688 -17.96875 17.640625 -19.09375 C 16.597656 -20.21875 15.109375 -20.78125 13.171875 -20.78125 C 11.140625 -20.78125 9.539062 -20.210938 8.375 -19.078125 C 7.21875 -17.953125 6.515625 -16.160156 6.265625 -13.703125 Z M 19.28125 -13.703125 "/></g></g></g><g fill="#ffffff" fill-opacity="1"><g transform="translate(1094.51779, 45.765595)"><g><path d="M 10.609375 0.4375 C 9.140625 0.4375 7.785156 0.242188 6.546875 -0.140625 C 5.304688 -0.523438 4.253906 -1.050781 3.390625 -1.71875 C 2.535156 -2.394531 1.929688 -3.15625 1.578125 -4 L 3.609375 -6.109375 L 4.046875 -6.109375 C 4.804688 -4.960938 5.71875 -4.097656 6.78125 -3.515625 C 7.851562 -2.929688 9.128906 -2.640625 10.609375 -2.640625 C 12.316406 -2.640625 13.617188 -2.972656 14.515625 -3.640625 C 15.410156 -4.304688 15.859375 -5.234375 15.859375 -6.421875 C 15.859375 -7.335938 15.585938 -8.09375 15.046875 -8.6875 C 14.503906 -9.289062 13.628906 -9.738281 12.421875 -10.03125 L 8.5 -11 C 6.40625 -11.507812 4.875 -12.3125 3.90625 -13.40625 C 2.945312 -14.5 2.46875 -15.851562 2.46875 -17.46875 C 2.46875 -18.738281 2.789062 -19.835938 3.4375 -20.765625 C 4.082031 -21.703125 5.007812 -22.421875 6.21875 -22.921875 C 7.4375 -23.429688 8.882812 -23.6875 10.5625 -23.6875 C 12.695312 -23.6875 14.378906 -23.390625 15.609375 -22.796875 C 16.835938 -22.203125 17.796875 -21.367188 18.484375 -20.296875 L 16.546875 -18.40625 L 16.125 -18.40625 C 15.382812 -19.257812 14.570312 -19.875 13.6875 -20.25 C 12.8125 -20.632812 11.769531 -20.828125 10.5625 -20.828125 C 9.03125 -20.828125 7.851562 -20.550781 7.03125 -20 C 6.21875 -19.457031 5.8125 -18.664062 5.8125 -17.625 C 5.8125 -16.675781 6.097656 -15.914062 6.671875 -15.34375 C 7.253906 -14.769531 8.265625 -14.304688 9.703125 -13.953125 L 13.546875 -13.03125 C 15.578125 -12.550781 17.039062 -11.753906 17.9375 -10.640625 C 18.832031 -9.535156 19.28125 -8.144531 19.28125 -6.46875 C 19.28125 -5.101562 18.957031 -3.898438 18.3125 -2.859375 C 17.664062 -1.828125 16.6875 -1.019531 15.375 -0.4375 C 14.070312 0.144531 12.484375 0.4375 10.609375 0.4375 Z M 10.609375 0.4375 "/></g></g></g></g></g></svg>