<svg xmlns="http://www.w3.org/2000/svg" xmlns:xlink="http://www.w3.org/1999/xlink" width="2000" zoomAndPan="magnify" viewBox="0 0 1500 1499.999933" height="2000" preserveAspectRatio="xMidYMid meet" version="1.0"><defs><g/><clipPath id="732944dc61"><rect x="0" width="806" y="0" height="446"/></clipPath><clipPath id="e964044780"><rect x="0" width="484" y="0" height="317"/></clipPath><clipPath id="ccdebaad5a"><rect x="0" width="293" y="0" height="104"/></clipPath></defs><g transform="matrix(1, 0, 0, 1, 584, 548)"><g clip-path="url(#732944dc61)"><g fill="#e5ff1f" fill-opacity="1"><g transform="translate(0.767339, 260.108889)"><g><path d="M 9.515625 -52.21875 L 9.515625 -85.078125 L 42.703125 -85.078125 L 42.703125 -52.21875 Z M 9.515625 156.953125 L 9.515625 -33.171875 L 42.703125 -33.171875 L 42.703125 156.953125 Z M 9.515625 156.953125 "/></g></g></g><g fill="#e5ff1f" fill-opacity="1"><g transform="translate(43.458426, 260.108889)"><g><path d="M -21.5 0 L -21.5 -33.171875 L 19.34375 -33.171875 L 19.34375 -137.609375 L 52.53125 -137.609375 L 52.53125 0 Z M 19.34375 52.21875 L 19.34375 19.046875 L 52.53125 19.046875 L 52.53125 52.21875 Z M 19.34375 104.4375 L 19.34375 71.265625 L 52.53125 71.265625 L 52.53125 104.4375 Z M 19.34375 104.4375 "/></g></g></g><g fill="#e5ff1f" fill-opacity="1"><g transform="translate(95.977697, 260.108889)"><g><path d="M 19.34375 156.65625 L 19.34375 0 L -21.5 0 L -21.5 -33.171875 L 104.734375 -33.171875 L 104.734375 156.65625 Z M 52.53125 123.484375 L 71.5625 123.484375 L 71.5625 0 L 52.53125 0 Z M 52.53125 123.484375 "/></g></g></g><g fill="#e5ff1f" fill-opacity="1"><g transform="translate(200.709077, 260.108889)"><g><path d="M 19.34375 -156.65625 L 19.34375 -189.828125 L 52.53125 -189.828125 L 52.53125 -156.65625 Z M 19.34375 -104.4375 L 19.34375 -137.609375 L 52.53125 -137.609375 L 52.53125 -104.4375 Z M -21.5 0 L -21.5 -33.171875 L 19.34375 -33.171875 L 19.34375 -85.390625 L 52.53125 -85.390625 L 52.53125 0 Z M -21.5 0 "/></g></g></g><g fill="#e5ff1f" fill-opacity="1"><g transform="translate(262.749373, 260.108889)"><g><path d="M 9.515625 156.65625 L 9.515625 19.046875 L 42.703125 19.046875 L 42.703125 123.484375 L 61.734375 123.484375 L 61.734375 0 L 9.515625 0 L 9.515625 -189.828125 L 94.90625 -189.828125 L 94.90625 156.65625 Z M 42.703125 -33.171875 L 61.734375 -33.171875 L 61.734375 -156.65625 L 42.703125 -156.65625 Z M 42.703125 -33.171875 "/></g></g></g><g fill="#e5ff1f" fill-opacity="1"><g transform="translate(367.173632, 260.108889)"><g/></g></g><g fill="#e5ff1f" fill-opacity="1"><g transform="translate(386.522842, 260.108889)"><g><path d="M 9.515625 156.65625 L 9.515625 -33.171875 L 42.703125 -33.171875 L 42.703125 123.78125 L 61.734375 123.78125 L 61.734375 -189.828125 L 94.90625 -189.828125 L 94.90625 156.65625 Z M 9.515625 156.65625 "/></g></g></g><g fill="#e5ff1f" fill-opacity="1"><g transform="translate(490.947101, 260.108889)"><g><path d="M 9.515625 156.65625 L 9.515625 19.046875 L 42.703125 19.046875 L 42.703125 123.484375 L 61.734375 123.484375 L 61.734375 0 L 9.515625 0 L 9.515625 -189.828125 L 94.90625 -189.828125 L 94.90625 156.65625 Z M 42.703125 -33.171875 L 61.734375 -33.171875 L 61.734375 -156.65625 L 42.703125 -156.65625 Z M 42.703125 -33.171875 "/></g></g></g><g fill="#e5ff1f" fill-opacity="1"><g transform="translate(585.850334, 260.108889)"><g><path d="M 19.34375 156.65625 L 19.34375 0 L -21.5 0 L -21.5 -33.171875 L 52.53125 -33.171875 L 52.53125 123.78125 L 71.5625 123.78125 L 71.5625 -189.828125 L 104.734375 -189.828125 L 104.734375 156.65625 Z M 19.34375 156.65625 "/></g></g></g><g fill="#e5ff1f" fill-opacity="1"><g transform="translate(690.581715, 260.108889)"><g><path d="M 19.34375 156.65625 L 19.34375 0 L -21.5 0 L -21.5 -33.171875 L 71.5625 -33.171875 L 71.5625 -156.65625 L 52.53125 -156.65625 L 52.53125 -52.21875 L 19.34375 -52.21875 L 19.34375 -189.828125 L 104.734375 -189.828125 L 104.734375 0 L 52.53125 0 L 52.53125 123.78125 L 71.5625 123.78125 L 71.5625 19.046875 L 104.734375 19.046875 L 104.734375 156.65625 Z M 19.34375 156.65625 "/></g></g></g></g></g><g transform="matrix(1, 0, 0, 1, 84, 667)"><g clip-path="url(#e964044780)"><g fill="#e5ff1f" fill-opacity="1"><g transform="translate(5.275425, 123.851971)"><g><path d="M 36.796875 -79.359375 C 35.304688 -79.359375 34.070312 -79.847656 33.09375 -80.828125 C 32.113281 -81.804688 31.625 -83.039062 31.625 -84.53125 C 31.625 -86.019531 32.113281 -87.273438 33.09375 -88.296875 C 34.070312 -89.316406 35.304688 -89.828125 36.796875 -89.828125 C 38.285156 -89.828125 39.539062 -89.316406 40.5625 -88.296875 C 41.582031 -87.273438 42.09375 -86.019531 42.09375 -84.53125 C 42.09375 -83.039062 41.582031 -81.804688 40.5625 -80.828125 C 39.539062 -79.847656 38.285156 -79.359375 36.796875 -79.359375 Z M 50.203125 -79.359375 C 48.710938 -79.359375 47.476562 -79.847656 46.5 -80.828125 C 45.519531 -81.804688 45.03125 -83.039062 45.03125 -84.53125 C 45.03125 -86.019531 45.519531 -87.273438 46.5 -88.296875 C 47.476562 -89.316406 48.710938 -89.828125 50.203125 -89.828125 C 51.691406 -89.828125 52.925781 -89.316406 53.90625 -88.296875 C 54.882812 -87.273438 55.375 -86.019531 55.375 -84.53125 C 55.375 -83.039062 54.882812 -81.804688 53.90625 -80.828125 C 52.925781 -79.847656 51.691406 -79.359375 50.203125 -79.359375 Z M 90.0625 -5.40625 C 90.84375 -5.40625 91.488281 -5.148438 92 -4.640625 C 92.507812 -4.128906 92.765625 -3.484375 92.765625 -2.703125 C 92.765625 -1.921875 92.507812 -1.273438 92 -0.765625 C 91.488281 -0.253906 90.84375 0 90.0625 0 L 87.71875 0 C 83.632812 0 80.082031 -1.3125 77.0625 -3.9375 C 74.050781 -6.5625 72.234375 -9.796875 71.609375 -13.640625 C 68.703125 -9.328125 64.835938 -5.972656 60.015625 -3.578125 C 55.203125 -1.191406 49.660156 0 43.390625 0 C 36.878906 0 31.09375 -1.3125 26.03125 -3.9375 C 20.976562 -6.5625 17.039062 -10.285156 14.21875 -15.109375 C 11.40625 -19.929688 10 -25.59375 10 -32.09375 C 10 -38.601562 11.40625 -44.304688 14.21875 -49.203125 C 17.039062 -54.109375 20.976562 -57.929688 26.03125 -60.671875 C 31.09375 -63.410156 36.878906 -64.78125 43.390625 -64.78125 C 49.503906 -64.78125 54.96875 -63.566406 59.78125 -61.140625 C 64.601562 -58.710938 68.46875 -55.34375 71.375 -51.03125 L 71.375 -57.84375 C 71.375 -59.101562 71.820312 -59.945312 72.71875 -60.375 C 73.625 -60.800781 74.523438 -60.800781 75.421875 -60.375 C 76.328125 -59.945312 76.78125 -59.101562 76.78125 -57.84375 L 76.78125 -16.34375 C 76.78125 -12.96875 77.757812 -10.300781 79.71875 -8.34375 C 81.675781 -6.382812 84.34375 -5.40625 87.71875 -5.40625 Z M 43.390625 -5.40625 C 48.953125 -5.40625 53.828125 -6.484375 58.015625 -8.640625 C 62.210938 -10.796875 65.488281 -13.875 67.84375 -17.875 C 70.195312 -21.875 71.375 -26.613281 71.375 -32.09375 C 71.375 -37.582031 70.175781 -42.363281 67.78125 -46.4375 C 65.394531 -50.519531 62.101562 -53.695312 57.90625 -55.96875 C 53.707031 -58.238281 48.867188 -59.375 43.390625 -59.375 C 37.898438 -59.375 33.054688 -58.238281 28.859375 -55.96875 C 24.671875 -53.695312 21.378906 -50.519531 18.984375 -46.4375 C 16.597656 -42.363281 15.40625 -37.582031 15.40625 -32.09375 C 15.40625 -26.613281 16.597656 -21.875 18.984375 -17.875 C 21.378906 -13.875 24.671875 -10.796875 28.859375 -8.640625 C 33.054688 -6.484375 37.898438 -5.40625 43.390625 -5.40625 Z M 43.390625 -5.40625 "/></g></g></g><g fill="#e5ff1f" fill-opacity="1"><g transform="translate(94.577208, 123.851971)"><g><path d="M 52.796875 -79.359375 C 51.304688 -79.359375 50.070312 -79.847656 49.09375 -80.828125 C 48.113281 -81.804688 47.625 -83.039062 47.625 -84.53125 C 47.625 -86.019531 48.113281 -87.273438 49.09375 -88.296875 C 50.070312 -89.316406 51.304688 -89.828125 52.796875 -89.828125 C 54.285156 -89.828125 55.535156 -89.316406 56.546875 -88.296875 C 57.566406 -87.273438 58.078125 -86.019531 58.078125 -84.53125 C 58.078125 -83.039062 57.566406 -81.804688 56.546875 -80.828125 C 55.535156 -79.847656 54.285156 -79.359375 52.796875 -79.359375 Z M 52.796875 -64.078125 C 57.734375 -64.078125 62.238281 -63.175781 66.3125 -61.375 C 70.382812 -59.570312 73.910156 -57.160156 76.890625 -54.140625 C 79.867188 -51.128906 82.160156 -47.703125 83.765625 -43.859375 C 85.378906 -40.015625 86.1875 -36.09375 86.1875 -32.09375 C 86.1875 -25.820312 84.773438 -20.253906 81.953125 -15.390625 C 79.128906 -10.535156 75.207031 -6.734375 70.1875 -3.984375 C 65.175781 -1.242188 59.378906 0.125 52.796875 0.125 L 19.75 0.125 L 19.75 0 L -0.59375 0 C -1.375 0 -2.019531 -0.253906 -2.53125 -0.765625 C -3.039062 -1.273438 -3.296875 -1.921875 -3.296875 -2.703125 C -3.296875 -3.484375 -3.039062 -4.128906 -2.53125 -4.640625 C -2.019531 -5.148438 -1.375 -5.40625 -0.59375 -5.40625 L 35.265625 -5.40625 C 30.566406 -7.757812 26.75 -11.1875 23.8125 -15.6875 C 20.875 -20.195312 19.40625 -25.664062 19.40625 -32.09375 C 19.40625 -36.09375 20.226562 -40.015625 21.875 -43.859375 C 23.519531 -47.703125 25.832031 -51.128906 28.8125 -54.140625 C 31.789062 -57.160156 35.316406 -59.570312 39.390625 -61.375 C 43.460938 -63.175781 47.929688 -64.078125 52.796875 -64.078125 Z M 52.796875 -5.40625 C 58.359375 -5.40625 63.234375 -6.519531 67.421875 -8.75 C 71.617188 -10.988281 74.894531 -14.109375 77.25 -18.109375 C 79.601562 -22.109375 80.78125 -26.769531 80.78125 -32.09375 C 80.78125 -35.382812 80.09375 -38.597656 78.71875 -41.734375 C 77.34375 -44.867188 75.421875 -47.707031 72.953125 -50.25 C 70.484375 -52.800781 67.546875 -54.84375 64.140625 -56.375 C 60.734375 -57.90625 56.953125 -58.671875 52.796875 -58.671875 C 48.710938 -58.671875 44.96875 -57.90625 41.5625 -56.375 C 38.15625 -54.84375 35.195312 -52.800781 32.6875 -50.25 C 30.175781 -47.707031 28.253906 -44.867188 26.921875 -41.734375 C 25.585938 -38.597656 24.921875 -35.382812 24.921875 -32.09375 C 24.921875 -26.769531 26.175781 -22.109375 28.6875 -18.109375 C 31.195312 -14.109375 34.546875 -10.988281 38.734375 -8.75 C 42.929688 -6.519531 47.617188 -5.40625 52.796875 -5.40625 Z M 52.796875 -5.40625 "/></g></g></g><g fill="#e5ff1f" fill-opacity="1"><g transform="translate(190.694038, 123.851971)"><g><path d="M 13.40625 -92.53125 C 14.1875 -92.53125 14.832031 -92.273438 15.34375 -91.765625 C 15.851562 -91.253906 16.109375 -90.609375 16.109375 -89.828125 L 16.109375 -16.34375 C 16.109375 -12.96875 17.085938 -10.300781 19.046875 -8.34375 C 21.003906 -6.382812 23.671875 -5.40625 27.046875 -5.40625 L 37.625 -5.40625 C 38.40625 -5.40625 39.050781 -5.148438 39.5625 -4.640625 C 40.070312 -4.128906 40.328125 -3.484375 40.328125 -2.703125 C 40.328125 -1.921875 40.070312 -1.273438 39.5625 -0.765625 C 39.050781 -0.253906 38.40625 0 37.625 0 L 27.046875 0 C 24.066406 0 21.320312 -0.722656 18.8125 -2.171875 C 16.300781 -3.617188 14.320312 -5.597656 12.875 -8.109375 C 11.425781 -10.617188 10.703125 -13.363281 10.703125 -16.34375 L 10.703125 -89.828125 C 10.703125 -90.609375 10.957031 -91.253906 11.46875 -91.765625 C 11.976562 -92.273438 12.625 -92.53125 13.40625 -92.53125 Z M 13.40625 -92.53125 "/></g></g></g><g fill="#e5ff1f" fill-opacity="1"><g transform="translate(227.707224, 123.851971)"><g><path d="M 129.8125 -5.40625 C 130.59375 -5.40625 131.238281 -5.148438 131.75 -4.640625 C 132.257812 -4.128906 132.515625 -3.484375 132.515625 -2.703125 C 132.515625 -1.921875 132.257812 -1.273438 131.75 -0.765625 C 131.238281 -0.253906 130.59375 0 129.8125 0 L -0.59375 0 C -1.375 0 -2.019531 -0.253906 -2.53125 -0.765625 C -3.039062 -1.273438 -3.296875 -1.921875 -3.296875 -2.703125 C -3.296875 -3.484375 -3.039062 -4.128906 -2.53125 -4.640625 C -2.019531 -5.148438 -1.375 -5.40625 -0.59375 -5.40625 L 16.703125 -5.40625 L 16.703125 -89.828125 C 16.703125 -90.609375 16.953125 -91.253906 17.453125 -91.765625 C 17.960938 -92.273438 18.613281 -92.53125 19.40625 -92.53125 C 20.1875 -92.53125 20.832031 -92.273438 21.34375 -91.765625 C 21.851562 -91.253906 22.109375 -90.609375 22.109375 -89.828125 L 22.109375 -37.625 C 23.753906 -42.644531 26.238281 -47.070312 29.5625 -50.90625 C 32.894531 -54.75 36.910156 -57.785156 41.609375 -60.015625 C 46.316406 -62.253906 51.535156 -63.375 57.265625 -63.375 L 89.234375 -63.375 C 94.804688 -63.375 99.84375 -62.039062 104.34375 -59.375 C 108.851562 -56.707031 112.441406 -53.097656 115.109375 -48.546875 C 117.773438 -44.003906 119.109375 -38.953125 119.109375 -33.390625 L 119.109375 -5.40625 Z M 46.328125 -79.359375 C 44.835938 -79.359375 43.601562 -79.847656 42.625 -80.828125 C 41.644531 -81.804688 41.15625 -83.039062 41.15625 -84.53125 C 41.15625 -86.019531 41.644531 -87.273438 42.625 -88.296875 C 43.601562 -89.316406 44.835938 -89.828125 46.328125 -89.828125 C 47.816406 -89.828125 49.066406 -89.316406 50.078125 -88.296875 C 51.097656 -87.273438 51.609375 -86.019531 51.609375 -84.53125 C 51.609375 -83.039062 51.097656 -81.804688 50.078125 -80.828125 C 49.066406 -79.847656 47.816406 -79.359375 46.328125 -79.359375 Z M 22.109375 -18.34375 L 22.109375 -5.40625 L 113.703125 -5.40625 L 113.703125 -33.390625 C 113.703125 -38.015625 112.601562 -42.164062 110.40625 -45.84375 C 108.207031 -49.53125 105.242188 -52.472656 101.515625 -54.671875 C 97.796875 -56.867188 93.664062 -57.96875 89.125 -57.96875 L 57.265625 -57.96875 C 52.242188 -57.96875 47.578125 -56.90625 43.265625 -54.78125 C 38.953125 -52.664062 35.226562 -49.765625 32.09375 -46.078125 C 28.957031 -42.398438 26.507812 -38.171875 24.75 -33.390625 C 22.988281 -28.609375 22.109375 -23.59375 22.109375 -18.34375 Z M 22.109375 -18.34375 "/></g></g></g><g fill="#e5ff1f" fill-opacity="1"><g transform="translate(356.842181, 123.851971)"><g><path d="M 21.046875 -79.359375 C 19.554688 -79.359375 18.320312 -79.867188 17.34375 -80.890625 C 16.363281 -81.910156 15.875 -83.164062 15.875 -84.65625 C 15.875 -86.144531 16.363281 -87.378906 17.34375 -88.359375 C 18.320312 -89.335938 19.554688 -89.828125 21.046875 -89.828125 C 22.535156 -89.828125 23.789062 -89.335938 24.8125 -88.359375 C 25.832031 -87.378906 26.34375 -86.144531 26.34375 -84.65625 C 26.34375 -83.164062 25.832031 -81.910156 24.8125 -80.890625 C 23.789062 -79.867188 22.535156 -79.359375 21.046875 -79.359375 Z M 58.203125 -5.40625 C 59.066406 -5.40625 59.75 -5.148438 60.25 -4.640625 C 60.757812 -4.128906 61.015625 -3.484375 61.015625 -2.703125 C 61.015625 -1.921875 60.757812 -1.273438 60.25 -0.765625 C 59.75 -0.253906 59.066406 0 58.203125 0 L 55.96875 0 C 52.988281 0 50.359375 -0.742188 48.078125 -2.234375 C 45.804688 -3.722656 44.046875 -5.679688 42.796875 -8.109375 C 41.390625 -5.679688 39.429688 -3.722656 36.921875 -2.234375 C 34.410156 -0.742188 31.664062 0 28.6875 0 L -0.59375 0 C -1.375 0 -2.019531 -0.253906 -2.53125 -0.765625 C -3.039062 -1.273438 -3.296875 -1.921875 -3.296875 -2.703125 C -3.296875 -3.484375 -3.039062 -4.128906 -2.53125 -4.640625 C -2.019531 -5.148438 -1.375 -5.40625 -0.59375 -5.40625 L 28.6875 -5.40625 C 31.90625 -5.40625 34.53125 -6.382812 36.5625 -8.34375 C 38.601562 -10.300781 39.625 -12.96875 39.625 -16.34375 L 39.625 -57.96875 C 39.625 -58.75 39.878906 -59.394531 40.390625 -59.90625 C 40.898438 -60.414062 41.546875 -60.671875 42.328125 -60.671875 C 43.109375 -60.671875 43.753906 -60.414062 44.265625 -59.90625 C 44.773438 -59.394531 45.03125 -58.75 45.03125 -57.96875 L 45.03125 -16.34375 C 45.03125 -12.96875 46.007812 -10.300781 47.96875 -8.34375 C 49.925781 -6.382812 52.59375 -5.40625 55.96875 -5.40625 Z M 58.203125 -5.40625 "/></g></g></g><g fill="#e5ff1f" fill-opacity="1"><g transform="translate(414.418337, 123.851971)"><g><path d="M 34.921875 -5.40625 C 35.785156 -5.40625 36.453125 -5.148438 36.921875 -4.640625 C 37.390625 -4.128906 37.625 -3.484375 37.625 -2.703125 C 37.625 -1.921875 37.390625 -1.273438 36.921875 -0.765625 C 36.453125 -0.253906 35.785156 0 34.921875 0 L 32.6875 0 C 29.707031 0 27.082031 -0.742188 24.8125 -2.234375 C 22.539062 -3.722656 20.773438 -5.679688 19.515625 -8.109375 C 18.109375 -5.679688 16.128906 -3.722656 13.578125 -2.234375 C 11.035156 -0.742188 8.273438 0 5.296875 0 L -0.59375 0 C -1.375 0 -2.019531 -0.253906 -2.53125 -0.765625 C -3.039062 -1.273438 -3.296875 -1.921875 -3.296875 -2.703125 C -3.296875 -3.484375 -3.039062 -4.128906 -2.53125 -4.640625 C -2.019531 -5.148438 -1.375 -5.40625 -0.59375 -5.40625 L 5.296875 -5.40625 C 8.585938 -5.40625 11.226562 -6.382812 13.21875 -8.34375 C 15.21875 -10.300781 16.21875 -12.96875 16.21875 -16.34375 L 16.21875 -89.828125 C 16.21875 -90.609375 16.492188 -91.253906 17.046875 -91.765625 C 17.597656 -92.273438 18.265625 -92.53125 19.046875 -92.53125 C 19.828125 -92.53125 20.472656 -92.273438 20.984375 -91.765625 C 21.492188 -91.253906 21.75 -90.609375 21.75 -89.828125 L 21.75 -16.34375 C 21.75 -12.96875 22.726562 -10.300781 24.6875 -8.34375 C 26.644531 -6.382812 29.3125 -5.40625 32.6875 -5.40625 Z M 34.921875 -5.40625 "/></g></g></g><g fill="#e5ff1f" fill-opacity="1"><g transform="translate(448.728963, 123.851971)"><g><path d="M 5.296875 -5.40625 C 8.585938 -5.40625 11.226562 -6.382812 13.21875 -8.34375 C 15.21875 -10.300781 16.21875 -12.96875 16.21875 -16.34375 L 16.21875 -89.828125 C 16.21875 -90.609375 16.492188 -91.253906 17.046875 -91.765625 C 17.597656 -92.273438 18.265625 -92.53125 19.046875 -92.53125 C 19.828125 -92.53125 20.472656 -92.273438 20.984375 -91.765625 C 21.492188 -91.253906 21.75 -90.609375 21.75 -89.828125 L 21.75 -16.34375 C 21.75 -13.363281 21.003906 -10.617188 19.515625 -8.109375 C 18.023438 -5.597656 16.046875 -3.617188 13.578125 -2.171875 C 11.109375 -0.722656 8.347656 0 5.296875 0 L -0.59375 0 C -1.375 0 -2.019531 -0.253906 -2.53125 -0.765625 C -3.039062 -1.273438 -3.296875 -1.921875 -3.296875 -2.703125 C -3.296875 -3.484375 -3.039062 -4.128906 -2.53125 -4.640625 C -2.019531 -5.148438 -1.375 -5.40625 -0.59375 -5.40625 Z M 5.296875 -5.40625 "/></g></g></g><g fill="#e5ff1f" fill-opacity="1"><g transform="translate(109.478781, 273.027301)"><g><path d="M 36.796875 -79.359375 C 35.304688 -79.359375 34.070312 -79.847656 33.09375 -80.828125 C 32.113281 -81.804688 31.625 -83.039062 31.625 -84.53125 C 31.625 -86.019531 32.113281 -87.273438 33.09375 -88.296875 C 34.070312 -89.316406 35.304688 -89.828125 36.796875 -89.828125 C 38.285156 -89.828125 39.539062 -89.316406 40.5625 -88.296875 C 41.582031 -87.273438 42.09375 -86.019531 42.09375 -84.53125 C 42.09375 -83.039062 41.582031 -81.804688 40.5625 -80.828125 C 39.539062 -79.847656 38.285156 -79.359375 36.796875 -79.359375 Z M 50.203125 -79.359375 C 48.710938 -79.359375 47.476562 -79.847656 46.5 -80.828125 C 45.519531 -81.804688 45.03125 -83.039062 45.03125 -84.53125 C 45.03125 -86.019531 45.519531 -87.273438 46.5 -88.296875 C 47.476562 -89.316406 48.710938 -89.828125 50.203125 -89.828125 C 51.691406 -89.828125 52.925781 -89.316406 53.90625 -88.296875 C 54.882812 -87.273438 55.375 -86.019531 55.375 -84.53125 C 55.375 -83.039062 54.882812 -81.804688 53.90625 -80.828125 C 52.925781 -79.847656 51.691406 -79.359375 50.203125 -79.359375 Z M 90.0625 -5.40625 C 90.84375 -5.40625 91.488281 -5.148438 92 -4.640625 C 92.507812 -4.128906 92.765625 -3.484375 92.765625 -2.703125 C 92.765625 -1.921875 92.507812 -1.273438 92 -0.765625 C 91.488281 -0.253906 90.84375 0 90.0625 0 L 87.71875 0 C 83.632812 0 80.082031 -1.3125 77.0625 -3.9375 C 74.050781 -6.5625 72.234375 -9.796875 71.609375 -13.640625 C 68.703125 -9.328125 64.835938 -5.972656 60.015625 -3.578125 C 55.203125 -1.191406 49.660156 0 43.390625 0 C 36.878906 0 31.09375 -1.3125 26.03125 -3.9375 C 20.976562 -6.5625 17.039062 -10.285156 14.21875 -15.109375 C 11.40625 -19.929688 10 -25.59375 10 -32.09375 C 10 -38.601562 11.40625 -44.304688 14.21875 -49.203125 C 17.039062 -54.109375 20.976562 -57.929688 26.03125 -60.671875 C 31.09375 -63.410156 36.878906 -64.78125 43.390625 -64.78125 C 49.503906 -64.78125 54.96875 -63.566406 59.78125 -61.140625 C 64.601562 -58.710938 68.46875 -55.34375 71.375 -51.03125 L 71.375 -57.84375 C 71.375 -59.101562 71.820312 -59.945312 72.71875 -60.375 C 73.625 -60.800781 74.523438 -60.800781 75.421875 -60.375 C 76.328125 -59.945312 76.78125 -59.101562 76.78125 -57.84375 L 76.78125 -16.34375 C 76.78125 -12.96875 77.757812 -10.300781 79.71875 -8.34375 C 81.675781 -6.382812 84.34375 -5.40625 87.71875 -5.40625 Z M 43.390625 -5.40625 C 48.953125 -5.40625 53.828125 -6.484375 58.015625 -8.640625 C 62.210938 -10.796875 65.488281 -13.875 67.84375 -17.875 C 70.195312 -21.875 71.375 -26.613281 71.375 -32.09375 C 71.375 -37.582031 70.175781 -42.363281 67.78125 -46.4375 C 65.394531 -50.519531 62.101562 -53.695312 57.90625 -55.96875 C 53.707031 -58.238281 48.867188 -59.375 43.390625 -59.375 C 37.898438 -59.375 33.054688 -58.238281 28.859375 -55.96875 C 24.671875 -53.695312 21.378906 -50.519531 18.984375 -46.4375 C 16.597656 -42.363281 15.40625 -37.582031 15.40625 -32.09375 C 15.40625 -26.613281 16.597656 -21.875 18.984375 -17.875 C 21.378906 -13.875 24.671875 -10.796875 28.859375 -8.640625 C 33.054688 -6.484375 37.898438 -5.40625 43.390625 -5.40625 Z M 43.390625 -5.40625 "/></g></g></g><g fill="#e5ff1f" fill-opacity="1"><g transform="translate(198.780563, 273.027301)"><g><path d="M 52.328125 -64.078125 C 58.910156 -64.078125 64.707031 -62.722656 69.71875 -60.015625 C 74.738281 -57.316406 78.660156 -53.515625 81.484375 -48.609375 C 84.304688 -43.710938 85.71875 -38.015625 85.71875 -31.515625 C 85.71875 -24.929688 84.304688 -19.285156 81.484375 -14.578125 C 78.660156 -9.878906 74.738281 -6.273438 69.71875 -3.765625 C 64.707031 -1.253906 58.910156 0 52.328125 0 C 45.109375 0 39.164062 -1.332031 34.5 -4 C 29.84375 -6.664062 26.378906 -9.800781 24.109375 -13.40625 C 23.472656 -9.644531 21.664062 -6.488281 18.6875 -3.9375 C 15.71875 -1.394531 12.269531 -0.0820312 8.34375 0 L -0.59375 0 C -1.375 0 -2.019531 -0.253906 -2.53125 -0.765625 C -3.039062 -1.273438 -3.296875 -1.921875 -3.296875 -2.703125 C -3.296875 -3.484375 -3.039062 -4.128906 -2.53125 -4.640625 C -2.019531 -5.148438 -1.375 -5.40625 -0.59375 -5.40625 L 8.34375 -5.40625 C 11.320312 -5.488281 13.847656 -6.609375 15.921875 -8.765625 C 18.003906 -10.921875 19.046875 -13.445312 19.046875 -16.34375 L 19.046875 -31.515625 C 19.046875 -38.015625 20.457031 -43.710938 23.28125 -48.609375 C 26.101562 -53.515625 30.019531 -57.316406 35.03125 -60.015625 C 40.050781 -62.722656 45.816406 -64.078125 52.328125 -64.078125 Z M 52.328125 -58.671875 C 46.835938 -58.671875 41.992188 -57.550781 37.796875 -55.3125 C 33.609375 -53.082031 30.335938 -49.945312 27.984375 -45.90625 C 25.628906 -41.875 24.414062 -37.078125 24.34375 -31.515625 C 24.65625 -22.734375 27.335938 -16.1875 32.390625 -11.875 C 37.441406 -7.5625 44.085938 -5.40625 52.328125 -5.40625 C 57.804688 -5.40625 62.644531 -6.421875 66.84375 -8.453125 C 71.039062 -10.492188 74.332031 -13.472656 76.71875 -17.390625 C 79.113281 -21.316406 80.3125 -26.023438 80.3125 -31.515625 C 80.3125 -36.992188 79.113281 -41.753906 76.71875 -45.796875 C 74.332031 -49.835938 71.039062 -52.992188 66.84375 -55.265625 C 62.644531 -57.535156 57.804688 -58.671875 52.328125 -58.671875 Z M 52.328125 -58.671875 "/></g></g></g><g fill="#e5ff1f" fill-opacity="1"><g transform="translate(294.427417, 273.027301)"><g><path d="M 13.40625 -92.53125 C 14.1875 -92.53125 14.832031 -92.273438 15.34375 -91.765625 C 15.851562 -91.253906 16.109375 -90.609375 16.109375 -89.828125 L 16.109375 -16.34375 C 16.109375 -12.96875 17.085938 -10.300781 19.046875 -8.34375 C 21.003906 -6.382812 23.671875 -5.40625 27.046875 -5.40625 L 37.625 -5.40625 C 38.40625 -5.40625 39.050781 -5.148438 39.5625 -4.640625 C 40.070312 -4.128906 40.328125 -3.484375 40.328125 -2.703125 C 40.328125 -1.921875 40.070312 -1.273438 39.5625 -0.765625 C 39.050781 -0.253906 38.40625 0 37.625 0 L 27.046875 0 C 24.066406 0 21.320312 -0.722656 18.8125 -2.171875 C 16.300781 -3.617188 14.320312 -5.597656 12.875 -8.109375 C 11.425781 -10.617188 10.703125 -13.363281 10.703125 -16.34375 L 10.703125 -89.828125 C 10.703125 -90.609375 10.957031 -91.253906 11.46875 -91.765625 C 11.976562 -92.273438 12.625 -92.53125 13.40625 -92.53125 Z M 13.40625 -92.53125 "/></g></g></g><g fill="#e5ff1f" fill-opacity="1"><g transform="translate(331.440604, 273.027301)"><g><path d="M 67.71875 -63.375 C 71.332031 -63.375 74.019531 -62.488281 75.78125 -60.71875 C 77.539062 -58.957031 78.378906 -56.800781 78.296875 -54.25 C 78.222656 -51.707031 77.207031 -49.222656 75.25 -46.796875 L 51.859375 -17.875 C 50.367188 -15.988281 49.539062 -14.082031 49.375 -12.15625 C 49.21875 -10.238281 49.90625 -8.632812 51.4375 -7.34375 C 52.96875 -6.050781 55.5 -5.40625 59.03125 -5.40625 L 91.234375 -5.40625 C 92.023438 -5.40625 92.691406 -5.148438 93.234375 -4.640625 C 93.785156 -4.128906 94.0625 -3.484375 94.0625 -2.703125 C 94.0625 -1.921875 93.785156 -1.273438 93.234375 -0.765625 C 92.691406 -0.253906 92.023438 0 91.234375 0 L 59.03125 0 C 56.125 0 53.492188 -0.546875 51.140625 -1.640625 C 48.796875 -2.742188 46.878906 -4.390625 45.390625 -6.578125 C 43.898438 -4.390625 41.957031 -2.742188 39.5625 -1.640625 C 37.175781 -0.546875 34.570312 0 31.75 0 L -0.59375 0 C -1.375 0 -2.019531 -0.253906 -2.53125 -0.765625 C -3.039062 -1.273438 -3.296875 -1.921875 -3.296875 -2.703125 C -3.296875 -3.484375 -3.039062 -4.128906 -2.53125 -4.640625 C -2.019531 -5.148438 -1.375 -5.40625 -0.59375 -5.40625 L 31.75 -5.40625 C 35.425781 -5.40625 38.007812 -6.050781 39.5 -7.34375 C 40.988281 -8.632812 41.632812 -10.238281 41.4375 -12.15625 C 41.25 -14.082031 40.367188 -15.988281 38.796875 -17.875 L 15.40625 -46.796875 C 13.519531 -49.222656 12.535156 -51.707031 12.453125 -54.25 C 12.378906 -56.800781 13.222656 -58.957031 14.984375 -60.71875 C 16.753906 -62.488281 19.441406 -63.375 23.046875 -63.375 Z M 67.71875 -57.84375 L 23.046875 -57.84375 C 20.378906 -57.84375 18.734375 -57.054688 18.109375 -55.484375 C 17.484375 -53.921875 18.03125 -52.125 19.75 -50.09375 L 45.390625 -17.875 L 71.015625 -50.09375 C 72.585938 -52.125 73.078125 -53.921875 72.484375 -55.484375 C 71.898438 -57.054688 70.3125 -57.84375 67.71875 -57.84375 Z M 67.71875 -57.84375 "/></g></g></g><g fill="#e5ff1f" fill-opacity="1"><g transform="translate(422.034886, 273.027301)"><g><path d="M 5.296875 -5.40625 C 8.585938 -5.40625 11.226562 -6.382812 13.21875 -8.34375 C 15.21875 -10.300781 16.21875 -12.96875 16.21875 -16.34375 L 16.21875 -89.828125 C 16.21875 -90.609375 16.492188 -91.253906 17.046875 -91.765625 C 17.597656 -92.273438 18.265625 -92.53125 19.046875 -92.53125 C 19.828125 -92.53125 20.472656 -92.273438 20.984375 -91.765625 C 21.492188 -91.253906 21.75 -90.609375 21.75 -89.828125 L 21.75 -16.34375 C 21.75 -13.363281 21.003906 -10.617188 19.515625 -8.109375 C 18.023438 -5.597656 16.046875 -3.617188 13.578125 -2.171875 C 11.109375 -0.722656 8.347656 0 5.296875 0 L -0.59375 0 C -1.375 0 -2.019531 -0.253906 -2.53125 -0.765625 C -3.039062 -1.273438 -3.296875 -1.921875 -3.296875 -2.703125 C -3.296875 -3.484375 -3.039062 -4.128906 -2.53125 -4.640625 C -2.019531 -5.148438 -1.375 -5.40625 -0.59375 -5.40625 Z M 5.296875 -5.40625 "/></g></g></g><g fill="#e5ff1f" fill-opacity="1"><g transform="translate(455.757975, 273.027301)"><g><path d="M 13.40625 -92.53125 C 14.1875 -92.53125 14.832031 -92.273438 15.34375 -91.765625 C 15.851562 -91.253906 16.109375 -90.609375 16.109375 -89.828125 L 16.109375 -2.703125 C 16.109375 -1.921875 15.851562 -1.273438 15.34375 -0.765625 C 14.832031 -0.253906 14.1875 0 13.40625 0 C 12.625 0 11.976562 -0.253906 11.46875 -0.765625 C 10.957031 -1.273438 10.703125 -1.921875 10.703125 -2.703125 L 10.703125 -89.828125 C 10.703125 -90.609375 10.957031 -91.253906 11.46875 -91.765625 C 11.976562 -92.273438 12.625 -92.53125 13.40625 -92.53125 Z M 13.40625 -92.53125 "/></g></g></g></g></g><g transform="matrix(1, 0, 0, 1, 1100, 473)"><g clip-path="url(#ccdebaad5a)"><g fill="#e5ff1f" fill-opacity="1"><g transform="translate(3.549748, 76.293355)"><g><path d="M 22.59375 -48.734375 C 21.6875 -48.734375 20.929688 -49.035156 20.328125 -49.640625 C 19.722656 -50.242188 19.421875 -51.003906 19.421875 -51.921875 C 19.421875 -52.828125 19.722656 -53.59375 20.328125 -54.21875 C 20.929688 -54.84375 21.6875 -55.15625 22.59375 -55.15625 C 23.507812 -55.15625 24.28125 -54.84375 24.90625 -54.21875 C 25.53125 -53.59375 25.84375 -52.828125 25.84375 -51.921875 C 25.84375 -51.003906 25.53125 -50.242188 24.90625 -49.640625 C 24.28125 -49.035156 23.507812 -48.734375 22.59375 -48.734375 Z M 30.828125 -48.734375 C 29.910156 -48.734375 29.148438 -49.035156 28.546875 -49.640625 C 27.953125 -50.242188 27.65625 -51.003906 27.65625 -51.921875 C 27.65625 -52.828125 27.953125 -53.59375 28.546875 -54.21875 C 29.148438 -54.84375 29.910156 -55.15625 30.828125 -55.15625 C 31.742188 -55.15625 32.5 -54.84375 33.09375 -54.21875 C 33.695312 -53.59375 34 -52.828125 34 -51.921875 C 34 -51.003906 33.695312 -50.242188 33.09375 -49.640625 C 32.5 -49.035156 31.742188 -48.734375 30.828125 -48.734375 Z M 55.3125 -3.328125 C 55.789062 -3.328125 56.1875 -3.164062 56.5 -2.84375 C 56.8125 -2.53125 56.96875 -2.132812 56.96875 -1.65625 C 56.96875 -1.175781 56.8125 -0.78125 56.5 -0.46875 C 56.1875 -0.15625 55.789062 0 55.3125 0 L 53.859375 0 C 51.359375 0 49.179688 -0.804688 47.328125 -2.421875 C 45.472656 -4.035156 44.351562 -6.019531 43.96875 -8.375 C 42.1875 -5.726562 39.816406 -3.671875 36.859375 -2.203125 C 33.898438 -0.734375 30.492188 0 26.640625 0 C 22.648438 0 19.097656 -0.804688 15.984375 -2.421875 C 12.878906 -4.035156 10.460938 -6.320312 8.734375 -9.28125 C 7.003906 -12.238281 6.140625 -15.71875 6.140625 -19.71875 C 6.140625 -23.707031 7.003906 -27.207031 8.734375 -30.21875 C 10.460938 -33.226562 12.878906 -35.570312 15.984375 -37.25 C 19.097656 -38.9375 22.648438 -39.78125 26.640625 -39.78125 C 30.398438 -39.78125 33.757812 -39.035156 36.71875 -37.546875 C 39.675781 -36.054688 42.046875 -33.988281 43.828125 -31.34375 L 43.828125 -35.53125 C 43.828125 -36.289062 44.101562 -36.800781 44.65625 -37.0625 C 45.207031 -37.332031 45.757812 -37.332031 46.3125 -37.0625 C 46.875 -36.800781 47.15625 -36.289062 47.15625 -35.53125 L 47.15625 -10.03125 C 47.15625 -7.96875 47.753906 -6.332031 48.953125 -5.125 C 50.160156 -3.925781 51.796875 -3.328125 53.859375 -3.328125 Z M 26.640625 -3.328125 C 30.054688 -3.328125 33.050781 -3.988281 35.625 -5.3125 C 38.207031 -6.632812 40.21875 -8.519531 41.65625 -10.96875 C 43.101562 -13.425781 43.828125 -16.34375 43.828125 -19.71875 C 43.828125 -23.082031 43.09375 -26.015625 41.625 -28.515625 C 40.15625 -31.023438 38.132812 -32.976562 35.5625 -34.375 C 32.988281 -35.769531 30.015625 -36.46875 26.640625 -36.46875 C 23.273438 -36.46875 20.300781 -35.769531 17.71875 -34.375 C 15.144531 -32.976562 13.125 -31.023438 11.65625 -28.515625 C 10.1875 -26.015625 9.453125 -23.082031 9.453125 -19.71875 C 9.453125 -16.34375 10.1875 -13.425781 11.65625 -10.96875 C 13.125 -8.519531 15.144531 -6.632812 17.71875 -5.3125 C 20.300781 -3.988281 23.273438 -3.328125 26.640625 -3.328125 Z M 26.640625 -3.328125 "/></g></g></g><g fill="#e5ff1f" fill-opacity="1"><g transform="translate(58.380362, 76.293355)"><g><path d="M 48.953125 -37.25 C 49.578125 -37.25 50.019531 -37.066406 50.28125 -36.703125 C 50.550781 -36.347656 50.6875 -35.976562 50.6875 -35.59375 L 50.6875 -9.96875 C 50.6875 -8.132812 51.332031 -6.566406 52.625 -5.265625 C 53.925781 -3.972656 55.492188 -3.328125 57.328125 -3.328125 L 60.578125 -3.328125 C 61.054688 -3.328125 61.453125 -3.164062 61.765625 -2.84375 C 62.078125 -2.53125 62.234375 -2.132812 62.234375 -1.65625 C 62.234375 -1.175781 62.078125 -0.78125 61.765625 -0.46875 C 61.453125 -0.15625 61.054688 0 60.578125 0 L 57.328125 0 C 53.617188 0 50.828125 -1.613281 48.953125 -4.84375 C 48.035156 -3.300781 46.851562 -2.09375 45.40625 -1.21875 C 43.96875 -0.351562 42.359375 0.078125 40.578125 0.078125 C 38.796875 0.078125 37.171875 -0.34375 35.703125 -1.1875 C 34.234375 -2.03125 33.039062 -3.25 32.125 -4.84375 C 31.21875 -3.25 30.03125 -2.03125 28.5625 -1.1875 C 27.09375 -0.34375 25.46875 0.078125 23.6875 0.078125 C 21.90625 0.078125 20.289062 -0.351562 18.84375 -1.21875 C 17.394531 -2.09375 16.21875 -3.300781 15.3125 -4.84375 C 13.332031 -1.613281 10.539062 0 6.9375 0 L -0.359375 0 C -0.835938 0 -1.234375 -0.15625 -1.546875 -0.46875 C -1.859375 -0.78125 -2.015625 -1.175781 -2.015625 -1.65625 C -2.015625 -2.132812 -1.859375 -2.53125 -1.546875 -2.84375 C -1.234375 -3.164062 -0.835938 -3.328125 -0.359375 -3.328125 L 6.9375 -3.328125 C 8.757812 -3.328125 10.332031 -3.972656 11.65625 -5.265625 C 12.976562 -6.566406 13.640625 -8.132812 13.640625 -9.96875 L 13.640625 -35.59375 C 13.640625 -36.125 13.820312 -36.53125 14.1875 -36.8125 C 14.550781 -37.101562 14.925781 -37.25 15.3125 -37.25 C 15.695312 -37.25 16.066406 -37.101562 16.421875 -36.8125 C 16.785156 -36.53125 16.96875 -36.125 16.96875 -35.59375 L 16.96875 -9.96875 C 16.96875 -8.132812 17.628906 -6.566406 18.953125 -5.265625 C 20.273438 -3.972656 21.851562 -3.328125 23.6875 -3.328125 C 25.5625 -3.328125 27.160156 -3.972656 28.484375 -5.265625 C 29.804688 -6.566406 30.46875 -8.132812 30.46875 -9.96875 L 30.46875 -35.59375 C 30.46875 -36.269531 30.660156 -36.710938 31.046875 -36.921875 C 31.429688 -37.140625 31.789062 -37.25 32.125 -37.25 C 32.414062 -37.25 32.765625 -37.140625 33.171875 -36.921875 C 33.585938 -36.710938 33.796875 -36.269531 33.796875 -35.59375 L 33.796875 -9.671875 C 33.796875 -7.847656 34.476562 -6.332031 35.84375 -5.125 C 37.21875 -3.925781 38.796875 -3.328125 40.578125 -3.328125 C 42.410156 -3.328125 43.960938 -3.9375 45.234375 -5.15625 C 46.515625 -6.382812 47.203125 -7.890625 47.296875 -9.671875 L 47.296875 -35.59375 C 47.296875 -35.976562 47.4375 -36.347656 47.71875 -36.703125 C 48.007812 -37.066406 48.421875 -37.25 48.953125 -37.25 Z M 48.953125 -37.25 "/></g></g></g><g fill="#e5ff1f" fill-opacity="1"><g transform="translate(118.549691, 76.293355)"><g><path d="M 48.953125 -37.25 C 49.578125 -37.25 50.019531 -37.066406 50.28125 -36.703125 C 50.550781 -36.347656 50.6875 -35.976562 50.6875 -35.59375 L 50.6875 -10.390625 C 50.6875 -8.515625 50.273438 -6.78125 49.453125 -5.1875 C 48.640625 -3.601562 47.472656 -2.328125 45.953125 -1.359375 C 44.441406 -0.398438 42.648438 0.078125 40.578125 0.078125 C 38.796875 0.078125 37.171875 -0.34375 35.703125 -1.1875 C 34.234375 -2.03125 33.039062 -3.25 32.125 -4.84375 C 31.21875 -3.25 30.03125 -2.03125 28.5625 -1.1875 C 27.09375 -0.34375 25.46875 0.078125 23.6875 0.078125 C 21.90625 0.078125 20.289062 -0.351562 18.84375 -1.21875 C 17.394531 -2.09375 16.21875 -3.300781 15.3125 -4.84375 C 13.332031 -1.613281 10.539062 0 6.9375 0 L -0.359375 0 C -0.835938 0 -1.234375 -0.15625 -1.546875 -0.46875 C -1.859375 -0.78125 -2.015625 -1.175781 -2.015625 -1.65625 C -2.015625 -2.132812 -1.859375 -2.53125 -1.546875 -2.84375 C -1.234375 -3.164062 -0.835938 -3.328125 -0.359375 -3.328125 L 6.9375 -3.328125 C 8.757812 -3.328125 10.332031 -3.972656 11.65625 -5.265625 C 12.976562 -6.566406 13.640625 -8.132812 13.640625 -9.96875 L 13.640625 -35.59375 C 13.640625 -36.125 13.820312 -36.53125 14.1875 -36.8125 C 14.550781 -37.101562 14.925781 -37.25 15.3125 -37.25 C 15.695312 -37.25 16.066406 -37.101562 16.421875 -36.8125 C 16.785156 -36.53125 16.96875 -36.125 16.96875 -35.59375 L 16.96875 -9.96875 C 16.96875 -8.132812 17.628906 -6.566406 18.953125 -5.265625 C 20.273438 -3.972656 21.851562 -3.328125 23.6875 -3.328125 C 25.5625 -3.328125 27.160156 -3.972656 28.484375 -5.265625 C 29.804688 -6.566406 30.46875 -8.132812 30.46875 -9.96875 L 30.46875 -35.59375 C 30.46875 -36.269531 30.660156 -36.710938 31.046875 -36.921875 C 31.429688 -37.140625 31.789062 -37.25 32.125 -37.25 C 32.414062 -37.25 32.765625 -37.140625 33.171875 -36.921875 C 33.585938 -36.710938 33.796875 -36.269531 33.796875 -35.59375 L 33.796875 -9.671875 C 33.796875 -7.847656 34.476562 -6.332031 35.84375 -5.125 C 37.21875 -3.925781 38.796875 -3.328125 40.578125 -3.328125 C 42.835938 -3.328125 44.519531 -4.007812 45.625 -5.375 C 46.738281 -6.75 47.296875 -8.328125 47.296875 -10.109375 L 47.296875 -35.59375 C 47.296875 -35.976562 47.4375 -36.347656 47.71875 -36.703125 C 48.007812 -37.066406 48.421875 -37.25 48.953125 -37.25 Z M 48.953125 -37.25 "/></g></g></g><g fill="#e5ff1f" fill-opacity="1"><g transform="translate(175.328218, 76.293355)"><g><path d="M 23.46875 -50.328125 C 22.164062 -50.328125 21.1875 -50.722656 20.53125 -51.515625 C 19.882812 -52.304688 19.5625 -53.207031 19.5625 -54.21875 C 19.5625 -55.226562 19.882812 -56.128906 20.53125 -56.921875 C 21.1875 -57.722656 22.164062 -58.125 23.46875 -58.125 L 31.84375 -58.125 C 32.613281 -58.125 33.117188 -57.878906 33.359375 -57.390625 C 33.597656 -56.910156 33.597656 -56.414062 33.359375 -55.90625 C 33.117188 -55.40625 32.613281 -55.15625 31.84375 -55.15625 L 23.03125 -55.15625 C 22.257812 -55.15625 21.875 -54.832031 21.875 -54.1875 C 21.875 -53.539062 22.257812 -53.21875 23.03125 -53.21875 L 29.671875 -53.21875 C 30.972656 -53.21875 31.945312 -52.832031 32.59375 -52.0625 C 33.25 -51.289062 33.578125 -50.382812 33.578125 -49.34375 C 33.578125 -48.3125 33.25 -47.410156 32.59375 -46.640625 C 31.945312 -45.867188 30.972656 -45.484375 29.671875 -45.484375 L 21.296875 -45.484375 C 20.578125 -45.484375 20.082031 -45.722656 19.8125 -46.203125 C 19.550781 -46.691406 19.550781 -47.175781 19.8125 -47.65625 C 20.082031 -48.132812 20.578125 -48.375 21.296875 -48.375 L 30.109375 -48.375 C 30.929688 -48.375 31.34375 -48.695312 31.34375 -49.34375 C 31.34375 -50 30.929688 -50.328125 30.109375 -50.328125 Z M 55.09375 -3.328125 C 55.570312 -3.328125 55.96875 -3.164062 56.28125 -2.84375 C 56.59375 -2.53125 56.75 -2.132812 56.75 -1.65625 C 56.75 -1.175781 56.59375 -0.78125 56.28125 -0.46875 C 55.96875 -0.15625 55.570312 0 55.09375 0 L 43.6875 0 C 39.257812 9.476562 30.425781 14.316406 17.1875 14.515625 L 9.671875 14.515625 C 9.191406 14.515625 8.796875 14.34375 8.484375 14 C 8.171875 13.664062 8.015625 13.257812 8.015625 12.78125 C 8.015625 12.300781 8.171875 11.90625 8.484375 11.59375 C 8.796875 11.28125 9.191406 11.125 9.671875 11.125 L 17.109375 11.125 C 23.171875 11.019531 28.007812 9.945312 31.625 7.90625 C 35.238281 5.863281 37.984375 3.226562 39.859375 0 L 26.640625 0 C 22.359375 0 18.6875 -0.816406 15.625 -2.453125 C 12.570312 -4.085938 10.226562 -6.289062 8.59375 -9.0625 C 6.957031 -11.832031 6.140625 -14.875 6.140625 -18.1875 C 6.140625 -22.1875 7.003906 -25.785156 8.734375 -28.984375 C 10.460938 -32.191406 12.878906 -34.734375 15.984375 -36.609375 C 19.097656 -38.484375 22.648438 -39.421875 26.640625 -39.421875 C 30.679688 -39.421875 34.242188 -38.484375 37.328125 -36.609375 C 40.410156 -34.734375 42.828125 -32.191406 44.578125 -28.984375 C 46.335938 -25.785156 47.195312 -22.1875 47.15625 -18.1875 C 47.101562 -15.351562 46.90625 -12.695312 46.5625 -10.21875 C 46.226562 -7.738281 45.703125 -5.441406 44.984375 -3.328125 Z M 26.640625 -3.328125 L 41.4375 -3.328125 C 42.3125 -5.585938 42.914062 -7.976562 43.25 -10.5 C 43.582031 -13.03125 43.75 -15.59375 43.75 -18.1875 C 43.75 -21.414062 43.003906 -24.390625 41.515625 -27.109375 C 40.023438 -29.828125 37.988281 -32.003906 35.40625 -33.640625 C 32.832031 -35.285156 29.910156 -36.109375 26.640625 -36.109375 C 23.273438 -36.109375 20.300781 -35.285156 17.71875 -33.640625 C 15.144531 -32.003906 13.125 -29.828125 11.65625 -27.109375 C 10.1875 -24.390625 9.453125 -21.414062 9.453125 -18.1875 C 9.453125 -15.539062 10.125 -13.085938 11.46875 -10.828125 C 12.820312 -8.566406 14.785156 -6.75 17.359375 -5.375 C 19.941406 -4.007812 23.035156 -3.328125 26.640625 -3.328125 Z M 26.640625 -3.328125 "/></g></g></g><g fill="#e5ff1f" fill-opacity="1"><g transform="translate(232.75605, 76.293355)"><g><path d="M 32.125 -39.34375 C 36.175781 -39.34375 39.738281 -38.515625 42.8125 -36.859375 C 45.894531 -35.203125 48.300781 -32.867188 50.03125 -29.859375 C 51.769531 -26.847656 52.640625 -23.34375 52.640625 -19.34375 C 52.640625 -15.300781 51.769531 -11.835938 50.03125 -8.953125 C 48.300781 -6.066406 45.894531 -3.851562 42.8125 -2.3125 C 39.738281 -0.769531 36.175781 0 32.125 0 C 27.695312 0 24.050781 -0.816406 21.1875 -2.453125 C 18.320312 -4.085938 16.191406 -6.015625 14.796875 -8.234375 C 14.410156 -5.921875 13.300781 -3.984375 11.46875 -2.421875 C 9.644531 -0.859375 7.53125 -0.0507812 5.125 0 L -0.359375 0 C -0.835938 0 -1.234375 -0.15625 -1.546875 -0.46875 C -1.859375 -0.78125 -2.015625 -1.175781 -2.015625 -1.65625 C -2.015625 -2.132812 -1.859375 -2.53125 -1.546875 -2.84375 C -1.234375 -3.164062 -0.835938 -3.328125 -0.359375 -3.328125 L 5.125 -3.328125 C 6.957031 -3.367188 8.507812 -4.050781 9.78125 -5.375 C 11.0625 -6.695312 11.703125 -8.25 11.703125 -10.03125 L 11.703125 -19.34375 C 11.703125 -23.34375 12.566406 -26.847656 14.296875 -29.859375 C 16.023438 -32.867188 18.429688 -35.203125 21.515625 -36.859375 C 24.597656 -38.515625 28.132812 -39.34375 32.125 -39.34375 Z M 32.125 -36.03125 C 28.757812 -36.03125 25.785156 -35.34375 23.203125 -33.96875 C 20.628906 -32.59375 18.617188 -30.664062 17.171875 -28.1875 C 15.734375 -25.71875 14.992188 -22.769531 14.953125 -19.34375 C 15.140625 -13.957031 16.785156 -9.941406 19.890625 -7.296875 C 22.992188 -4.648438 27.070312 -3.328125 32.125 -3.328125 C 35.5 -3.328125 38.472656 -3.953125 41.046875 -5.203125 C 43.617188 -6.453125 45.640625 -8.28125 47.109375 -10.6875 C 48.578125 -13.09375 49.3125 -15.976562 49.3125 -19.34375 C 49.3125 -22.71875 48.578125 -25.644531 47.109375 -28.125 C 45.640625 -30.601562 43.617188 -32.539062 41.046875 -33.9375 C 38.472656 -35.332031 35.5 -36.03125 32.125 -36.03125 Z M 32.125 -36.03125 "/></g></g></g></g></g></svg>