<svg xmlns="http://www.w3.org/2000/svg" xmlns:xlink="http://www.w3.org/1999/xlink" width="300" zoomAndPan="magnify" viewBox="0 0 224.87999 44.999999" height="60" preserveAspectRatio="xMidYMid meet" version="1.0"><defs><g/><clipPath id="5fe7c37557"><path d="M 186.921875 11.039062 L 213.90625 11.039062 L 213.90625 37.277344 L 186.921875 37.277344 Z M 186.921875 11.039062 " clip-rule="nonzero"/></clipPath><clipPath id="c5d4f146ca"><path d="M 198.640625 18.976562 L 204.898438 18.976562 L 204.898438 25.234375 L 198.640625 25.234375 Z M 198.640625 18.976562 " clip-rule="nonzero"/></clipPath><clipPath id="c136ec61ca"><path d="M 201.769531 18.976562 C 200.042969 18.976562 198.640625 20.378906 198.640625 22.105469 C 198.640625 23.835938 200.042969 25.234375 201.769531 25.234375 C 203.5 25.234375 204.898438 23.835938 204.898438 22.105469 C 204.898438 20.378906 203.5 18.976562 201.769531 18.976562 Z M 201.769531 18.976562 " clip-rule="nonzero"/></clipPath><clipPath id="8857c917f2"><path d="M 0.640625 0.976562 L 6.898438 0.976562 L 6.898438 7.234375 L 0.640625 7.234375 Z M 0.640625 0.976562 " clip-rule="nonzero"/></clipPath><clipPath id="0713c1499a"><path d="M 3.769531 0.976562 C 2.042969 0.976562 0.640625 2.378906 0.640625 4.105469 C 0.640625 5.835938 2.042969 7.234375 3.769531 7.234375 C 5.5 7.234375 6.898438 5.835938 6.898438 4.105469 C 6.898438 2.378906 5.5 0.976562 3.769531 0.976562 Z M 3.769531 0.976562 " clip-rule="nonzero"/></clipPath><clipPath id="e9935512ac"><rect x="0" width="7" y="0" height="8"/></clipPath><clipPath id="71d4325eff"><path d="M 198 17 L 209 17 L 209 27 L 198 27 Z M 198 17 " clip-rule="nonzero"/></clipPath><clipPath id="a7594e84e0"><path d="M 198.644531 22.164062 L 203.351562 17.335938 L 208.183594 22.046875 L 203.472656 26.875 Z M 198.644531 22.164062 " clip-rule="nonzero"/></clipPath><clipPath id="9c77d89fbf"><path d="M 1 3 L 10.207031 3 L 10.207031 7 L 1 7 Z M 1 3 " clip-rule="nonzero"/></clipPath><clipPath id="7e6cb02300"><path d="M 0.644531 5.164062 L 5.351562 0.335938 L 10.183594 5.046875 L 5.472656 9.875 Z M 0.644531 5.164062 " clip-rule="nonzero"/></clipPath><clipPath id="1cf2105eac"><path d="M 5.523438 0.160156 L 0.816406 4.988281 L 5.644531 9.699219 L 10.355469 4.871094 Z M 5.523438 0.160156 " clip-rule="nonzero"/></clipPath><clipPath id="95c9a7089f"><path d="M 5.523438 0.160156 L 0.816406 4.988281 L 5.644531 9.699219 L 10.355469 4.871094 Z M 5.523438 0.160156 " clip-rule="nonzero"/></clipPath><clipPath id="4616d0e490"><rect x="0" width="11" y="0" height="10"/></clipPath><clipPath id="fb748239dc"><rect x="0" width="157" y="0" height="23"/></clipPath><clipPath id="238555ce4a"><path d="M 0.269531 3 L 4 3 L 4 8 L 0.269531 8 Z M 0.269531 3 " clip-rule="nonzero"/></clipPath><clipPath id="578abe7c33"><rect x="0" width="155" y="0" height="10"/></clipPath></defs><g clip-path="url(#5fe7c37557)"><path fill="#ffffff" d="M 213.675781 21.988281 L 202.488281 11.398438 C 202.296875 11.21875 202.070312 11.128906 201.8125 11.128906 C 201.550781 11.128906 201.324219 11.21875 201.136719 11.398438 L 194.046875 18.109375 L 193.871094 17.933594 C 193.773438 17.839844 193.660156 17.796875 193.523438 17.796875 C 193.390625 17.796875 193.277344 17.847656 193.183594 17.941406 C 193.089844 18.035156 193.039062 18.148438 193.039062 18.28125 C 193.039062 18.414062 193.082031 18.53125 193.175781 18.628906 L 194.894531 20.347656 C 194.992188 20.445312 195.109375 20.492188 195.242188 20.492188 C 195.378906 20.492188 195.496094 20.441406 195.589844 20.347656 C 195.6875 20.25 195.734375 20.136719 195.734375 20 C 195.734375 19.867188 195.6875 19.75 195.589844 19.652344 L 195.4375 19.5 L 201.8125 13.464844 L 210.53125 21.71875 L 209.191406 21.71875 C 208.921875 21.71875 208.6875 21.8125 208.496094 22.007812 C 208.304688 22.199219 208.207031 22.429688 208.207031 22.703125 L 208.207031 35.578125 L 205.269531 35.578125 L 205.269531 27.992188 C 205.269531 27.71875 205.175781 27.488281 204.984375 27.296875 C 204.789062 27.101562 204.558594 27.007812 204.289062 27.007812 L 199.96875 27.007812 C 199.695312 27.007812 199.464844 27.101562 199.273438 27.296875 C 199.082031 27.488281 198.984375 27.71875 198.984375 27.992188 L 198.984375 35.578125 L 193.40625 35.578125 L 193.40625 33.867188 L 195.710938 33.867188 C 195.980469 33.867188 196.214844 33.769531 196.40625 33.578125 C 196.597656 33.386719 196.695312 33.15625 196.695312 32.882812 L 196.695312 27.992188 C 196.695312 27.71875 196.597656 27.488281 196.40625 27.296875 C 196.214844 27.101562 195.980469 27.007812 195.710938 27.007812 L 194.175781 27.007812 L 194.175781 27 C 194.175781 26.71875 194.054688 26.503906 193.816406 26.355469 L 193.816406 25.648438 L 194.527344 25.648438 C 194.636719 25.773438 194.777344 25.839844 194.941406 25.847656 C 195.105469 25.855469 195.25 25.800781 195.371094 25.6875 C 195.488281 25.570312 195.550781 25.429688 195.550781 25.265625 C 195.550781 25.097656 195.488281 24.960938 195.371094 24.84375 C 195.25 24.730469 195.105469 24.675781 194.941406 24.683594 C 194.777344 24.691406 194.636719 24.757812 194.527344 24.878906 L 193.816406 24.878906 L 193.816406 24.640625 C 193.816406 24.476562 193.757812 24.332031 193.640625 24.214844 C 193.523438 24.097656 193.378906 24.039062 193.214844 24.039062 C 193.046875 24.039062 192.90625 24.097656 192.789062 24.214844 C 192.671875 24.332031 192.613281 24.476562 192.613281 24.640625 L 192.613281 24.878906 L 191.898438 24.878906 C 191.789062 24.757812 191.652344 24.691406 191.488281 24.683594 C 191.320312 24.675781 191.179688 24.730469 191.058594 24.84375 C 190.9375 24.960938 190.878906 25.097656 190.878906 25.265625 C 190.878906 25.429688 190.9375 25.570312 191.058594 25.6875 C 191.179688 25.800781 191.320312 25.855469 191.488281 25.847656 C 191.652344 25.839844 191.789062 25.773438 191.898438 25.648438 L 192.613281 25.648438 L 192.613281 26.238281 L 191.429688 26.238281 C 191.222656 26.238281 191.042969 26.3125 190.894531 26.460938 C 190.746094 26.609375 190.671875 26.789062 190.671875 27 L 190.671875 27.007812 L 189.792969 27.007812 C 189.507812 27.007812 189.234375 27.0625 188.972656 27.171875 C 188.710938 27.277344 188.480469 27.433594 188.277344 27.632812 C 188.078125 27.835938 187.921875 28.066406 187.8125 28.328125 C 187.703125 28.589844 187.652344 28.863281 187.652344 29.148438 L 187.652344 29.894531 L 187.417969 29.894531 C 187.28125 29.894531 187.164062 29.945312 187.070312 30.039062 C 186.972656 30.136719 186.925781 30.25 186.925781 30.386719 C 186.925781 30.523438 186.972656 30.640625 187.070312 30.734375 C 187.164062 30.832031 187.28125 30.878906 187.417969 30.878906 L 189.851562 30.878906 C 189.988281 30.878906 190.101562 30.832031 190.199219 30.734375 C 190.292969 30.640625 190.34375 30.523438 190.34375 30.386719 C 190.34375 30.25 190.292969 30.136719 190.199219 30.039062 C 190.101562 29.945312 189.988281 29.894531 189.851562 29.894531 L 189.617188 29.894531 L 189.617188 29.148438 C 189.617188 29.03125 189.675781 28.972656 189.792969 28.972656 L 190.671875 28.972656 L 190.671875 28.980469 C 190.671875 29.191406 190.746094 29.371094 190.894531 29.519531 C 191.042969 29.667969 191.222656 29.742188 191.429688 29.742188 L 193.414062 29.742188 C 193.625 29.742188 193.804688 29.667969 193.953125 29.519531 C 194.101562 29.371094 194.175781 29.191406 194.175781 28.980469 L 194.175781 28.972656 L 194.726562 28.972656 L 194.726562 31.902344 L 192.421875 31.902344 C 192.152344 31.902344 191.917969 31.996094 191.726562 32.1875 C 191.535156 32.382812 191.4375 32.613281 191.4375 32.882812 L 191.4375 36.5625 C 191.4375 36.832031 191.535156 37.066406 191.726562 37.257812 C 191.917969 37.449219 192.152344 37.546875 192.421875 37.546875 L 199.96875 37.546875 C 200.238281 37.546875 200.472656 37.449219 200.664062 37.257812 C 200.855469 37.066406 200.949219 36.832031 200.949219 36.5625 L 200.949219 28.972656 L 203.304688 28.972656 L 203.304688 36.5625 C 203.304688 36.832031 203.402344 37.066406 203.59375 37.257812 C 203.785156 37.449219 204.015625 37.546875 204.289062 37.546875 L 209.191406 37.546875 C 209.464844 37.546875 209.695312 37.449219 209.886719 37.257812 C 210.078125 37.066406 210.175781 36.832031 210.175781 36.5625 L 210.175781 23.683594 L 213 23.683594 C 213.203125 23.683594 213.386719 23.628906 213.554688 23.515625 C 213.71875 23.402344 213.839844 23.253906 213.914062 23.066406 C 213.988281 22.878906 214.003906 22.6875 213.960938 22.488281 C 213.917969 22.292969 213.824219 22.125 213.675781 21.988281 Z M 213.675781 21.988281 " fill-opacity="1" fill-rule="nonzero"/></g><path fill="#ffffff" d="M 188.652344 31.445312 C 188.652344 31.445312 188.648438 31.445312 188.648438 31.445312 C 188.648438 31.4375 188.640625 31.433594 188.632812 31.433594 C 188.625 31.433594 188.621094 31.4375 188.617188 31.445312 C 188.519531 31.617188 188.378906 31.878906 188.230469 32.203125 C 187.816406 33.109375 187.601562 33.601562 187.878906 34.019531 C 187.898438 34.046875 188.171875 34.445312 188.617188 34.457031 C 188.621094 34.457031 188.628906 34.457031 188.632812 34.457031 C 188.640625 34.457031 188.644531 34.457031 188.652344 34.457031 C 189.09375 34.445312 189.367188 34.046875 189.386719 34.019531 C 189.664062 33.601562 189.453125 33.109375 189.039062 32.203125 C 188.890625 31.878906 188.75 31.617188 188.652344 31.445312 Z M 188.652344 31.445312 " fill-opacity="1" fill-rule="nonzero"/><g clip-path="url(#c5d4f146ca)"><g clip-path="url(#c136ec61ca)"><g transform="matrix(1, 0, 0, 1, 198, 18)"><g clip-path="url(#e9935512ac)"><g clip-path="url(#8857c917f2)"><g clip-path="url(#0713c1499a)"><path fill="#060e1c" d="M 0.640625 0.976562 L 6.898438 0.976562 L 6.898438 7.234375 L 0.640625 7.234375 Z M 0.640625 0.976562 " fill-opacity="1" fill-rule="nonzero"/></g></g></g></g></g></g><g clip-path="url(#71d4325eff)"><g clip-path="url(#a7594e84e0)"><g transform="matrix(1, 0, 0, 1, 198, 17)"><g clip-path="url(#4616d0e490)"><g clip-path="url(#9c77d89fbf)"><g clip-path="url(#7e6cb02300)"><g clip-path="url(#1cf2105eac)"><g clip-path="url(#95c9a7089f)"><path fill="#ffffff" d="M 9.847656 5.050781 C 9.847656 4.882812 9.710938 4.753906 9.546875 4.753906 C 9.378906 4.757812 9.246094 4.890625 9.25 5.058594 C 9.25 5.222656 9.386719 5.355469 9.554688 5.355469 C 9.71875 5.351562 9.851562 5.214844 9.847656 5.050781 Z M 2.699219 6.519531 C 2.21875 6.527344 1.789062 6.285156 1.539062 5.914062 C 1.5 5.859375 1.539062 5.785156 1.605469 5.785156 L 2.496094 5.773438 C 2.601562 5.773438 2.6875 5.683594 2.6875 5.578125 L 2.683594 5.140625 L 2.675781 4.703125 C 2.675781 4.59375 2.585938 4.507812 2.480469 4.511719 L 1.589844 4.523438 C 1.523438 4.523438 1.484375 4.449219 1.519531 4.394531 C 1.761719 4.019531 2.183594 3.765625 2.664062 3.761719 C 3.046875 3.753906 3.398438 3.90625 3.652344 4.15625 C 3.96875 4.46875 4.402344 4.632812 4.84375 4.617188 L 9.503906 4.421875 C 9.515625 4.421875 9.53125 4.421875 9.542969 4.421875 C 9.890625 4.417969 10.175781 4.695312 10.179688 5.046875 C 10.1875 5.394531 9.90625 5.683594 9.558594 5.6875 C 9.546875 5.6875 9.535156 5.6875 9.519531 5.683594 L 4.859375 5.609375 C 4.414062 5.601562 3.984375 5.777344 3.675781 6.097656 C 3.429688 6.355469 3.082031 6.515625 2.699219 6.519531 " fill-opacity="1" fill-rule="nonzero"/></g></g></g></g></g></g></g></g><g transform="matrix(1, 0, 0, 1, 14, 11)"><g clip-path="url(#fb748239dc)"><g fill="#ffffff" fill-opacity="1"><g transform="translate(0.71239, 15.332598)"><g><path d="M 0.46875 0 Z M 7.734375 -1.421875 L 7.734375 0 L 3.609375 0 C 2.835938 0 2.226562 -0.078125 1.78125 -0.234375 C 1.332031 -0.398438 1 -0.703125 0.78125 -1.140625 C 0.570312 -1.578125 0.46875 -2.207031 0.46875 -3.03125 C 0.46875 -3.820312 0.566406 -4.425781 0.765625 -4.84375 C 0.972656 -5.257812 1.300781 -5.550781 1.75 -5.71875 C 2.207031 -5.882812 2.84375 -5.96875 3.65625 -5.96875 C 4.09375 -5.96875 4.613281 -5.953125 5.21875 -5.921875 C 5.832031 -5.890625 6.265625 -5.851562 6.515625 -5.8125 L 6.515625 -1.421875 Z M 2.03125 -3.03125 C 2.03125 -2.59375 2.085938 -2.257812 2.203125 -2.03125 C 2.316406 -1.800781 2.488281 -1.640625 2.71875 -1.546875 C 2.957031 -1.460938 3.28125 -1.421875 3.6875 -1.421875 L 4.953125 -1.421875 L 4.953125 -4.484375 C 4.554688 -4.523438 4.144531 -4.546875 3.71875 -4.546875 C 3.289062 -4.546875 2.957031 -4.5 2.71875 -4.40625 C 2.476562 -4.320312 2.300781 -4.171875 2.1875 -3.953125 C 2.082031 -3.742188 2.03125 -3.4375 2.03125 -3.03125 Z M 2.3125 -8.390625 L 3.515625 -8.390625 L 3.515625 -6.9375 L 2.3125 -6.9375 Z M 4.09375 -8.390625 L 5.296875 -8.390625 L 5.296875 -6.9375 L 4.09375 -6.9375 Z M 4.09375 -8.390625 "/></g></g></g><g fill="#ffffff" fill-opacity="1"><g transform="translate(8.444173, 15.332598)"><g><path d="M 0 0 Z M 5.0625 -1.421875 L 5.0625 0 L 0 0 L 0 -1.421875 L 1.75 -1.421875 L 1.75 -5.84375 L 3.3125 -5.84375 L 3.3125 -1.421875 Z M 1.015625 0.9375 L 2.21875 0.9375 L 2.21875 2.40625 L 1.015625 2.40625 Z M 2.796875 0.9375 L 4 0.9375 L 4 2.40625 L 2.796875 2.40625 Z M 2.796875 0.9375 "/></g></g></g><g fill="#ffffff" fill-opacity="1"><g transform="translate(13.509017, 15.332598)"><g><path d="M 3 -8.1875 L 3 0 L 0 0 L 0 -1.421875 L 1.4375 -1.421875 L 1.4375 -8.1875 Z M 3 -8.1875 "/></g></g></g><g fill="#ffffff" fill-opacity="1"><g transform="translate(17.450878, 15.332598)"><g><path d="M 0.46875 0 Z M 5.203125 0 L 3.28125 0 C 3.269531 0.914062 3.101562 1.628906 2.78125 2.140625 C 2.457031 2.648438 1.972656 2.90625 1.328125 2.90625 C 1.222656 2.90625 0.9375 2.890625 0.46875 2.859375 L 0.46875 1.453125 L 0.859375 1.46875 C 1.140625 1.46875 1.347656 1.359375 1.484375 1.140625 C 1.628906 0.921875 1.703125 0.609375 1.703125 0.203125 L 1.703125 -5.84375 L 3.28125 -5.84375 L 3.28125 -1.421875 L 5.203125 -1.421875 Z M 1.765625 -8.453125 L 3.21875 -8.453125 L 3.21875 -6.9375 L 1.765625 -6.9375 Z M 1.765625 -8.453125 "/></g></g></g><g fill="#ffffff" fill-opacity="1"><g transform="translate(22.656087, 15.332598)"><g><path d="M 0 0 Z M 5.0625 -1.421875 L 5.0625 0 L 0 0 L 0 -1.421875 L 1.75 -1.421875 L 1.75 -5.84375 L 3.3125 -5.84375 L 3.3125 -1.421875 Z M 1.78125 -8.453125 L 3.234375 -8.453125 L 3.234375 -6.9375 L 1.78125 -6.9375 Z M 1.78125 -8.453125 "/></g></g></g><g fill="#ffffff" fill-opacity="1"><g transform="translate(27.720931, 15.332598)"><g><path d="M 8.640625 -1.421875 L 8.640625 0 L 8 0 C 7.863281 0 7.734375 -0.046875 7.609375 -0.140625 C 7.492188 -0.234375 7.410156 -0.351562 7.359375 -0.5 L 7.359375 0 L 0 0 L 0 -1.421875 L 1.828125 -1.421875 C 1.710938 -1.984375 1.65625 -2.476562 1.65625 -2.90625 C 1.65625 -3.34375 1.695312 -3.804688 1.78125 -4.296875 C 1.875 -4.785156 1.972656 -5.210938 2.078125 -5.578125 C 2.296875 -5.671875 2.609375 -5.753906 3.015625 -5.828125 C 3.429688 -5.910156 3.894531 -5.953125 4.40625 -5.953125 C 5.207031 -5.953125 5.820312 -5.832031 6.25 -5.59375 C 6.6875 -5.363281 6.976562 -5.035156 7.125 -4.609375 C 7.28125 -4.179688 7.359375 -3.617188 7.359375 -2.921875 L 7.359375 -1.9375 C 7.410156 -1.78125 7.492188 -1.65625 7.609375 -1.5625 C 7.734375 -1.46875 7.863281 -1.421875 8 -1.421875 Z M 3.1875 -2.90625 C 3.1875 -2.644531 3.203125 -2.375 3.234375 -2.09375 C 3.265625 -1.820312 3.300781 -1.597656 3.34375 -1.421875 L 5.796875 -1.421875 L 5.796875 -2.953125 C 5.796875 -3.503906 5.6875 -3.90625 5.46875 -4.15625 C 5.257812 -4.414062 4.847656 -4.546875 4.234375 -4.546875 C 3.941406 -4.546875 3.644531 -4.515625 3.34375 -4.453125 C 3.238281 -3.867188 3.1875 -3.351562 3.1875 -2.90625 Z M 3.1875 -2.90625 "/></g></g></g><g fill="#ffffff" fill-opacity="1"><g transform="translate(36.353388, 15.332598)"><g><path d="M 3 -8.1875 L 3 0 L 0 0 L 0 -1.421875 L 1.4375 -1.421875 L 1.4375 -8.1875 Z M 3 -8.1875 "/></g></g></g><g fill="#ffffff" fill-opacity="1"><g transform="translate(40.295252, 15.332598)"><g><path d="M 0.9375 -8.1875 L 2.5 -8.1875 L 2.5 0 L 0.9375 0 Z M 0.9375 -8.1875 "/></g></g></g><g fill="#ffffff" fill-opacity="1"><g transform="translate(43.851115, 15.332598)"><g/></g></g><g fill="#ffffff" fill-opacity="1"><g transform="translate(46.424434, 15.332598)"><g><path d="M 0.625 0 Z M 9.03125 -5.84375 L 9.03125 0 L 3.984375 0 C 3.296875 0 2.71875 -0.046875 2.25 -0.140625 C 1.78125 -0.242188 1.390625 -0.457031 1.078125 -0.78125 C 0.773438 -1.113281 0.625 -1.609375 0.625 -2.265625 C 0.625 -2.597656 0.660156 -2.976562 0.734375 -3.40625 C 0.816406 -3.84375 0.90625 -4.238281 1 -4.59375 L 2.265625 -4.53125 L 2.171875 -3.796875 C 2.097656 -3.222656 2.0625 -2.832031 2.0625 -2.625 C 2.0625 -1.820312 2.640625 -1.421875 3.796875 -1.421875 L 7.46875 -1.421875 L 7.46875 -5.84375 Z M 3.421875 -7.3125 L 4.625 -7.3125 L 4.625 -5.859375 L 3.421875 -5.859375 Z M 5.203125 -7.3125 L 6.40625 -7.3125 L 6.40625 -5.859375 L 5.203125 -5.859375 Z M 5.203125 -7.3125 "/></g></g></g><g fill="#ffffff" fill-opacity="1"><g transform="translate(56.273239, 15.332598)"><g><path d="M 3.65625 -1.421875 L 3.65625 0 L 0.9375 0 L 0.9375 -8.1875 L 2.5 -8.1875 L 2.5 -1.421875 Z M 3.65625 -1.421875 "/></g></g></g><g fill="#ffffff" fill-opacity="1"><g transform="translate(59.922734, 15.332598)"><g><path d="M 4.40625 -5.953125 C 5.207031 -5.953125 5.820312 -5.832031 6.25 -5.59375 C 6.6875 -5.363281 6.976562 -5.035156 7.125 -4.609375 C 7.28125 -4.179688 7.359375 -3.617188 7.359375 -2.921875 L 7.359375 0 L 0 0 L 0 -1.421875 L 1.828125 -1.421875 C 1.710938 -1.984375 1.65625 -2.476562 1.65625 -2.90625 C 1.65625 -3.34375 1.695312 -3.804688 1.78125 -4.296875 C 1.875 -4.785156 1.972656 -5.210938 2.078125 -5.578125 C 2.296875 -5.671875 2.609375 -5.753906 3.015625 -5.828125 C 3.429688 -5.910156 3.894531 -5.953125 4.40625 -5.953125 Z M 3.1875 -2.90625 C 3.1875 -2.644531 3.203125 -2.375 3.234375 -2.09375 C 3.265625 -1.820312 3.300781 -1.597656 3.34375 -1.421875 L 5.796875 -1.421875 L 5.796875 -2.953125 C 5.796875 -3.503906 5.6875 -3.90625 5.46875 -4.15625 C 5.257812 -4.414062 4.847656 -4.546875 4.234375 -4.546875 C 3.941406 -4.546875 3.644531 -4.515625 3.34375 -4.453125 C 3.238281 -3.867188 3.1875 -3.351562 3.1875 -2.90625 Z M 3.1875 -2.90625 "/></g></g></g><g fill="#ffffff" fill-opacity="1"><g transform="translate(67.864943, 15.332598)"><g><path d="M 7.015625 -1.421875 L 7.015625 0 L 0.46875 0 L 0.46875 -1.421875 L 4.21875 -1.421875 L 4.21875 -1.84375 C 4.21875 -2.863281 4.023438 -3.585938 3.640625 -4.015625 C 3.265625 -4.453125 2.8125 -4.671875 2.28125 -4.671875 L 1.09375 -4.671875 L 0.984375 -5.890625 C 1.222656 -5.953125 1.492188 -6.003906 1.796875 -6.046875 C 2.109375 -6.097656 2.394531 -6.125 2.65625 -6.125 C 3.28125 -6.125 3.828125 -5.96875 4.296875 -5.65625 C 4.773438 -5.351562 5.144531 -4.890625 5.40625 -4.265625 C 5.664062 -3.648438 5.796875 -2.894531 5.796875 -2 L 5.796875 -1.421875 Z M 7.015625 -1.421875 "/></g></g></g><g fill="#ffffff" fill-opacity="1"><g transform="translate(74.871506, 15.332598)"><g><path d="M 0 0 Z M 7.1875 -1.421875 L 7.1875 0 L 0 0 L 0 -1.421875 L 4.40625 -1.421875 L 4.40625 -3.625 C 4.40625 -3.957031 4.332031 -4.207031 4.1875 -4.375 C 4.050781 -4.550781 3.804688 -4.640625 3.453125 -4.640625 C 2.734375 -4.609375 2.109375 -4.582031 1.578125 -4.5625 L 0.984375 -4.546875 L 0.9375 -5.578125 C 1.34375 -5.691406 1.832031 -5.785156 2.40625 -5.859375 C 2.988281 -5.929688 3.476562 -5.96875 3.875 -5.96875 C 4.601562 -5.96875 5.132812 -5.8125 5.46875 -5.5 C 5.800781 -5.195312 5.972656 -4.707031 5.984375 -4.03125 L 5.984375 -1.421875 Z M 2.890625 -8.453125 L 4.34375 -8.453125 L 4.34375 -6.9375 L 2.890625 -6.9375 Z M 2.890625 -8.453125 "/></g></g></g><g fill="#ffffff" fill-opacity="1"><g transform="translate(82.05352, 15.332598)"><g><path d="M 4.234375 -1.421875 L 4.234375 0 L 0 0 L 0 -1.421875 L 1.4375 -1.421875 L 1.4375 -8.1875 L 3 -8.1875 L 3 -1.421875 Z M 4.234375 -1.421875 "/></g></g></g><g fill="#ffffff" fill-opacity="1"><g transform="translate(86.287868, 15.332598)"><g><path d="M 3 -8.1875 L 3 0 L 0 0 L 0 -1.421875 L 1.4375 -1.421875 L 1.4375 -8.1875 Z M 3 -8.1875 "/></g></g></g><g fill="#ffffff" fill-opacity="1"><g transform="translate(90.229733, 15.332598)"><g/></g></g><g fill="#ffffff" fill-opacity="1"><g transform="translate(92.803051, 15.332598)"><g><path d="M 3.890625 2.90625 C 3.234375 2.90625 2.644531 2.78125 2.125 2.53125 C 1.601562 2.289062 1.195312 1.957031 0.90625 1.53125 C 0.613281 1.113281 0.46875 0.648438 0.46875 0.140625 C 0.46875 -0.359375 0.609375 -1.476562 0.890625 -3.21875 L 2.359375 -3.140625 C 2.265625 -2.546875 2.175781 -1.925781 2.09375 -1.28125 C 2.019531 -0.644531 1.984375 -0.222656 1.984375 -0.015625 C 1.984375 0.253906 2.0625 0.503906 2.21875 0.734375 C 2.375 0.960938 2.59375 1.140625 2.875 1.265625 C 3.164062 1.398438 3.488281 1.46875 3.84375 1.46875 C 4.1875 1.46875 4.492188 1.398438 4.765625 1.265625 C 5.035156 1.140625 5.242188 0.960938 5.390625 0.734375 C 5.535156 0.503906 5.609375 0.257812 5.609375 0 L 5.609375 -8.1875 L 7.171875 -8.1875 L 7.171875 0.15625 C 7.171875 0.65625 7.035156 1.113281 6.765625 1.53125 C 6.492188 1.957031 6.109375 2.289062 5.609375 2.53125 C 5.117188 2.78125 4.546875 2.90625 3.890625 2.90625 Z M 3.890625 2.90625 "/></g></g></g><g fill="#ffffff" fill-opacity="1"><g transform="translate(100.909021, 15.332598)"><g><path d="M 0.46875 0 Z M 5.203125 0 L 3.28125 0 C 3.269531 0.914062 3.101562 1.628906 2.78125 2.140625 C 2.457031 2.648438 1.972656 2.90625 1.328125 2.90625 C 1.222656 2.90625 0.9375 2.890625 0.46875 2.859375 L 0.46875 1.453125 L 0.859375 1.46875 C 1.140625 1.46875 1.347656 1.359375 1.484375 1.140625 C 1.628906 0.921875 1.703125 0.609375 1.703125 0.203125 L 1.703125 -5.84375 L 3.28125 -5.84375 L 3.28125 -1.421875 L 5.203125 -1.421875 Z M 1.765625 -8.453125 L 3.21875 -8.453125 L 3.21875 -6.9375 L 1.765625 -6.9375 Z M 1.765625 -8.453125 "/></g></g></g><g fill="#ffffff" fill-opacity="1"><g transform="translate(106.11423, 15.332598)"><g><path d="M 0 0 Z M 5.0625 -1.421875 L 5.0625 0 L 0 0 L 0 -1.421875 L 1.75 -1.421875 L 1.75 -5.84375 L 3.3125 -5.84375 L 3.3125 -1.421875 Z M 1.78125 -8.453125 L 3.234375 -8.453125 L 3.234375 -6.9375 L 1.78125 -6.9375 Z M 1.78125 -8.453125 "/></g></g></g><g fill="#ffffff" fill-opacity="1"><g transform="translate(111.179067, 15.332598)"><g><path d="M 8.640625 -1.421875 L 8.640625 0 L 8 0 C 7.863281 0 7.734375 -0.046875 7.609375 -0.140625 C 7.492188 -0.234375 7.410156 -0.351562 7.359375 -0.5 L 7.359375 0 L 0 0 L 0 -1.421875 L 1.828125 -1.421875 C 1.710938 -1.984375 1.65625 -2.476562 1.65625 -2.90625 C 1.65625 -3.34375 1.695312 -3.804688 1.78125 -4.296875 C 1.875 -4.785156 1.972656 -5.210938 2.078125 -5.578125 C 2.296875 -5.671875 2.609375 -5.753906 3.015625 -5.828125 C 3.429688 -5.910156 3.894531 -5.953125 4.40625 -5.953125 C 5.207031 -5.953125 5.820312 -5.832031 6.25 -5.59375 C 6.6875 -5.363281 6.976562 -5.035156 7.125 -4.609375 C 7.28125 -4.179688 7.359375 -3.617188 7.359375 -2.921875 L 7.359375 -1.9375 C 7.410156 -1.78125 7.492188 -1.65625 7.609375 -1.5625 C 7.734375 -1.46875 7.863281 -1.421875 8 -1.421875 Z M 3.1875 -2.90625 C 3.1875 -2.644531 3.203125 -2.375 3.234375 -2.09375 C 3.265625 -1.820312 3.300781 -1.597656 3.34375 -1.421875 L 5.796875 -1.421875 L 5.796875 -2.953125 C 5.796875 -3.503906 5.6875 -3.90625 5.46875 -4.15625 C 5.257812 -4.414062 4.847656 -4.546875 4.234375 -4.546875 C 3.941406 -4.546875 3.644531 -4.515625 3.34375 -4.453125 C 3.238281 -3.867188 3.1875 -3.351562 3.1875 -2.90625 Z M 3.1875 -2.90625 "/></g></g></g><g fill="#ffffff" fill-opacity="1"><g transform="translate(119.811535, 15.332598)"><g><path d="M 3 -8.1875 L 3 0 L 0 0 L 0 -1.421875 L 1.4375 -1.421875 L 1.4375 -8.1875 Z M 3 -8.1875 "/></g></g></g><g fill="#ffffff" fill-opacity="1"><g transform="translate(123.753388, 15.332598)"><g><path d="M 0.9375 -8.1875 L 2.5 -8.1875 L 2.5 0 L 0.9375 0 Z M 0.9375 -8.1875 "/></g></g></g><g fill="#ffffff" fill-opacity="1"><g transform="translate(127.309251, 15.332598)"><g/></g></g><g fill="#ffffff" fill-opacity="1"><g transform="translate(129.882581, 15.332598)"><g><path d="M 1.328125 2.90625 C 1.222656 2.90625 0.9375 2.890625 0.46875 2.859375 L 0.46875 1.453125 L 0.859375 1.46875 C 1.140625 1.46875 1.347656 1.359375 1.484375 1.140625 C 1.628906 0.921875 1.703125 0.609375 1.703125 0.203125 L 1.703125 -5.84375 L 3.28125 -5.84375 L 3.28125 -0.0625 C 3.28125 0.863281 3.117188 1.585938 2.796875 2.109375 C 2.472656 2.640625 1.984375 2.90625 1.328125 2.90625 Z M 1.328125 2.90625 "/></g></g></g><g fill="#ffffff" fill-opacity="1"><g transform="translate(133.859524, 15.332598)"><g><path d="M 3.65625 -1.421875 L 3.65625 0 L 0.9375 0 L 0.9375 -8.1875 L 2.5 -8.1875 L 2.5 -1.421875 Z M 3.65625 -1.421875 "/></g></g></g><g fill="#ffffff" fill-opacity="1"><g transform="translate(137.509025, 15.332598)"><g><path d="M 8.640625 -1.421875 L 8.640625 0 L 8 0 C 7.863281 0 7.734375 -0.046875 7.609375 -0.140625 C 7.492188 -0.234375 7.410156 -0.351562 7.359375 -0.5 L 7.359375 0 L 0 0 L 0 -1.421875 L 1.828125 -1.421875 C 1.710938 -1.984375 1.65625 -2.476562 1.65625 -2.90625 C 1.65625 -3.34375 1.695312 -3.804688 1.78125 -4.296875 C 1.875 -4.785156 1.972656 -5.210938 2.078125 -5.578125 C 2.296875 -5.671875 2.609375 -5.753906 3.015625 -5.828125 C 3.429688 -5.910156 3.894531 -5.953125 4.40625 -5.953125 C 5.207031 -5.953125 5.820312 -5.832031 6.25 -5.59375 C 6.6875 -5.363281 6.976562 -5.035156 7.125 -4.609375 C 7.28125 -4.179688 7.359375 -3.617188 7.359375 -2.921875 L 7.359375 -1.9375 C 7.410156 -1.78125 7.492188 -1.65625 7.609375 -1.5625 C 7.734375 -1.46875 7.863281 -1.421875 8 -1.421875 Z M 3.1875 -2.90625 C 3.1875 -2.644531 3.203125 -2.375 3.234375 -2.09375 C 3.265625 -1.820312 3.300781 -1.597656 3.34375 -1.421875 L 5.796875 -1.421875 L 5.796875 -2.953125 C 5.796875 -3.503906 5.6875 -3.90625 5.46875 -4.15625 C 5.257812 -4.414062 4.847656 -4.546875 4.234375 -4.546875 C 3.941406 -4.546875 3.644531 -4.515625 3.34375 -4.453125 C 3.238281 -3.867188 3.1875 -3.351562 3.1875 -2.90625 Z M 3.1875 -2.90625 "/></g></g></g><g fill="#ffffff" fill-opacity="1"><g transform="translate(146.141482, 15.332598)"><g><path d="M 6.40625 -1.421875 L 6.40625 0 L 0 0 L 0 -1.421875 L 1.65625 -1.421875 C 1.394531 -1.890625 1.265625 -2.445312 1.265625 -3.09375 C 1.265625 -3.78125 1.410156 -4.34375 1.703125 -4.78125 C 1.992188 -5.21875 2.351562 -5.523438 2.78125 -5.703125 C 3.207031 -5.890625 3.632812 -5.984375 4.0625 -5.984375 C 4.351562 -5.984375 4.6875 -5.941406 5.0625 -5.859375 C 5.4375 -5.785156 5.765625 -5.675781 6.046875 -5.53125 L 5.984375 -4.0625 C 5.742188 -4.175781 5.453125 -4.285156 5.109375 -4.390625 C 4.765625 -4.503906 4.460938 -4.5625 4.203125 -4.5625 C 3.835938 -4.5625 3.515625 -4.441406 3.234375 -4.203125 C 2.960938 -3.972656 2.828125 -3.582031 2.828125 -3.03125 C 2.828125 -2.675781 2.882812 -2.363281 3 -2.09375 C 3.125 -1.820312 3.273438 -1.597656 3.453125 -1.421875 Z M 6.40625 -1.421875 "/></g></g></g><g fill="#ffffff" fill-opacity="1"><g transform="translate(152.890606, 15.332598)"><g><path d="M 0.375 0 Z M 0.9375 -8.1875 L 2.5 -8.1875 L 2.5 0 L 0.9375 0 Z M 3.078125 2.96875 L 0.515625 3.484375 L 0.375 2.921875 L 0.921875 2.796875 C 0.617188 2.535156 0.46875 2.21875 0.46875 1.84375 C 0.46875 1.519531 0.582031 1.238281 0.8125 1 C 1.039062 0.769531 1.332031 0.65625 1.6875 0.65625 C 1.988281 0.65625 2.296875 0.75 2.609375 0.9375 L 2.453125 1.640625 C 2.398438 1.597656 2.332031 1.5625 2.25 1.53125 C 2.164062 1.5 2.066406 1.484375 1.953125 1.484375 C 1.773438 1.484375 1.628906 1.539062 1.515625 1.65625 C 1.410156 1.769531 1.359375 1.910156 1.359375 2.078125 C 1.359375 2.296875 1.445312 2.472656 1.625 2.609375 L 2.90625 2.265625 Z M 3.078125 2.96875 "/></g></g></g></g></g><g transform="matrix(1, 0, 0, 1, 17, 29)"><g clip-path="url(#578abe7c33)"><g clip-path="url(#238555ce4a)"><g fill="#ffffff" fill-opacity="1"><g transform="translate(0.301716, 7.19643)"><g><path d="M 1.125 -1.953125 L 1.125 -0.40625 L 3.234375 -0.40625 L 3.234375 0 L 0.625 0 L 0.625 -4.15625 L 3.1875 -4.15625 L 3.1875 -3.75 L 1.125 -3.75 L 1.125 -2.359375 L 2.953125 -2.359375 L 2.953125 -1.953125 Z M 1.125 -1.953125 "/></g></g></g></g><g fill="#ffffff" fill-opacity="1"><g transform="translate(7.310215, 7.19643)"><g><path d="M 0.546875 0 L 0.546875 -3.140625 L 0.984375 -3.140625 L 0.984375 -2.671875 L 1.046875 -2.65625 C 1.148438 -2.832031 1.273438 -2.96875 1.421875 -3.0625 C 1.578125 -3.15625 1.757812 -3.203125 1.96875 -3.203125 C 2.21875 -3.203125 2.40625 -3.15625 2.53125 -3.0625 C 2.664062 -2.96875 2.769531 -2.816406 2.84375 -2.609375 L 2.90625 -2.609375 C 3.019531 -2.804688 3.15625 -2.953125 3.3125 -3.046875 C 3.46875 -3.148438 3.660156 -3.203125 3.890625 -3.203125 C 4.210938 -3.203125 4.453125 -3.113281 4.609375 -2.9375 C 4.773438 -2.757812 4.859375 -2.492188 4.859375 -2.140625 L 4.859375 0 L 4.390625 0 L 4.390625 -2.125 C 4.390625 -2.351562 4.335938 -2.519531 4.234375 -2.625 C 4.140625 -2.738281 3.988281 -2.796875 3.78125 -2.796875 C 3.53125 -2.796875 3.328125 -2.703125 3.171875 -2.515625 C 3.015625 -2.335938 2.9375 -2.039062 2.9375 -1.625 L 2.9375 0 L 2.46875 0 L 2.46875 -2.125 C 2.46875 -2.351562 2.421875 -2.519531 2.328125 -2.625 C 2.234375 -2.738281 2.078125 -2.796875 1.859375 -2.796875 C 1.609375 -2.796875 1.40625 -2.707031 1.25 -2.53125 C 1.09375 -2.351562 1.015625 -2.066406 1.015625 -1.671875 L 1.015625 0 Z M 0.546875 0 "/></g></g></g><g fill="#ffffff" fill-opacity="1"><g transform="translate(16.153473, 7.19643)"><g><path d="M 1.296875 0.0625 C 0.984375 0.0625 0.738281 -0.015625 0.5625 -0.171875 C 0.394531 -0.335938 0.3125 -0.570312 0.3125 -0.875 C 0.3125 -1.0625 0.347656 -1.21875 0.421875 -1.34375 C 0.503906 -1.46875 0.625 -1.570312 0.78125 -1.65625 C 0.945312 -1.738281 1.160156 -1.800781 1.421875 -1.84375 C 1.640625 -1.882812 1.804688 -1.925781 1.921875 -1.96875 C 2.046875 -2.019531 2.128906 -2.070312 2.171875 -2.125 C 2.210938 -2.1875 2.234375 -2.265625 2.234375 -2.359375 C 2.234375 -2.492188 2.179688 -2.597656 2.078125 -2.671875 C 1.984375 -2.753906 1.828125 -2.796875 1.609375 -2.796875 C 1.410156 -2.796875 1.238281 -2.753906 1.09375 -2.671875 C 0.945312 -2.597656 0.8125 -2.484375 0.6875 -2.328125 L 0.640625 -2.328125 L 0.40625 -2.640625 C 0.539062 -2.816406 0.707031 -2.953125 0.90625 -3.046875 C 1.113281 -3.148438 1.347656 -3.203125 1.609375 -3.203125 C 1.984375 -3.203125 2.257812 -3.117188 2.4375 -2.953125 C 2.613281 -2.796875 2.703125 -2.570312 2.703125 -2.28125 L 2.703125 -0.625 C 2.703125 -0.445312 2.773438 -0.359375 2.921875 -0.359375 C 2.972656 -0.359375 3.019531 -0.363281 3.0625 -0.375 L 3.109375 -0.375 L 3.15625 -0.046875 C 3.125 -0.0234375 3.078125 -0.0078125 3.015625 0 C 2.960938 0.0078125 2.90625 0.015625 2.84375 0.015625 C 2.675781 0.015625 2.546875 -0.0195312 2.453125 -0.09375 C 2.367188 -0.164062 2.3125 -0.273438 2.28125 -0.421875 L 2.234375 -0.4375 C 2.140625 -0.269531 2.015625 -0.144531 1.859375 -0.0625 C 1.710938 0.0195312 1.523438 0.0625 1.296875 0.0625 Z M 1.390625 -0.3125 C 1.566406 -0.3125 1.71875 -0.347656 1.84375 -0.421875 C 1.976562 -0.503906 2.078125 -0.617188 2.140625 -0.765625 C 2.210938 -0.910156 2.25 -1.082031 2.25 -1.28125 L 2.25 -1.671875 L 2.1875 -1.6875 C 2.125 -1.632812 2.039062 -1.59375 1.9375 -1.5625 C 1.832031 -1.53125 1.691406 -1.5 1.515625 -1.46875 C 1.335938 -1.445312 1.191406 -1.410156 1.078125 -1.359375 C 0.972656 -1.304688 0.894531 -1.238281 0.84375 -1.15625 C 0.800781 -1.082031 0.78125 -0.988281 0.78125 -0.875 C 0.78125 -0.6875 0.832031 -0.546875 0.9375 -0.453125 C 1.050781 -0.359375 1.203125 -0.3125 1.390625 -0.3125 Z M 1.390625 -0.3125 "/></g></g></g><g fill="#ffffff" fill-opacity="1"><g transform="translate(22.894581, 7.19643)"><g><path d="M 1.296875 0.0625 C 0.984375 0.0625 0.738281 -0.015625 0.5625 -0.171875 C 0.394531 -0.335938 0.3125 -0.570312 0.3125 -0.875 C 0.3125 -1.0625 0.347656 -1.21875 0.421875 -1.34375 C 0.503906 -1.46875 0.625 -1.570312 0.78125 -1.65625 C 0.945312 -1.738281 1.160156 -1.800781 1.421875 -1.84375 C 1.640625 -1.882812 1.804688 -1.925781 1.921875 -1.96875 C 2.046875 -2.019531 2.128906 -2.070312 2.171875 -2.125 C 2.210938 -2.1875 2.234375 -2.265625 2.234375 -2.359375 C 2.234375 -2.492188 2.179688 -2.597656 2.078125 -2.671875 C 1.984375 -2.753906 1.828125 -2.796875 1.609375 -2.796875 C 1.410156 -2.796875 1.238281 -2.753906 1.09375 -2.671875 C 0.945312 -2.597656 0.8125 -2.484375 0.6875 -2.328125 L 0.640625 -2.328125 L 0.40625 -2.640625 C 0.539062 -2.816406 0.707031 -2.953125 0.90625 -3.046875 C 1.113281 -3.148438 1.347656 -3.203125 1.609375 -3.203125 C 1.984375 -3.203125 2.257812 -3.117188 2.4375 -2.953125 C 2.613281 -2.796875 2.703125 -2.570312 2.703125 -2.28125 L 2.703125 -0.625 C 2.703125 -0.445312 2.773438 -0.359375 2.921875 -0.359375 C 2.972656 -0.359375 3.019531 -0.363281 3.0625 -0.375 L 3.109375 -0.375 L 3.15625 -0.046875 C 3.125 -0.0234375 3.078125 -0.0078125 3.015625 0 C 2.960938 0.0078125 2.90625 0.015625 2.84375 0.015625 C 2.675781 0.015625 2.546875 -0.0195312 2.453125 -0.09375 C 2.367188 -0.164062 2.3125 -0.273438 2.28125 -0.421875 L 2.234375 -0.4375 C 2.140625 -0.269531 2.015625 -0.144531 1.859375 -0.0625 C 1.710938 0.0195312 1.523438 0.0625 1.296875 0.0625 Z M 1.390625 -0.3125 C 1.566406 -0.3125 1.71875 -0.347656 1.84375 -0.421875 C 1.976562 -0.503906 2.078125 -0.617188 2.140625 -0.765625 C 2.210938 -0.910156 2.25 -1.082031 2.25 -1.28125 L 2.25 -1.671875 L 2.1875 -1.6875 C 2.125 -1.632812 2.039062 -1.59375 1.9375 -1.5625 C 1.832031 -1.53125 1.691406 -1.5 1.515625 -1.46875 C 1.335938 -1.445312 1.191406 -1.410156 1.078125 -1.359375 C 0.972656 -1.304688 0.894531 -1.238281 0.84375 -1.15625 C 0.800781 -1.082031 0.78125 -0.988281 0.78125 -0.875 C 0.78125 -0.6875 0.832031 -0.546875 0.9375 -0.453125 C 1.050781 -0.359375 1.203125 -0.3125 1.390625 -0.3125 Z M 1.390625 -0.3125 "/></g></g></g><g fill="#ffffff" fill-opacity="1"><g transform="translate(29.635689, 7.19643)"><g><path d="M 0.546875 0 L 0.546875 -3.140625 L 0.984375 -3.140625 L 0.984375 -2.640625 L 1.046875 -2.625 C 1.191406 -2.988281 1.46875 -3.171875 1.875 -3.171875 C 2.082031 -3.171875 2.242188 -3.128906 2.359375 -3.046875 L 2.234375 -2.65625 L 2.171875 -2.640625 C 2.054688 -2.703125 1.929688 -2.734375 1.796875 -2.734375 C 1.546875 -2.734375 1.351562 -2.640625 1.21875 -2.453125 C 1.082031 -2.265625 1.015625 -1.960938 1.015625 -1.546875 L 1.015625 0 Z M 0.546875 0 "/></g></g></g><g fill="#ffffff" fill-opacity="1"><g transform="translate(35.554711, 7.19643)"><g/></g></g><g fill="#ffffff" fill-opacity="1"><g transform="translate(40.478128, 7.19643)"><g><path d="M 3.75 0 L 3.21875 0 L 2.84375 -1.140625 L 1.0625 -1.140625 L 0.671875 0 L 0.171875 0 L 1.609375 -4.15625 L 2.296875 -4.15625 Z M 1.921875 -3.65625 L 1.203125 -1.546875 L 2.703125 -1.546875 L 1.984375 -3.65625 Z M 1.921875 -3.65625 "/></g></g></g><g fill="#ffffff" fill-opacity="1"><g transform="translate(47.845045, 7.19643)"><g><path d="M 1.25 0.0625 C 1.03125 0.0625 0.851562 0 0.71875 -0.125 C 0.59375 -0.25 0.53125 -0.4375 0.53125 -0.6875 L 0.53125 -4.40625 L 1 -4.40625 L 1 -0.71875 C 1 -0.59375 1.023438 -0.5 1.078125 -0.4375 C 1.128906 -0.382812 1.207031 -0.359375 1.3125 -0.359375 C 1.375 -0.359375 1.4375 -0.367188 1.5 -0.390625 L 1.546875 -0.375 L 1.59375 -0.015625 C 1.5625 0.00390625 1.515625 0.0195312 1.453125 0.03125 C 1.390625 0.0507812 1.320312 0.0625 1.25 0.0625 Z M 1.25 0.0625 "/></g></g></g><g fill="#ffffff" fill-opacity="1"><g transform="translate(52.976117, 7.19643)"><g><path d="M 1.921875 -1.8125 L 0.296875 -1.8125 L 0.296875 -2.234375 L 1.921875 -2.234375 Z M 1.921875 -1.8125 "/></g></g></g><g fill="#ffffff" fill-opacity="1"><g transform="translate(58.67895, 7.19643)"><g><path d="M 1.078125 0 L 0.625 0 L 0.625 -4.15625 L 1.359375 -4.15625 L 2.609375 -0.640625 L 2.671875 -0.640625 L 3.9375 -4.15625 L 4.640625 -4.15625 L 4.640625 0 L 4.171875 0 L 4.171875 -3.390625 L 4.09375 -3.40625 L 2.875 0 L 2.390625 0 L 1.15625 -3.40625 L 1.078125 -3.390625 Z M 1.078125 0 "/></g></g></g><g fill="#ffffff" fill-opacity="1"><g transform="translate(67.439715, 7.19643)"><g><path d="M 1.296875 0.0625 C 0.984375 0.0625 0.738281 -0.015625 0.5625 -0.171875 C 0.394531 -0.335938 0.3125 -0.570312 0.3125 -0.875 C 0.3125 -1.0625 0.347656 -1.21875 0.421875 -1.34375 C 0.503906 -1.46875 0.625 -1.570312 0.78125 -1.65625 C 0.945312 -1.738281 1.160156 -1.800781 1.421875 -1.84375 C 1.640625 -1.882812 1.804688 -1.925781 1.921875 -1.96875 C 2.046875 -2.019531 2.128906 -2.070312 2.171875 -2.125 C 2.210938 -2.1875 2.234375 -2.265625 2.234375 -2.359375 C 2.234375 -2.492188 2.179688 -2.597656 2.078125 -2.671875 C 1.984375 -2.753906 1.828125 -2.796875 1.609375 -2.796875 C 1.410156 -2.796875 1.238281 -2.753906 1.09375 -2.671875 C 0.945312 -2.597656 0.8125 -2.484375 0.6875 -2.328125 L 0.640625 -2.328125 L 0.40625 -2.640625 C 0.539062 -2.816406 0.707031 -2.953125 0.90625 -3.046875 C 1.113281 -3.148438 1.347656 -3.203125 1.609375 -3.203125 C 1.984375 -3.203125 2.257812 -3.117188 2.4375 -2.953125 C 2.613281 -2.796875 2.703125 -2.570312 2.703125 -2.28125 L 2.703125 -0.625 C 2.703125 -0.445312 2.773438 -0.359375 2.921875 -0.359375 C 2.972656 -0.359375 3.019531 -0.363281 3.0625 -0.375 L 3.109375 -0.375 L 3.15625 -0.046875 C 3.125 -0.0234375 3.078125 -0.0078125 3.015625 0 C 2.960938 0.0078125 2.90625 0.015625 2.84375 0.015625 C 2.675781 0.015625 2.546875 -0.0195312 2.453125 -0.09375 C 2.367188 -0.164062 2.3125 -0.273438 2.28125 -0.421875 L 2.234375 -0.4375 C 2.140625 -0.269531 2.015625 -0.144531 1.859375 -0.0625 C 1.710938 0.0195312 1.523438 0.0625 1.296875 0.0625 Z M 1.390625 -0.3125 C 1.566406 -0.3125 1.71875 -0.347656 1.84375 -0.421875 C 1.976562 -0.503906 2.078125 -0.617188 2.140625 -0.765625 C 2.210938 -0.910156 2.25 -1.082031 2.25 -1.28125 L 2.25 -1.671875 L 2.1875 -1.6875 C 2.125 -1.632812 2.039062 -1.59375 1.9375 -1.5625 C 1.832031 -1.53125 1.691406 -1.5 1.515625 -1.46875 C 1.335938 -1.445312 1.191406 -1.410156 1.078125 -1.359375 C 0.972656 -1.304688 0.894531 -1.238281 0.84375 -1.15625 C 0.800781 -1.082031 0.78125 -0.988281 0.78125 -0.875 C 0.78125 -0.6875 0.832031 -0.546875 0.9375 -0.453125 C 1.050781 -0.359375 1.203125 -0.3125 1.390625 -0.3125 Z M 1.390625 -0.3125 "/></g></g></g><g fill="#ffffff" fill-opacity="1"><g transform="translate(74.180823, 7.19643)"><g><path d="M 0.546875 0 L 0.546875 -3.140625 L 0.984375 -3.140625 L 0.984375 -2.640625 L 1.046875 -2.625 C 1.148438 -2.8125 1.28125 -2.953125 1.4375 -3.046875 C 1.601562 -3.148438 1.804688 -3.203125 2.046875 -3.203125 C 2.421875 -3.203125 2.691406 -3.101562 2.859375 -2.90625 C 3.023438 -2.71875 3.109375 -2.421875 3.109375 -2.015625 L 3.109375 0 L 2.65625 0 L 2.65625 -2.015625 C 2.65625 -2.203125 2.628906 -2.351562 2.578125 -2.46875 C 2.523438 -2.582031 2.445312 -2.664062 2.34375 -2.71875 C 2.25 -2.769531 2.117188 -2.796875 1.953125 -2.796875 C 1.671875 -2.796875 1.441406 -2.703125 1.265625 -2.515625 C 1.097656 -2.328125 1.015625 -2.023438 1.015625 -1.609375 L 1.015625 0 Z M 0.546875 0 "/></g></g></g><g fill="#ffffff" fill-opacity="1"><g transform="translate(81.288882, 7.19643)"><g><path d="M 2.515625 0 L 0.21875 0 L 0.21875 -0.40625 L 1.9375 -2.703125 L 1.921875 -2.765625 L 0.28125 -2.765625 L 0.28125 -3.140625 L 2.484375 -3.140625 L 2.484375 -2.734375 L 0.765625 -0.4375 L 0.78125 -0.375 L 2.515625 -0.375 Z M 2.515625 0 "/></g></g></g><g fill="#ffffff" fill-opacity="1"><g transform="translate(87.517965, 7.19643)"><g><path d="M 0.78125 -3.75 C 0.675781 -3.75 0.59375 -3.78125 0.53125 -3.84375 C 0.476562 -3.90625 0.453125 -3.984375 0.453125 -4.078125 C 0.453125 -4.171875 0.476562 -4.25 0.53125 -4.3125 C 0.59375 -4.375 0.675781 -4.40625 0.78125 -4.40625 C 0.875 -4.40625 0.953125 -4.375 1.015625 -4.3125 C 1.078125 -4.25 1.109375 -4.171875 1.109375 -4.078125 C 1.109375 -3.984375 1.078125 -3.90625 1.015625 -3.84375 C 0.953125 -3.78125 0.875 -3.75 0.78125 -3.75 Z M 0.546875 0 L 0.546875 -3.140625 L 1.015625 -3.140625 L 1.015625 0 Z M 0.546875 0 "/></g></g></g><g fill="#ffffff" fill-opacity="1"><g transform="translate(92.569388, 7.19643)"><g><path d="M 1.25 0.0625 C 1.03125 0.0625 0.851562 0 0.71875 -0.125 C 0.59375 -0.25 0.53125 -0.4375 0.53125 -0.6875 L 0.53125 -4.40625 L 1 -4.40625 L 1 -0.71875 C 1 -0.59375 1.023438 -0.5 1.078125 -0.4375 C 1.128906 -0.382812 1.207031 -0.359375 1.3125 -0.359375 C 1.375 -0.359375 1.4375 -0.367188 1.5 -0.390625 L 1.546875 -0.375 L 1.59375 -0.015625 C 1.5625 0.00390625 1.515625 0.0195312 1.453125 0.03125 C 1.390625 0.0507812 1.320312 0.0625 1.25 0.0625 Z M 1.25 0.0625 "/></g></g></g><g fill="#ffffff" fill-opacity="1"><g transform="translate(97.771574, 7.19643)"><g/></g></g><g fill="#ffffff" fill-opacity="1"><g transform="translate(102.694991, 7.19643)"><g><path d="M 1.8125 0.0625 C 1.550781 0.0625 1.316406 0.0234375 1.109375 -0.046875 C 0.898438 -0.117188 0.726562 -0.210938 0.59375 -0.328125 C 0.457031 -0.441406 0.351562 -0.566406 0.28125 -0.703125 L 0.546875 -1.03125 L 0.625 -1.03125 C 0.882812 -0.59375 1.28125 -0.375 1.8125 -0.375 C 2.125 -0.375 2.359375 -0.441406 2.515625 -0.578125 C 2.671875 -0.710938 2.75 -0.894531 2.75 -1.125 C 2.75 -1.257812 2.722656 -1.375 2.671875 -1.46875 C 2.617188 -1.5625 2.535156 -1.640625 2.421875 -1.703125 C 2.304688 -1.773438 2.148438 -1.835938 1.953125 -1.890625 L 1.46875 -2.015625 C 1.101562 -2.097656 0.832031 -2.234375 0.65625 -2.421875 C 0.488281 -2.617188 0.40625 -2.863281 0.40625 -3.15625 C 0.40625 -3.351562 0.457031 -3.535156 0.5625 -3.703125 C 0.664062 -3.867188 0.820312 -3.992188 1.03125 -4.078125 C 1.238281 -4.171875 1.484375 -4.21875 1.765625 -4.21875 C 2.078125 -4.21875 2.335938 -4.171875 2.546875 -4.078125 C 2.765625 -3.992188 2.941406 -3.863281 3.078125 -3.6875 L 2.828125 -3.375 L 2.765625 -3.375 C 2.640625 -3.519531 2.492188 -3.625 2.328125 -3.6875 C 2.171875 -3.757812 1.984375 -3.796875 1.765625 -3.796875 C 1.472656 -3.796875 1.253906 -3.738281 1.109375 -3.625 C 0.960938 -3.507812 0.890625 -3.351562 0.890625 -3.15625 C 0.890625 -2.96875 0.941406 -2.816406 1.046875 -2.703125 C 1.160156 -2.597656 1.34375 -2.515625 1.59375 -2.453125 L 2.09375 -2.34375 C 2.5 -2.238281 2.789062 -2.085938 2.96875 -1.890625 C 3.15625 -1.703125 3.25 -1.453125 3.25 -1.140625 C 3.25 -0.910156 3.195312 -0.703125 3.09375 -0.515625 C 2.988281 -0.335938 2.828125 -0.195312 2.609375 -0.09375 C 2.390625 0.0078125 2.125 0.0625 1.8125 0.0625 Z M 1.8125 0.0625 "/></g></g></g><g fill="#ffffff" fill-opacity="1"><g transform="translate(109.754693, 7.19643)"><g><path d="M 2.984375 -1.46875 L 0.828125 -1.46875 C 0.847656 -1.082031 0.941406 -0.800781 1.109375 -0.625 C 1.273438 -0.445312 1.507812 -0.359375 1.8125 -0.359375 C 2.03125 -0.359375 2.207031 -0.394531 2.34375 -0.46875 C 2.476562 -0.550781 2.585938 -0.675781 2.671875 -0.84375 L 2.734375 -0.84375 L 3.03125 -0.671875 C 2.9375 -0.441406 2.789062 -0.257812 2.59375 -0.125 C 2.394531 0 2.132812 0.0625 1.8125 0.0625 C 1.507812 0.0625 1.25 0.00390625 1.03125 -0.109375 C 0.8125 -0.234375 0.640625 -0.414062 0.515625 -0.65625 C 0.398438 -0.90625 0.34375 -1.207031 0.34375 -1.5625 C 0.34375 -1.925781 0.40625 -2.226562 0.53125 -2.46875 C 0.65625 -2.71875 0.820312 -2.898438 1.03125 -3.015625 C 1.25 -3.140625 1.5 -3.203125 1.78125 -3.203125 C 2.175781 -3.203125 2.488281 -3.085938 2.71875 -2.859375 C 2.945312 -2.628906 3.0625 -2.289062 3.0625 -1.84375 C 3.0625 -1.675781 3.054688 -1.5625 3.046875 -1.5 Z M 2.609375 -1.84375 C 2.597656 -2.175781 2.519531 -2.421875 2.375 -2.578125 C 2.238281 -2.734375 2.039062 -2.8125 1.78125 -2.8125 C 1.5 -2.8125 1.28125 -2.734375 1.125 -2.578125 C 0.96875 -2.421875 0.875 -2.175781 0.84375 -1.84375 Z M 2.609375 -1.84375 "/></g></g></g><g fill="#ffffff" fill-opacity="1"><g transform="translate(116.595361, 7.19643)"><g><path d="M 0.546875 0 L 0.546875 -3.140625 L 0.984375 -3.140625 L 0.984375 -2.640625 L 1.046875 -2.625 C 1.191406 -2.988281 1.46875 -3.171875 1.875 -3.171875 C 2.082031 -3.171875 2.242188 -3.128906 2.359375 -3.046875 L 2.234375 -2.65625 L 2.171875 -2.640625 C 2.054688 -2.703125 1.929688 -2.734375 1.796875 -2.734375 C 1.546875 -2.734375 1.351562 -2.640625 1.21875 -2.453125 C 1.082031 -2.265625 1.015625 -1.960938 1.015625 -1.546875 L 1.015625 0 Z M 0.546875 0 "/></g></g></g><g fill="#ffffff" fill-opacity="1"><g transform="translate(122.514384, 7.19643)"><g><path d="M 1.984375 0 L 1.34375 0 L 0.15625 -3.140625 L 0.65625 -3.140625 L 1.640625 -0.53125 L 1.703125 -0.53125 L 2.6875 -3.140625 L 3.171875 -3.140625 Z M 1.984375 0 "/></g></g></g><g fill="#ffffff" fill-opacity="1"><g transform="translate(129.33514, 7.19643)"><g><path d="M 0.78125 -3.75 C 0.675781 -3.75 0.59375 -3.78125 0.53125 -3.84375 C 0.476562 -3.90625 0.453125 -3.984375 0.453125 -4.078125 C 0.453125 -4.171875 0.476562 -4.25 0.53125 -4.3125 C 0.59375 -4.375 0.675781 -4.40625 0.78125 -4.40625 C 0.875 -4.40625 0.953125 -4.375 1.015625 -4.3125 C 1.078125 -4.25 1.109375 -4.171875 1.109375 -4.078125 C 1.109375 -3.984375 1.078125 -3.90625 1.015625 -3.84375 C 0.953125 -3.78125 0.875 -3.75 0.78125 -3.75 Z M 0.546875 0 L 0.546875 -3.140625 L 1.015625 -3.140625 L 1.015625 0 Z M 0.546875 0 "/></g></g></g><g fill="#ffffff" fill-opacity="1"><g transform="translate(134.386563, 7.19643)"><g><path d="M 1.796875 0.0625 C 1.523438 0.0625 1.273438 0 1.046875 -0.125 C 0.828125 -0.25 0.65625 -0.4375 0.53125 -0.6875 C 0.40625 -0.9375 0.34375 -1.226562 0.34375 -1.5625 C 0.34375 -1.90625 0.40625 -2.195312 0.53125 -2.4375 C 0.65625 -2.6875 0.828125 -2.875 1.046875 -3 C 1.273438 -3.132812 1.523438 -3.203125 1.796875 -3.203125 C 2.128906 -3.203125 2.394531 -3.140625 2.59375 -3.015625 C 2.789062 -2.890625 2.929688 -2.722656 3.015625 -2.515625 L 2.703125 -2.28125 L 2.640625 -2.28125 C 2.554688 -2.457031 2.445312 -2.582031 2.3125 -2.65625 C 2.1875 -2.738281 2.015625 -2.78125 1.796875 -2.78125 C 1.609375 -2.78125 1.441406 -2.734375 1.296875 -2.640625 C 1.148438 -2.554688 1.035156 -2.421875 0.953125 -2.234375 C 0.867188 -2.054688 0.828125 -1.832031 0.828125 -1.5625 C 0.828125 -1.300781 0.867188 -1.078125 0.953125 -0.890625 C 1.035156 -0.710938 1.148438 -0.578125 1.296875 -0.484375 C 1.441406 -0.398438 1.609375 -0.359375 1.796875 -0.359375 C 2.015625 -0.359375 2.195312 -0.40625 2.34375 -0.5 C 2.488281 -0.601562 2.601562 -0.757812 2.6875 -0.96875 L 2.734375 -0.96875 L 3.046875 -0.796875 C 2.960938 -0.523438 2.816406 -0.3125 2.609375 -0.15625 C 2.398438 -0.0078125 2.128906 0.0625 1.796875 0.0625 Z M 1.796875 0.0625 "/></g></g></g><g fill="#ffffff" fill-opacity="1"><g transform="translate(141.116293, 7.19643)"><g><path d="M 2.984375 -1.46875 L 0.828125 -1.46875 C 0.847656 -1.082031 0.941406 -0.800781 1.109375 -0.625 C 1.273438 -0.445312 1.507812 -0.359375 1.8125 -0.359375 C 2.03125 -0.359375 2.207031 -0.394531 2.34375 -0.46875 C 2.476562 -0.550781 2.585938 -0.675781 2.671875 -0.84375 L 2.734375 -0.84375 L 3.03125 -0.671875 C 2.9375 -0.441406 2.789062 -0.257812 2.59375 -0.125 C 2.394531 0 2.132812 0.0625 1.8125 0.0625 C 1.507812 0.0625 1.25 0.00390625 1.03125 -0.109375 C 0.8125 -0.234375 0.640625 -0.414062 0.515625 -0.65625 C 0.398438 -0.90625 0.34375 -1.207031 0.34375 -1.5625 C 0.34375 -1.925781 0.40625 -2.226562 0.53125 -2.46875 C 0.65625 -2.71875 0.820312 -2.898438 1.03125 -3.015625 C 1.25 -3.140625 1.5 -3.203125 1.78125 -3.203125 C 2.175781 -3.203125 2.488281 -3.085938 2.71875 -2.859375 C 2.945312 -2.628906 3.0625 -2.289062 3.0625 -1.84375 C 3.0625 -1.675781 3.054688 -1.5625 3.046875 -1.5 Z M 2.609375 -1.84375 C 2.597656 -2.175781 2.519531 -2.421875 2.375 -2.578125 C 2.238281 -2.734375 2.039062 -2.8125 1.78125 -2.8125 C 1.5 -2.8125 1.28125 -2.734375 1.125 -2.578125 C 0.96875 -2.421875 0.875 -2.175781 0.84375 -1.84375 Z M 2.609375 -1.84375 "/></g></g></g><g fill="#ffffff" fill-opacity="1"><g transform="translate(147.956961, 7.19643)"><g><path d="M 1.4375 0.0625 C 1.238281 0.0625 1.050781 0.0351562 0.875 -0.015625 C 0.707031 -0.0664062 0.566406 -0.140625 0.453125 -0.234375 C 0.335938 -0.328125 0.257812 -0.429688 0.21875 -0.546875 L 0.484375 -0.828125 L 0.546875 -0.828125 C 0.648438 -0.671875 0.769531 -0.550781 0.90625 -0.46875 C 1.050781 -0.394531 1.226562 -0.359375 1.4375 -0.359375 C 1.664062 -0.359375 1.835938 -0.398438 1.953125 -0.484375 C 2.078125 -0.578125 2.140625 -0.707031 2.140625 -0.875 C 2.140625 -0.988281 2.101562 -1.085938 2.03125 -1.171875 C 1.957031 -1.253906 1.835938 -1.316406 1.671875 -1.359375 L 1.140625 -1.484375 C 0.859375 -1.554688 0.648438 -1.664062 0.515625 -1.8125 C 0.390625 -1.957031 0.328125 -2.140625 0.328125 -2.359375 C 0.328125 -2.523438 0.367188 -2.671875 0.453125 -2.796875 C 0.546875 -2.929688 0.675781 -3.03125 0.84375 -3.09375 C 1.007812 -3.164062 1.203125 -3.203125 1.421875 -3.203125 C 1.710938 -3.203125 1.941406 -3.160156 2.109375 -3.078125 C 2.273438 -2.992188 2.40625 -2.878906 2.5 -2.734375 L 2.234375 -2.484375 L 2.171875 -2.484375 C 2.078125 -2.597656 1.96875 -2.679688 1.84375 -2.734375 C 1.726562 -2.785156 1.585938 -2.8125 1.421875 -2.8125 C 1.210938 -2.8125 1.050781 -2.773438 0.9375 -2.703125 C 0.832031 -2.628906 0.78125 -2.519531 0.78125 -2.375 C 0.78125 -2.25 0.816406 -2.144531 0.890625 -2.0625 C 0.972656 -1.988281 1.113281 -1.929688 1.3125 -1.890625 L 1.828125 -1.765625 C 2.097656 -1.691406 2.296875 -1.582031 2.421875 -1.4375 C 2.546875 -1.289062 2.609375 -1.101562 2.609375 -0.875 C 2.609375 -0.6875 2.5625 -0.519531 2.46875 -0.375 C 2.382812 -0.238281 2.253906 -0.128906 2.078125 -0.046875 C 1.898438 0.0234375 1.6875 0.0625 1.4375 0.0625 Z M 1.4375 0.0625 "/></g></g></g></g></g></svg>